G04 #@! TF.GenerationSoftware,KiCad,Pcbnew,(5.1.0)-1*
G04 #@! TF.CreationDate,2019-11-25T20:58:05-05:00*
G04 #@! TF.ProjectId,Christmas Ornament 2019,43687269-7374-46d6-9173-204f726e616d,rev?*
G04 #@! TF.SameCoordinates,Original*
G04 #@! TF.FileFunction,Profile,NP*
%FSLAX46Y46*%
G04 Gerber Fmt 4.6, Leading zero omitted, Abs format (unit mm)*
G04 Created by KiCad (PCBNEW (5.1.0)-1) date 2019-11-25 20:58:05*
%MOMM*%
%LPD*%
G04 APERTURE LIST*
%ADD10C,0.080000*%
G04 APERTURE END LIST*
D10*
X107925504Y-131067191D02*
X108045206Y-131067020D01*
X108045206Y-131067020D02*
X108127741Y-131066708D01*
X108127741Y-131066708D02*
X108210258Y-131066235D01*
X108210258Y-131066235D02*
X108325755Y-131065307D01*
X108325755Y-131065307D02*
X108408231Y-131064451D01*
X108408231Y-131064451D02*
X108507178Y-131063215D01*
X108507178Y-131063215D02*
X108589616Y-131062009D01*
X108589616Y-131062009D02*
X108672034Y-131060643D01*
X108672034Y-131060643D02*
X108762674Y-131058955D01*
X108762674Y-131058955D02*
X108853290Y-131057076D01*
X108853290Y-131057076D02*
X108935649Y-131055200D01*
X108935649Y-131055200D02*
X109026224Y-131052953D01*
X109026224Y-131052953D02*
X109116773Y-131050515D01*
X109116773Y-131050515D02*
X109199070Y-131048130D01*
X109199070Y-131048130D02*
X109281349Y-131045587D01*
X109281349Y-131045587D02*
X109371832Y-131042607D01*
X109371832Y-131042607D02*
X109454065Y-131039730D01*
X109454065Y-131039730D02*
X109544503Y-131036382D01*
X109544503Y-131036382D02*
X109626694Y-131033172D01*
X109626694Y-131033172D02*
X109708866Y-131029806D01*
X109708866Y-131029806D02*
X109791017Y-131026280D01*
X109791017Y-131026280D02*
X109873146Y-131022595D01*
X109873146Y-131022595D02*
X109963464Y-131018361D01*
X109963464Y-131018361D02*
X110045549Y-131014346D01*
X110045549Y-131014346D02*
X110144020Y-131009317D01*
X110144020Y-131009317D02*
X110226056Y-131004953D01*
X110226056Y-131004953D02*
X110324471Y-130999508D01*
X110324471Y-130999508D02*
X110406456Y-130994796D01*
X110406456Y-130994796D02*
X110488421Y-130989930D01*
X110488421Y-130989930D02*
X110611323Y-130982332D01*
X110611323Y-130982332D02*
X110693228Y-130977071D01*
X110693228Y-130977071D02*
X110775111Y-130971653D01*
X110775111Y-130971653D02*
X110873339Y-130964942D01*
X110873339Y-130964942D02*
X110955170Y-130959179D01*
X110955170Y-130959179D02*
X111053334Y-130952054D01*
X111053334Y-130952054D02*
X111135110Y-130945944D01*
X111135110Y-130945944D02*
X111225036Y-130939042D01*
X111225036Y-130939042D02*
X111347614Y-130929325D01*
X111347614Y-130929325D02*
X111429300Y-130922651D01*
X111429300Y-130922651D02*
X111510961Y-130915821D01*
X111510961Y-130915821D02*
X111592599Y-130908835D01*
X111592599Y-130908835D02*
X111674209Y-130901691D01*
X111674209Y-130901691D02*
X111772107Y-130892913D01*
X111772107Y-130892913D02*
X111845507Y-130886182D01*
X111845507Y-130886182D02*
X111918883Y-130879326D01*
X111918883Y-130879326D02*
X111992240Y-130872344D01*
X111992240Y-130872344D02*
X112106307Y-130861229D01*
X112106307Y-130861229D02*
X112195893Y-130852282D01*
X112195893Y-130852282D02*
X112277303Y-130843985D01*
X112277303Y-130843985D02*
X112350552Y-130836383D01*
X112350552Y-130836383D02*
X112440046Y-130826922D01*
X112440046Y-130826922D02*
X112513246Y-130819043D01*
X112513246Y-130819043D02*
X112586420Y-130811036D01*
X112586420Y-130811036D02*
X112659573Y-130802905D01*
X112659573Y-130802905D02*
X112732702Y-130794647D01*
X112732702Y-130794647D02*
X112813929Y-130785324D01*
X112813929Y-130785324D02*
X112895129Y-130775847D01*
X112895129Y-130775847D02*
X112968182Y-130767185D01*
X112968182Y-130767185D02*
X113041214Y-130758398D01*
X113041214Y-130758398D02*
X113114219Y-130749484D01*
X113114219Y-130749484D02*
X113187201Y-130740447D01*
X113187201Y-130740447D02*
X113260160Y-130731282D01*
X113260160Y-130731282D02*
X113333093Y-130721993D01*
X113333093Y-130721993D02*
X113406002Y-130712580D01*
X113406002Y-130712580D02*
X113478886Y-130703041D01*
X113478886Y-130703041D02*
X113567934Y-130691213D01*
X113567934Y-130691213D02*
X113673124Y-130676994D01*
X113673124Y-130676994D02*
X113754003Y-130665878D01*
X113754003Y-130665878D02*
X113834851Y-130654608D01*
X113834851Y-130654608D02*
X113907589Y-130644334D01*
X113907589Y-130644334D02*
X113980300Y-130633936D01*
X113980300Y-130633936D02*
X114069134Y-130621058D01*
X114069134Y-130621058D02*
X114149858Y-130609188D01*
X114149858Y-130609188D02*
X114230551Y-130597164D01*
X114230551Y-130597164D02*
X114311210Y-130584989D01*
X114311210Y-130584989D02*
X114391836Y-130572657D01*
X114391836Y-130572657D02*
X114472429Y-130560176D01*
X114472429Y-130560176D02*
X114544935Y-130548809D01*
X114544935Y-130548809D02*
X114617414Y-130537317D01*
X114617414Y-130537317D02*
X114697914Y-130524407D01*
X114697914Y-130524407D02*
X114778381Y-130511341D01*
X114778381Y-130511341D02*
X114858813Y-130498123D01*
X114858813Y-130498123D02*
X114963323Y-130480712D01*
X114963323Y-130480712D02*
X115035644Y-130468506D01*
X115035644Y-130468506D02*
X115115966Y-130454798D01*
X115115966Y-130454798D02*
X115204281Y-130439546D01*
X115204281Y-130439546D02*
X115276506Y-130426927D01*
X115276506Y-130426927D02*
X115364745Y-130411340D01*
X115364745Y-130411340D02*
X115436907Y-130398447D01*
X115436907Y-130398447D02*
X115509040Y-130385430D01*
X115509040Y-130385430D02*
X115597163Y-130369356D01*
X115597163Y-130369356D02*
X115677239Y-130354583D01*
X115677239Y-130354583D02*
X115757278Y-130339659D01*
X115757278Y-130339659D02*
X115829280Y-130326095D01*
X115829280Y-130326095D02*
X115901254Y-130312410D01*
X115901254Y-130312410D02*
X115989181Y-130295516D01*
X115989181Y-130295516D02*
X116077063Y-130278441D01*
X116077063Y-130278441D02*
X116156917Y-130262756D01*
X116156917Y-130262756D02*
X116260672Y-130242144D01*
X116260672Y-130242144D02*
X116348411Y-130224498D01*
X116348411Y-130224498D02*
X116428136Y-130208300D01*
X116428136Y-130208300D02*
X116515792Y-130190308D01*
X116515792Y-130190308D02*
X116603398Y-130172131D01*
X116603398Y-130172131D02*
X116682998Y-130155448D01*
X116682998Y-130155448D02*
X116754610Y-130140307D01*
X116754610Y-130140307D02*
X116826185Y-130125043D01*
X116826185Y-130125043D02*
X116897732Y-130109656D01*
X116897732Y-130109656D02*
X116969245Y-130094147D01*
X116969245Y-130094147D02*
X117048665Y-130076772D01*
X117048665Y-130076772D02*
X117120110Y-130061004D01*
X117120110Y-130061004D02*
X117199457Y-130043345D01*
X117199457Y-130043345D02*
X117270836Y-130027323D01*
X117270836Y-130027323D02*
X117342177Y-130011178D01*
X117342177Y-130011178D02*
X117421410Y-129993096D01*
X117421410Y-129993096D02*
X117500601Y-129974863D01*
X117500601Y-129974863D02*
X117571838Y-129958328D01*
X117571838Y-129958328D02*
X117658863Y-129937951D01*
X117658863Y-129937951D02*
X117730025Y-129921144D01*
X117730025Y-129921144D02*
X117809056Y-129902329D01*
X117809056Y-129902329D02*
X117880147Y-129885265D01*
X117880147Y-129885265D02*
X117959097Y-129866165D01*
X117959097Y-129866165D02*
X118038008Y-129846916D01*
X118038008Y-129846916D02*
X118116874Y-129827516D01*
X118116874Y-129827516D02*
X118187817Y-129809928D01*
X118187817Y-129809928D02*
X118258726Y-129792221D01*
X118258726Y-129792221D02*
X118345345Y-129770413D01*
X118345345Y-129770413D02*
X118416176Y-129752437D01*
X118416176Y-129752437D02*
X118502699Y-129730301D01*
X118502699Y-129730301D02*
X118581309Y-129710021D01*
X118581309Y-129710021D02*
X118675586Y-129685489D01*
X118675586Y-129685489D02*
X118769799Y-129660745D01*
X118769799Y-129660745D02*
X118840416Y-129642044D01*
X118840416Y-129642044D02*
X118981543Y-129604285D01*
X118981543Y-129604285D02*
X119083377Y-129576714D01*
X119083377Y-129576714D02*
X119153832Y-129557479D01*
X119153832Y-129557479D02*
X119224253Y-129538127D01*
X119224253Y-129538127D02*
X119294636Y-129518654D01*
X119294636Y-129518654D02*
X119372793Y-129496873D01*
X119372793Y-129496873D02*
X119435286Y-129479343D01*
X119435286Y-129479343D02*
X119497752Y-129461721D01*
X119497752Y-129461721D02*
X119567988Y-129441782D01*
X119567988Y-129441782D02*
X119630390Y-129423956D01*
X119630390Y-129423956D02*
X119700557Y-129403790D01*
X119700557Y-129403790D02*
X119770684Y-129383505D01*
X119770684Y-129383505D02*
X119848560Y-129360826D01*
X119848560Y-129360826D02*
X119910827Y-129342577D01*
X119910827Y-129342577D02*
X119988617Y-129319631D01*
X119988617Y-129319631D02*
X120058587Y-129298856D01*
X120058587Y-129298856D02*
X120124635Y-129279124D01*
X120124635Y-129279124D02*
X120198412Y-129256945D01*
X120198412Y-129256945D02*
X120264387Y-129236989D01*
X120264387Y-129236989D02*
X120338081Y-129214559D01*
X120338081Y-129214559D02*
X120407857Y-129193187D01*
X120407857Y-129193187D02*
X120469844Y-129174089D01*
X120469844Y-129174089D02*
X120531805Y-129154898D01*
X120531805Y-129154898D02*
X120601468Y-129133196D01*
X120601468Y-129133196D02*
X120678828Y-129108942D01*
X120678828Y-129108942D02*
X120763867Y-129082097D01*
X120763867Y-129082097D02*
X120833398Y-129059998D01*
X120833398Y-129059998D02*
X120895170Y-129040255D01*
X120895170Y-129040255D02*
X120964626Y-129017935D01*
X120964626Y-129017935D02*
X121026330Y-128997995D01*
X121026330Y-128997995D02*
X121095708Y-128975449D01*
X121095708Y-128975449D02*
X121157344Y-128955310D01*
X121157344Y-128955310D02*
X121226644Y-128932540D01*
X121226644Y-128932540D02*
X121303597Y-128907104D01*
X121303597Y-128907104D02*
X121392029Y-128877672D01*
X121392029Y-128877672D02*
X121472711Y-128850629D01*
X121472711Y-128850629D02*
X121549499Y-128824726D01*
X121549499Y-128824726D02*
X121610892Y-128803899D01*
X121610892Y-128803899D02*
X121687587Y-128777733D01*
X121687587Y-128777733D02*
X121748907Y-128756697D01*
X121748907Y-128756697D02*
X121817849Y-128732919D01*
X121817849Y-128732919D02*
X121894404Y-128706363D01*
X121894404Y-128706363D02*
X121963255Y-128682335D01*
X121963255Y-128682335D02*
X122039709Y-128655503D01*
X122039709Y-128655503D02*
X122116108Y-128628525D01*
X122116108Y-128628525D02*
X122192456Y-128601403D01*
X122192456Y-128601403D02*
X122264937Y-128575503D01*
X122264937Y-128575503D02*
X122371659Y-128537094D01*
X122371659Y-128537094D02*
X122436403Y-128513636D01*
X122436403Y-128513636D02*
X122520133Y-128483125D01*
X122520133Y-128483125D02*
X122596194Y-128455235D01*
X122596194Y-128455235D02*
X122672200Y-128427200D01*
X122672200Y-128427200D02*
X122770926Y-128390541D01*
X122770926Y-128390541D02*
X122831633Y-128367860D01*
X122831633Y-128367860D02*
X122907467Y-128339379D01*
X122907467Y-128339379D02*
X122968096Y-128316490D01*
X122968096Y-128316490D02*
X123028689Y-128293509D01*
X123028689Y-128293509D02*
X123104380Y-128264655D01*
X123104380Y-128264655D02*
X123164892Y-128241467D01*
X123164892Y-128241467D02*
X123248036Y-128209434D01*
X123248036Y-128209434D02*
X123308461Y-128186028D01*
X123308461Y-128186028D02*
X123399033Y-128150746D01*
X123399033Y-128150746D02*
X123497060Y-128112292D01*
X123497060Y-128112292D02*
X123557336Y-128088508D01*
X123557336Y-128088508D02*
X123632629Y-128058648D01*
X123632629Y-128058648D02*
X123692824Y-128034657D01*
X123692824Y-128034657D02*
X123760497Y-128007558D01*
X123760497Y-128007558D02*
X123843146Y-127974279D01*
X123843146Y-127974279D02*
X123903209Y-127949968D01*
X123903209Y-127949968D02*
X123970737Y-127922510D01*
X123970737Y-127922510D02*
X124030721Y-127898002D01*
X124030721Y-127898002D02*
X124135606Y-127854900D01*
X124135606Y-127854900D02*
X124195489Y-127830144D01*
X124195489Y-127830144D02*
X124255330Y-127805295D01*
X124255330Y-127805295D02*
X124322607Y-127777231D01*
X124322607Y-127777231D02*
X124382370Y-127752189D01*
X124382370Y-127752189D02*
X124464481Y-127717607D01*
X124464481Y-127717607D02*
X124524152Y-127692350D01*
X124524152Y-127692350D02*
X124591238Y-127663825D01*
X124591238Y-127663825D02*
X124650830Y-127638376D01*
X124650830Y-127638376D02*
X124732703Y-127603231D01*
X124732703Y-127603231D02*
X124795919Y-127575958D01*
X124795919Y-127575958D02*
X124859089Y-127548580D01*
X124859089Y-127548580D02*
X124918505Y-127522720D01*
X124918505Y-127522720D02*
X124977882Y-127496769D01*
X124977882Y-127496769D02*
X125044633Y-127467467D01*
X125044633Y-127467467D02*
X125118746Y-127434775D01*
X125118746Y-127434775D02*
X125177989Y-127408518D01*
X125177989Y-127408518D02*
X125237194Y-127382171D01*
X125237194Y-127382171D02*
X125311143Y-127349109D01*
X125311143Y-127349109D02*
X125377645Y-127319236D01*
X125377645Y-127319236D02*
X125447786Y-127287577D01*
X125447786Y-127287577D02*
X125510496Y-127259141D01*
X125510496Y-127259141D02*
X125569476Y-127232288D01*
X125569476Y-127232288D02*
X125628416Y-127205343D01*
X125628416Y-127205343D02*
X125687316Y-127178305D01*
X125687316Y-127178305D02*
X125768236Y-127140985D01*
X125768236Y-127140985D02*
X125827039Y-127113737D01*
X125827039Y-127113737D02*
X125885801Y-127086398D01*
X125885801Y-127086398D02*
X125944524Y-127058969D01*
X125944524Y-127058969D02*
X126006871Y-127029728D01*
X126006871Y-127029728D02*
X126061845Y-127003842D01*
X126061845Y-127003842D02*
X126124104Y-126974408D01*
X126124104Y-126974408D02*
X126179000Y-126948354D01*
X126179000Y-126948354D02*
X126259448Y-126909998D01*
X126259448Y-126909998D02*
X126317908Y-126881996D01*
X126317908Y-126881996D02*
X126376324Y-126853904D01*
X126376324Y-126853904D02*
X126434700Y-126825723D01*
X126434700Y-126825723D02*
X126493034Y-126797452D01*
X126493034Y-126797452D02*
X126551326Y-126769092D01*
X126551326Y-126769092D02*
X126609574Y-126740642D01*
X126609574Y-126740642D02*
X126667782Y-126712103D01*
X126667782Y-126712103D02*
X126733215Y-126679890D01*
X126733215Y-126679890D02*
X126791334Y-126651162D01*
X126791334Y-126651162D02*
X126849409Y-126622343D01*
X126849409Y-126622343D02*
X126907442Y-126593435D01*
X126907442Y-126593435D02*
X126965432Y-126564439D01*
X126965432Y-126564439D02*
X127023380Y-126535355D01*
X127023380Y-126535355D02*
X127095752Y-126498870D01*
X127095752Y-126498870D02*
X127157217Y-126467751D01*
X127157217Y-126467751D02*
X127211411Y-126440210D01*
X127211411Y-126440210D02*
X127269176Y-126410745D01*
X127269176Y-126410745D02*
X127326895Y-126381192D01*
X127326895Y-126381192D02*
X127391780Y-126347838D01*
X127391780Y-126347838D02*
X127449408Y-126318098D01*
X127449408Y-126318098D02*
X127506993Y-126288268D01*
X127506993Y-126288268D02*
X127571723Y-126254602D01*
X127571723Y-126254602D02*
X127636397Y-126220822D01*
X127636397Y-126220822D02*
X127693839Y-126190705D01*
X127693839Y-126190705D02*
X127765580Y-126152932D01*
X127765580Y-126152932D02*
X127822923Y-126122615D01*
X127822923Y-126122615D02*
X127880221Y-126092209D01*
X127880221Y-126092209D02*
X127944630Y-126057896D01*
X127944630Y-126057896D02*
X128008979Y-126023469D01*
X128008979Y-126023469D02*
X128073272Y-125988933D01*
X128073272Y-125988933D02*
X128137510Y-125954283D01*
X128137510Y-125954283D02*
X128201690Y-125919523D01*
X128201690Y-125919523D02*
X128265814Y-125884650D01*
X128265814Y-125884650D02*
X128329880Y-125849668D01*
X128329880Y-125849668D02*
X128386781Y-125818478D01*
X128386781Y-125818478D02*
X128457840Y-125779365D01*
X128457840Y-125779365D02*
X128521734Y-125744048D01*
X128521734Y-125744048D02*
X128585568Y-125708618D01*
X128585568Y-125708618D02*
X128649348Y-125673078D01*
X128649348Y-125673078D02*
X128713068Y-125637426D01*
X128713068Y-125637426D02*
X128776728Y-125601663D01*
X128776728Y-125601663D02*
X128840334Y-125565790D01*
X128840334Y-125565790D02*
X128903877Y-125529805D01*
X128903877Y-125529805D02*
X128981461Y-125485672D01*
X128981461Y-125485672D02*
X129037834Y-125453471D01*
X129037834Y-125453471D02*
X129101196Y-125417142D01*
X129101196Y-125417142D02*
X129171527Y-125376645D01*
X129171527Y-125376645D02*
X129234763Y-125340082D01*
X129234763Y-125340082D02*
X129297942Y-125303409D01*
X129297942Y-125303409D02*
X129375075Y-125258433D01*
X129375075Y-125258433D02*
X129431118Y-125225620D01*
X129431118Y-125225620D02*
X129515092Y-125176239D01*
X129515092Y-125176239D02*
X129571015Y-125143209D01*
X129571015Y-125143209D02*
X129647833Y-125097650D01*
X129647833Y-125097650D02*
X129710615Y-125060254D01*
X129710615Y-125060254D02*
X129773340Y-125022745D01*
X129773340Y-125022745D02*
X129835999Y-124985127D01*
X129835999Y-124985127D02*
X129891646Y-124951596D01*
X129891646Y-124951596D02*
X129947246Y-124917978D01*
X129947246Y-124917978D02*
X130002798Y-124884274D01*
X130002798Y-124884274D02*
X130065236Y-124846253D01*
X130065236Y-124846253D02*
X130127610Y-124808122D01*
X130127610Y-124808122D02*
X130189927Y-124769883D01*
X130189927Y-124769883D02*
X130245264Y-124735797D01*
X130245264Y-124735797D02*
X130300554Y-124701627D01*
X130300554Y-124701627D02*
X130355793Y-124667370D01*
X130355793Y-124667370D02*
X130410986Y-124633028D01*
X130410986Y-124633028D02*
X130473017Y-124594287D01*
X130473017Y-124594287D02*
X130528105Y-124559760D01*
X130528105Y-124559760D02*
X130596891Y-124516480D01*
X130596891Y-124516480D02*
X130665602Y-124473065D01*
X130665602Y-124473065D02*
X130734235Y-124429515D01*
X130734235Y-124429515D02*
X130789086Y-124394577D01*
X130789086Y-124394577D02*
X130850734Y-124355171D01*
X130850734Y-124355171D02*
X130919155Y-124311256D01*
X130919155Y-124311256D02*
X130994329Y-124262796D01*
X130994329Y-124262796D02*
X131062587Y-124218602D01*
X131062587Y-124218602D02*
X131130765Y-124174270D01*
X131130765Y-124174270D02*
X131185252Y-124138709D01*
X131185252Y-124138709D02*
X131260085Y-124089673D01*
X131260085Y-124089673D02*
X131321242Y-124049431D01*
X131321242Y-124049431D02*
X131395903Y-124000101D01*
X131395903Y-124000101D02*
X131456917Y-123959620D01*
X131456917Y-123959620D02*
X131511098Y-123923546D01*
X131511098Y-123923546D02*
X131565225Y-123887382D01*
X131565225Y-123887382D02*
X131626057Y-123846599D01*
X131626057Y-123846599D02*
X131707064Y-123792053D01*
X131707064Y-123792053D02*
X131774483Y-123746452D01*
X131774483Y-123746452D02*
X131855276Y-123691553D01*
X131855276Y-123691553D02*
X131935955Y-123636465D01*
X131935955Y-123636465D02*
X131989674Y-123599630D01*
X131989674Y-123599630D02*
X132056748Y-123553468D01*
X132056748Y-123553468D02*
X132110350Y-123516443D01*
X132110350Y-123516443D02*
X132170589Y-123474688D01*
X132170589Y-123474688D02*
X132237443Y-123428168D01*
X132237443Y-123428168D02*
X132290867Y-123390856D01*
X132290867Y-123390856D02*
X132344238Y-123353461D01*
X132344238Y-123353461D02*
X132417536Y-123301901D01*
X132417536Y-123301901D02*
X132497381Y-123245471D01*
X132497381Y-123245471D02*
X132577110Y-123188851D01*
X132577110Y-123188851D02*
X132656716Y-123132039D01*
X132656716Y-123132039D02*
X132716342Y-123089306D01*
X132716342Y-123089306D02*
X132775899Y-123046467D01*
X132775899Y-123046467D02*
X132828782Y-123008297D01*
X132828782Y-123008297D02*
X132908004Y-122950883D01*
X132908004Y-122950883D02*
X132960752Y-122912501D01*
X132960752Y-122912501D02*
X133039771Y-122854772D01*
X133039771Y-122854772D02*
X133118669Y-122796852D01*
X133118669Y-122796852D02*
X133171198Y-122758134D01*
X133171198Y-122758134D02*
X133243337Y-122704760D01*
X133243337Y-122704760D02*
X133295736Y-122665840D01*
X133295736Y-122665840D02*
X133348080Y-122626837D01*
X133348080Y-122626837D02*
X133400369Y-122587751D01*
X133400369Y-122587751D02*
X133452603Y-122548581D01*
X133452603Y-122548581D02*
X133511300Y-122504413D01*
X133511300Y-122504413D02*
X133563417Y-122465064D01*
X133563417Y-122465064D02*
X133608975Y-122430565D01*
X133608975Y-122430565D02*
X133654489Y-122396001D01*
X133654489Y-122396001D02*
X133719435Y-122346514D01*
X133719435Y-122346514D02*
X133771329Y-122306829D01*
X133771329Y-122306829D02*
X133823167Y-122267061D01*
X133823167Y-122267061D02*
X133874949Y-122227209D01*
X133874949Y-122227209D02*
X133920213Y-122192271D01*
X133920213Y-122192271D02*
X133965433Y-122157269D01*
X133965433Y-122157269D02*
X134010610Y-122122203D01*
X134010610Y-122122203D02*
X134062189Y-122082047D01*
X134062189Y-122082047D02*
X134107273Y-122046844D01*
X134107273Y-122046844D02*
X134152314Y-122011576D01*
X134152314Y-122011576D02*
X134197312Y-121976244D01*
X134197312Y-121976244D02*
X134242266Y-121940849D01*
X134242266Y-121940849D02*
X134287176Y-121905390D01*
X134287176Y-121905390D02*
X134332042Y-121869867D01*
X134332042Y-121869867D02*
X134376866Y-121834281D01*
X134376866Y-121834281D02*
X134421646Y-121798632D01*
X134421646Y-121798632D02*
X134466383Y-121762918D01*
X134466383Y-121762918D02*
X134517454Y-121722024D01*
X134517454Y-121722024D02*
X134568469Y-121681047D01*
X134568469Y-121681047D02*
X134613061Y-121645125D01*
X134613061Y-121645125D02*
X134657607Y-121609139D01*
X134657607Y-121609139D02*
X134702109Y-121573088D01*
X134702109Y-121573088D02*
X134746569Y-121536974D01*
X134746569Y-121536974D02*
X134797324Y-121495625D01*
X134797324Y-121495625D02*
X134854355Y-121449008D01*
X134854355Y-121449008D02*
X134911311Y-121402286D01*
X134911311Y-121402286D02*
X134955559Y-121365873D01*
X134955559Y-121365873D02*
X135006073Y-121324181D01*
X135006073Y-121324181D02*
X135050226Y-121287633D01*
X135050226Y-121287633D02*
X135094333Y-121251022D01*
X135094333Y-121251022D02*
X135150977Y-121203858D01*
X135150977Y-121203858D02*
X135201265Y-121161846D01*
X135201265Y-121161846D02*
X135251495Y-121119752D01*
X135251495Y-121119752D02*
X135301664Y-121077575D01*
X135301664Y-121077575D02*
X135358034Y-121030029D01*
X135358034Y-121030029D02*
X135408078Y-120987678D01*
X135408078Y-120987678D02*
X135458063Y-120945244D01*
X135458063Y-120945244D02*
X135507988Y-120902728D01*
X135507988Y-120902728D02*
X135557854Y-120860129D01*
X135557854Y-120860129D02*
X135607659Y-120817450D01*
X135607659Y-120817450D02*
X135651191Y-120780038D01*
X135651191Y-120780038D02*
X135694676Y-120742562D01*
X135694676Y-120742562D02*
X135738115Y-120705024D01*
X135738115Y-120705024D02*
X135781508Y-120667422D01*
X135781508Y-120667422D02*
X135824856Y-120629758D01*
X135824856Y-120629758D02*
X135886703Y-120575844D01*
X135886703Y-120575844D02*
X135936110Y-120532621D01*
X135936110Y-120532621D02*
X136010109Y-120467633D01*
X136010109Y-120467633D02*
X136053212Y-120429638D01*
X136053212Y-120429638D02*
X136114707Y-120375251D01*
X136114707Y-120375251D02*
X136176106Y-120320736D01*
X136176106Y-120320736D02*
X136225157Y-120277032D01*
X136225157Y-120277032D02*
X136286385Y-120222289D01*
X136286385Y-120222289D02*
X136341408Y-120172910D01*
X136341408Y-120172910D02*
X136396354Y-120123427D01*
X136396354Y-120123427D02*
X136439037Y-120084871D01*
X136439037Y-120084871D02*
X136481671Y-120046251D01*
X136481671Y-120046251D02*
X136524258Y-120007569D01*
X136524258Y-120007569D02*
X136566798Y-119968825D01*
X136566798Y-119968825D02*
X136609289Y-119930019D01*
X136609289Y-119930019D02*
X136651737Y-119891152D01*
X136651737Y-119891152D02*
X136694134Y-119852220D01*
X136694134Y-119852220D02*
X136760662Y-119790918D01*
X136760662Y-119790918D02*
X136802938Y-119751828D01*
X136802938Y-119751828D02*
X136845166Y-119712677D01*
X136845166Y-119712677D02*
X136887346Y-119673462D01*
X136887346Y-119673462D02*
X136947520Y-119617333D01*
X136947520Y-119617333D02*
X137007596Y-119561079D01*
X137007596Y-119561079D02*
X137079558Y-119493409D01*
X137079558Y-119493409D02*
X137139417Y-119436877D01*
X137139417Y-119436877D02*
X137199178Y-119380218D01*
X137199178Y-119380218D02*
X137270761Y-119312062D01*
X137270761Y-119312062D02*
X137330305Y-119255126D01*
X137330305Y-119255126D02*
X137377868Y-119209486D01*
X137377868Y-119209486D02*
X137419435Y-119169487D01*
X137419435Y-119169487D02*
X137472803Y-119117967D01*
X137472803Y-119117967D02*
X137520175Y-119072086D01*
X137520175Y-119072086D02*
X137567483Y-119026127D01*
X137567483Y-119026127D02*
X137614728Y-118980087D01*
X137614728Y-118980087D02*
X137661907Y-118933963D01*
X137661907Y-118933963D02*
X137703138Y-118893542D01*
X137703138Y-118893542D02*
X137744318Y-118853058D01*
X137744318Y-118853058D02*
X137791321Y-118806718D01*
X137791321Y-118806718D02*
X137838258Y-118760295D01*
X137838258Y-118760295D02*
X137902693Y-118696334D01*
X137902693Y-118696334D02*
X137943633Y-118655553D01*
X137943633Y-118655553D02*
X137981607Y-118617633D01*
X137981607Y-118617633D02*
X138025358Y-118573814D01*
X138025358Y-118573814D02*
X138089400Y-118509445D01*
X138089400Y-118509445D02*
X138135881Y-118462556D01*
X138135881Y-118462556D02*
X138182284Y-118415601D01*
X138182284Y-118415601D02*
X138228605Y-118368582D01*
X138228605Y-118368582D02*
X138297937Y-118297933D01*
X138297937Y-118297933D02*
X138338299Y-118256655D01*
X138338299Y-118256655D02*
X138378597Y-118215327D01*
X138378597Y-118215327D02*
X138436060Y-118156201D01*
X138436060Y-118156201D02*
X138481941Y-118108829D01*
X138481941Y-118108829D02*
X138522021Y-118067326D01*
X138522021Y-118067326D02*
X138562039Y-118025775D01*
X138562039Y-118025775D02*
X138607698Y-117978227D01*
X138607698Y-117978227D02*
X138647583Y-117936572D01*
X138647583Y-117936572D02*
X138710137Y-117871014D01*
X138710137Y-117871014D02*
X138766871Y-117811312D01*
X138766871Y-117811312D02*
X138823479Y-117751511D01*
X138823479Y-117751511D02*
X138891241Y-117679620D01*
X138891241Y-117679620D02*
X138947570Y-117619603D01*
X138947570Y-117619603D02*
X139003773Y-117559488D01*
X139003773Y-117559488D02*
X139071052Y-117487221D01*
X139071052Y-117487221D02*
X139115802Y-117438964D01*
X139115802Y-117438964D02*
X139154892Y-117396688D01*
X139154892Y-117396688D02*
X139193920Y-117354364D01*
X139193920Y-117354364D02*
X139244009Y-117299880D01*
X139244009Y-117299880D02*
X139293993Y-117245315D01*
X139293993Y-117245315D02*
X139332799Y-117202824D01*
X139332799Y-117202824D02*
X139371543Y-117160284D01*
X139371543Y-117160284D02*
X139410225Y-117117697D01*
X139410225Y-117117697D02*
X139448845Y-117075063D01*
X139448845Y-117075063D02*
X139487401Y-117032380D01*
X139487401Y-117032380D02*
X139525897Y-116989653D01*
X139525897Y-116989653D02*
X139564329Y-116946876D01*
X139564329Y-116946876D02*
X139608177Y-116897932D01*
X139608177Y-116897932D02*
X139662868Y-116836665D01*
X139662868Y-116836665D02*
X139717434Y-116775304D01*
X139717434Y-116775304D02*
X139760995Y-116726145D01*
X139760995Y-116726145D02*
X139804474Y-116676928D01*
X139804474Y-116676928D02*
X139864123Y-116609153D01*
X139864123Y-116609153D02*
X139907408Y-116559790D01*
X139907408Y-116559790D02*
X139972183Y-116485632D01*
X139972183Y-116485632D02*
X140015262Y-116436117D01*
X140015262Y-116436117D02*
X140058261Y-116386544D01*
X140058261Y-116386544D02*
X140101177Y-116336911D01*
X140101177Y-116336911D02*
X140144012Y-116287217D01*
X140144012Y-116287217D02*
X140181425Y-116243685D01*
X140181425Y-116243685D02*
X140224104Y-116193880D01*
X140224104Y-116193880D02*
X140266703Y-116144014D01*
X140266703Y-116144014D02*
X140309219Y-116094089D01*
X140309219Y-116094089D02*
X140346354Y-116050356D01*
X140346354Y-116050356D02*
X140383425Y-116006576D01*
X140383425Y-116006576D02*
X140420432Y-115962752D01*
X140420432Y-115962752D02*
X140457377Y-115918884D01*
X140457377Y-115918884D02*
X140504785Y-115862413D01*
X140504785Y-115862413D02*
X140541584Y-115818440D01*
X140541584Y-115818440D02*
X140594048Y-115755545D01*
X140594048Y-115755545D02*
X140635927Y-115705162D01*
X140635927Y-115705162D02*
X140677721Y-115654720D01*
X140677721Y-115654720D02*
X140714223Y-115610534D01*
X140714223Y-115610534D02*
X140755863Y-115559984D01*
X140755863Y-115559984D02*
X140797421Y-115509375D01*
X140797421Y-115509375D02*
X140838894Y-115458706D01*
X140838894Y-115458706D02*
X140875116Y-115414323D01*
X140875116Y-115414323D02*
X140916434Y-115363546D01*
X140916434Y-115363546D02*
X140962820Y-115306353D01*
X140962820Y-115306353D02*
X141003963Y-115255453D01*
X141003963Y-115255453D02*
X141045022Y-115204495D01*
X141045022Y-115204495D02*
X141080881Y-115159860D01*
X141080881Y-115159860D02*
X141116677Y-115115181D01*
X141116677Y-115115181D02*
X141157508Y-115064066D01*
X141157508Y-115064066D02*
X141193166Y-115019292D01*
X141193166Y-115019292D02*
X141228761Y-114974475D01*
X141228761Y-114974475D02*
X141264294Y-114929614D01*
X141264294Y-114929614D02*
X141304824Y-114878292D01*
X141304824Y-114878292D02*
X141340219Y-114833338D01*
X141340219Y-114833338D02*
X141375551Y-114788340D01*
X141375551Y-114788340D02*
X141410819Y-114743299D01*
X141410819Y-114743299D02*
X141446022Y-114698215D01*
X141446022Y-114698215D02*
X141486178Y-114646636D01*
X141486178Y-114646636D02*
X141521244Y-114601459D01*
X141521244Y-114601459D02*
X141556246Y-114556239D01*
X141556246Y-114556239D02*
X141591184Y-114510975D01*
X141591184Y-114510975D02*
X141631036Y-114459193D01*
X141631036Y-114459193D02*
X141665838Y-114413838D01*
X141665838Y-114413838D02*
X141700576Y-114368441D01*
X141700576Y-114368441D02*
X141735250Y-114323000D01*
X141735250Y-114323000D02*
X141769859Y-114277516D01*
X141769859Y-114277516D02*
X141804403Y-114231989D01*
X141804403Y-114231989D02*
X141838884Y-114186420D01*
X141838884Y-114186420D02*
X141892939Y-114114727D01*
X141892939Y-114114727D02*
X141932152Y-114062521D01*
X141932152Y-114062521D02*
X141990812Y-113984106D01*
X141990812Y-113984106D02*
X142029815Y-113931762D01*
X142029815Y-113931762D02*
X142068735Y-113879363D01*
X142068735Y-113879363D02*
X142117264Y-113813786D01*
X142117264Y-113813786D02*
X142155992Y-113761263D01*
X142155992Y-113761263D02*
X142199461Y-113702110D01*
X142199461Y-113702110D02*
X142242825Y-113642889D01*
X142242825Y-113642889D02*
X142281278Y-113590189D01*
X142281278Y-113590189D02*
X142338804Y-113511036D01*
X142338804Y-113511036D02*
X142381822Y-113451593D01*
X142381822Y-113451593D02*
X142424734Y-113392080D01*
X142424734Y-113392080D02*
X142462787Y-113339123D01*
X142462787Y-113339123D02*
X142524443Y-113252953D01*
X142524443Y-113252953D02*
X142576441Y-113179930D01*
X142576441Y-113179930D02*
X142632982Y-113100154D01*
X142632982Y-113100154D02*
X142689332Y-113020258D01*
X142689332Y-113020258D02*
X142726792Y-112966926D01*
X142726792Y-112966926D02*
X142773499Y-112900189D01*
X142773499Y-112900189D02*
X142815421Y-112840053D01*
X142815421Y-112840053D02*
X142861875Y-112773158D01*
X142861875Y-112773158D02*
X142912820Y-112699478D01*
X142912820Y-112699478D02*
X142963606Y-112625701D01*
X142963606Y-112625701D02*
X143000441Y-112571982D01*
X143000441Y-112571982D02*
X143041774Y-112511484D01*
X143041774Y-112511484D02*
X143078428Y-112457653D01*
X143078428Y-112457653D02*
X143128684Y-112383551D01*
X143128684Y-112383551D02*
X143178780Y-112309352D01*
X143178780Y-112309352D02*
X143233246Y-112228295D01*
X143233246Y-112228295D02*
X143278488Y-112160660D01*
X143278488Y-112160660D02*
X143323596Y-112092944D01*
X143323596Y-112092944D02*
X143364077Y-112031930D01*
X143364077Y-112031930D02*
X143404451Y-111970850D01*
X143404451Y-111970850D02*
X143440248Y-111916505D01*
X143440248Y-111916505D02*
X143480415Y-111855305D01*
X143480415Y-111855305D02*
X143516030Y-111800852D01*
X143516030Y-111800852D02*
X143555995Y-111739530D01*
X143555995Y-111739530D02*
X143595850Y-111678144D01*
X143595850Y-111678144D02*
X143644414Y-111603032D01*
X143644414Y-111603032D02*
X143697206Y-111520981D01*
X143697206Y-111520981D02*
X143741053Y-111452519D01*
X143741053Y-111452519D02*
X143793491Y-111370262D01*
X143793491Y-111370262D02*
X143832692Y-111308495D01*
X143832692Y-111308495D02*
X143867447Y-111253541D01*
X143867447Y-111253541D02*
X143902113Y-111198534D01*
X143902113Y-111198534D02*
X143949639Y-111122820D01*
X143949639Y-111122820D02*
X143988404Y-111060803D01*
X143988404Y-111060803D02*
X144022768Y-111005623D01*
X144022768Y-111005623D02*
X144061326Y-110943489D01*
X144061326Y-110943489D02*
X144099773Y-110881291D01*
X144099773Y-110881291D02*
X144133859Y-110825954D01*
X144133859Y-110825954D02*
X144172098Y-110763637D01*
X144172098Y-110763637D02*
X144210230Y-110701263D01*
X144210230Y-110701263D02*
X144248251Y-110638825D01*
X144248251Y-110638825D02*
X144281955Y-110583273D01*
X144281955Y-110583273D02*
X144315573Y-110527673D01*
X144315573Y-110527673D02*
X144349104Y-110472026D01*
X144349104Y-110472026D02*
X144386722Y-110409367D01*
X144386722Y-110409367D02*
X144420068Y-110353615D01*
X144420068Y-110353615D02*
X144461628Y-110283860D01*
X144461628Y-110283860D02*
X144494777Y-110228001D01*
X144494777Y-110228001D02*
X144540217Y-110151119D01*
X144540217Y-110151119D02*
X144577272Y-110088149D01*
X144577272Y-110088149D02*
X144614216Y-110025117D01*
X144614216Y-110025117D02*
X144655137Y-109955014D01*
X144655137Y-109955014D02*
X144685737Y-109902387D01*
X144685737Y-109902387D02*
X144716260Y-109849718D01*
X144716260Y-109849718D02*
X144752786Y-109786463D01*
X144752786Y-109786463D02*
X144793243Y-109716109D01*
X144793243Y-109716109D02*
X144829536Y-109652726D01*
X144829536Y-109652726D02*
X144865717Y-109589286D01*
X144865717Y-109589286D02*
X144901789Y-109525788D01*
X144901789Y-109525788D02*
X144937750Y-109462232D01*
X144937750Y-109462232D02*
X144977575Y-109391541D01*
X144977575Y-109391541D02*
X145017263Y-109320782D01*
X145017263Y-109320782D02*
X145048916Y-109264122D01*
X145048916Y-109264122D02*
X145088356Y-109193232D01*
X145088356Y-109193232D02*
X145123736Y-109129370D01*
X145123736Y-109129370D02*
X145159005Y-109065453D01*
X145159005Y-109065453D02*
X145194162Y-109001475D01*
X145194162Y-109001475D02*
X145229207Y-108937440D01*
X145229207Y-108937440D02*
X145264141Y-108873348D01*
X145264141Y-108873348D02*
X145298965Y-108809201D01*
X145298965Y-108809201D02*
X145333675Y-108744994D01*
X145333675Y-108744994D02*
X145368275Y-108680731D01*
X145368275Y-108680731D02*
X145397022Y-108627137D01*
X145397022Y-108627137D02*
X145433322Y-108559193D01*
X145433322Y-108559193D02*
X145463796Y-108501927D01*
X145463796Y-108501927D02*
X145497972Y-108437452D01*
X145497972Y-108437452D02*
X145532035Y-108372920D01*
X145532035Y-108372920D02*
X145565987Y-108308330D01*
X145565987Y-108308330D02*
X145599827Y-108243687D01*
X145599827Y-108243687D02*
X145629814Y-108186179D01*
X145629814Y-108186179D02*
X145659712Y-108128628D01*
X145659712Y-108128628D02*
X145693239Y-108063830D01*
X145693239Y-108063830D02*
X145722947Y-108006185D01*
X145722947Y-108006185D02*
X145756263Y-107941282D01*
X145756263Y-107941282D02*
X145785784Y-107883546D01*
X145785784Y-107883546D02*
X145818886Y-107818539D01*
X145818886Y-107818539D02*
X145848217Y-107760710D01*
X145848217Y-107760710D02*
X145877458Y-107702838D01*
X145877458Y-107702838D02*
X145910250Y-107637681D01*
X145910250Y-107637681D02*
X145942926Y-107572469D01*
X145942926Y-107572469D02*
X145971878Y-107514458D01*
X145971878Y-107514458D02*
X146000741Y-107456403D01*
X146000741Y-107456403D02*
X146029515Y-107398306D01*
X146029515Y-107398306D02*
X146058198Y-107340167D01*
X146058198Y-107340167D02*
X146086793Y-107281986D01*
X146086793Y-107281986D02*
X146115299Y-107223763D01*
X146115299Y-107223763D02*
X146143715Y-107165498D01*
X146143715Y-107165498D02*
X146175576Y-107099898D01*
X146175576Y-107099898D02*
X146207324Y-107034246D01*
X146207324Y-107034246D02*
X146235450Y-106975845D01*
X146235450Y-106975845D02*
X146263485Y-106917402D01*
X146263485Y-106917402D02*
X146291430Y-106858917D01*
X146291430Y-106858917D02*
X146329710Y-106778434D01*
X146329710Y-106778434D02*
X146357443Y-106719853D01*
X146357443Y-106719853D02*
X146385086Y-106661227D01*
X146385086Y-106661227D02*
X146414358Y-106598893D01*
X146414358Y-106598893D02*
X146440101Y-106543855D01*
X146440101Y-106543855D02*
X146469181Y-106481435D01*
X146469181Y-106481435D02*
X146494756Y-106426319D01*
X146494756Y-106426319D02*
X146528732Y-106352777D01*
X146528732Y-106352777D02*
X146559191Y-106286536D01*
X146559191Y-106286536D02*
X146592903Y-106212873D01*
X146592903Y-106212873D02*
X146623119Y-106146523D01*
X146623119Y-106146523D02*
X146651555Y-106083813D01*
X146651555Y-106083813D02*
X146676559Y-106028443D01*
X146676559Y-106028443D02*
X146706459Y-105961952D01*
X146706459Y-105961952D02*
X146732942Y-105902808D01*
X146732942Y-105902808D02*
X146759334Y-105843624D01*
X146759334Y-105843624D02*
X146785637Y-105784401D01*
X146785637Y-105784401D02*
X146811847Y-105725136D01*
X146811847Y-105725136D02*
X146844483Y-105650999D01*
X146844483Y-105650999D02*
X146870490Y-105591648D01*
X146870490Y-105591648D02*
X146906102Y-105509975D01*
X146906102Y-105509975D02*
X146931895Y-105450530D01*
X146931895Y-105450530D02*
X146957596Y-105391046D01*
X146957596Y-105391046D02*
X146983206Y-105331524D01*
X146983206Y-105331524D02*
X147011908Y-105264514D01*
X147011908Y-105264514D02*
X147037326Y-105204909D01*
X147037326Y-105204909D02*
X147072125Y-105122889D01*
X147072125Y-105122889D02*
X147106754Y-105040799D01*
X147106754Y-105040799D02*
X147131830Y-104981050D01*
X147131830Y-104981050D02*
X147163047Y-104906311D01*
X147163047Y-104906311D02*
X147194123Y-104831516D01*
X147194123Y-104831516D02*
X147218879Y-104771633D01*
X147218879Y-104771633D02*
X147243545Y-104711713D01*
X147243545Y-104711713D02*
X147271182Y-104644259D01*
X147271182Y-104644259D02*
X147297181Y-104580510D01*
X147297181Y-104580510D02*
X147323074Y-104516716D01*
X147323074Y-104516716D02*
X147350379Y-104449127D01*
X147350379Y-104449127D02*
X147380584Y-104373972D01*
X147380584Y-104373972D02*
X147410643Y-104298759D01*
X147410643Y-104298759D02*
X147436082Y-104234782D01*
X147436082Y-104234782D02*
X147464391Y-104163230D01*
X147464391Y-104163230D02*
X147505873Y-104057691D01*
X147505873Y-104057691D02*
X147529451Y-103997332D01*
X147529451Y-103997332D02*
X147555867Y-103929385D01*
X147555867Y-103929385D02*
X147585083Y-103853837D01*
X147585083Y-103853837D02*
X147625740Y-103747973D01*
X147625740Y-103747973D02*
X147648847Y-103687429D01*
X147648847Y-103687429D02*
X147671864Y-103626850D01*
X147671864Y-103626850D02*
X147694786Y-103566235D01*
X147694786Y-103566235D02*
X147723310Y-103490417D01*
X147723310Y-103490417D02*
X147746024Y-103429723D01*
X147746024Y-103429723D02*
X147771471Y-103361399D01*
X147771471Y-103361399D02*
X147799605Y-103285431D01*
X147799605Y-103285431D02*
X147827596Y-103209408D01*
X147827596Y-103209408D02*
X147858220Y-103125721D01*
X147858220Y-103125721D02*
X147880380Y-103064815D01*
X147880380Y-103064815D02*
X147918941Y-102958150D01*
X147918941Y-102958150D02*
X147946311Y-102881895D01*
X147946311Y-102881895D02*
X147973534Y-102805584D01*
X147973534Y-102805584D02*
X148000613Y-102729221D01*
X148000613Y-102729221D02*
X148027548Y-102652806D01*
X148027548Y-102652806D02*
X148051664Y-102583986D01*
X148051664Y-102583986D02*
X148096898Y-102453876D01*
X148096898Y-102453876D02*
X148120676Y-102384934D01*
X148120676Y-102384934D02*
X148141712Y-102323614D01*
X148141712Y-102323614D02*
X148162657Y-102262262D01*
X148162657Y-102262262D02*
X148188705Y-102185526D01*
X148188705Y-102185526D02*
X148212025Y-102116419D01*
X148212025Y-102116419D02*
X148237797Y-102039586D01*
X148237797Y-102039586D02*
X148263424Y-101962700D01*
X148263424Y-101962700D02*
X148286363Y-101893459D01*
X148286363Y-101893459D02*
X148306653Y-101831875D01*
X148306653Y-101831875D02*
X148326850Y-101770261D01*
X148326850Y-101770261D02*
X148349463Y-101700905D01*
X148349463Y-101700905D02*
X148374446Y-101623794D01*
X148374446Y-101623794D02*
X148394328Y-101562071D01*
X148394328Y-101562071D02*
X148414117Y-101500315D01*
X148414117Y-101500315D02*
X148436270Y-101430802D01*
X148436270Y-101430802D02*
X148458301Y-101361247D01*
X148458301Y-101361247D02*
X148482640Y-101283917D01*
X148482640Y-101283917D02*
X148502007Y-101222019D01*
X148502007Y-101222019D02*
X148526084Y-101144600D01*
X148526084Y-101144600D02*
X148545241Y-101082630D01*
X148545241Y-101082630D02*
X148564303Y-101020630D01*
X148564303Y-101020630D02*
X148585635Y-100950842D01*
X148585635Y-100950842D02*
X148604497Y-100888775D01*
X148604497Y-100888775D02*
X148627942Y-100811147D01*
X148627942Y-100811147D02*
X148648917Y-100741241D01*
X148648917Y-100741241D02*
X148667462Y-100679071D01*
X148667462Y-100679071D02*
X148690509Y-100601312D01*
X148690509Y-100601312D02*
X148711126Y-100531290D01*
X148711126Y-100531290D02*
X148731625Y-100461230D01*
X148731625Y-100461230D02*
X148758769Y-100367758D01*
X148758769Y-100367758D02*
X148776748Y-100305405D01*
X148776748Y-100305405D02*
X148799088Y-100227421D01*
X148799088Y-100227421D02*
X148819068Y-100157196D01*
X148819068Y-100157196D02*
X148836726Y-100094742D01*
X148836726Y-100094742D02*
X148858668Y-100016634D01*
X148858668Y-100016634D02*
X148882634Y-99930664D01*
X148882634Y-99930664D02*
X148902107Y-99860281D01*
X148902107Y-99860281D02*
X148921459Y-99789860D01*
X148921459Y-99789860D02*
X148940694Y-99719405D01*
X148940694Y-99719405D02*
X148964039Y-99633242D01*
X148964039Y-99633242D02*
X148989302Y-99539185D01*
X148989302Y-99539185D02*
X149012270Y-99452909D01*
X149012270Y-99452909D02*
X149037124Y-99358729D01*
X149037124Y-99358729D02*
X149058694Y-99276268D01*
X149058694Y-99276268D02*
X149082131Y-99185899D01*
X149082131Y-99185899D02*
X149100336Y-99115135D01*
X149100336Y-99115135D02*
X149118420Y-99044336D01*
X149118420Y-99044336D02*
X149140358Y-98957755D01*
X149140358Y-98957755D02*
X149162117Y-98871123D01*
X149162117Y-98871123D02*
X149179785Y-98800202D01*
X149179785Y-98800202D02*
X149201214Y-98713474D01*
X149201214Y-98713474D02*
X149218612Y-98642477D01*
X149218612Y-98642477D02*
X149235891Y-98571444D01*
X149235891Y-98571444D02*
X149254947Y-98492481D01*
X149254947Y-98492481D02*
X149277615Y-98397670D01*
X149277615Y-98397670D02*
X149296342Y-98318615D01*
X149296342Y-98318615D02*
X149313068Y-98247428D01*
X149313068Y-98247428D02*
X149331510Y-98168296D01*
X149331510Y-98168296D02*
X149347978Y-98097040D01*
X149347978Y-98097040D02*
X149364327Y-98025750D01*
X149364327Y-98025750D02*
X149382349Y-97946502D01*
X149382349Y-97946502D02*
X149398438Y-97875144D01*
X149398438Y-97875144D02*
X149416176Y-97795817D01*
X149416176Y-97795817D02*
X149433760Y-97716451D01*
X149433760Y-97716451D02*
X149451195Y-97637046D01*
X149451195Y-97637046D02*
X149466758Y-97565547D01*
X149466758Y-97565547D02*
X149482199Y-97494015D01*
X149482199Y-97494015D02*
X149497520Y-97422453D01*
X149497520Y-97422453D02*
X149514396Y-97342901D01*
X149514396Y-97342901D02*
X149531123Y-97263311D01*
X149531123Y-97263311D02*
X149546048Y-97191645D01*
X149546048Y-97191645D02*
X149560853Y-97119950D01*
X149560853Y-97119950D02*
X149575533Y-97048224D01*
X149575533Y-97048224D02*
X149593310Y-96960515D01*
X149593310Y-96960515D02*
X149614083Y-96856801D01*
X149614083Y-96856801D02*
X149631460Y-96768993D01*
X149631460Y-96768993D02*
X149650207Y-96673150D01*
X149650207Y-96673150D02*
X149664123Y-96601232D01*
X149664123Y-96601232D02*
X149679445Y-96521290D01*
X149679445Y-96521290D02*
X149694612Y-96441311D01*
X149694612Y-96441311D02*
X149708134Y-96369298D01*
X149708134Y-96369298D02*
X149723013Y-96289249D01*
X149723013Y-96289249D02*
X149737739Y-96209162D01*
X149737739Y-96209162D02*
X149753767Y-96121028D01*
X149753767Y-96121028D02*
X149768174Y-96040865D01*
X149768174Y-96040865D02*
X149781010Y-95968691D01*
X149781010Y-95968691D02*
X149793725Y-95896487D01*
X149793725Y-95896487D02*
X149807705Y-95816227D01*
X149807705Y-95816227D02*
X149821535Y-95735934D01*
X149821535Y-95735934D02*
X149835210Y-95655603D01*
X149835210Y-95655603D02*
X149855439Y-95535045D01*
X149855439Y-95535045D02*
X149871374Y-95438540D01*
X149871374Y-95438540D02*
X149883181Y-95366134D01*
X149883181Y-95366134D02*
X149896154Y-95285646D01*
X149896154Y-95285646D02*
X149907700Y-95213179D01*
X149907700Y-95213179D02*
X149920382Y-95132628D01*
X149920382Y-95132628D02*
X149931665Y-95060105D01*
X149931665Y-95060105D02*
X149942824Y-94987554D01*
X149942824Y-94987554D02*
X149953859Y-94914977D01*
X149953859Y-94914977D02*
X149964771Y-94842375D01*
X149964771Y-94842375D02*
X149975556Y-94769743D01*
X149975556Y-94769743D02*
X149989744Y-94672863D01*
X149989744Y-94672863D02*
X150002555Y-94584016D01*
X150002555Y-94584016D02*
X150014039Y-94503210D01*
X150014039Y-94503210D02*
X150024243Y-94430459D01*
X150024243Y-94430459D02*
X150035437Y-94349596D01*
X150035437Y-94349596D02*
X150046474Y-94268700D01*
X150046474Y-94268700D02*
X150058440Y-94179680D01*
X150058440Y-94179680D02*
X150071279Y-94082523D01*
X150071279Y-94082523D02*
X150080760Y-94009629D01*
X150080760Y-94009629D02*
X150090120Y-93936710D01*
X150090120Y-93936710D02*
X150102402Y-93839444D01*
X150102402Y-93839444D02*
X150113466Y-93750247D01*
X150113466Y-93750247D02*
X150122380Y-93677242D01*
X150122380Y-93677242D02*
X150131167Y-93604210D01*
X150131167Y-93604210D02*
X150139829Y-93531157D01*
X150139829Y-93531157D02*
X150148365Y-93458078D01*
X150148365Y-93458078D02*
X150158629Y-93368730D01*
X150158629Y-93368730D02*
X150166887Y-93295601D01*
X150166887Y-93295601D02*
X150175018Y-93222448D01*
X150175018Y-93222448D02*
X150183025Y-93149274D01*
X150183025Y-93149274D02*
X150190904Y-93076074D01*
X150190904Y-93076074D02*
X150199513Y-92994718D01*
X150199513Y-92994718D02*
X150207967Y-92913331D01*
X150207967Y-92913331D02*
X150215441Y-92840063D01*
X150215441Y-92840063D02*
X150222790Y-92766771D01*
X150222790Y-92766771D02*
X150230012Y-92693457D01*
X150230012Y-92693457D02*
X150237888Y-92611967D01*
X150237888Y-92611967D02*
X150244843Y-92538608D01*
X150244843Y-92538608D02*
X150251672Y-92465225D01*
X150251672Y-92465225D02*
X150259110Y-92383664D01*
X150259110Y-92383664D02*
X150267114Y-92293917D01*
X150267114Y-92293917D02*
X150275629Y-92195974D01*
X150275629Y-92195974D02*
X150283238Y-92106163D01*
X150283238Y-92106163D02*
X150289990Y-92024487D01*
X150289990Y-92024487D02*
X150298534Y-91918274D01*
X150298534Y-91918274D02*
X150304926Y-91836542D01*
X150304926Y-91836542D02*
X150311162Y-91754785D01*
X150311162Y-91754785D02*
X150317838Y-91664823D01*
X150317838Y-91664823D02*
X150323746Y-91583016D01*
X150323746Y-91583016D02*
X150330624Y-91484813D01*
X150330624Y-91484813D02*
X150336185Y-91402952D01*
X150336185Y-91402952D02*
X150341587Y-91321068D01*
X150341587Y-91321068D02*
X150349398Y-91198198D01*
X150349398Y-91198198D02*
X150354406Y-91116253D01*
X150354406Y-91116253D02*
X150359258Y-91034287D01*
X150359258Y-91034287D02*
X150364875Y-90935899D01*
X150364875Y-90935899D02*
X150369379Y-90853881D01*
X150369379Y-90853881D02*
X150374578Y-90755433D01*
X150374578Y-90755433D02*
X150378738Y-90673370D01*
X150378738Y-90673370D02*
X150384292Y-90558441D01*
X150384292Y-90558441D02*
X150388441Y-90468113D01*
X150388441Y-90468113D02*
X150392397Y-90377757D01*
X150392397Y-90377757D02*
X150396826Y-90270941D01*
X150396826Y-90270941D02*
X150400051Y-90188751D01*
X150400051Y-90188751D02*
X150403118Y-90106539D01*
X150403118Y-90106539D02*
X150406310Y-90016084D01*
X150406310Y-90016084D02*
X150409042Y-89933829D01*
X150409042Y-89933829D02*
X150411866Y-89843327D01*
X150411866Y-89843327D02*
X150414498Y-89752801D01*
X150414498Y-89752801D02*
X150416723Y-89670484D01*
X150416723Y-89670484D02*
X150419183Y-89571677D01*
X150419183Y-89571677D02*
X150421059Y-89489318D01*
X150421059Y-89489318D02*
X150422775Y-89406940D01*
X150422775Y-89406940D02*
X150424481Y-89316303D01*
X150424481Y-89316303D02*
X150425992Y-89225644D01*
X150425992Y-89225644D02*
X150427198Y-89143206D01*
X150427198Y-89143206D02*
X150428340Y-89052506D01*
X150428340Y-89052506D02*
X150429290Y-88961783D01*
X150429290Y-88961783D02*
X150429984Y-88879289D01*
X150429984Y-88879289D02*
X150430521Y-88796778D01*
X150430521Y-88796778D02*
X150430926Y-88705996D01*
X150430926Y-88705996D02*
X150431126Y-88623452D01*
X150431126Y-88623452D02*
X150431174Y-88561532D01*
X117121208Y-37853914D02*
X98729800Y-37853914D01*
X77869406Y-118617630D02*
X77913220Y-118661381D01*
X77913220Y-118661381D02*
X77960021Y-118707973D01*
X77960021Y-118707973D02*
X78001024Y-118748674D01*
X78001024Y-118748674D02*
X78042077Y-118789315D01*
X78042077Y-118789315D02*
X78083180Y-118829895D01*
X78083180Y-118829895D02*
X78124332Y-118870413D01*
X78124332Y-118870413D02*
X78165532Y-118910870D01*
X78165532Y-118910870D02*
X78236278Y-118980084D01*
X78236278Y-118980084D02*
X78283522Y-119026124D01*
X78283522Y-119026124D02*
X78324913Y-119066343D01*
X78324913Y-119066343D02*
X78366353Y-119106502D01*
X78366353Y-119106502D02*
X78407842Y-119146599D01*
X78407842Y-119146599D02*
X78449379Y-119186635D01*
X78449379Y-119186635D02*
X78514751Y-119249422D01*
X78514751Y-119249422D02*
X78568327Y-119300682D01*
X78568327Y-119300682D02*
X78610053Y-119340480D01*
X78610053Y-119340480D02*
X78651827Y-119380215D01*
X78651827Y-119380215D02*
X78735518Y-119459502D01*
X78735518Y-119459502D02*
X78777437Y-119499052D01*
X78777437Y-119499052D02*
X78819406Y-119538541D01*
X78819406Y-119538541D02*
X78861422Y-119577966D01*
X78861422Y-119577966D02*
X78927541Y-119639796D01*
X78927541Y-119639796D02*
X78969681Y-119679064D01*
X78969681Y-119679064D02*
X79011869Y-119718271D01*
X79011869Y-119718271D02*
X79054101Y-119757413D01*
X79054101Y-119757413D02*
X79126614Y-119824371D01*
X79126614Y-119824371D02*
X79168978Y-119863346D01*
X79168978Y-119863346D02*
X79217453Y-119907814D01*
X79217453Y-119907814D02*
X79272061Y-119957742D01*
X79272061Y-119957742D02*
X79326746Y-120007566D01*
X79326746Y-120007566D02*
X79369334Y-120046248D01*
X79369334Y-120046248D02*
X79418064Y-120090380D01*
X79418064Y-120090380D02*
X79466853Y-120134430D01*
X79466853Y-120134430D02*
X79515705Y-120178398D01*
X79515705Y-120178398D02*
X79570737Y-120227766D01*
X79570737Y-120227766D02*
X79619720Y-120271561D01*
X79619720Y-120271561D02*
X79674897Y-120320733D01*
X79674897Y-120320733D02*
X79724009Y-120364355D01*
X79724009Y-120364355D02*
X79773183Y-120407895D01*
X79773183Y-120407895D02*
X79822416Y-120451354D01*
X79822416Y-120451354D02*
X79871711Y-120494730D01*
X79871711Y-120494730D02*
X79914894Y-120532618D01*
X79914894Y-120532618D02*
X79964302Y-120575841D01*
X79964302Y-120575841D02*
X80013770Y-120618983D01*
X80013770Y-120618983D02*
X80088087Y-120683543D01*
X80088087Y-120683543D02*
X80131498Y-120721117D01*
X80131498Y-120721117D02*
X80181171Y-120763982D01*
X80181171Y-120763982D02*
X80237122Y-120812106D01*
X80237122Y-120812106D02*
X80286921Y-120854797D01*
X80286921Y-120854797D02*
X80336778Y-120897404D01*
X80336778Y-120897404D02*
X80386697Y-120939932D01*
X80386697Y-120939932D02*
X80442924Y-120987675D01*
X80442924Y-120987675D02*
X80486710Y-121024737D01*
X80486710Y-121024737D02*
X80530539Y-121061735D01*
X80530539Y-121061735D02*
X80574416Y-121098671D01*
X80574416Y-121098671D02*
X80624615Y-121140807D01*
X80624615Y-121140807D02*
X80681161Y-121188110D01*
X80681161Y-121188110D02*
X80731485Y-121230070D01*
X80731485Y-121230070D02*
X80781869Y-121271949D01*
X80781869Y-121271949D02*
X80826001Y-121308523D01*
X80826001Y-121308523D02*
X80870180Y-121345034D01*
X80870180Y-121345034D02*
X80914403Y-121381483D01*
X80914403Y-121381483D02*
X80964999Y-121423061D01*
X80964999Y-121423061D02*
X81009318Y-121459373D01*
X81009318Y-121459373D02*
X81060022Y-121500795D01*
X81060022Y-121500795D02*
X81110784Y-121542134D01*
X81110784Y-121542134D02*
X81161604Y-121583392D01*
X81161604Y-121583392D02*
X81206119Y-121619424D01*
X81206119Y-121619424D02*
X81250678Y-121655392D01*
X81250678Y-121655392D02*
X81301657Y-121696420D01*
X81301657Y-121696420D02*
X81346311Y-121732253D01*
X81346311Y-121732253D02*
X81391011Y-121768022D01*
X81391011Y-121768022D02*
X81442147Y-121808821D01*
X81442147Y-121808821D02*
X81531774Y-121880020D01*
X81531774Y-121880020D02*
X81583068Y-121920591D01*
X81583068Y-121920591D02*
X81634419Y-121961080D01*
X81634419Y-121961080D02*
X81679398Y-121996438D01*
X81679398Y-121996438D02*
X81724421Y-122031734D01*
X81724421Y-122031734D02*
X81775929Y-122071993D01*
X81775929Y-122071993D02*
X81827494Y-122112169D01*
X81827494Y-122112169D02*
X81872657Y-122147253D01*
X81872657Y-122147253D02*
X81917865Y-122182274D01*
X81917865Y-122182274D02*
X81976052Y-122227206D01*
X81976052Y-122227206D02*
X82034312Y-122272033D01*
X82034312Y-122272033D02*
X82086157Y-122311791D01*
X82086157Y-122311791D02*
X82138058Y-122351466D01*
X82138058Y-122351466D02*
X82183517Y-122386112D01*
X82183517Y-122386112D02*
X82235523Y-122425629D01*
X82235523Y-122425629D02*
X82287583Y-122465061D01*
X82287583Y-122465061D02*
X82346219Y-122509323D01*
X82346219Y-122509323D02*
X82404924Y-122553478D01*
X82404924Y-122553478D02*
X82470234Y-122602415D01*
X82470234Y-122602415D02*
X82522545Y-122641470D01*
X82522545Y-122641470D02*
X82581461Y-122685307D01*
X82581461Y-122685307D02*
X82633889Y-122724185D01*
X82633889Y-122724185D02*
X82692934Y-122767819D01*
X82692934Y-122767819D02*
X82758620Y-122816177D01*
X82758620Y-122816177D02*
X82811230Y-122854769D01*
X82811230Y-122854769D02*
X82870485Y-122898084D01*
X82870485Y-122898084D02*
X82923212Y-122936496D01*
X82923212Y-122936496D02*
X82989197Y-122984394D01*
X82989197Y-122984394D02*
X83055268Y-123032161D01*
X83055268Y-123032161D02*
X83114801Y-123075035D01*
X83114801Y-123075035D02*
X83200916Y-123136777D01*
X83200916Y-123136777D02*
X83260616Y-123179392D01*
X83260616Y-123179392D02*
X83327030Y-123226616D01*
X83327030Y-123226616D02*
X83386874Y-123269004D01*
X83386874Y-123269004D02*
X83440126Y-123306591D01*
X83440126Y-123306591D02*
X83500097Y-123348778D01*
X83500097Y-123348778D02*
X83566811Y-123395523D01*
X83566811Y-123395523D02*
X83633606Y-123442135D01*
X83633606Y-123442135D02*
X83720565Y-123502535D01*
X83720565Y-123502535D02*
X83774146Y-123539591D01*
X83774146Y-123539591D02*
X83841197Y-123585793D01*
X83841197Y-123585793D02*
X83901614Y-123627261D01*
X83901614Y-123627261D02*
X83962096Y-123668620D01*
X83962096Y-123668620D02*
X84029376Y-123714449D01*
X84029376Y-123714449D02*
X84089996Y-123755579D01*
X84089996Y-123755579D02*
X84150685Y-123796603D01*
X84150685Y-123796603D02*
X84204683Y-123832977D01*
X84204683Y-123832977D02*
X84265494Y-123873797D01*
X84265494Y-123873797D02*
X84319604Y-123909991D01*
X84319604Y-123909991D02*
X84380538Y-123950606D01*
X84380538Y-123950606D02*
X84441536Y-123991112D01*
X84441536Y-123991112D02*
X84502600Y-124031509D01*
X84502600Y-124031509D02*
X84556933Y-124067328D01*
X84556933Y-124067328D02*
X84631724Y-124116436D01*
X84631724Y-124116436D02*
X84692987Y-124156497D01*
X84692987Y-124156497D02*
X84761134Y-124200883D01*
X84761134Y-124200883D02*
X84836186Y-124249549D01*
X84836186Y-124249549D02*
X84890830Y-124284841D01*
X84890830Y-124284841D02*
X84959203Y-124328835D01*
X84959203Y-124328835D02*
X85020810Y-124368315D01*
X85020810Y-124368315D02*
X85089333Y-124412054D01*
X85089333Y-124412054D02*
X85151072Y-124451304D01*
X85151072Y-124451304D02*
X85212875Y-124490446D01*
X85212875Y-124490446D02*
X85288493Y-124538134D01*
X85288493Y-124538134D02*
X85343548Y-124572714D01*
X85343548Y-124572714D02*
X85419332Y-124620123D01*
X85419332Y-124620123D02*
X85488305Y-124663079D01*
X85488305Y-124663079D02*
X85543539Y-124697347D01*
X85543539Y-124697347D02*
X85633400Y-124752848D01*
X85633400Y-124752848D02*
X85688762Y-124786888D01*
X85688762Y-124786888D02*
X85758034Y-124829316D01*
X85758034Y-124829316D02*
X85813507Y-124863161D01*
X85813507Y-124863161D02*
X85889862Y-124909558D01*
X85889862Y-124909558D02*
X85952400Y-124947395D01*
X85952400Y-124947395D02*
X86015003Y-124985124D01*
X86015003Y-124985124D02*
X86084630Y-125026915D01*
X86084630Y-125026915D02*
X86140387Y-125060251D01*
X86140387Y-125060251D02*
X86203168Y-125097647D01*
X86203168Y-125097647D02*
X86259025Y-125130796D01*
X86259025Y-125130796D02*
X86335909Y-125176236D01*
X86335909Y-125176236D02*
X86398878Y-125213291D01*
X86398878Y-125213291D02*
X86454903Y-125246136D01*
X86454903Y-125246136D02*
X86510974Y-125278893D01*
X86510974Y-125278893D02*
X86581131Y-125319718D01*
X86581131Y-125319718D02*
X86644334Y-125356342D01*
X86644334Y-125356342D02*
X86721663Y-125400956D01*
X86721663Y-125400956D02*
X86777959Y-125433300D01*
X86777959Y-125433300D02*
X86855440Y-125477627D01*
X86855440Y-125477627D02*
X86918900Y-125513773D01*
X86918900Y-125513773D02*
X86996544Y-125557801D01*
X86996544Y-125557801D02*
X87067201Y-125597679D01*
X87067201Y-125597679D02*
X87145010Y-125641390D01*
X87145010Y-125641390D02*
X87208737Y-125677029D01*
X87208737Y-125677029D02*
X87265431Y-125708615D01*
X87265431Y-125708615D02*
X87318624Y-125738148D01*
X87318624Y-125738148D02*
X87371855Y-125767601D01*
X87371855Y-125767601D02*
X87435788Y-125802847D01*
X87435788Y-125802847D02*
X87506892Y-125841875D01*
X87506892Y-125841875D02*
X87578067Y-125880766D01*
X87578067Y-125880766D02*
X87656440Y-125923388D01*
X87656440Y-125923388D02*
X87720627Y-125958135D01*
X87720627Y-125958135D02*
X87806298Y-126004294D01*
X87806298Y-126004294D02*
X87877767Y-126042605D01*
X87877767Y-126042605D02*
X87949307Y-126080780D01*
X87949307Y-126080780D02*
X88003006Y-126109319D01*
X88003006Y-126109319D02*
X88063912Y-126141570D01*
X88063912Y-126141570D02*
X88135634Y-126179385D01*
X88135634Y-126179385D02*
X88207422Y-126217060D01*
X88207422Y-126217060D02*
X88286468Y-126258345D01*
X88286468Y-126258345D02*
X88351205Y-126291998D01*
X88351205Y-126291998D02*
X88408794Y-126321816D01*
X88408794Y-126321816D02*
X88466429Y-126351546D01*
X88466429Y-126351546D02*
X88524106Y-126381189D01*
X88524106Y-126381189D02*
X88607094Y-126423645D01*
X88607094Y-126423645D02*
X88668488Y-126454905D01*
X88668488Y-126454905D02*
X88740782Y-126491555D01*
X88740782Y-126491555D02*
X88813142Y-126528065D01*
X88813142Y-126528065D02*
X88878324Y-126560805D01*
X88878324Y-126560805D02*
X88936309Y-126589813D01*
X88936309Y-126589813D02*
X89012479Y-126627751D01*
X89012479Y-126627751D02*
X89066930Y-126654755D01*
X89066930Y-126654755D02*
X89125052Y-126683471D01*
X89125052Y-126683471D02*
X89183219Y-126712100D01*
X89183219Y-126712100D02*
X89248705Y-126744200D01*
X89248705Y-126744200D02*
X89314245Y-126776187D01*
X89314245Y-126776187D02*
X89372546Y-126804525D01*
X89372546Y-126804525D02*
X89438187Y-126836297D01*
X89438187Y-126836297D02*
X89496579Y-126864446D01*
X89496579Y-126864446D02*
X89569626Y-126899504D01*
X89569626Y-126899504D02*
X89642739Y-126934423D01*
X89642739Y-126934423D02*
X89697616Y-126960520D01*
X89697616Y-126960520D02*
X89759855Y-126990001D01*
X89759855Y-126990001D02*
X89818472Y-127017654D01*
X89818472Y-127017654D02*
X89877132Y-127045218D01*
X89877132Y-127045218D02*
X89935832Y-127072692D01*
X89935832Y-127072692D02*
X89994575Y-127100076D01*
X89994575Y-127100076D02*
X90053358Y-127127369D01*
X90053358Y-127127369D02*
X90134250Y-127164751D01*
X90134250Y-127164751D02*
X90193130Y-127191831D01*
X90193130Y-127191831D02*
X90259418Y-127222191D01*
X90259418Y-127222191D02*
X90329442Y-127254110D01*
X90329442Y-127254110D02*
X90384764Y-127279221D01*
X90384764Y-127279221D02*
X90458585Y-127312578D01*
X90458585Y-127312578D02*
X90525075Y-127342478D01*
X90525075Y-127342478D02*
X90584220Y-127368961D01*
X90584220Y-127368961D02*
X90665608Y-127405226D01*
X90665608Y-127405226D02*
X90724848Y-127431495D01*
X90724848Y-127431495D02*
X90791539Y-127460937D01*
X90791539Y-127460937D02*
X90887958Y-127503263D01*
X90887958Y-127503263D02*
X90954772Y-127532426D01*
X90954772Y-127532426D02*
X91014202Y-127558252D01*
X91014202Y-127558252D02*
X91081107Y-127587197D01*
X91081107Y-127587197D02*
X91140621Y-127612830D01*
X91140621Y-127612830D02*
X91207620Y-127641559D01*
X91207620Y-127641559D02*
X91267215Y-127666997D01*
X91267215Y-127666997D02*
X91326848Y-127692347D01*
X91326848Y-127692347D02*
X91386520Y-127717604D01*
X91386520Y-127717604D02*
X91453697Y-127745912D01*
X91453697Y-127745912D02*
X91513450Y-127770976D01*
X91513450Y-127770976D02*
X91573243Y-127795950D01*
X91573243Y-127795950D02*
X91640554Y-127823936D01*
X91640554Y-127823936D02*
X91700424Y-127848715D01*
X91700424Y-127848715D02*
X91771572Y-127878024D01*
X91771572Y-127878024D02*
X91835274Y-127904135D01*
X91835274Y-127904135D02*
X91895268Y-127928619D01*
X91895268Y-127928619D02*
X91955299Y-127953008D01*
X91955299Y-127953008D02*
X92045414Y-127989424D01*
X92045414Y-127989424D02*
X92105539Y-128013588D01*
X92105539Y-128013588D02*
X92173222Y-128040661D01*
X92173222Y-128040661D02*
X92233425Y-128064629D01*
X92233425Y-128064629D02*
X92301197Y-128091482D01*
X92301197Y-128091482D02*
X92361477Y-128115256D01*
X92361477Y-128115256D02*
X92482148Y-128162526D01*
X92482148Y-128162526D02*
X92542539Y-128186025D01*
X92542539Y-128186025D02*
X92633192Y-128221101D01*
X92633192Y-128221101D02*
X92693671Y-128244367D01*
X92693671Y-128244367D02*
X92761755Y-128270434D01*
X92761755Y-128270434D02*
X92822312Y-128293506D01*
X92822312Y-128293506D02*
X92882903Y-128316487D01*
X92882903Y-128316487D02*
X92943531Y-128339376D01*
X92943531Y-128339376D02*
X93007988Y-128363594D01*
X93007988Y-128363594D02*
X93072485Y-128387708D01*
X93072485Y-128387708D02*
X93140818Y-128413127D01*
X93140818Y-128413127D02*
X93209196Y-128438428D01*
X93209196Y-128438428D02*
X93270014Y-128460821D01*
X93270014Y-128460821D02*
X93361306Y-128494238D01*
X93361306Y-128494238D02*
X93429826Y-128519161D01*
X93429826Y-128519161D02*
X93498392Y-128543970D01*
X93498392Y-128543970D02*
X93586067Y-128575500D01*
X93586067Y-128575500D02*
X93650914Y-128598680D01*
X93650914Y-128598680D02*
X93742529Y-128631227D01*
X93742529Y-128631227D02*
X93818934Y-128658189D01*
X93818934Y-128658189D02*
X93880096Y-128679655D01*
X93880096Y-128679655D02*
X93968078Y-128710353D01*
X93968078Y-128710353D02*
X94033149Y-128732916D01*
X94033149Y-128732916D02*
X94132747Y-128767224D01*
X94132747Y-128767224D02*
X94201752Y-128790832D01*
X94201752Y-128790832D02*
X94263125Y-128811717D01*
X94263125Y-128811717D02*
X94324531Y-128832510D01*
X94324531Y-128832510D02*
X94401334Y-128858369D01*
X94401334Y-128858369D02*
X94462814Y-128878952D01*
X94462814Y-128878952D02*
X94539711Y-128904549D01*
X94539711Y-128904549D02*
X94601265Y-128924922D01*
X94601265Y-128924922D02*
X94662851Y-128945202D01*
X94662851Y-128945202D02*
X94732175Y-128967904D01*
X94732175Y-128967904D02*
X94801540Y-128990489D01*
X94801540Y-128990489D02*
X94863231Y-129010464D01*
X94863231Y-129010464D02*
X94955829Y-129040252D01*
X94955829Y-129040252D02*
X95017601Y-129059995D01*
X95017601Y-129059995D02*
X95094862Y-129084542D01*
X95094862Y-129084542D02*
X95164437Y-129106506D01*
X95164437Y-129106506D02*
X95241791Y-129130774D01*
X95241791Y-129130774D02*
X95311454Y-129152490D01*
X95311454Y-129152490D02*
X95381155Y-129174086D01*
X95381155Y-129174086D02*
X95443144Y-129193184D01*
X95443144Y-129193184D02*
X95512920Y-129214556D01*
X95512920Y-129214556D02*
X95574977Y-129233454D01*
X95574977Y-129233454D02*
X95664235Y-129260453D01*
X95664235Y-129260453D02*
X95730249Y-129280284D01*
X95730249Y-129280284D02*
X95807958Y-129303480D01*
X95807958Y-129303480D02*
X95870158Y-129321929D01*
X95870158Y-129321929D02*
X95932392Y-129340286D01*
X95932392Y-129340286D02*
X95994655Y-129358547D01*
X95994655Y-129358547D02*
X96072525Y-129381241D01*
X96072525Y-129381241D02*
X96142648Y-129401538D01*
X96142648Y-129401538D02*
X96205012Y-129419482D01*
X96205012Y-129419482D02*
X96267406Y-129437332D01*
X96267406Y-129437332D02*
X96337635Y-129457299D01*
X96337635Y-129457299D02*
X96400091Y-129474945D01*
X96400091Y-129474945D02*
X96462579Y-129492498D01*
X96462579Y-129492498D02*
X96540730Y-129514307D01*
X96540730Y-129514307D02*
X96618924Y-129535967D01*
X96618924Y-129535967D02*
X96689340Y-129555334D01*
X96689340Y-129555334D02*
X96775451Y-129578842D01*
X96775451Y-129578842D02*
X96869455Y-129604283D01*
X96869455Y-129604283D02*
X96947841Y-129625320D01*
X96947841Y-129625320D02*
X97026272Y-129646208D01*
X97026272Y-129646208D02*
X97104747Y-129666948D01*
X97104747Y-129666948D02*
X97175413Y-129685487D01*
X97175413Y-129685487D02*
X97261829Y-129707982D01*
X97261829Y-129707982D02*
X97332575Y-129726255D01*
X97332575Y-129726255D02*
X97434825Y-129752435D01*
X97434825Y-129752435D02*
X97521400Y-129774389D01*
X97521400Y-129774389D02*
X97592274Y-129792219D01*
X97592274Y-129792219D02*
X97671063Y-129811887D01*
X97671063Y-129811887D02*
X97742010Y-129829461D01*
X97742010Y-129829461D02*
X97812993Y-129846914D01*
X97812993Y-129846914D02*
X97884007Y-129864244D01*
X97884007Y-129864244D02*
X97955057Y-129881455D01*
X97955057Y-129881455D02*
X98034042Y-129900437D01*
X98034042Y-129900437D02*
X98113069Y-129919267D01*
X98113069Y-129919267D02*
X98184228Y-129936088D01*
X98184228Y-129936088D02*
X98255421Y-129952786D01*
X98255421Y-129952786D02*
X98334563Y-129971197D01*
X98334563Y-129971197D02*
X98405827Y-129987640D01*
X98405827Y-129987640D02*
X98485047Y-130005767D01*
X98485047Y-130005767D02*
X98556380Y-130021954D01*
X98556380Y-130021954D02*
X98627747Y-130038016D01*
X98627747Y-130038016D02*
X98699145Y-130053959D01*
X98699145Y-130053959D02*
X98770576Y-130069778D01*
X98770576Y-130069778D02*
X98842038Y-130085476D01*
X98842038Y-130085476D02*
X98921480Y-130102776D01*
X98921480Y-130102776D02*
X99000960Y-130119926D01*
X99000960Y-130119926D02*
X99072527Y-130135233D01*
X99072527Y-130135233D02*
X99144125Y-130150414D01*
X99144125Y-130150414D02*
X99231678Y-130168806D01*
X99231678Y-130168806D02*
X99303346Y-130183717D01*
X99303346Y-130183717D02*
X99390982Y-130201777D01*
X99390982Y-130201777D02*
X99462721Y-130216418D01*
X99462721Y-130216418D02*
X99550442Y-130234145D01*
X99550442Y-130234145D02*
X99702066Y-130264330D01*
X99702066Y-130264330D02*
X99773937Y-130278440D01*
X99773937Y-130278440D02*
X99853829Y-130293972D01*
X99853829Y-130293972D02*
X99925760Y-130307820D01*
X99925760Y-130307820D02*
X100013722Y-130324580D01*
X100013722Y-130324580D02*
X100085721Y-130338156D01*
X100085721Y-130338156D02*
X100173760Y-130354582D01*
X100173760Y-130354582D02*
X100245826Y-130367885D01*
X100245826Y-130367885D02*
X100325933Y-130382521D01*
X100325933Y-130382521D02*
X100398061Y-130395565D01*
X100398061Y-130395565D02*
X100470216Y-130408484D01*
X100470216Y-130408484D02*
X100542401Y-130421279D01*
X100542401Y-130421279D02*
X100638691Y-130438149D01*
X100638691Y-130438149D02*
X100710941Y-130450656D01*
X100710941Y-130450656D02*
X100799286Y-130465774D01*
X100799286Y-130465774D02*
X100871601Y-130478010D01*
X100871601Y-130478010D02*
X100943942Y-130490118D01*
X100943942Y-130490118D02*
X101016311Y-130502103D01*
X101016311Y-130502103D02*
X101136990Y-130521806D01*
X101136990Y-130521806D02*
X101225533Y-130536032D01*
X101225533Y-130536032D02*
X101306063Y-130548808D01*
X101306063Y-130548808D02*
X101378570Y-130560175D01*
X101378570Y-130560175D02*
X101451102Y-130571415D01*
X101451102Y-130571415D02*
X101523662Y-130582534D01*
X101523662Y-130582534D02*
X101628517Y-130598372D01*
X101628517Y-130598372D02*
X101717284Y-130611573D01*
X101717284Y-130611573D02*
X101822239Y-130626932D01*
X101822239Y-130626932D02*
X101911091Y-130639728D01*
X101911091Y-130639728D02*
X101983815Y-130650056D01*
X101983815Y-130650056D02*
X102056565Y-130660260D01*
X102056565Y-130660260D02*
X102129342Y-130670341D01*
X102129342Y-130670341D02*
X102202142Y-130680296D01*
X102202142Y-130680296D02*
X102283064Y-130691212D01*
X102283064Y-130691212D02*
X102372110Y-130703040D01*
X102372110Y-130703040D02*
X102444995Y-130712579D01*
X102444995Y-130712579D02*
X102517903Y-130721992D01*
X102517903Y-130721992D02*
X102598944Y-130732306D01*
X102598944Y-130732306D02*
X102671906Y-130741457D01*
X102671906Y-130741457D02*
X102744891Y-130750480D01*
X102744891Y-130750480D02*
X102834126Y-130761339D01*
X102834126Y-130761339D02*
X102915281Y-130771049D01*
X102915281Y-130771049D02*
X102988345Y-130779654D01*
X102988345Y-130779654D02*
X103061433Y-130788136D01*
X103061433Y-130788136D02*
X103150794Y-130798331D01*
X103150794Y-130798331D02*
X103232062Y-130807436D01*
X103232062Y-130807436D02*
X103313358Y-130816386D01*
X103313358Y-130816386D02*
X103394683Y-130825181D01*
X103394683Y-130825181D02*
X103467901Y-130832965D01*
X103467901Y-130832965D02*
X103541137Y-130840621D01*
X103541137Y-130840621D02*
X103622540Y-130848980D01*
X103622540Y-130848980D02*
X103695826Y-130856370D01*
X103695826Y-130856370D02*
X103769132Y-130863635D01*
X103769132Y-130863635D02*
X103858761Y-130872343D01*
X103858761Y-130872343D02*
X103940267Y-130880093D01*
X103940267Y-130880093D02*
X104013647Y-130886936D01*
X104013647Y-130886936D02*
X104103362Y-130895127D01*
X104103362Y-130895127D02*
X104184950Y-130902412D01*
X104184950Y-130902412D02*
X104274725Y-130910243D01*
X104274725Y-130910243D02*
X104356367Y-130917199D01*
X104356367Y-130917199D02*
X104438032Y-130923998D01*
X104438032Y-130923998D02*
X104544237Y-130932602D01*
X104544237Y-130932602D02*
X104625961Y-130939042D01*
X104625961Y-130939042D02*
X104707712Y-130945325D01*
X104707712Y-130945325D02*
X104789488Y-130951449D01*
X104789488Y-130951449D02*
X104887647Y-130958593D01*
X104887647Y-130958593D02*
X104969476Y-130964373D01*
X104969476Y-130964373D02*
X105059513Y-130970550D01*
X105059513Y-130970550D02*
X105141391Y-130975999D01*
X105141391Y-130975999D02*
X105223293Y-130981293D01*
X105223293Y-130981293D02*
X105305219Y-130986428D01*
X105305219Y-130986428D02*
X105387166Y-130991406D01*
X105387166Y-130991406D02*
X105469135Y-130996227D01*
X105469135Y-130996227D02*
X105551131Y-131000892D01*
X105551131Y-131000892D02*
X105633146Y-131005396D01*
X105633146Y-131005396D02*
X105715184Y-131009744D01*
X105715184Y-131009744D02*
X105797245Y-131013935D01*
X105797245Y-131013935D02*
X105887536Y-131018361D01*
X105887536Y-131018361D02*
X105969642Y-131022218D01*
X105969642Y-131022218D02*
X106051770Y-131025919D01*
X106051770Y-131025919D02*
X106142135Y-131029806D01*
X106142135Y-131029806D02*
X106257180Y-131034475D01*
X106257180Y-131034475D02*
X106339382Y-131037623D01*
X106339382Y-131037623D02*
X106429826Y-131040900D01*
X106429826Y-131040900D02*
X106512070Y-131043712D01*
X106512070Y-131043712D02*
X106594333Y-131046366D01*
X106594333Y-131046366D02*
X106693075Y-131049341D01*
X106693075Y-131049341D02*
X106800080Y-131052308D01*
X106800080Y-131052308D02*
X106898881Y-131054806D01*
X106898881Y-131054806D02*
X106997710Y-131057076D01*
X106997710Y-131057076D02*
X107080087Y-131058792D01*
X107080087Y-131058792D02*
X107162484Y-131060351D01*
X107162484Y-131060351D02*
X107261385Y-131062009D01*
X107261385Y-131062009D02*
X107343822Y-131063215D01*
X107343822Y-131063215D02*
X107426276Y-131064261D01*
X107426276Y-131064261D02*
X107516997Y-131065228D01*
X107516997Y-131065228D02*
X107599490Y-131065940D01*
X107599490Y-131065940D02*
X107681999Y-131066491D01*
X107681999Y-131066491D02*
X107772779Y-131066914D01*
X107772779Y-131066914D02*
X107871836Y-131067154D01*
X107871836Y-131067154D02*
X107925504Y-131067191D01*
X117121208Y-47094737D02*
X117121208Y-37853914D01*
X150431174Y-88561532D02*
X150430996Y-88466716D01*
X150430996Y-88466716D02*
X150429907Y-88262641D01*
X150429907Y-88262641D02*
X150429144Y-88175239D01*
X150429144Y-88175239D02*
X150428206Y-88087874D01*
X150428206Y-88087874D02*
X150426885Y-87985991D01*
X150426885Y-87985991D02*
X150425561Y-87898701D01*
X150425561Y-87898701D02*
X150421166Y-87666106D01*
X150421166Y-87666106D02*
X150419195Y-87578950D01*
X150419195Y-87578950D02*
X150415907Y-87448285D01*
X150415907Y-87448285D02*
X150411350Y-87288696D01*
X150411350Y-87288696D02*
X150408615Y-87201699D01*
X150408615Y-87201699D02*
X150405705Y-87114741D01*
X150405705Y-87114741D02*
X150402619Y-87027820D01*
X150402619Y-87027820D02*
X150398233Y-86911985D01*
X150398233Y-86911985D02*
X150385905Y-86622695D01*
X150385905Y-86622695D02*
X150380428Y-86507099D01*
X150380428Y-86507099D02*
X150374644Y-86391574D01*
X150374644Y-86391574D02*
X150368549Y-86276118D01*
X150368549Y-86276118D02*
X150362144Y-86160732D01*
X150362144Y-86160732D02*
X150357139Y-86074240D01*
X150357139Y-86074240D02*
X150351959Y-85987787D01*
X150351959Y-85987787D02*
X150344784Y-85872580D01*
X150344784Y-85872580D02*
X150339201Y-85786223D01*
X150339201Y-85786223D02*
X150333442Y-85699904D01*
X150333442Y-85699904D02*
X150325497Y-85584877D01*
X150325497Y-85584877D02*
X150309773Y-85369400D01*
X150309773Y-85369400D02*
X150297556Y-85211549D01*
X150297556Y-85211549D02*
X150290648Y-85125507D01*
X150290648Y-85125507D02*
X150277539Y-84967876D01*
X150277539Y-84967876D02*
X150270145Y-84881955D01*
X150270145Y-84881955D02*
X150262579Y-84796076D01*
X150262579Y-84796076D02*
X150250909Y-84667338D01*
X150250909Y-84667338D02*
X150241566Y-84567276D01*
X150241566Y-84567276D02*
X150222184Y-84367329D01*
X150222184Y-84367329D02*
X150212143Y-84267445D01*
X150212143Y-84267445D02*
X150203353Y-84181880D01*
X150203353Y-84181880D02*
X150194391Y-84096357D01*
X150194391Y-84096357D02*
X150185262Y-84010879D01*
X150185262Y-84010879D02*
X150175962Y-83925446D01*
X150175962Y-83925446D02*
X150166491Y-83840058D01*
X150166491Y-83840058D02*
X150151968Y-83712060D01*
X150151968Y-83712060D02*
X150142073Y-83626784D01*
X150142073Y-83626784D02*
X150107873Y-83342863D01*
X150107873Y-83342863D02*
X150095459Y-83243612D01*
X150095459Y-83243612D02*
X150084638Y-83158590D01*
X150084638Y-83158590D02*
X150071799Y-83059456D01*
X150071799Y-83059456D02*
X150062488Y-82988686D01*
X150062488Y-82988686D02*
X150049255Y-82889661D01*
X150049255Y-82889661D02*
X150035795Y-82790701D01*
X150035795Y-82790701D02*
X150024077Y-82705931D01*
X150024077Y-82705931D02*
X150014184Y-82635324D01*
X150014184Y-82635324D02*
X150004174Y-82564751D01*
X150004174Y-82564751D02*
X149989965Y-82466005D01*
X149989965Y-82466005D02*
X149975529Y-82367324D01*
X149975529Y-82367324D02*
X149954511Y-82226465D01*
X149954511Y-82226465D02*
X149935201Y-82099809D01*
X149935201Y-82099809D02*
X149902182Y-81888961D01*
X149902182Y-81888961D02*
X149879594Y-81748566D01*
X149879594Y-81748566D02*
X149804221Y-81300241D01*
X149804221Y-81300241D02*
X149671741Y-80574810D01*
X149671741Y-80574810D02*
X149394953Y-79246018D01*
X149394953Y-79246018D02*
X149373149Y-79149674D01*
X149373149Y-79149674D02*
X149357441Y-79080904D01*
X149357441Y-79080904D02*
X149335262Y-78984692D01*
X149335262Y-78984692D02*
X149316079Y-78902284D01*
X149316079Y-78902284D02*
X149290250Y-78792496D01*
X149290250Y-78792496D02*
X149200975Y-78422707D01*
X149200975Y-78422707D02*
X149146547Y-78204121D01*
X149146547Y-78204121D02*
X149125844Y-78122259D01*
X149125844Y-78122259D02*
X149101490Y-78026825D01*
X149101490Y-78026825D02*
X149052134Y-77836198D01*
X149052134Y-77836198D02*
X149034298Y-77768195D01*
X149034298Y-77768195D02*
X149016353Y-77700234D01*
X149016353Y-77700234D02*
X148965516Y-77510157D01*
X148965516Y-77510157D02*
X148910098Y-77306865D01*
X148910098Y-77306865D02*
X148849900Y-77090435D01*
X148849900Y-77090435D02*
X148830858Y-77022889D01*
X148830858Y-77022889D02*
X148788585Y-76874438D01*
X148788585Y-76874438D02*
X148769197Y-76807028D01*
X148769197Y-76807028D02*
X148722218Y-76645418D01*
X148722218Y-76645418D02*
X148626390Y-76322940D01*
X148626390Y-76322940D02*
X148573443Y-76148683D01*
X148573443Y-76148683D02*
X148523924Y-75988094D01*
X148523924Y-75988094D02*
X148477984Y-75841107D01*
X148477984Y-75841107D02*
X148431526Y-75694336D01*
X148431526Y-75694336D02*
X148393129Y-75574410D01*
X148393129Y-75574410D02*
X148337053Y-75401439D01*
X148337053Y-75401439D02*
X148258221Y-75162447D01*
X148258221Y-75162447D02*
X148218286Y-75043169D01*
X148218286Y-75043169D02*
X148178009Y-74924040D01*
X148178009Y-74924040D02*
X148091847Y-74673033D01*
X148091847Y-74673033D02*
X148055111Y-74567544D01*
X148055111Y-74567544D02*
X148013460Y-74449014D01*
X148013460Y-74449014D02*
X147943284Y-74251799D01*
X147943284Y-74251799D02*
X147905468Y-74146788D01*
X147905468Y-74146788D02*
X147862603Y-74028795D01*
X147862603Y-74028795D02*
X147756395Y-73741017D01*
X147756395Y-73741017D02*
X147731974Y-73675742D01*
X147731974Y-73675742D02*
X147687754Y-73558368D01*
X147687754Y-73558368D02*
X147618294Y-73376094D01*
X147618294Y-73376094D02*
X147583259Y-73285099D01*
X147583259Y-73285099D02*
X147548018Y-73194201D01*
X147548018Y-73194201D02*
X147451346Y-72947958D01*
X147451346Y-72947958D02*
X147415353Y-72857415D01*
X147415353Y-72857415D02*
X147384341Y-72779885D01*
X147384341Y-72779885D02*
X147327100Y-72637932D01*
X147327100Y-72637932D02*
X147290414Y-72547721D01*
X147290414Y-72547721D02*
X147258807Y-72470476D01*
X147258807Y-72470476D02*
X147189821Y-72303360D01*
X147189821Y-72303360D02*
X147163102Y-72239175D01*
X147163102Y-72239175D02*
X147136281Y-72175041D01*
X147136281Y-72175041D02*
X147038881Y-71944575D01*
X147038881Y-71944575D02*
X147006120Y-71867899D01*
X147006120Y-71867899D02*
X146973213Y-71791299D01*
X146973213Y-71791299D02*
X146895857Y-71612847D01*
X146895857Y-71612847D02*
X146856881Y-71523772D01*
X146856881Y-71523772D02*
X146828919Y-71460210D01*
X146828919Y-71460210D02*
X146716061Y-71206479D01*
X146716061Y-71206479D02*
X146681887Y-71130522D01*
X146681887Y-71130522D02*
X146630356Y-71016729D01*
X146630356Y-71016729D02*
X146595820Y-70940961D01*
X146595820Y-70940961D02*
X146561139Y-70865268D01*
X146561139Y-70865268D02*
X146485499Y-70701530D01*
X146485499Y-70701530D02*
X146456227Y-70638649D01*
X146456227Y-70638649D02*
X146420968Y-70563263D01*
X146420968Y-70563263D02*
X146320286Y-70350085D01*
X146320286Y-70350085D02*
X146284476Y-70274995D01*
X146284476Y-70274995D02*
X146242517Y-70187488D01*
X146242517Y-70187488D02*
X146206394Y-70112563D01*
X146206394Y-70112563D02*
X146103274Y-69900706D01*
X146103274Y-69900706D02*
X146072727Y-69838515D01*
X146072727Y-69838515D02*
X146042081Y-69776380D01*
X146042081Y-69776380D02*
X145999008Y-69689481D01*
X145999008Y-69689481D02*
X145968125Y-69627476D01*
X145968125Y-69627476D02*
X145937142Y-69565527D01*
X145937142Y-69565527D02*
X145862383Y-69417072D01*
X145862383Y-69417072D02*
X145831065Y-69355311D01*
X145831065Y-69355311D02*
X145730187Y-69158046D01*
X145730187Y-69158046D02*
X145679372Y-69059629D01*
X145679372Y-69059629D02*
X145628306Y-68961355D01*
X145628306Y-68961355D02*
X145576990Y-68863225D01*
X145576990Y-68863225D02*
X145349549Y-68435610D01*
X145349549Y-68435610D02*
X145257241Y-68265348D01*
X145257241Y-68265348D02*
X145197499Y-68156132D01*
X145197499Y-68156132D02*
X145157498Y-68083423D01*
X145157498Y-68083423D02*
X145103947Y-67986610D01*
X145103947Y-67986610D02*
X145029913Y-67853735D01*
X145029913Y-67853735D02*
X144975775Y-67757275D01*
X144975775Y-67757275D02*
X144935011Y-67685028D01*
X144935011Y-67685028D02*
X144900936Y-67624887D01*
X144900936Y-67624887D02*
X144811892Y-67468793D01*
X144811892Y-67468793D02*
X144763677Y-67384909D01*
X144763677Y-67384909D02*
X144568955Y-67050534D01*
X144568955Y-67050534D02*
X144463412Y-66872172D01*
X144463412Y-66872172D02*
X144428040Y-66812839D01*
X144428040Y-66812839D02*
X144314222Y-66623376D01*
X144314222Y-66623376D02*
X144199439Y-66434536D01*
X144199439Y-66434536D02*
X144083692Y-66246320D01*
X144083692Y-66246320D02*
X143988941Y-66093856D01*
X143988941Y-66093856D02*
X143886196Y-65930130D01*
X143886196Y-65930130D02*
X143790134Y-65778531D01*
X143790134Y-65778531D02*
X143708361Y-65650586D01*
X143708361Y-65650586D02*
X143452772Y-65257031D01*
X143452772Y-65257031D02*
X143338657Y-65084332D01*
X143338657Y-65084332D02*
X143285120Y-65003934D01*
X143285120Y-65003934D02*
X143208326Y-64889296D01*
X143208326Y-64889296D02*
X143123431Y-64763490D01*
X143123431Y-64763490D02*
X143061409Y-64672189D01*
X143061409Y-64672189D02*
X142905337Y-64444662D01*
X142905337Y-64444662D02*
X142850367Y-64365269D01*
X142850367Y-64365269D02*
X142660551Y-64094042D01*
X142660551Y-64094042D02*
X142468653Y-63824320D01*
X142468653Y-63824320D02*
X142404227Y-63734752D01*
X142404227Y-63734752D02*
X142339570Y-63645352D01*
X142339570Y-63645352D02*
X142045784Y-63245163D01*
X142045784Y-63245163D02*
X141713947Y-62804595D01*
X141713947Y-62804595D02*
X141604883Y-62662347D01*
X141604883Y-62662347D02*
X141512130Y-62542341D01*
X141512130Y-62542341D02*
X141461360Y-62477024D01*
X141461360Y-62477024D02*
X141410463Y-62411807D01*
X141410463Y-62411807D02*
X141350925Y-62335845D01*
X141350925Y-62335845D02*
X141308291Y-62281669D01*
X141308291Y-62281669D02*
X141248458Y-62205938D01*
X141248458Y-62205938D02*
X141162687Y-62097989D01*
X141162687Y-62097989D02*
X141119670Y-62044118D01*
X141119670Y-62044118D02*
X141007422Y-61904380D01*
X141007422Y-61904380D02*
X140964091Y-61850761D01*
X140964091Y-61850761D02*
X140868461Y-61733044D01*
X140868461Y-61733044D02*
X140824854Y-61679649D01*
X140824854Y-61679649D02*
X140728615Y-61562427D01*
X140728615Y-61562427D02*
X140649565Y-61466774D01*
X140649565Y-61466774D02*
X140561404Y-61360760D01*
X140561404Y-61360760D02*
X140464031Y-61244474D01*
X140464031Y-61244474D02*
X140375149Y-61139059D01*
X140375149Y-61139059D02*
X140330580Y-61086459D01*
X140330580Y-61086459D02*
X140285926Y-61033931D01*
X140285926Y-61033931D02*
X140169426Y-60897692D01*
X140169426Y-60897692D02*
X140070401Y-60782795D01*
X140070401Y-60782795D02*
X139880210Y-60564418D01*
X139880210Y-60564418D02*
X139789122Y-60460879D01*
X139789122Y-60460879D02*
X139578335Y-60223848D01*
X139578335Y-60223848D02*
X139384328Y-60008787D01*
X139384328Y-60008787D02*
X134669264Y-55552417D01*
X134669264Y-55552417D02*
X134268943Y-55232083D01*
X134268943Y-55232083D02*
X134138233Y-55129193D01*
X134138233Y-55129193D02*
X133985198Y-55009777D01*
X133985198Y-55009777D02*
X133776581Y-54848790D01*
X133776581Y-54848790D02*
X133710480Y-54798211D01*
X133710480Y-54798211D02*
X132976429Y-54250097D01*
X132976429Y-54250097D02*
X132807835Y-54127654D01*
X132807835Y-54127654D02*
X132740217Y-54078900D01*
X132740217Y-54078900D02*
X132536736Y-53933398D01*
X132536736Y-53933398D02*
X132434649Y-53861078D01*
X132434649Y-53861078D02*
X132023993Y-53574694D01*
X132023993Y-53574694D02*
X131897779Y-53488111D01*
X131897779Y-53488111D02*
X131690513Y-53347376D01*
X131690513Y-53347376D02*
X131609663Y-53292961D01*
X131609663Y-53292961D02*
X131343048Y-53115423D01*
X131343048Y-53115423D02*
X131203359Y-53023560D01*
X131203359Y-53023560D02*
X130957937Y-52864066D01*
X130957937Y-52864066D02*
X130875860Y-52811261D01*
X130875860Y-52811261D02*
X130793647Y-52758637D01*
X130793647Y-52758637D02*
X130711299Y-52706194D01*
X130711299Y-52706194D02*
X130392409Y-52505608D01*
X130392409Y-52505608D02*
X130154911Y-52358774D01*
X130154911Y-52358774D02*
X130011889Y-52271388D01*
X130011889Y-52271388D02*
X129676660Y-52069593D01*
X129676660Y-52069593D02*
X129532343Y-51984012D01*
X129532343Y-51984012D02*
X129472097Y-51948515D01*
X129472097Y-51948515D02*
X129399715Y-51906042D01*
X129399715Y-51906042D02*
X129157744Y-51765454D01*
X129157744Y-51765454D02*
X129060658Y-51709646D01*
X129060658Y-51709646D02*
X128902532Y-51619478D01*
X128902532Y-51619478D02*
X128743960Y-51529957D01*
X128743960Y-51529957D02*
X128609436Y-51454716D01*
X128609436Y-51454716D02*
X128511401Y-51400287D01*
X128511401Y-51400287D02*
X128450043Y-51366393D01*
X128450043Y-51366393D02*
X128351735Y-51312367D01*
X128351735Y-51312367D02*
X127808068Y-51019657D01*
X127808068Y-51019657D02*
X127733542Y-50980324D01*
X127733542Y-50980324D02*
X127559291Y-50889102D01*
X127559291Y-50889102D02*
X127459495Y-50837321D01*
X127459495Y-50837321D02*
X127384539Y-50798648D01*
X127384539Y-50798648D02*
X127271933Y-50740907D01*
X127271933Y-50740907D02*
X127209285Y-50708966D01*
X127209285Y-50708966D02*
X127058670Y-50632712D01*
X127058670Y-50632712D02*
X126806837Y-50506892D01*
X126806837Y-50506892D02*
X126693182Y-50450790D01*
X126693182Y-50450790D02*
X126465262Y-50339557D01*
X126465262Y-50339557D02*
X126350998Y-50284428D01*
X126350998Y-50284428D02*
X126160110Y-50193267D01*
X126160110Y-50193267D02*
X126083597Y-50157056D01*
X126083597Y-50157056D02*
X125840723Y-50043350D01*
X125840723Y-50043350D02*
X125686868Y-49972287D01*
X125686868Y-49972287D02*
X125571245Y-49919372D01*
X125571245Y-49919372D02*
X125481178Y-49878445D01*
X125481178Y-49878445D02*
X125390993Y-49837718D01*
X125390993Y-49837718D02*
X125184405Y-49745375D01*
X125184405Y-49745375D02*
X125106773Y-49711015D01*
X125106773Y-49711015D02*
X124899332Y-49620115D01*
X124899332Y-49620115D02*
X124808381Y-49580677D01*
X124808381Y-49580677D02*
X124508714Y-49452518D01*
X124508714Y-49452518D02*
X124364947Y-49391999D01*
X124364947Y-49391999D02*
X124286407Y-49359200D01*
X124286407Y-49359200D02*
X124142197Y-49299459D01*
X124142197Y-49299459D02*
X124063413Y-49267082D01*
X124063413Y-49267082D02*
X123879256Y-49192124D01*
X123879256Y-49192124D02*
X123773817Y-49149659D01*
X123773817Y-49149659D02*
X123549258Y-49060311D01*
X123549258Y-49060311D02*
X123456595Y-49023875D01*
X123456595Y-49023875D02*
X123350556Y-48982486D01*
X123350556Y-48982486D02*
X123270930Y-48951620D01*
X123270930Y-48951620D02*
X123204509Y-48926015D01*
X123204509Y-48926015D02*
X122911572Y-48814612D01*
X122911572Y-48814612D02*
X122764685Y-48759681D01*
X122764685Y-48759681D02*
X122630910Y-48710190D01*
X122630910Y-48710190D02*
X122550536Y-48680700D01*
X122550536Y-48680700D02*
X122429821Y-48636757D01*
X122429821Y-48636757D02*
X122349239Y-48607650D01*
X122349239Y-48607650D02*
X122255125Y-48573889D01*
X122255125Y-48573889D02*
X122107007Y-48521262D01*
X122107007Y-48521262D02*
X122039591Y-48497513D01*
X122039591Y-48497513D02*
X121891076Y-48445644D01*
X121891076Y-48445644D02*
X121701663Y-48380384D01*
X121701663Y-48380384D02*
X121606793Y-48348072D01*
X121606793Y-48348072D02*
X121484654Y-48306840D01*
X121484654Y-48306840D02*
X121389533Y-48275014D01*
X121389533Y-48275014D02*
X121321523Y-48252412D01*
X121321523Y-48252412D02*
X121212590Y-48216474D01*
X121212590Y-48216474D02*
X121144437Y-48194156D01*
X121144437Y-48194156D02*
X121035274Y-48158672D01*
X121035274Y-48158672D02*
X120638382Y-48032393D01*
X120638382Y-48032393D02*
X120556035Y-48006726D01*
X120556035Y-48006726D02*
X120143132Y-47880781D01*
X120143132Y-47880781D02*
X120074126Y-47860176D01*
X120074126Y-47860176D02*
X120005066Y-47839683D01*
X120005066Y-47839683D02*
X119935952Y-47819302D01*
X119935952Y-47819302D02*
X119700563Y-47750833D01*
X119700563Y-47750833D02*
X119631213Y-47730941D01*
X119631213Y-47730941D02*
X119547923Y-47707217D01*
X119547923Y-47707217D02*
X119422845Y-47671933D01*
X119422845Y-47671933D02*
X119339364Y-47648613D01*
X119339364Y-47648613D02*
X119269738Y-47629301D01*
X119269738Y-47629301D02*
X119088464Y-47579618D01*
X119088464Y-47579618D02*
X119018649Y-47560713D01*
X119018649Y-47560713D02*
X118808888Y-47504669D01*
X118808888Y-47504669D02*
X118738863Y-47486212D01*
X118738863Y-47486212D02*
X118584625Y-47446009D01*
X118584625Y-47446009D02*
X118458243Y-47413522D01*
X118458243Y-47413522D02*
X118261315Y-47363719D01*
X118261315Y-47363719D02*
X118063984Y-47314807D01*
X118063984Y-47314807D02*
X117979291Y-47294119D01*
X117979291Y-47294119D02*
X117880388Y-47270189D01*
X117880388Y-47270189D02*
X117512163Y-47183278D01*
X117512163Y-47183278D02*
X117441193Y-47166921D01*
X117441193Y-47166921D02*
X117242210Y-47121730D01*
X117242210Y-47121730D02*
X117156810Y-47102640D01*
X117156810Y-47102640D02*
X117121208Y-47094737D01*
X65419842Y-88561532D02*
X65419945Y-88656471D01*
X65419945Y-88656471D02*
X65420207Y-88739010D01*
X65420207Y-88739010D02*
X65420632Y-88821534D01*
X65420632Y-88821534D02*
X65421215Y-88904039D01*
X65421215Y-88904039D02*
X65421958Y-88986527D01*
X65421958Y-88986527D02*
X65423062Y-89085492D01*
X65423062Y-89085492D02*
X65424154Y-89167940D01*
X65424154Y-89167940D02*
X65425543Y-89258613D01*
X65425543Y-89258613D02*
X65427125Y-89349266D01*
X65427125Y-89349266D02*
X65428730Y-89431656D01*
X65428730Y-89431656D02*
X65430680Y-89522263D01*
X65430680Y-89522263D02*
X65432823Y-89612852D01*
X65432823Y-89612852D02*
X65434935Y-89695181D01*
X65434935Y-89695181D02*
X65437208Y-89777492D01*
X65437208Y-89777492D02*
X65440146Y-89876241D01*
X65440146Y-89876241D02*
X65443038Y-89966734D01*
X65443038Y-89966734D02*
X65445836Y-90048979D01*
X65445836Y-90048979D02*
X65448793Y-90131205D01*
X65448793Y-90131205D02*
X65452871Y-90238067D01*
X65452871Y-90238067D02*
X65456191Y-90320244D01*
X65456191Y-90320244D02*
X65460385Y-90418831D01*
X65460385Y-90418831D02*
X65464053Y-90500962D01*
X65464053Y-90500962D02*
X65467881Y-90583071D01*
X65467881Y-90583071D02*
X65471867Y-90665163D01*
X65471867Y-90665163D02*
X65476856Y-90763639D01*
X65476856Y-90763639D02*
X65481185Y-90845679D01*
X65481185Y-90845679D02*
X65485676Y-90927699D01*
X65485676Y-90927699D02*
X65490322Y-91009692D01*
X65490322Y-91009692D02*
X65495128Y-91091667D01*
X65495128Y-91091667D02*
X65500596Y-91181809D01*
X65500596Y-91181809D02*
X65505731Y-91263734D01*
X65505731Y-91263734D02*
X65511024Y-91345635D01*
X65511024Y-91345635D02*
X65516475Y-91427514D01*
X65516475Y-91427514D02*
X65522081Y-91509367D01*
X65522081Y-91509367D02*
X65527847Y-91591198D01*
X65527847Y-91591198D02*
X65534972Y-91689362D01*
X65534972Y-91689362D02*
X65544195Y-91812018D01*
X65544195Y-91812018D02*
X65551182Y-91901929D01*
X65551182Y-91901929D02*
X65557702Y-91983642D01*
X65557702Y-91983642D02*
X65566407Y-92089830D01*
X65566407Y-92089830D02*
X65573284Y-92171484D01*
X65573284Y-92171484D02*
X65580318Y-92253113D01*
X65580318Y-92253113D02*
X65587508Y-92334715D01*
X65587508Y-92334715D02*
X65594852Y-92416290D01*
X65594852Y-92416290D02*
X65602357Y-92497844D01*
X65602357Y-92497844D02*
X65609241Y-92571216D01*
X65609241Y-92571216D02*
X65616253Y-92644567D01*
X65616253Y-92644567D02*
X65623392Y-92717896D01*
X65623392Y-92717896D02*
X65630656Y-92791203D01*
X65630656Y-92791203D02*
X65638874Y-92872629D01*
X65638874Y-92872629D02*
X65649792Y-92978442D01*
X65649792Y-92978442D02*
X65657504Y-93051671D01*
X65657504Y-93051671D02*
X65666221Y-93133008D01*
X65666221Y-93133008D02*
X65674199Y-93206190D01*
X65674199Y-93206190D02*
X65684121Y-93295601D01*
X65684121Y-93295601D02*
X65693304Y-93376855D01*
X65693304Y-93376855D02*
X65704527Y-93474320D01*
X65704527Y-93474320D02*
X65713093Y-93547394D01*
X65713093Y-93547394D02*
X65721783Y-93620441D01*
X65721783Y-93620441D02*
X65730598Y-93693466D01*
X65730598Y-93693466D02*
X65740541Y-93774578D01*
X65740541Y-93774578D02*
X65751656Y-93863764D01*
X65751656Y-93863764D02*
X65768156Y-93993426D01*
X65768156Y-93993426D02*
X65778669Y-94074426D01*
X65778669Y-94074426D02*
X65789338Y-94155395D01*
X65789338Y-94155395D02*
X65799071Y-94228241D01*
X65799071Y-94228241D02*
X65808929Y-94301061D01*
X65808929Y-94301061D02*
X65818912Y-94373858D01*
X65818912Y-94373858D02*
X65830151Y-94454713D01*
X65830151Y-94454713D02*
X65841544Y-94535536D01*
X65841544Y-94535536D02*
X65851928Y-94608250D01*
X65851928Y-94608250D02*
X65863613Y-94689012D01*
X65863613Y-94689012D02*
X65875452Y-94769743D01*
X65875452Y-94769743D02*
X65886240Y-94842375D01*
X65886240Y-94842375D02*
X65897149Y-94914977D01*
X65897149Y-94914977D02*
X65910653Y-95003679D01*
X65910653Y-95003679D02*
X65921839Y-95076224D01*
X65921839Y-95076224D02*
X65944585Y-95221232D01*
X65944585Y-95221232D02*
X65957435Y-95301746D01*
X65957435Y-95301746D02*
X65969131Y-95374180D01*
X65969131Y-95374180D02*
X65980951Y-95446585D01*
X65980951Y-95446585D02*
X65992896Y-95518965D01*
X65992896Y-95518965D02*
X66004965Y-95591314D01*
X66004965Y-95591314D02*
X66017157Y-95663637D01*
X66017157Y-95663637D02*
X66029474Y-95735934D01*
X66029474Y-95735934D02*
X66043302Y-95816227D01*
X66043302Y-95816227D02*
X66055879Y-95888463D01*
X66055879Y-95888463D02*
X66075687Y-96000773D01*
X66075687Y-96000773D02*
X66092904Y-96096982D01*
X66092904Y-96096982D02*
X66108878Y-96185130D01*
X66108878Y-96185130D02*
X66123560Y-96265226D01*
X66123560Y-96265226D02*
X66136903Y-96337282D01*
X66136903Y-96337282D02*
X66151875Y-96417311D01*
X66151875Y-96417311D02*
X66165478Y-96489302D01*
X66165478Y-96489302D02*
X66179204Y-96561265D01*
X66179204Y-96561265D02*
X66193055Y-96633201D01*
X66193055Y-96633201D02*
X66207027Y-96705104D01*
X66207027Y-96705104D02*
X66222695Y-96784960D01*
X66222695Y-96784960D02*
X66238515Y-96864782D01*
X66238515Y-96864782D02*
X66252882Y-96936586D01*
X66252882Y-96936586D02*
X66270609Y-97024308D01*
X66270609Y-97024308D02*
X66288519Y-97111981D01*
X66288519Y-97111981D02*
X66304958Y-97191645D01*
X66304958Y-97191645D02*
X66319883Y-97263311D01*
X66319883Y-97263311D02*
X66336610Y-97342901D01*
X66336610Y-97342901D02*
X66351793Y-97414500D01*
X66351793Y-97414500D02*
X66370516Y-97501964D01*
X66370516Y-97501964D02*
X66391149Y-97597329D01*
X66391149Y-97597329D02*
X66406765Y-97668812D01*
X66406765Y-97668812D02*
X66422505Y-97740265D01*
X66422505Y-97740265D02*
X66441908Y-97827553D01*
X66441908Y-97827553D02*
X66459706Y-97906864D01*
X66459706Y-97906864D02*
X66484871Y-98017827D01*
X66484871Y-98017827D02*
X66506677Y-98112876D01*
X66506677Y-98112876D02*
X66525012Y-98192040D01*
X66525012Y-98192040D02*
X66541644Y-98263251D01*
X66541644Y-98263251D02*
X66580922Y-98429281D01*
X66580922Y-98429281D02*
X66597958Y-98500380D01*
X66597958Y-98500380D02*
X66618943Y-98587232D01*
X66618943Y-98587232D02*
X66640112Y-98674036D01*
X66640112Y-98674036D02*
X66661458Y-98760787D01*
X66661458Y-98760787D02*
X66679059Y-98831726D01*
X66679059Y-98831726D02*
X66704697Y-98934133D01*
X66704697Y-98934133D02*
X66732587Y-99044336D01*
X66732587Y-99044336D02*
X66750670Y-99115135D01*
X66750670Y-99115135D02*
X66768875Y-99185899D01*
X66768875Y-99185899D02*
X66791288Y-99272340D01*
X66791288Y-99272340D02*
X66813882Y-99358729D01*
X66813882Y-99358729D02*
X66832503Y-99429370D01*
X66832503Y-99429370D02*
X66853330Y-99507817D01*
X66853330Y-99507817D02*
X66872204Y-99578382D01*
X66872204Y-99578382D02*
X66891199Y-99648910D01*
X66891199Y-99648910D02*
X66912443Y-99727234D01*
X66912443Y-99727234D02*
X66931691Y-99797686D01*
X66931691Y-99797686D02*
X66955377Y-99883744D01*
X66955377Y-99883744D02*
X66979244Y-99969747D01*
X66979244Y-99969747D02*
X66998905Y-100040072D01*
X66998905Y-100040072D02*
X67023098Y-100125973D01*
X67023098Y-100125973D02*
X67040804Y-100188410D01*
X67040804Y-100188410D02*
X67058605Y-100250820D01*
X67058605Y-100250820D02*
X67080989Y-100328789D01*
X67080989Y-100328789D02*
X67101262Y-100398922D01*
X67101262Y-100398922D02*
X67119381Y-100461229D01*
X67119381Y-100461229D02*
X67137595Y-100523506D01*
X67137595Y-100523506D02*
X67158199Y-100593532D01*
X67158199Y-100593532D02*
X67176614Y-100655746D01*
X67176614Y-100655746D02*
X67197445Y-100725699D01*
X67197445Y-100725699D02*
X67216060Y-100787848D01*
X67216060Y-100787848D02*
X67237115Y-100857729D01*
X67237115Y-100857729D02*
X67255932Y-100919812D01*
X67255932Y-100919812D02*
X67279581Y-100997370D01*
X67279581Y-100997370D02*
X67315333Y-101113619D01*
X67315333Y-101113619D02*
X67334536Y-101175574D01*
X67334536Y-101175574D02*
X67353831Y-101237495D01*
X67353831Y-101237495D02*
X67375652Y-101307120D01*
X67375652Y-101307120D02*
X67395148Y-101368975D01*
X67395148Y-101368975D02*
X67414738Y-101430801D01*
X67414738Y-101430801D02*
X67439355Y-101508035D01*
X67439355Y-101508035D02*
X67469091Y-101600652D01*
X67469091Y-101600652D02*
X67489033Y-101662356D01*
X67489033Y-101662356D02*
X67509067Y-101724028D01*
X67509067Y-101724028D02*
X67531718Y-101793370D01*
X67531718Y-101793370D02*
X67554486Y-101862670D01*
X67554486Y-101862670D02*
X67577374Y-101931930D01*
X67577374Y-101931930D02*
X67597816Y-101993459D01*
X67597816Y-101993459D02*
X67618351Y-102054954D01*
X67618351Y-102054954D02*
X67638980Y-102116418D01*
X67638980Y-102116418D02*
X67659704Y-102177849D01*
X67659704Y-102177849D02*
X67692270Y-102273768D01*
X67692270Y-102273768D02*
X67719799Y-102354277D01*
X67719799Y-102354277D02*
X67743525Y-102423239D01*
X67743525Y-102423239D02*
X67764713Y-102484503D01*
X67764713Y-102484503D02*
X67785992Y-102545733D01*
X67785992Y-102545733D02*
X67807366Y-102606928D01*
X67807366Y-102606928D02*
X67828835Y-102668092D01*
X67828835Y-102668092D02*
X67853095Y-102736859D01*
X67853095Y-102736859D02*
X67885626Y-102828482D01*
X67885626Y-102828482D02*
X67911529Y-102900963D01*
X67911529Y-102900963D02*
X67937557Y-102973392D01*
X67937557Y-102973392D02*
X67959580Y-103034348D01*
X67959580Y-103034348D02*
X67990012Y-103118109D01*
X67990012Y-103118109D02*
X68015043Y-103186590D01*
X68015043Y-103186590D02*
X68040190Y-103255028D01*
X68040190Y-103255028D02*
X68065453Y-103323422D01*
X68065453Y-103323422D02*
X68093658Y-103399361D01*
X68093658Y-103399361D02*
X68127697Y-103490416D01*
X68127697Y-103490416D02*
X68150506Y-103551074D01*
X68150506Y-103551074D02*
X68176275Y-103619275D01*
X68176275Y-103619275D02*
X68202160Y-103687428D01*
X68202160Y-103687428D02*
X68231058Y-103763101D01*
X68231058Y-103763101D02*
X68254280Y-103823601D01*
X68254280Y-103823601D02*
X68280517Y-103891617D01*
X68280517Y-103891617D02*
X68308334Y-103963363D01*
X68308334Y-103963363D02*
X68333333Y-104027514D01*
X68333333Y-104027514D02*
X68356958Y-104087855D01*
X68356958Y-104087855D02*
X68386617Y-104163229D01*
X68386617Y-104163229D02*
X68422397Y-104253602D01*
X68422397Y-104253602D02*
X68458385Y-104343894D01*
X68458385Y-104343894D02*
X68482489Y-104404040D01*
X68482489Y-104404040D02*
X68512748Y-104479172D01*
X68512748Y-104479172D02*
X68549250Y-104569254D01*
X68549250Y-104569254D02*
X68579827Y-104644258D01*
X68579827Y-104644258D02*
X68607466Y-104711712D01*
X68607466Y-104711712D02*
X68638311Y-104786605D01*
X68638311Y-104786605D02*
X68663093Y-104846478D01*
X68663093Y-104846478D02*
X68691077Y-104913787D01*
X68691077Y-104913787D02*
X68716050Y-104973577D01*
X68716050Y-104973577D02*
X68747396Y-105048263D01*
X68747396Y-105048263D02*
X68778883Y-105122888D01*
X68778883Y-105122888D02*
X68804175Y-105182547D01*
X68804175Y-105182547D02*
X68835917Y-105257064D01*
X68835917Y-105257064D02*
X68861414Y-105316636D01*
X68861414Y-105316636D02*
X68890204Y-105383606D01*
X68890204Y-105383606D02*
X68915896Y-105443096D01*
X68915896Y-105443096D02*
X68944904Y-105509974D01*
X68944904Y-105509974D02*
X68970787Y-105569379D01*
X68970787Y-105569379D02*
X68996760Y-105628746D01*
X68996760Y-105628746D02*
X69022825Y-105688074D01*
X69022825Y-105688074D02*
X69055532Y-105762180D01*
X69055532Y-105762180D02*
X69098261Y-105858422D01*
X69098261Y-105858422D02*
X69134604Y-105939777D01*
X69134604Y-105939777D02*
X69167794Y-106013671D01*
X69167794Y-106013671D02*
X69197783Y-106080122D01*
X69197783Y-106080122D02*
X69227886Y-106146522D01*
X69227886Y-106146522D02*
X69261470Y-106220241D01*
X69261470Y-106220241D02*
X69291814Y-106286534D01*
X69291814Y-106286534D02*
X69318883Y-106345418D01*
X69318883Y-106345418D02*
X69346041Y-106404261D01*
X69346041Y-106404261D02*
X69376703Y-106470412D01*
X69376703Y-106470412D02*
X69410906Y-106543853D01*
X69410906Y-106543853D02*
X69438369Y-106602559D01*
X69438369Y-106602559D02*
X69465921Y-106661225D01*
X69465921Y-106661225D02*
X69493567Y-106719851D01*
X69493567Y-106719851D02*
X69528244Y-106793071D01*
X69528244Y-106793071D02*
X69563063Y-106866228D01*
X69563063Y-106866228D02*
X69598024Y-106939321D01*
X69598024Y-106939321D02*
X69626090Y-106997748D01*
X69626090Y-106997748D02*
X69654250Y-107056134D01*
X69654250Y-107056134D02*
X69682497Y-107114479D01*
X69682497Y-107114479D02*
X69710837Y-107172781D01*
X69710837Y-107172781D02*
X69739264Y-107231040D01*
X69739264Y-107231040D02*
X69774923Y-107303807D01*
X69774923Y-107303807D02*
X69817898Y-107391040D01*
X69817898Y-107391040D02*
X69853866Y-107463660D01*
X69853866Y-107463660D02*
X69889974Y-107536215D01*
X69889974Y-107536215D02*
X69922588Y-107601457D01*
X69922588Y-107601457D02*
X69951675Y-107659405D01*
X69951675Y-107659405D02*
X69988156Y-107731777D01*
X69988156Y-107731777D02*
X70028446Y-107811310D01*
X70028446Y-107811310D02*
X70065223Y-107883544D01*
X70065223Y-107883544D02*
X70092894Y-107937673D01*
X70092894Y-107937673D02*
X70124351Y-107998975D01*
X70124351Y-107998975D02*
X70168929Y-108085433D01*
X70168929Y-108085433D02*
X70202496Y-108150214D01*
X70202496Y-108150214D02*
X70232426Y-108207748D01*
X70232426Y-108207748D02*
X70262445Y-108265239D01*
X70262445Y-108265239D02*
X70292553Y-108322687D01*
X70292553Y-108322687D02*
X70326529Y-108387262D01*
X70326529Y-108387262D02*
X70356826Y-108444616D01*
X70356826Y-108444616D02*
X70406247Y-108537722D01*
X70406247Y-108537722D02*
X70440598Y-108602111D01*
X70440598Y-108602111D02*
X70478895Y-108673586D01*
X70478895Y-108673586D02*
X70507709Y-108727146D01*
X70507709Y-108727146D02*
X70540459Y-108787802D01*
X70540459Y-108787802D02*
X70582990Y-108866222D01*
X70582990Y-108866222D02*
X70617911Y-108930319D01*
X70617911Y-108930319D02*
X70649047Y-108987248D01*
X70649047Y-108987248D02*
X70684179Y-109051239D01*
X70684179Y-109051239D02*
X70717462Y-109111619D01*
X70717462Y-109111619D02*
X70746910Y-109164854D01*
X70746910Y-109164854D02*
X70782353Y-109228684D01*
X70782353Y-109228684D02*
X70821863Y-109299537D01*
X70821863Y-109299537D02*
X70857539Y-109363244D01*
X70857539Y-109363244D02*
X70889345Y-109419824D01*
X70889345Y-109419824D02*
X70921239Y-109476359D01*
X70921239Y-109476359D02*
X70961229Y-109546960D01*
X70961229Y-109546960D02*
X70997337Y-109610437D01*
X70997337Y-109610437D02*
X71029525Y-109666815D01*
X71029525Y-109666815D02*
X71065843Y-109730184D01*
X71065843Y-109730184D02*
X71102271Y-109793492D01*
X71102271Y-109793492D02*
X71142877Y-109863765D01*
X71142877Y-109863765D02*
X71183621Y-109933967D01*
X71183621Y-109933967D02*
X71224498Y-110004092D01*
X71224498Y-110004092D02*
X71269623Y-110081146D01*
X71269623Y-110081146D02*
X71302544Y-110137129D01*
X71302544Y-110137129D02*
X71347954Y-110214028D01*
X71347954Y-110214028D02*
X71389377Y-110283858D01*
X71389377Y-110283858D02*
X71430938Y-110353613D01*
X71430938Y-110353613D02*
X71468459Y-110416329D01*
X71468459Y-110416329D02*
X71506089Y-110478983D01*
X71506089Y-110478983D02*
X71552231Y-110555477D01*
X71552231Y-110555477D02*
X71598537Y-110631883D01*
X71598537Y-110631883D02*
X71636545Y-110694326D01*
X71636545Y-110694326D02*
X71674663Y-110756708D01*
X71674663Y-110756708D02*
X71717148Y-110825952D01*
X71717148Y-110825952D02*
X71751231Y-110881289D01*
X71751231Y-110881289D02*
X71785401Y-110936579D01*
X71785401Y-110936579D02*
X71819657Y-110991818D01*
X71819657Y-110991818D02*
X71862600Y-111060801D01*
X71862600Y-111060801D02*
X71897052Y-111115931D01*
X71897052Y-111115931D02*
X71948891Y-111198532D01*
X71948891Y-111198532D02*
X71987899Y-111260412D01*
X71987899Y-111260412D02*
X72031369Y-111329090D01*
X72031369Y-111329090D02*
X72074972Y-111397691D01*
X72074972Y-111397691D02*
X72109952Y-111452517D01*
X72109952Y-111452517D02*
X72158191Y-111527820D01*
X72158191Y-111527820D02*
X72197779Y-111589363D01*
X72197779Y-111589363D02*
X72241895Y-111657667D01*
X72241895Y-111657667D02*
X72281714Y-111719074D01*
X72281714Y-111719074D02*
X72317199Y-111773603D01*
X72317199Y-111773603D02*
X72361677Y-111841695D01*
X72361677Y-111841695D02*
X72406288Y-111909706D01*
X72406288Y-111909706D02*
X72446555Y-111970848D01*
X72446555Y-111970848D02*
X72486930Y-112031928D01*
X72486930Y-112031928D02*
X72531917Y-112099717D01*
X72531917Y-112099717D02*
X72568003Y-112153891D01*
X72568003Y-112153891D02*
X72622292Y-112235053D01*
X72622292Y-112235053D02*
X72658591Y-112289096D01*
X72658591Y-112289096D02*
X72699530Y-112349835D01*
X72699530Y-112349835D02*
X72745146Y-112417244D01*
X72745146Y-112417244D02*
X72790892Y-112484573D01*
X72790892Y-112484573D02*
X72832180Y-112545098D01*
X72832180Y-112545098D02*
X72868971Y-112598845D01*
X72868971Y-112598845D02*
X72919697Y-112672659D01*
X72919697Y-112672659D02*
X72961321Y-112732980D01*
X72961321Y-112732980D02*
X73026282Y-112826679D01*
X73026282Y-112826679D02*
X73063518Y-112880148D01*
X73063518Y-112880148D02*
X73105513Y-112940239D01*
X73105513Y-112940239D02*
X73147616Y-113000265D01*
X73147616Y-113000265D02*
X73194519Y-113066876D01*
X73194519Y-113066876D02*
X73236847Y-113126757D01*
X73236847Y-113126757D02*
X73279283Y-113186571D01*
X73279283Y-113186571D02*
X73317093Y-113239682D01*
X73317093Y-113239682D02*
X73369221Y-113312623D01*
X73369221Y-113312623D02*
X73411991Y-113372226D01*
X73411991Y-113372226D02*
X73450098Y-113425150D01*
X73450098Y-113425150D02*
X73488288Y-113478019D01*
X73488288Y-113478019D02*
X73536145Y-113544028D01*
X73536145Y-113544028D02*
X73579329Y-113603366D01*
X73579329Y-113603366D02*
X73617806Y-113656053D01*
X73617806Y-113656053D02*
X73670849Y-113728407D01*
X73670849Y-113728407D02*
X73709525Y-113780963D01*
X73709525Y-113780963D02*
X73753137Y-113840027D01*
X73753137Y-113840027D02*
X73791993Y-113892466D01*
X73791993Y-113892466D02*
X73845555Y-113964481D01*
X73845555Y-113964481D02*
X73884610Y-114016791D01*
X73884610Y-114016791D02*
X73923749Y-114069047D01*
X73923749Y-114069047D02*
X73967880Y-114127766D01*
X73967880Y-114127766D02*
X74017040Y-114192930D01*
X74017040Y-114192930D02*
X74051531Y-114238493D01*
X74051531Y-114238493D02*
X74115753Y-114322998D01*
X74115753Y-114322998D02*
X74150427Y-114368439D01*
X74150427Y-114368439D02*
X74190132Y-114420318D01*
X74190132Y-114420318D02*
X74254831Y-114504504D01*
X74254831Y-114504504D02*
X74299752Y-114562700D01*
X74299752Y-114562700D02*
X74354800Y-114633732D01*
X74354800Y-114633732D02*
X74389915Y-114678879D01*
X74389915Y-114678879D02*
X74430119Y-114730420D01*
X74430119Y-114730420D02*
X74465369Y-114775474D01*
X74465369Y-114775474D02*
X74500681Y-114820483D01*
X74500681Y-114820483D02*
X74546179Y-114878290D01*
X74546179Y-114878290D02*
X74586708Y-114929612D01*
X74586708Y-114929612D02*
X74652747Y-115012890D01*
X74652747Y-115012890D02*
X74693495Y-115064064D01*
X74693495Y-115064064D02*
X74734327Y-115115179D01*
X74734327Y-115115179D02*
X74775241Y-115166237D01*
X74775241Y-115166237D02*
X74811109Y-115210866D01*
X74811109Y-115210866D02*
X74847041Y-115255451D01*
X74847041Y-115255451D02*
X74883038Y-115299992D01*
X74883038Y-115299992D02*
X74919096Y-115344488D01*
X74919096Y-115344488D02*
X74955220Y-115388940D01*
X74955220Y-115388940D02*
X74991405Y-115433348D01*
X74991405Y-115433348D02*
X75027656Y-115477711D01*
X75027656Y-115477711D02*
X75063968Y-115522031D01*
X75063968Y-115522031D02*
X75100343Y-115566303D01*
X75100343Y-115566303D02*
X75136783Y-115610532D01*
X75136783Y-115610532D02*
X75183725Y-115667333D01*
X75183725Y-115667333D02*
X75225541Y-115717760D01*
X75225541Y-115717760D02*
X75267438Y-115768128D01*
X75267438Y-115768128D02*
X75309419Y-115818438D01*
X75309419Y-115818438D02*
X75356746Y-115874967D01*
X75356746Y-115874967D02*
X75398902Y-115925151D01*
X75398902Y-115925151D02*
X75435855Y-115969013D01*
X75435855Y-115969013D02*
X75472873Y-116012831D01*
X75472873Y-116012831D02*
X75515254Y-116062853D01*
X75515254Y-116062853D02*
X75552408Y-116106575D01*
X75552408Y-116106575D02*
X75594943Y-116156485D01*
X75594943Y-116156485D02*
X75637562Y-116206335D01*
X75637562Y-116206335D02*
X75680263Y-116256125D01*
X75680263Y-116256125D02*
X75717695Y-116299645D01*
X75717695Y-116299645D02*
X75760548Y-116349323D01*
X75760548Y-116349323D02*
X75803485Y-116398942D01*
X75803485Y-116398942D02*
X75846503Y-116448500D01*
X75846503Y-116448500D02*
X75889605Y-116498000D01*
X75889605Y-116498000D02*
X75927382Y-116541260D01*
X75927382Y-116541260D02*
X75965226Y-116584475D01*
X75965226Y-116584475D02*
X76008552Y-116633808D01*
X76008552Y-116633808D02*
X76051960Y-116683080D01*
X76051960Y-116683080D02*
X76100891Y-116738438D01*
X76100891Y-116738438D02*
X76144472Y-116787581D01*
X76144472Y-116787581D02*
X76188134Y-116836662D01*
X76188134Y-116836662D02*
X76231879Y-116885683D01*
X76231879Y-116885683D02*
X76270222Y-116928525D01*
X76270222Y-116928525D02*
X76308629Y-116971322D01*
X76308629Y-116971322D02*
X76347097Y-117014070D01*
X76347097Y-117014070D02*
X76385628Y-117056773D01*
X76385628Y-117056773D02*
X76440780Y-117117694D01*
X76440780Y-117117694D02*
X76479462Y-117160281D01*
X76479462Y-117160281D02*
X76523746Y-117208894D01*
X76523746Y-117208894D02*
X76568111Y-117257445D01*
X76568111Y-117257445D02*
X76612557Y-117305935D01*
X76612557Y-117305935D02*
X76657083Y-117354361D01*
X76657083Y-117354361D02*
X76707273Y-117408768D01*
X76707273Y-117408768D02*
X76751975Y-117457065D01*
X76751975Y-117457065D02*
X76791153Y-117499272D01*
X76791153Y-117499272D02*
X76836004Y-117547450D01*
X76836004Y-117547450D02*
X76897807Y-117613593D01*
X76897807Y-117613593D02*
X76937217Y-117655622D01*
X76937217Y-117655622D02*
X76982330Y-117703597D01*
X76982330Y-117703597D02*
X77050154Y-117775440D01*
X77050154Y-117775440D02*
X77095472Y-117823257D01*
X77095472Y-117823257D02*
X77135191Y-117865046D01*
X77135191Y-117865046D02*
X77180658Y-117912744D01*
X77180658Y-117912744D02*
X77231905Y-117966328D01*
X77231905Y-117966328D02*
X77283254Y-118019832D01*
X77283254Y-118019832D02*
X77323263Y-118061391D01*
X77323263Y-118061391D02*
X77369062Y-118108826D01*
X77369062Y-118108826D02*
X77420684Y-118162115D01*
X77420684Y-118162115D02*
X77460904Y-118203506D01*
X77460904Y-118203506D02*
X77506946Y-118250751D01*
X77506946Y-118250751D02*
X77564611Y-118309715D01*
X77564611Y-118309715D02*
X77610833Y-118356815D01*
X77610833Y-118356815D02*
X77662927Y-118409725D01*
X77662927Y-118409725D02*
X77703517Y-118450820D01*
X77703517Y-118450820D02*
X77749979Y-118497726D01*
X77749979Y-118497726D02*
X77802344Y-118550419D01*
X77802344Y-118550419D02*
X77843143Y-118591345D01*
X77843143Y-118591345D02*
X77869406Y-118617630D01*
X98729800Y-37853914D02*
X98729800Y-47117000D01*
X98729800Y-47117000D02*
X98637291Y-47137602D01*
X98637291Y-47137602D02*
X98551975Y-47156795D01*
X98551975Y-47156795D02*
X98239771Y-47228586D01*
X98239771Y-47228586D02*
X98140639Y-47251896D01*
X98140639Y-47251896D02*
X98041607Y-47275429D01*
X98041607Y-47275429D02*
X97674645Y-47364799D01*
X97674645Y-47364799D02*
X97604235Y-47382341D01*
X97604235Y-47382341D02*
X97519809Y-47403539D01*
X97519809Y-47403539D02*
X97449512Y-47421329D01*
X97449512Y-47421329D02*
X97365225Y-47442828D01*
X97365225Y-47442828D02*
X97295040Y-47460865D01*
X97295040Y-47460865D02*
X97140820Y-47500953D01*
X97140820Y-47500953D02*
X97014826Y-47534156D01*
X97014826Y-47534156D02*
X96916949Y-47560237D01*
X96916949Y-47560237D02*
X96791255Y-47594087D01*
X96791255Y-47594087D02*
X96582146Y-47651319D01*
X96582146Y-47651319D02*
X96331841Y-47721328D01*
X96331841Y-47721328D02*
X96248561Y-47744988D01*
X96248561Y-47744988D02*
X96179216Y-47764825D01*
X96179216Y-47764825D02*
X96068379Y-47796798D01*
X96068379Y-47796798D02*
X95999175Y-47816925D01*
X95999175Y-47816925D02*
X95930024Y-47837164D01*
X95930024Y-47837164D02*
X95819495Y-47869777D01*
X95819495Y-47869777D02*
X95543772Y-47952550D01*
X95543772Y-47952550D02*
X95433726Y-47986153D01*
X95433726Y-47986153D02*
X95241480Y-48045640D01*
X95241480Y-48045640D02*
X95118118Y-48084336D01*
X95118118Y-48084336D02*
X95008611Y-48119030D01*
X95008611Y-48119030D02*
X94926574Y-48145237D01*
X94926574Y-48145237D02*
X94817313Y-48180421D01*
X94817313Y-48180421D02*
X94721826Y-48211439D01*
X94721826Y-48211439D02*
X94585601Y-48256118D01*
X94585601Y-48256118D02*
X94313822Y-48346786D01*
X94313822Y-48346786D02*
X94097039Y-48420567D01*
X94097039Y-48420567D02*
X93450146Y-48648537D01*
X93450146Y-48648537D02*
X93289238Y-48707073D01*
X93289238Y-48707073D02*
X93208908Y-48736573D01*
X93208908Y-48736573D02*
X93142027Y-48761272D01*
X93142027Y-48761272D02*
X93048493Y-48796030D01*
X93048493Y-48796030D02*
X92981753Y-48820986D01*
X92981753Y-48820986D02*
X92901737Y-48851071D01*
X92901737Y-48851071D02*
X92595788Y-48967814D01*
X92595788Y-48967814D02*
X92489657Y-49008945D01*
X92489657Y-49008945D02*
X92410158Y-49039970D01*
X92410158Y-49039970D02*
X92343972Y-49065940D01*
X92343972Y-49065940D02*
X92040271Y-49186753D01*
X92040271Y-49186753D02*
X91974412Y-49213310D01*
X91974412Y-49213310D02*
X91895461Y-49245317D01*
X91895461Y-49245317D02*
X91750937Y-49304387D01*
X91750937Y-49304387D02*
X91606699Y-49363960D01*
X91606699Y-49363960D02*
X91358239Y-49468040D01*
X91358239Y-49468040D02*
X91292999Y-49495678D01*
X91292999Y-49495678D02*
X91097634Y-49579212D01*
X91097634Y-49579212D02*
X90863910Y-49680677D01*
X90863910Y-49680677D02*
X90411691Y-49881770D01*
X90411691Y-49881770D02*
X90244485Y-49957735D01*
X90244485Y-49957735D02*
X90180285Y-49987135D01*
X90180285Y-49987135D02*
X90013653Y-50064050D01*
X90013653Y-50064050D02*
X89860208Y-50135656D01*
X89860208Y-50135656D02*
X89694375Y-50213884D01*
X89694375Y-50213884D02*
X89338628Y-50384679D01*
X89338628Y-50384679D02*
X89249997Y-50427871D01*
X89249997Y-50427871D02*
X89085720Y-50508597D01*
X89085720Y-50508597D02*
X88947050Y-50577431D01*
X88947050Y-50577431D02*
X88796123Y-50653070D01*
X88796123Y-50653070D02*
X88683167Y-50710174D01*
X88683167Y-50710174D02*
X88545389Y-50780403D01*
X88545389Y-50780403D02*
X88445380Y-50831778D01*
X88445380Y-50831778D02*
X88283212Y-50915796D01*
X88283212Y-50915796D02*
X88034571Y-51046352D01*
X88034571Y-51046352D02*
X87972570Y-51079234D01*
X87972570Y-51079234D02*
X87910635Y-51112214D01*
X87910635Y-51112214D02*
X87601930Y-51278577D01*
X87601930Y-51278577D02*
X87405212Y-51386319D01*
X87405212Y-51386319D02*
X87307103Y-51440562D01*
X87307103Y-51440562D02*
X87209163Y-51495051D01*
X87209163Y-51495051D02*
X87013784Y-51604766D01*
X87013784Y-51604766D02*
X86819081Y-51715462D01*
X86819081Y-51715462D02*
X86479984Y-51911528D01*
X86479984Y-51911528D02*
X86383480Y-51968093D01*
X86383480Y-51968093D02*
X86203000Y-52074806D01*
X86203000Y-52074806D02*
X86142974Y-52110567D01*
X86142974Y-52110567D02*
X86047073Y-52167979D01*
X86047073Y-52167979D02*
X85903543Y-52254545D01*
X85903543Y-52254545D02*
X85593900Y-52443958D01*
X85593900Y-52443958D02*
X85274294Y-52643323D01*
X85274294Y-52643323D02*
X85132885Y-52732796D01*
X85132885Y-52732796D02*
X85003609Y-52815278D01*
X85003609Y-52815278D02*
X84862961Y-52905769D01*
X84862961Y-52905769D02*
X84804475Y-52943629D01*
X84804475Y-52943629D02*
X84664393Y-53034869D01*
X84664393Y-53034869D02*
X84455017Y-53172711D01*
X84455017Y-53172711D02*
X84339088Y-53249801D01*
X84339088Y-53249801D02*
X84096549Y-53412869D01*
X84096549Y-53412869D02*
X83912590Y-53538182D01*
X83912590Y-53538182D02*
X83683657Y-53696115D01*
X83683657Y-53696115D02*
X83387741Y-53903567D01*
X83387741Y-53903567D02*
X83229201Y-54016270D01*
X83229201Y-54016270D02*
X82723424Y-54383219D01*
X82723424Y-54383219D02*
X82600680Y-54474000D01*
X82600680Y-54474000D02*
X82489401Y-54556894D01*
X82489401Y-54556894D02*
X82367329Y-54648480D01*
X82367329Y-54648480D02*
X81751373Y-55121228D01*
X81751373Y-55121228D02*
X81675031Y-55181080D01*
X81675031Y-55181080D02*
X81587958Y-55249685D01*
X81587958Y-55249685D02*
X76668955Y-59809899D01*
X76668955Y-59809899D02*
X76473496Y-60023528D01*
X76473496Y-60023528D02*
X76417921Y-60084804D01*
X76417921Y-60084804D02*
X76307132Y-60207676D01*
X76307132Y-60207676D02*
X76032273Y-60516706D01*
X76032273Y-60516706D02*
X75977664Y-60578828D01*
X75977664Y-60578828D02*
X75661542Y-60943285D01*
X75661542Y-60943285D02*
X75563049Y-61058558D01*
X75563049Y-61058558D02*
X75482769Y-61153131D01*
X75482769Y-61153131D02*
X75331886Y-61332402D01*
X75331886Y-61332402D02*
X75252408Y-61427642D01*
X75252408Y-61427642D02*
X75068042Y-61650764D01*
X75068042Y-61650764D02*
X74937282Y-61810898D01*
X74937282Y-61810898D02*
X74798665Y-61982403D01*
X74798665Y-61982403D02*
X74746910Y-62046900D01*
X74746910Y-62046900D02*
X74695281Y-62111498D01*
X74695281Y-62111498D02*
X74549682Y-62295070D01*
X74549682Y-62295070D02*
X74490023Y-62370892D01*
X74490023Y-62370892D02*
X74345848Y-62555590D01*
X74345848Y-62555590D02*
X74227879Y-62708292D01*
X74227879Y-62708292D02*
X74127311Y-62839604D01*
X74127311Y-62839604D02*
X74085558Y-62894434D01*
X74085558Y-62894434D02*
X74035570Y-62960318D01*
X74035570Y-62960318D02*
X73919428Y-63114428D01*
X73919428Y-63114428D02*
X73795761Y-63280132D01*
X73795761Y-63280132D02*
X73746519Y-63346585D01*
X73746519Y-63346585D02*
X73689231Y-63424233D01*
X73689231Y-63424233D02*
X73640266Y-63490892D01*
X73640266Y-63490892D02*
X73502230Y-63680281D01*
X73502230Y-63680281D02*
X73397372Y-63825628D01*
X73397372Y-63825628D02*
X73325133Y-63926514D01*
X73325133Y-63926514D02*
X73269149Y-64005127D01*
X73269149Y-64005127D02*
X73221304Y-64072613D01*
X73221304Y-64072613D02*
X73133925Y-64196581D01*
X73133925Y-64196581D02*
X73078548Y-64275636D01*
X73078548Y-64275636D02*
X73015475Y-64366138D01*
X73015475Y-64366138D02*
X72921303Y-64502205D01*
X72921303Y-64502205D02*
X72874412Y-64570378D01*
X72874412Y-64570378D02*
X72788789Y-64695604D01*
X72788789Y-64695604D02*
X72726795Y-64786873D01*
X72726795Y-64786873D02*
X72641936Y-64912636D01*
X72641936Y-64912636D02*
X72580496Y-65004293D01*
X72580496Y-65004293D02*
X72337089Y-65372549D01*
X72337089Y-65372549D02*
X72246783Y-65511311D01*
X72246783Y-65511311D02*
X72149554Y-65662044D01*
X72149554Y-65662044D02*
X72060359Y-65801557D01*
X72060359Y-65801557D02*
X71993816Y-65906427D01*
X71993816Y-65906427D02*
X71949622Y-65976452D01*
X71949622Y-65976452D02*
X71854327Y-66128479D01*
X71854327Y-66128479D02*
X71766922Y-66269180D01*
X71766922Y-66269180D02*
X71723420Y-66339663D01*
X71723420Y-66339663D02*
X71651220Y-66457330D01*
X71651220Y-66457330D02*
X71536481Y-66646102D01*
X71536481Y-66646102D02*
X71302880Y-67037402D01*
X71302880Y-67037402D02*
X71253858Y-67120740D01*
X71253858Y-67120740D02*
X71211987Y-67192266D01*
X71211987Y-67192266D02*
X71135580Y-67323620D01*
X71135580Y-67323620D02*
X71094099Y-67395390D01*
X71094099Y-67395390D02*
X71039003Y-67491214D01*
X71039003Y-67491214D02*
X70915929Y-67707369D01*
X70915929Y-67707369D02*
X70875181Y-67779590D01*
X70875181Y-67779590D02*
X70821065Y-67876014D01*
X70821065Y-67876014D02*
X70673512Y-68141949D01*
X70673512Y-68141949D02*
X70633596Y-68214672D01*
X70633596Y-68214672D02*
X70573979Y-68323910D01*
X70573979Y-68323910D02*
X70521251Y-68421168D01*
X70521251Y-68421168D02*
X70481866Y-68494207D01*
X70481866Y-68494207D02*
X70429572Y-68591722D01*
X70429572Y-68591722D02*
X70377525Y-68689381D01*
X70377525Y-68689381D02*
X70248499Y-68934162D01*
X70248499Y-68934162D02*
X70197326Y-69032328D01*
X70197326Y-69032328D02*
X70146403Y-69130637D01*
X70146403Y-69130637D02*
X70095731Y-69229091D01*
X70095731Y-69229091D02*
X70045310Y-69327686D01*
X70045310Y-69327686D02*
X70007661Y-69401728D01*
X70007661Y-69401728D02*
X69963913Y-69488208D01*
X69963913Y-69488208D02*
X69914151Y-69587176D01*
X69914151Y-69587176D02*
X69833827Y-69748300D01*
X69833827Y-69748300D02*
X69748072Y-69922232D01*
X69748072Y-69922232D02*
X69675186Y-70071657D01*
X69675186Y-70071657D02*
X69644986Y-70134010D01*
X69644986Y-70134010D02*
X69584883Y-70258878D01*
X69584883Y-70258878D02*
X69507344Y-70421528D01*
X69507344Y-70421528D02*
X69454058Y-70534346D01*
X69454058Y-70534346D02*
X69418714Y-70609654D01*
X69418714Y-70609654D02*
X69365968Y-70722758D01*
X69365968Y-70722758D02*
X69307742Y-70848631D01*
X69307742Y-70848631D02*
X69278780Y-70911647D01*
X69278780Y-70911647D02*
X69226902Y-71025210D01*
X69226902Y-71025210D02*
X69198221Y-71088374D01*
X69198221Y-71088374D02*
X69163936Y-71164238D01*
X69163936Y-71164238D02*
X69112783Y-71278177D01*
X69112783Y-71278177D02*
X69084505Y-71341550D01*
X69084505Y-71341550D02*
X69045086Y-71430359D01*
X69045086Y-71430359D02*
X68994697Y-71544691D01*
X68994697Y-71544691D02*
X68933556Y-71684657D01*
X68933556Y-71684657D02*
X68905927Y-71748361D01*
X68905927Y-71748361D02*
X68867417Y-71837632D01*
X68867417Y-71837632D02*
X68834567Y-71914230D01*
X68834567Y-71914230D02*
X68780143Y-72042055D01*
X68780143Y-72042055D02*
X68747685Y-72118849D01*
X68747685Y-72118849D02*
X68693915Y-72246999D01*
X68693915Y-72246999D02*
X68651193Y-72349665D01*
X68651193Y-72349665D02*
X68592879Y-72491040D01*
X68592879Y-72491040D02*
X68503737Y-72710004D01*
X68503737Y-72710004D02*
X68467377Y-72800332D01*
X68467377Y-72800332D02*
X68431220Y-72890758D01*
X68431220Y-72890758D02*
X68374810Y-73033051D01*
X68374810Y-73033051D02*
X68334099Y-73136684D01*
X68334099Y-73136684D02*
X68303738Y-73214492D01*
X68303738Y-73214492D02*
X68263491Y-73318345D01*
X68263491Y-73318345D02*
X68238471Y-73383316D01*
X68238471Y-73383316D02*
X68198657Y-73487372D01*
X68198657Y-73487372D02*
X68164037Y-73578520D01*
X68164037Y-73578520D02*
X68124722Y-73682806D01*
X68124722Y-73682806D02*
X68100286Y-73748046D01*
X68100286Y-73748046D02*
X68061405Y-73852532D01*
X68061405Y-73852532D02*
X68022792Y-73957139D01*
X68022792Y-73957139D02*
X67989225Y-74048770D01*
X67989225Y-74048770D02*
X67951115Y-74153604D01*
X67951115Y-74153604D02*
X67908563Y-74271689D01*
X67908563Y-74271689D02*
X67871023Y-74376777D01*
X67871023Y-74376777D02*
X67838398Y-74468830D01*
X67838398Y-74468830D02*
X67801363Y-74574143D01*
X67801363Y-74574143D02*
X67760025Y-74692764D01*
X67760025Y-74692764D02*
X67723566Y-74798329D01*
X67723566Y-74798329D02*
X67682875Y-74917233D01*
X67682875Y-74917233D02*
X67638064Y-75049521D01*
X67638064Y-75049521D02*
X67589264Y-75195248D01*
X67589264Y-75195248D02*
X67536614Y-75354475D01*
X67536614Y-75354475D02*
X67510518Y-75434185D01*
X67510518Y-75434185D02*
X67458790Y-75593799D01*
X67458790Y-75593799D02*
X67416154Y-75727007D01*
X67416154Y-75727007D02*
X67373947Y-75860394D01*
X67373947Y-75860394D02*
X67340491Y-75967232D01*
X67340491Y-75967232D02*
X67311441Y-76060806D01*
X67311441Y-76060806D02*
X67278499Y-76167853D01*
X67278499Y-76167853D02*
X67229603Y-76328635D01*
X67229603Y-76328635D02*
X67169360Y-76529965D01*
X67169360Y-76529965D02*
X67125800Y-76677852D01*
X67125800Y-76677852D02*
X67106173Y-76745144D01*
X67106173Y-76745144D02*
X67067245Y-76879853D01*
X67067245Y-76879853D02*
X67005865Y-77095741D01*
X67005865Y-77095741D02*
X66960563Y-77257941D01*
X66960563Y-77257941D02*
X66938147Y-77339133D01*
X66938147Y-77339133D02*
X66871843Y-77583065D01*
X66871843Y-77583065D02*
X66814101Y-77800344D01*
X66814101Y-77800344D02*
X66796286Y-77868331D01*
X66796286Y-77868331D02*
X66719212Y-78167954D01*
X66719212Y-78167954D02*
X66701992Y-78236159D01*
X66701992Y-78236159D02*
X66647632Y-78454686D01*
X66647632Y-78454686D02*
X66614234Y-78591477D01*
X66614234Y-78591477D02*
X66597699Y-78659929D01*
X66597699Y-78659929D02*
X66526274Y-78961594D01*
X66526274Y-78961594D02*
X66504001Y-79057738D01*
X66504001Y-79057738D02*
X66488224Y-79126459D01*
X66488224Y-79126459D02*
X66466325Y-79222734D01*
X66466325Y-79222734D02*
X66411020Y-79470646D01*
X66411020Y-79470646D02*
X66383910Y-79594786D01*
X66383910Y-79594786D02*
X66177509Y-80606219D01*
X66177509Y-80606219D02*
X66158985Y-80703620D01*
X66158985Y-80703620D02*
X66140684Y-80801093D01*
X66140684Y-80801093D02*
X66125173Y-80884696D01*
X66125173Y-80884696D02*
X66052527Y-81289509D01*
X66052527Y-81289509D02*
X66040390Y-81359426D01*
X66040390Y-81359426D02*
X66025976Y-81443370D01*
X66025976Y-81443370D02*
X65976830Y-81737577D01*
X65976830Y-81737577D02*
X65960899Y-81835782D01*
X65960899Y-81835782D02*
X65945192Y-81934056D01*
X65945192Y-81934056D02*
X65918794Y-82102680D01*
X65918794Y-82102680D02*
X65907990Y-82172998D01*
X65907990Y-82172998D02*
X65893060Y-82271501D01*
X65893060Y-82271501D02*
X65865934Y-82454609D01*
X65865934Y-82454609D02*
X65851653Y-82553301D01*
X65851653Y-82553301D02*
X65814036Y-82821505D01*
X65814036Y-82821505D02*
X65787393Y-83019435D01*
X65787393Y-83019435D02*
X65778098Y-83090186D01*
X65778098Y-83090186D02*
X65752696Y-83288460D01*
X65752696Y-83288460D02*
X65723084Y-83529561D01*
X65723084Y-83529561D02*
X65701354Y-83714183D01*
X65701354Y-83714183D02*
X65691591Y-83799464D01*
X65691591Y-83799464D02*
X65677269Y-83927472D01*
X65677269Y-83927472D02*
X65667930Y-84012866D01*
X65667930Y-84012866D02*
X65654242Y-84141040D01*
X65654242Y-84141040D02*
X65636586Y-84312096D01*
X65636586Y-84312096D02*
X65616850Y-84511886D01*
X65616850Y-84511886D02*
X65600671Y-84683322D01*
X65600671Y-84683322D02*
X65586443Y-84840624D01*
X65586443Y-84840624D02*
X65578923Y-84926485D01*
X65578923Y-84926485D02*
X65569164Y-85041033D01*
X65569164Y-85041033D02*
X65558550Y-85169988D01*
X65558550Y-85169988D02*
X65543903Y-85356428D01*
X65543903Y-85356428D02*
X65534234Y-85485615D01*
X65534234Y-85485615D02*
X65520956Y-85672385D01*
X65520956Y-85672385D02*
X65512238Y-85801799D01*
X65512238Y-85801799D02*
X65504814Y-85916911D01*
X65504814Y-85916911D02*
X65489240Y-86176174D01*
X65489240Y-86176174D02*
X65478963Y-86363644D01*
X65478963Y-86363644D02*
X65473045Y-86479103D01*
X65473045Y-86479103D02*
X65468121Y-86580185D01*
X65468121Y-86580185D02*
X65462785Y-86695775D01*
X65462785Y-86695775D02*
X65457757Y-86811430D01*
X65457757Y-86811430D02*
X65451910Y-86956098D01*
X65451910Y-86956098D02*
X65447582Y-87071907D01*
X65447582Y-87071907D02*
X65443087Y-87202275D01*
X65443087Y-87202275D02*
X65437291Y-87390733D01*
X65437291Y-87390733D02*
X65433392Y-87535819D01*
X65433392Y-87535819D02*
X65430304Y-87666484D01*
X65430304Y-87666484D02*
X65426802Y-87840832D01*
X65426802Y-87840832D02*
X65424423Y-87986232D01*
X65424423Y-87986232D02*
X65422374Y-88146287D01*
X65422374Y-88146287D02*
X65421380Y-88248203D01*
X65421380Y-88248203D02*
X65420541Y-88364737D01*
X65420541Y-88364737D02*
X65420065Y-88466756D01*
X65420065Y-88466756D02*
X65419842Y-88561532D01*
M02*
