M48
; DRILL file {KiCad (5.1.0)-1} date 11/25/2019 8:58:08 PM
; FORMAT={-:-/ absolute / inch / decimal}
; #@! TF.CreationDate,2019-11-25T20:58:08-05:00
; #@! TF.GenerationSoftware,Kicad,Pcbnew,(5.1.0)-1
; #@! TF.FileFunction,Plated,1,2,PTH
FMAT,2
INCH
T1C0.0157
T2C0.0315
T3C0.0354
T4C0.0390
T5C0.0450
%
G90
G05
T1
X4.3Y-3.8
T2
X4.8362Y-3.3858
X5.2362Y-3.3858
X4.7959Y-4.0872
X5.0787Y-4.3701
X4.252Y-2.3228
X4.252Y-2.7228
X3.3071Y-2.7165
X3.5899Y-2.9994
X3.189Y-3.7402
X3.589Y-3.7402
X4.0945Y-2.9134
X4.0945Y-3.0134
X4.0945Y-3.1134
X4.0945Y-3.2134
X4.3945Y-2.9134
X4.3945Y-3.0134
X4.3945Y-3.1134
X4.3945Y-3.2134
X4.8353Y-2.9994
X5.1181Y-2.7165
X3.189Y-3.3858
X3.589Y-3.3858
X4.8362Y-3.7402
X5.2362Y-3.7402
X4.0945Y-3.4646
X4.0945Y-3.5646
X4.0945Y-3.6646
X4.0945Y-3.7646
X4.0945Y-3.8646
X4.0945Y-3.9646
X4.0945Y-4.0646
X4.0945Y-4.1646
X4.3945Y-3.4646
X4.3945Y-3.5646
X4.3945Y-3.6646
X4.3945Y-3.7646
X4.3945Y-3.8646
X4.3945Y-3.9646
X4.3945Y-4.0646
X4.3945Y-4.1646
X3.6376Y-2.5897
X4.0376Y-2.5897
X3.3071Y-4.3701
X3.5899Y-4.0872
T3
X2.7953Y-3.1102
X2.8953Y-3.1102
X5.5906Y-3.9764
X5.6906Y-3.9764
X5.5906Y-3.0709
X5.6906Y-3.0709
X5.1575Y-2.3228
X5.2575Y-2.3228
X4.2Y-2.0625
X4.3Y-2.0625
X5.1575Y-4.6457
X5.2575Y-4.6457
X3.2283Y-4.6457
X3.3283Y-4.6457
X2.7953Y-3.9764
X2.8953Y-3.9764
X3.2283Y-2.3228
X3.3283Y-2.3228
T4
X3.6966Y-2.1763
X3.6966Y-2.3535
X3.9525Y-2.1763
X3.9525Y-2.3535
T5
X3.84Y-4.58
X3.84Y-4.7
X4.66Y-4.58
X4.66Y-4.7
T0
M30
