G04 #@! TF.GenerationSoftware,KiCad,Pcbnew,(5.1.0)-1*
G04 #@! TF.CreationDate,2019-11-25T20:58:05-05:00*
G04 #@! TF.ProjectId,Christmas Ornament 2019,43687269-7374-46d6-9173-204f726e616d,rev?*
G04 #@! TF.SameCoordinates,Original*
G04 #@! TF.FileFunction,Legend,Bot*
G04 #@! TF.FilePolarity,Positive*
%FSLAX46Y46*%
G04 Gerber Fmt 4.6, Leading zero omitted, Abs format (unit mm)*
G04 Created by KiCad (PCBNEW (5.1.0)-1) date 2019-11-25 20:58:05*
%MOMM*%
%LPD*%
G04 APERTURE LIST*
%ADD10C,0.080000*%
%ADD11C,0.150000*%
G04 APERTURE END LIST*
D10*
X111904996Y-47180500D02*
X111904996Y-47180500D01*
X106263926Y-47180500D02*
X106271206Y-47253991D01*
X106271206Y-47253991D02*
X106287188Y-47319948D01*
X106287188Y-47319948D02*
X106307407Y-47380449D01*
X106307407Y-47380449D02*
X106330569Y-47438312D01*
X106330569Y-47438312D02*
X106355571Y-47493720D01*
X106355571Y-47493720D02*
X106382616Y-47548654D01*
X106382616Y-47548654D02*
X106410296Y-47601249D01*
X106410296Y-47601249D02*
X106440399Y-47655464D01*
X106440399Y-47655464D02*
X106470081Y-47706634D01*
X106470081Y-47706634D02*
X106501116Y-47758251D01*
X106501116Y-47758251D02*
X106531832Y-47807809D01*
X106531832Y-47807809D02*
X106564991Y-47859924D01*
X106564991Y-47859924D02*
X106596844Y-47908862D01*
X106596844Y-47908862D02*
X106630378Y-47959385D01*
X106630378Y-47959385D02*
X106664423Y-48009788D01*
X106664423Y-48009788D02*
X106697084Y-48057425D01*
X106697084Y-48057425D02*
X106730539Y-48105593D01*
X106730539Y-48105593D02*
X106765353Y-48155128D01*
X106765353Y-48155128D02*
X106798983Y-48202492D01*
X106798983Y-48202492D02*
X106834471Y-48252019D01*
X106834471Y-48252019D02*
X106870526Y-48301925D01*
X106870526Y-48301925D02*
X106904460Y-48348570D01*
X106904460Y-48348570D02*
X106938789Y-48395480D01*
X106938789Y-48395480D02*
X106973463Y-48442620D01*
X106973463Y-48442620D02*
X107009790Y-48491786D01*
X107009790Y-48491786D02*
X107046385Y-48541133D01*
X107046385Y-48541133D02*
X107081835Y-48588792D01*
X107081835Y-48588792D02*
X107118818Y-48638398D01*
X107118818Y-48638398D02*
X107154542Y-48686240D01*
X107154542Y-48686240D02*
X107193085Y-48737811D01*
X107193085Y-48737811D02*
X107231643Y-48789390D01*
X107231643Y-48789390D02*
X107267410Y-48837263D01*
X107267410Y-48837263D02*
X107305838Y-48888755D01*
X107305838Y-48888755D02*
X107340021Y-48934645D01*
X107340021Y-48934645D02*
X107375398Y-48982255D01*
X107375398Y-48982255D02*
X107413245Y-49033361D01*
X107413245Y-49033361D02*
X107448110Y-49080629D01*
X107448110Y-49080629D02*
X107482657Y-49127684D01*
X107482657Y-49127684D02*
X107519454Y-49178086D01*
X107519454Y-49178086D02*
X107553193Y-49224602D01*
X107553193Y-49224602D02*
X107589012Y-49274350D01*
X107589012Y-49274350D02*
X107622367Y-49321069D01*
X107622367Y-49321069D02*
X107656369Y-49369142D01*
X107656369Y-49369142D02*
X107690294Y-49417624D01*
X107690294Y-49417624D02*
X107725214Y-49468150D01*
X107725214Y-49468150D02*
X107758084Y-49516388D01*
X107758084Y-49516388D02*
X107791149Y-49565676D01*
X107791149Y-49565676D02*
X107823702Y-49615083D01*
X107823702Y-49615083D02*
X107855107Y-49663721D01*
X107855107Y-49663721D02*
X107887256Y-49714698D01*
X107887256Y-49714698D02*
X107918398Y-49765463D01*
X107918398Y-49765463D02*
X107949249Y-49817415D01*
X107949249Y-49817415D02*
X107979468Y-49870325D01*
X107979468Y-49870325D02*
X108007911Y-49922511D01*
X108007911Y-49922511D02*
X108036084Y-49977277D01*
X108036084Y-49977277D02*
X108061969Y-50031435D01*
X108061969Y-50031435D02*
X108086201Y-50087250D01*
X108086201Y-50087250D02*
X108108601Y-50146446D01*
X108108601Y-50146446D02*
X108127302Y-50207773D01*
X108127302Y-50207773D02*
X108140772Y-50274812D01*
X108140772Y-50274812D02*
X108144282Y-50324600D01*
X108144282Y-50324600D02*
X108151562Y-50251101D01*
X108151562Y-50251101D02*
X108167208Y-50186292D01*
X108167208Y-50186292D02*
X108187311Y-50125868D01*
X108187311Y-50125868D02*
X108210373Y-50068070D01*
X108210373Y-50068070D02*
X108235609Y-50012047D01*
X108235609Y-50012047D02*
X108262259Y-49957836D01*
X108262259Y-49957836D02*
X108289871Y-49905286D01*
X108289871Y-49905286D02*
X108319068Y-49852599D01*
X108319068Y-49852599D02*
X108348639Y-49801501D01*
X108348639Y-49801501D02*
X108379098Y-49750732D01*
X108379098Y-49750732D02*
X108410694Y-49699664D01*
X108410694Y-49699664D02*
X108443266Y-49648405D01*
X108443266Y-49648405D02*
X108477200Y-49596232D01*
X108477200Y-49596232D02*
X108509617Y-49547377D01*
X108509617Y-49547377D02*
X108541903Y-49499531D01*
X108541903Y-49499531D02*
X108575079Y-49451089D01*
X108575079Y-49451089D02*
X108607878Y-49403822D01*
X108607878Y-49403822D02*
X108642009Y-49355202D01*
X108642009Y-49355202D02*
X108676827Y-49306125D01*
X108676827Y-49306125D02*
X108712272Y-49256625D01*
X108712272Y-49256625D02*
X108748290Y-49206746D01*
X108748290Y-49206746D02*
X108782193Y-49160121D01*
X108782193Y-49160121D02*
X108816492Y-49113230D01*
X108816492Y-49113230D02*
X108851141Y-49066106D01*
X108851141Y-49066106D02*
X108890146Y-49013308D01*
X108890146Y-49013308D02*
X108926741Y-48963959D01*
X108926741Y-48963959D02*
X108962191Y-48916300D01*
X108962191Y-48916300D02*
X109001919Y-48863020D01*
X109001919Y-48863020D02*
X109037649Y-48815173D01*
X109037649Y-48815173D02*
X109073441Y-48767287D01*
X109073441Y-48767287D02*
X109111999Y-48715706D01*
X109111999Y-48715706D02*
X109156011Y-48656791D01*
X109156011Y-48656791D02*
X109197148Y-48601643D01*
X109197148Y-48601643D02*
X109235368Y-48550289D01*
X109235368Y-48550289D02*
X109273361Y-48499086D01*
X109273361Y-48499086D02*
X109309730Y-48449891D01*
X109309730Y-48449891D02*
X109344454Y-48402719D01*
X109344454Y-48402719D02*
X109380153Y-48353970D01*
X109380153Y-48353970D02*
X109416735Y-48303713D01*
X109416735Y-48303713D02*
X109452808Y-48253795D01*
X109452808Y-48253795D02*
X109487058Y-48206015D01*
X109487058Y-48206015D02*
X109521351Y-48157749D01*
X109521351Y-48157749D02*
X109556201Y-48108188D01*
X109556201Y-48108188D02*
X109590292Y-48059137D01*
X109590292Y-48059137D02*
X109624710Y-48008943D01*
X109624710Y-48008943D02*
X109658178Y-47959385D01*
X109658178Y-47959385D02*
X109691712Y-47908862D01*
X109691712Y-47908862D02*
X109723567Y-47859924D01*
X109723567Y-47859924D02*
X109756225Y-47808604D01*
X109756225Y-47808604D02*
X109787439Y-47758251D01*
X109787439Y-47758251D02*
X109817573Y-47708158D01*
X109817573Y-47708158D02*
X109847313Y-47656951D01*
X109847313Y-47656951D02*
X109876695Y-47604140D01*
X109876695Y-47604140D02*
X109904508Y-47551454D01*
X109904508Y-47551454D02*
X109931066Y-47497769D01*
X109931066Y-47497769D02*
X109956322Y-47442189D01*
X109956322Y-47442189D02*
X109979780Y-47384130D01*
X109979780Y-47384130D02*
X110000690Y-47322245D01*
X110000690Y-47322245D02*
X110016761Y-47257150D01*
X110016761Y-47257150D02*
X110024610Y-47184661D01*
X110024610Y-47184661D02*
X110024639Y-47180500D01*
X108144282Y-47180500D02*
X106263926Y-47180500D01*
X104383570Y-50324600D02*
X104390850Y-50251101D01*
X104390850Y-50251101D02*
X104406496Y-50186292D01*
X104406496Y-50186292D02*
X104426599Y-50125868D01*
X104426599Y-50125868D02*
X104449661Y-50068070D01*
X104449661Y-50068070D02*
X104474897Y-50012047D01*
X104474897Y-50012047D02*
X104501547Y-49957836D01*
X104501547Y-49957836D02*
X104529159Y-49905286D01*
X104529159Y-49905286D02*
X104558356Y-49852599D01*
X104558356Y-49852599D02*
X104587927Y-49801501D01*
X104587927Y-49801501D02*
X104618386Y-49750732D01*
X104618386Y-49750732D02*
X104649982Y-49699664D01*
X104649982Y-49699664D02*
X104682554Y-49648405D01*
X104682554Y-49648405D02*
X104716488Y-49596232D01*
X104716488Y-49596232D02*
X104748905Y-49547377D01*
X104748905Y-49547377D02*
X104781191Y-49499531D01*
X104781191Y-49499531D02*
X104814367Y-49451089D01*
X104814367Y-49451089D02*
X104847166Y-49403822D01*
X104847166Y-49403822D02*
X104881297Y-49355202D01*
X104881297Y-49355202D02*
X104916115Y-49306125D01*
X104916115Y-49306125D02*
X104951560Y-49256625D01*
X104951560Y-49256625D02*
X104987578Y-49206746D01*
X104987578Y-49206746D02*
X105021481Y-49160121D01*
X105021481Y-49160121D02*
X105055780Y-49113230D01*
X105055780Y-49113230D02*
X105090429Y-49066106D01*
X105090429Y-49066106D02*
X105129434Y-49013308D01*
X105129434Y-49013308D02*
X105166029Y-48963959D01*
X105166029Y-48963959D02*
X105201479Y-48916300D01*
X105201479Y-48916300D02*
X105241207Y-48863020D01*
X105241207Y-48863020D02*
X105276937Y-48815173D01*
X105276937Y-48815173D02*
X105312729Y-48767287D01*
X105312729Y-48767287D02*
X105351287Y-48715706D01*
X105351287Y-48715706D02*
X105395299Y-48656791D01*
X105395299Y-48656791D02*
X105436436Y-48601643D01*
X105436436Y-48601643D02*
X105474656Y-48550289D01*
X105474656Y-48550289D02*
X105512649Y-48499086D01*
X105512649Y-48499086D02*
X105549018Y-48449891D01*
X105549018Y-48449891D02*
X105583742Y-48402719D01*
X105583742Y-48402719D02*
X105619441Y-48353970D01*
X105619441Y-48353970D02*
X105656023Y-48303713D01*
X105656023Y-48303713D02*
X105692095Y-48253795D01*
X105692095Y-48253795D02*
X105726345Y-48206015D01*
X105726345Y-48206015D02*
X105760638Y-48157749D01*
X105760638Y-48157749D02*
X105795488Y-48108188D01*
X105795488Y-48108188D02*
X105829579Y-48059137D01*
X105829579Y-48059137D02*
X105863997Y-48008943D01*
X105863997Y-48008943D02*
X105897465Y-47959385D01*
X105897465Y-47959385D02*
X105930999Y-47908862D01*
X105930999Y-47908862D02*
X105962854Y-47859924D01*
X105962854Y-47859924D02*
X105995512Y-47808604D01*
X105995512Y-47808604D02*
X106026726Y-47758251D01*
X106026726Y-47758251D02*
X106056860Y-47708158D01*
X106056860Y-47708158D02*
X106086600Y-47656951D01*
X106086600Y-47656951D02*
X106115982Y-47604140D01*
X106115982Y-47604140D02*
X106143795Y-47551454D01*
X106143795Y-47551454D02*
X106170353Y-47497769D01*
X106170353Y-47497769D02*
X106195609Y-47442189D01*
X106195609Y-47442189D02*
X106219067Y-47384130D01*
X106219067Y-47384130D02*
X106239977Y-47322245D01*
X106239977Y-47322245D02*
X106256048Y-47257150D01*
X106256048Y-47257150D02*
X106263897Y-47184661D01*
X106263897Y-47184661D02*
X106263926Y-47180500D01*
X100622856Y-47180500D02*
X100622856Y-47180500D01*
X113785352Y-47180500D02*
X111904996Y-47180500D01*
X115253937Y-50302346D02*
X115261217Y-50228847D01*
X115261217Y-50228847D02*
X115276863Y-50164038D01*
X115276863Y-50164038D02*
X115296966Y-50103614D01*
X115296966Y-50103614D02*
X115320028Y-50045816D01*
X115320028Y-50045816D02*
X115345264Y-49989793D01*
X115345264Y-49989793D02*
X115371914Y-49935582D01*
X115371914Y-49935582D02*
X115399526Y-49883032D01*
X115399526Y-49883032D02*
X115428723Y-49830345D01*
X115428723Y-49830345D02*
X115458294Y-49779247D01*
X115458294Y-49779247D02*
X115488753Y-49728478D01*
X115488753Y-49728478D02*
X115520349Y-49677410D01*
X115520349Y-49677410D02*
X115552921Y-49626151D01*
X115552921Y-49626151D02*
X115586855Y-49573978D01*
X115586855Y-49573978D02*
X115619272Y-49525123D01*
X115619272Y-49525123D02*
X115651558Y-49477277D01*
X115651558Y-49477277D02*
X115684734Y-49428835D01*
X115684734Y-49428835D02*
X115717533Y-49381568D01*
X115717533Y-49381568D02*
X115751664Y-49332948D01*
X115751664Y-49332948D02*
X115786482Y-49283871D01*
X115786482Y-49283871D02*
X115821927Y-49234371D01*
X115821927Y-49234371D02*
X115857945Y-49184492D01*
X115857945Y-49184492D02*
X115891848Y-49137867D01*
X115891848Y-49137867D02*
X115926147Y-49090976D01*
X115926147Y-49090976D02*
X115960796Y-49043852D01*
X115960796Y-49043852D02*
X115999801Y-48991054D01*
X115999801Y-48991054D02*
X116036396Y-48941705D01*
X116036396Y-48941705D02*
X116071846Y-48894046D01*
X116071846Y-48894046D02*
X116111574Y-48840766D01*
X116111574Y-48840766D02*
X116147304Y-48792919D01*
X116147304Y-48792919D02*
X116183096Y-48745033D01*
X116183096Y-48745033D02*
X116221654Y-48693452D01*
X116221654Y-48693452D02*
X116265666Y-48634537D01*
X116265666Y-48634537D02*
X116306803Y-48579389D01*
X116306803Y-48579389D02*
X116345023Y-48528035D01*
X116345023Y-48528035D02*
X116383016Y-48476832D01*
X116383016Y-48476832D02*
X116419385Y-48427637D01*
X116419385Y-48427637D02*
X116454109Y-48380465D01*
X116454109Y-48380465D02*
X116489808Y-48331716D01*
X116489808Y-48331716D02*
X116526390Y-48281459D01*
X116526390Y-48281459D02*
X116562462Y-48231541D01*
X116562462Y-48231541D02*
X116596712Y-48183761D01*
X116596712Y-48183761D02*
X116631005Y-48135495D01*
X116631005Y-48135495D02*
X116665855Y-48085934D01*
X116665855Y-48085934D02*
X116699946Y-48036883D01*
X116699946Y-48036883D02*
X116734364Y-47986689D01*
X116734364Y-47986689D02*
X116767832Y-47937131D01*
X116767832Y-47937131D02*
X116801366Y-47886608D01*
X116801366Y-47886608D02*
X116833221Y-47837670D01*
X116833221Y-47837670D02*
X116865879Y-47786350D01*
X116865879Y-47786350D02*
X116897093Y-47735997D01*
X116897093Y-47735997D02*
X116927227Y-47685905D01*
X116927227Y-47685905D02*
X116956967Y-47634698D01*
X116956967Y-47634698D02*
X116986349Y-47581887D01*
X116986349Y-47581887D02*
X117014162Y-47529201D01*
X117014162Y-47529201D02*
X117040720Y-47475516D01*
X117040720Y-47475516D02*
X117065976Y-47419936D01*
X117065976Y-47419936D02*
X117089434Y-47361877D01*
X117089434Y-47361877D02*
X117110344Y-47299992D01*
X117110344Y-47299992D02*
X117126415Y-47234897D01*
X117126415Y-47234897D02*
X117134264Y-47162408D01*
X117134264Y-47162408D02*
X117134293Y-47158247D01*
X104383570Y-47180500D02*
X104383570Y-47180500D01*
X111904996Y-50324600D02*
X111912276Y-50251101D01*
X111912276Y-50251101D02*
X111927922Y-50186292D01*
X111927922Y-50186292D02*
X111948025Y-50125868D01*
X111948025Y-50125868D02*
X111971087Y-50068070D01*
X111971087Y-50068070D02*
X111996323Y-50012047D01*
X111996323Y-50012047D02*
X112022973Y-49957836D01*
X112022973Y-49957836D02*
X112050585Y-49905286D01*
X112050585Y-49905286D02*
X112079782Y-49852599D01*
X112079782Y-49852599D02*
X112109353Y-49801501D01*
X112109353Y-49801501D02*
X112139812Y-49750732D01*
X112139812Y-49750732D02*
X112171408Y-49699664D01*
X112171408Y-49699664D02*
X112203980Y-49648405D01*
X112203980Y-49648405D02*
X112237914Y-49596232D01*
X112237914Y-49596232D02*
X112270331Y-49547377D01*
X112270331Y-49547377D02*
X112302617Y-49499531D01*
X112302617Y-49499531D02*
X112335793Y-49451089D01*
X112335793Y-49451089D02*
X112368592Y-49403822D01*
X112368592Y-49403822D02*
X112402723Y-49355202D01*
X112402723Y-49355202D02*
X112437541Y-49306125D01*
X112437541Y-49306125D02*
X112472986Y-49256625D01*
X112472986Y-49256625D02*
X112509004Y-49206746D01*
X112509004Y-49206746D02*
X112542907Y-49160121D01*
X112542907Y-49160121D02*
X112577206Y-49113230D01*
X112577206Y-49113230D02*
X112611855Y-49066106D01*
X112611855Y-49066106D02*
X112650860Y-49013308D01*
X112650860Y-49013308D02*
X112687455Y-48963959D01*
X112687455Y-48963959D02*
X112722905Y-48916300D01*
X112722905Y-48916300D02*
X112762633Y-48863020D01*
X112762633Y-48863020D02*
X112798363Y-48815173D01*
X112798363Y-48815173D02*
X112834155Y-48767287D01*
X112834155Y-48767287D02*
X112872713Y-48715706D01*
X112872713Y-48715706D02*
X112916725Y-48656791D01*
X112916725Y-48656791D02*
X112957862Y-48601643D01*
X112957862Y-48601643D02*
X112996082Y-48550289D01*
X112996082Y-48550289D02*
X113034075Y-48499086D01*
X113034075Y-48499086D02*
X113070444Y-48449891D01*
X113070444Y-48449891D02*
X113105168Y-48402719D01*
X113105168Y-48402719D02*
X113140867Y-48353970D01*
X113140867Y-48353970D02*
X113177449Y-48303713D01*
X113177449Y-48303713D02*
X113213521Y-48253795D01*
X113213521Y-48253795D02*
X113247771Y-48206015D01*
X113247771Y-48206015D02*
X113282064Y-48157749D01*
X113282064Y-48157749D02*
X113316914Y-48108188D01*
X113316914Y-48108188D02*
X113351005Y-48059137D01*
X113351005Y-48059137D02*
X113385423Y-48008943D01*
X113385423Y-48008943D02*
X113418891Y-47959385D01*
X113418891Y-47959385D02*
X113452425Y-47908862D01*
X113452425Y-47908862D02*
X113484280Y-47859924D01*
X113484280Y-47859924D02*
X113516938Y-47808604D01*
X113516938Y-47808604D02*
X113548152Y-47758251D01*
X113548152Y-47758251D02*
X113578286Y-47708158D01*
X113578286Y-47708158D02*
X113608026Y-47656951D01*
X113608026Y-47656951D02*
X113637408Y-47604140D01*
X113637408Y-47604140D02*
X113665221Y-47551454D01*
X113665221Y-47551454D02*
X113691779Y-47497769D01*
X113691779Y-47497769D02*
X113717035Y-47442189D01*
X113717035Y-47442189D02*
X113740493Y-47384130D01*
X113740493Y-47384130D02*
X113761403Y-47322245D01*
X113761403Y-47322245D02*
X113777474Y-47257150D01*
X113777474Y-47257150D02*
X113785323Y-47184661D01*
X113785323Y-47184661D02*
X113785352Y-47180500D01*
X108144282Y-47180500D02*
X108144282Y-47180500D01*
X110024639Y-47180500D02*
X108144282Y-47180500D01*
X102503213Y-47180500D02*
X100622856Y-47180500D01*
X115253937Y-47158247D02*
X115253937Y-47158247D01*
X117134293Y-47158247D02*
X115253937Y-47158247D01*
X100622856Y-47180500D02*
X98742500Y-47180500D01*
X115253937Y-47158247D02*
X113373580Y-47158247D01*
X111904996Y-47180500D02*
X110024639Y-47180500D01*
X110024639Y-47180500D02*
X110031919Y-47253991D01*
X110031919Y-47253991D02*
X110047901Y-47319948D01*
X110047901Y-47319948D02*
X110068120Y-47380449D01*
X110068120Y-47380449D02*
X110091282Y-47438312D01*
X110091282Y-47438312D02*
X110116284Y-47493720D01*
X110116284Y-47493720D02*
X110143329Y-47548654D01*
X110143329Y-47548654D02*
X110171009Y-47601249D01*
X110171009Y-47601249D02*
X110201112Y-47655464D01*
X110201112Y-47655464D02*
X110230794Y-47706634D01*
X110230794Y-47706634D02*
X110261829Y-47758251D01*
X110261829Y-47758251D02*
X110292545Y-47807809D01*
X110292545Y-47807809D02*
X110325704Y-47859924D01*
X110325704Y-47859924D02*
X110357557Y-47908862D01*
X110357557Y-47908862D02*
X110391091Y-47959385D01*
X110391091Y-47959385D02*
X110425136Y-48009788D01*
X110425136Y-48009788D02*
X110457797Y-48057425D01*
X110457797Y-48057425D02*
X110491252Y-48105593D01*
X110491252Y-48105593D02*
X110526066Y-48155128D01*
X110526066Y-48155128D02*
X110559696Y-48202492D01*
X110559696Y-48202492D02*
X110595184Y-48252019D01*
X110595184Y-48252019D02*
X110631239Y-48301925D01*
X110631239Y-48301925D02*
X110665173Y-48348570D01*
X110665173Y-48348570D02*
X110699502Y-48395480D01*
X110699502Y-48395480D02*
X110734176Y-48442620D01*
X110734176Y-48442620D02*
X110770503Y-48491786D01*
X110770503Y-48491786D02*
X110807098Y-48541133D01*
X110807098Y-48541133D02*
X110842548Y-48588792D01*
X110842548Y-48588792D02*
X110879531Y-48638398D01*
X110879531Y-48638398D02*
X110915255Y-48686240D01*
X110915255Y-48686240D02*
X110953798Y-48737811D01*
X110953798Y-48737811D02*
X110992356Y-48789390D01*
X110992356Y-48789390D02*
X111028123Y-48837263D01*
X111028123Y-48837263D02*
X111066551Y-48888755D01*
X111066551Y-48888755D02*
X111100734Y-48934645D01*
X111100734Y-48934645D02*
X111136111Y-48982255D01*
X111136111Y-48982255D02*
X111173958Y-49033361D01*
X111173958Y-49033361D02*
X111208823Y-49080629D01*
X111208823Y-49080629D02*
X111243370Y-49127684D01*
X111243370Y-49127684D02*
X111280167Y-49178086D01*
X111280167Y-49178086D02*
X111313907Y-49224602D01*
X111313907Y-49224602D02*
X111349726Y-49274350D01*
X111349726Y-49274350D02*
X111383081Y-49321069D01*
X111383081Y-49321069D02*
X111417083Y-49369142D01*
X111417083Y-49369142D02*
X111451008Y-49417624D01*
X111451008Y-49417624D02*
X111485928Y-49468150D01*
X111485928Y-49468150D02*
X111518798Y-49516388D01*
X111518798Y-49516388D02*
X111551863Y-49565676D01*
X111551863Y-49565676D02*
X111584416Y-49615083D01*
X111584416Y-49615083D02*
X111615821Y-49663721D01*
X111615821Y-49663721D02*
X111647970Y-49714698D01*
X111647970Y-49714698D02*
X111679112Y-49765463D01*
X111679112Y-49765463D02*
X111709963Y-49817415D01*
X111709963Y-49817415D02*
X111740182Y-49870325D01*
X111740182Y-49870325D02*
X111768625Y-49922511D01*
X111768625Y-49922511D02*
X111796798Y-49977277D01*
X111796798Y-49977277D02*
X111822683Y-50031435D01*
X111822683Y-50031435D02*
X111846915Y-50087250D01*
X111846915Y-50087250D02*
X111869315Y-50146446D01*
X111869315Y-50146446D02*
X111888016Y-50207773D01*
X111888016Y-50207773D02*
X111901486Y-50274812D01*
X111901486Y-50274812D02*
X111904996Y-50324600D01*
X106263926Y-47180500D02*
X104383570Y-47180500D01*
X104383570Y-47180500D02*
X102503213Y-47180500D01*
X102503213Y-47180500D02*
X102510493Y-47253991D01*
X102510493Y-47253991D02*
X102526475Y-47319948D01*
X102526475Y-47319948D02*
X102546694Y-47380449D01*
X102546694Y-47380449D02*
X102569856Y-47438312D01*
X102569856Y-47438312D02*
X102594858Y-47493720D01*
X102594858Y-47493720D02*
X102621903Y-47548654D01*
X102621903Y-47548654D02*
X102649583Y-47601249D01*
X102649583Y-47601249D02*
X102679686Y-47655464D01*
X102679686Y-47655464D02*
X102709368Y-47706634D01*
X102709368Y-47706634D02*
X102740403Y-47758251D01*
X102740403Y-47758251D02*
X102771119Y-47807809D01*
X102771119Y-47807809D02*
X102804278Y-47859924D01*
X102804278Y-47859924D02*
X102836131Y-47908862D01*
X102836131Y-47908862D02*
X102869665Y-47959385D01*
X102869665Y-47959385D02*
X102903710Y-48009788D01*
X102903710Y-48009788D02*
X102936371Y-48057425D01*
X102936371Y-48057425D02*
X102969826Y-48105593D01*
X102969826Y-48105593D02*
X103004640Y-48155128D01*
X103004640Y-48155128D02*
X103038270Y-48202492D01*
X103038270Y-48202492D02*
X103073758Y-48252019D01*
X103073758Y-48252019D02*
X103109813Y-48301925D01*
X103109813Y-48301925D02*
X103143747Y-48348570D01*
X103143747Y-48348570D02*
X103178076Y-48395480D01*
X103178076Y-48395480D02*
X103212750Y-48442620D01*
X103212750Y-48442620D02*
X103249077Y-48491786D01*
X103249077Y-48491786D02*
X103285672Y-48541133D01*
X103285672Y-48541133D02*
X103321122Y-48588792D01*
X103321122Y-48588792D02*
X103358105Y-48638398D01*
X103358105Y-48638398D02*
X103393829Y-48686240D01*
X103393829Y-48686240D02*
X103432372Y-48737811D01*
X103432372Y-48737811D02*
X103470930Y-48789390D01*
X103470930Y-48789390D02*
X103506697Y-48837263D01*
X103506697Y-48837263D02*
X103545125Y-48888755D01*
X103545125Y-48888755D02*
X103579308Y-48934645D01*
X103579308Y-48934645D02*
X103614685Y-48982255D01*
X103614685Y-48982255D02*
X103652532Y-49033361D01*
X103652532Y-49033361D02*
X103687397Y-49080629D01*
X103687397Y-49080629D02*
X103721944Y-49127684D01*
X103721944Y-49127684D02*
X103758741Y-49178086D01*
X103758741Y-49178086D02*
X103792481Y-49224602D01*
X103792481Y-49224602D02*
X103828300Y-49274350D01*
X103828300Y-49274350D02*
X103861655Y-49321069D01*
X103861655Y-49321069D02*
X103895657Y-49369142D01*
X103895657Y-49369142D02*
X103929582Y-49417624D01*
X103929582Y-49417624D02*
X103964502Y-49468150D01*
X103964502Y-49468150D02*
X103997372Y-49516388D01*
X103997372Y-49516388D02*
X104030437Y-49565676D01*
X104030437Y-49565676D02*
X104062990Y-49615083D01*
X104062990Y-49615083D02*
X104094395Y-49663721D01*
X104094395Y-49663721D02*
X104126544Y-49714698D01*
X104126544Y-49714698D02*
X104157686Y-49765463D01*
X104157686Y-49765463D02*
X104188537Y-49817415D01*
X104188537Y-49817415D02*
X104218756Y-49870325D01*
X104218756Y-49870325D02*
X104247199Y-49922511D01*
X104247199Y-49922511D02*
X104275372Y-49977277D01*
X104275372Y-49977277D02*
X104301257Y-50031435D01*
X104301257Y-50031435D02*
X104325489Y-50087250D01*
X104325489Y-50087250D02*
X104347889Y-50146446D01*
X104347889Y-50146446D02*
X104366590Y-50207773D01*
X104366590Y-50207773D02*
X104380060Y-50274812D01*
X104380060Y-50274812D02*
X104383570Y-50324600D01*
X113373580Y-47158247D02*
X113380860Y-47231738D01*
X113380860Y-47231738D02*
X113396842Y-47297695D01*
X113396842Y-47297695D02*
X113417061Y-47358196D01*
X113417061Y-47358196D02*
X113440223Y-47416059D01*
X113440223Y-47416059D02*
X113465225Y-47471467D01*
X113465225Y-47471467D02*
X113492270Y-47526401D01*
X113492270Y-47526401D02*
X113519950Y-47578996D01*
X113519950Y-47578996D02*
X113550053Y-47633211D01*
X113550053Y-47633211D02*
X113579735Y-47684381D01*
X113579735Y-47684381D02*
X113610770Y-47735997D01*
X113610770Y-47735997D02*
X113641486Y-47785555D01*
X113641486Y-47785555D02*
X113674645Y-47837670D01*
X113674645Y-47837670D02*
X113706498Y-47886608D01*
X113706498Y-47886608D02*
X113740032Y-47937131D01*
X113740032Y-47937131D02*
X113774077Y-47987534D01*
X113774077Y-47987534D02*
X113806738Y-48035171D01*
X113806738Y-48035171D02*
X113840193Y-48083339D01*
X113840193Y-48083339D02*
X113875007Y-48132874D01*
X113875007Y-48132874D02*
X113908637Y-48180238D01*
X113908637Y-48180238D02*
X113944125Y-48229765D01*
X113944125Y-48229765D02*
X113980180Y-48279671D01*
X113980180Y-48279671D02*
X114014114Y-48326316D01*
X114014114Y-48326316D02*
X114048443Y-48373226D01*
X114048443Y-48373226D02*
X114083117Y-48420366D01*
X114083117Y-48420366D02*
X114119444Y-48469532D01*
X114119444Y-48469532D02*
X114156039Y-48518879D01*
X114156039Y-48518879D02*
X114191489Y-48566538D01*
X114191489Y-48566538D02*
X114228472Y-48616144D01*
X114228472Y-48616144D02*
X114264196Y-48663986D01*
X114264196Y-48663986D02*
X114302739Y-48715557D01*
X114302739Y-48715557D02*
X114341297Y-48767136D01*
X114341297Y-48767136D02*
X114377064Y-48815009D01*
X114377064Y-48815009D02*
X114415492Y-48866501D01*
X114415492Y-48866501D02*
X114449675Y-48912391D01*
X114449675Y-48912391D02*
X114485052Y-48960001D01*
X114485052Y-48960001D02*
X114522899Y-49011107D01*
X114522899Y-49011107D02*
X114557764Y-49058375D01*
X114557764Y-49058375D02*
X114592311Y-49105430D01*
X114592311Y-49105430D02*
X114629108Y-49155832D01*
X114629108Y-49155832D02*
X114662848Y-49202348D01*
X114662848Y-49202348D02*
X114698667Y-49252096D01*
X114698667Y-49252096D02*
X114732022Y-49298815D01*
X114732022Y-49298815D02*
X114766024Y-49346888D01*
X114766024Y-49346888D02*
X114799949Y-49395370D01*
X114799949Y-49395370D02*
X114834869Y-49445896D01*
X114834869Y-49445896D02*
X114867739Y-49494134D01*
X114867739Y-49494134D02*
X114900804Y-49543422D01*
X114900804Y-49543422D02*
X114933357Y-49592829D01*
X114933357Y-49592829D02*
X114964762Y-49641467D01*
X114964762Y-49641467D02*
X114996911Y-49692444D01*
X114996911Y-49692444D02*
X115028053Y-49743209D01*
X115028053Y-49743209D02*
X115058904Y-49795161D01*
X115058904Y-49795161D02*
X115089123Y-49848071D01*
X115089123Y-49848071D02*
X115117566Y-49900257D01*
X115117566Y-49900257D02*
X115145739Y-49955023D01*
X115145739Y-49955023D02*
X115171624Y-50009181D01*
X115171624Y-50009181D02*
X115195856Y-50064996D01*
X115195856Y-50064996D02*
X115218256Y-50124192D01*
X115218256Y-50124192D02*
X115236957Y-50185519D01*
X115236957Y-50185519D02*
X115250427Y-50252558D01*
X115250427Y-50252558D02*
X115253937Y-50302346D01*
X100622856Y-50324600D02*
X100630136Y-50251101D01*
X100630136Y-50251101D02*
X100645782Y-50186292D01*
X100645782Y-50186292D02*
X100665885Y-50125868D01*
X100665885Y-50125868D02*
X100688947Y-50068070D01*
X100688947Y-50068070D02*
X100714183Y-50012047D01*
X100714183Y-50012047D02*
X100740833Y-49957836D01*
X100740833Y-49957836D02*
X100768445Y-49905286D01*
X100768445Y-49905286D02*
X100797642Y-49852599D01*
X100797642Y-49852599D02*
X100827213Y-49801501D01*
X100827213Y-49801501D02*
X100857672Y-49750732D01*
X100857672Y-49750732D02*
X100889268Y-49699664D01*
X100889268Y-49699664D02*
X100921840Y-49648405D01*
X100921840Y-49648405D02*
X100955774Y-49596232D01*
X100955774Y-49596232D02*
X100988191Y-49547377D01*
X100988191Y-49547377D02*
X101020477Y-49499531D01*
X101020477Y-49499531D02*
X101053653Y-49451089D01*
X101053653Y-49451089D02*
X101086452Y-49403822D01*
X101086452Y-49403822D02*
X101120583Y-49355202D01*
X101120583Y-49355202D02*
X101155401Y-49306125D01*
X101155401Y-49306125D02*
X101190846Y-49256625D01*
X101190846Y-49256625D02*
X101226864Y-49206746D01*
X101226864Y-49206746D02*
X101260767Y-49160121D01*
X101260767Y-49160121D02*
X101295066Y-49113230D01*
X101295066Y-49113230D02*
X101329715Y-49066106D01*
X101329715Y-49066106D02*
X101368720Y-49013308D01*
X101368720Y-49013308D02*
X101405315Y-48963959D01*
X101405315Y-48963959D02*
X101440765Y-48916300D01*
X101440765Y-48916300D02*
X101480493Y-48863020D01*
X101480493Y-48863020D02*
X101516223Y-48815173D01*
X101516223Y-48815173D02*
X101552015Y-48767287D01*
X101552015Y-48767287D02*
X101590573Y-48715706D01*
X101590573Y-48715706D02*
X101634585Y-48656791D01*
X101634585Y-48656791D02*
X101675722Y-48601643D01*
X101675722Y-48601643D02*
X101713942Y-48550289D01*
X101713942Y-48550289D02*
X101751935Y-48499086D01*
X101751935Y-48499086D02*
X101788304Y-48449891D01*
X101788304Y-48449891D02*
X101823028Y-48402719D01*
X101823028Y-48402719D02*
X101858727Y-48353970D01*
X101858727Y-48353970D02*
X101895309Y-48303713D01*
X101895309Y-48303713D02*
X101931382Y-48253795D01*
X101931382Y-48253795D02*
X101965632Y-48206015D01*
X101965632Y-48206015D02*
X101999925Y-48157749D01*
X101999925Y-48157749D02*
X102034775Y-48108188D01*
X102034775Y-48108188D02*
X102068866Y-48059137D01*
X102068866Y-48059137D02*
X102103284Y-48008943D01*
X102103284Y-48008943D02*
X102136752Y-47959385D01*
X102136752Y-47959385D02*
X102170286Y-47908862D01*
X102170286Y-47908862D02*
X102202141Y-47859924D01*
X102202141Y-47859924D02*
X102234799Y-47808604D01*
X102234799Y-47808604D02*
X102266013Y-47758251D01*
X102266013Y-47758251D02*
X102296147Y-47708158D01*
X102296147Y-47708158D02*
X102325887Y-47656951D01*
X102325887Y-47656951D02*
X102355269Y-47604140D01*
X102355269Y-47604140D02*
X102383082Y-47551454D01*
X102383082Y-47551454D02*
X102409640Y-47497769D01*
X102409640Y-47497769D02*
X102434896Y-47442189D01*
X102434896Y-47442189D02*
X102458354Y-47384130D01*
X102458354Y-47384130D02*
X102479264Y-47322245D01*
X102479264Y-47322245D02*
X102495335Y-47257150D01*
X102495335Y-47257150D02*
X102503184Y-47184661D01*
X102503184Y-47184661D02*
X102503213Y-47180500D01*
X98742500Y-47180500D02*
X117134293Y-47158247D01*
X117133908Y-47158237D02*
X117133908Y-37917414D01*
X107938204Y-131130691D02*
X108057906Y-131130520D01*
X108057906Y-131130520D02*
X108140441Y-131130208D01*
X108140441Y-131130208D02*
X108222958Y-131129735D01*
X108222958Y-131129735D02*
X108338455Y-131128807D01*
X108338455Y-131128807D02*
X108420931Y-131127951D01*
X108420931Y-131127951D02*
X108519878Y-131126715D01*
X108519878Y-131126715D02*
X108602316Y-131125509D01*
X108602316Y-131125509D02*
X108684734Y-131124143D01*
X108684734Y-131124143D02*
X108775374Y-131122455D01*
X108775374Y-131122455D02*
X108865990Y-131120576D01*
X108865990Y-131120576D02*
X108948349Y-131118700D01*
X108948349Y-131118700D02*
X109038924Y-131116453D01*
X109038924Y-131116453D02*
X109129473Y-131114015D01*
X109129473Y-131114015D02*
X109211770Y-131111630D01*
X109211770Y-131111630D02*
X109294049Y-131109087D01*
X109294049Y-131109087D02*
X109384532Y-131106107D01*
X109384532Y-131106107D02*
X109466765Y-131103230D01*
X109466765Y-131103230D02*
X109557203Y-131099882D01*
X109557203Y-131099882D02*
X109639394Y-131096672D01*
X109639394Y-131096672D02*
X109721566Y-131093306D01*
X109721566Y-131093306D02*
X109803717Y-131089780D01*
X109803717Y-131089780D02*
X109885846Y-131086095D01*
X109885846Y-131086095D02*
X109976164Y-131081861D01*
X109976164Y-131081861D02*
X110058249Y-131077846D01*
X110058249Y-131077846D02*
X110156720Y-131072817D01*
X110156720Y-131072817D02*
X110238756Y-131068453D01*
X110238756Y-131068453D02*
X110337171Y-131063008D01*
X110337171Y-131063008D02*
X110419156Y-131058296D01*
X110419156Y-131058296D02*
X110501121Y-131053430D01*
X110501121Y-131053430D02*
X110624023Y-131045832D01*
X110624023Y-131045832D02*
X110705928Y-131040571D01*
X110705928Y-131040571D02*
X110787811Y-131035153D01*
X110787811Y-131035153D02*
X110886039Y-131028442D01*
X110886039Y-131028442D02*
X110967870Y-131022679D01*
X110967870Y-131022679D02*
X111066034Y-131015554D01*
X111066034Y-131015554D02*
X111147810Y-131009444D01*
X111147810Y-131009444D02*
X111237736Y-131002542D01*
X111237736Y-131002542D02*
X111360314Y-130992825D01*
X111360314Y-130992825D02*
X111442000Y-130986151D01*
X111442000Y-130986151D02*
X111523661Y-130979321D01*
X111523661Y-130979321D02*
X111605299Y-130972335D01*
X111605299Y-130972335D02*
X111686909Y-130965191D01*
X111686909Y-130965191D02*
X111784807Y-130956413D01*
X111784807Y-130956413D02*
X111858207Y-130949682D01*
X111858207Y-130949682D02*
X111931583Y-130942826D01*
X111931583Y-130942826D02*
X112004940Y-130935844D01*
X112004940Y-130935844D02*
X112119007Y-130924729D01*
X112119007Y-130924729D02*
X112208593Y-130915782D01*
X112208593Y-130915782D02*
X112290003Y-130907485D01*
X112290003Y-130907485D02*
X112363252Y-130899883D01*
X112363252Y-130899883D02*
X112452746Y-130890422D01*
X112452746Y-130890422D02*
X112525946Y-130882543D01*
X112525946Y-130882543D02*
X112599120Y-130874536D01*
X112599120Y-130874536D02*
X112672273Y-130866405D01*
X112672273Y-130866405D02*
X112745402Y-130858147D01*
X112745402Y-130858147D02*
X112826629Y-130848824D01*
X112826629Y-130848824D02*
X112907829Y-130839347D01*
X112907829Y-130839347D02*
X112980882Y-130830685D01*
X112980882Y-130830685D02*
X113053914Y-130821898D01*
X113053914Y-130821898D02*
X113126919Y-130812984D01*
X113126919Y-130812984D02*
X113199901Y-130803947D01*
X113199901Y-130803947D02*
X113272860Y-130794782D01*
X113272860Y-130794782D02*
X113345793Y-130785493D01*
X113345793Y-130785493D02*
X113418702Y-130776080D01*
X113418702Y-130776080D02*
X113491586Y-130766541D01*
X113491586Y-130766541D02*
X113580634Y-130754713D01*
X113580634Y-130754713D02*
X113685824Y-130740494D01*
X113685824Y-130740494D02*
X113766703Y-130729378D01*
X113766703Y-130729378D02*
X113847551Y-130718108D01*
X113847551Y-130718108D02*
X113920289Y-130707834D01*
X113920289Y-130707834D02*
X113993000Y-130697436D01*
X113993000Y-130697436D02*
X114081834Y-130684558D01*
X114081834Y-130684558D02*
X114162558Y-130672688D01*
X114162558Y-130672688D02*
X114243251Y-130660664D01*
X114243251Y-130660664D02*
X114323910Y-130648489D01*
X114323910Y-130648489D02*
X114404536Y-130636157D01*
X114404536Y-130636157D02*
X114485129Y-130623676D01*
X114485129Y-130623676D02*
X114557635Y-130612309D01*
X114557635Y-130612309D02*
X114630114Y-130600817D01*
X114630114Y-130600817D02*
X114710614Y-130587907D01*
X114710614Y-130587907D02*
X114791081Y-130574841D01*
X114791081Y-130574841D02*
X114871513Y-130561623D01*
X114871513Y-130561623D02*
X114976023Y-130544212D01*
X114976023Y-130544212D02*
X115048344Y-130532006D01*
X115048344Y-130532006D02*
X115128666Y-130518298D01*
X115128666Y-130518298D02*
X115216981Y-130503046D01*
X115216981Y-130503046D02*
X115289206Y-130490427D01*
X115289206Y-130490427D02*
X115377445Y-130474840D01*
X115377445Y-130474840D02*
X115449607Y-130461947D01*
X115449607Y-130461947D02*
X115521740Y-130448930D01*
X115521740Y-130448930D02*
X115609863Y-130432856D01*
X115609863Y-130432856D02*
X115689939Y-130418083D01*
X115689939Y-130418083D02*
X115769978Y-130403159D01*
X115769978Y-130403159D02*
X115841980Y-130389595D01*
X115841980Y-130389595D02*
X115913954Y-130375910D01*
X115913954Y-130375910D02*
X116001881Y-130359016D01*
X116001881Y-130359016D02*
X116089763Y-130341941D01*
X116089763Y-130341941D02*
X116169617Y-130326256D01*
X116169617Y-130326256D02*
X116273372Y-130305644D01*
X116273372Y-130305644D02*
X116361111Y-130287998D01*
X116361111Y-130287998D02*
X116440836Y-130271800D01*
X116440836Y-130271800D02*
X116528492Y-130253808D01*
X116528492Y-130253808D02*
X116616098Y-130235631D01*
X116616098Y-130235631D02*
X116695698Y-130218948D01*
X116695698Y-130218948D02*
X116767310Y-130203807D01*
X116767310Y-130203807D02*
X116838885Y-130188543D01*
X116838885Y-130188543D02*
X116910432Y-130173156D01*
X116910432Y-130173156D02*
X116981945Y-130157647D01*
X116981945Y-130157647D02*
X117061365Y-130140272D01*
X117061365Y-130140272D02*
X117132810Y-130124504D01*
X117132810Y-130124504D02*
X117212157Y-130106845D01*
X117212157Y-130106845D02*
X117283536Y-130090823D01*
X117283536Y-130090823D02*
X117354877Y-130074678D01*
X117354877Y-130074678D02*
X117434110Y-130056596D01*
X117434110Y-130056596D02*
X117513301Y-130038363D01*
X117513301Y-130038363D02*
X117584538Y-130021828D01*
X117584538Y-130021828D02*
X117671563Y-130001451D01*
X117671563Y-130001451D02*
X117742725Y-129984644D01*
X117742725Y-129984644D02*
X117821756Y-129965829D01*
X117821756Y-129965829D02*
X117892847Y-129948765D01*
X117892847Y-129948765D02*
X117971797Y-129929665D01*
X117971797Y-129929665D02*
X118050708Y-129910416D01*
X118050708Y-129910416D02*
X118129574Y-129891016D01*
X118129574Y-129891016D02*
X118200517Y-129873428D01*
X118200517Y-129873428D02*
X118271426Y-129855721D01*
X118271426Y-129855721D02*
X118358045Y-129833913D01*
X118358045Y-129833913D02*
X118428876Y-129815937D01*
X118428876Y-129815937D02*
X118515399Y-129793801D01*
X118515399Y-129793801D02*
X118594009Y-129773521D01*
X118594009Y-129773521D02*
X118688286Y-129748989D01*
X118688286Y-129748989D02*
X118782499Y-129724245D01*
X118782499Y-129724245D02*
X118853116Y-129705544D01*
X118853116Y-129705544D02*
X118994243Y-129667785D01*
X118994243Y-129667785D02*
X119096077Y-129640214D01*
X119096077Y-129640214D02*
X119166532Y-129620979D01*
X119166532Y-129620979D02*
X119236953Y-129601627D01*
X119236953Y-129601627D02*
X119307336Y-129582154D01*
X119307336Y-129582154D02*
X119385493Y-129560373D01*
X119385493Y-129560373D02*
X119447986Y-129542843D01*
X119447986Y-129542843D02*
X119510452Y-129525221D01*
X119510452Y-129525221D02*
X119580688Y-129505282D01*
X119580688Y-129505282D02*
X119643090Y-129487456D01*
X119643090Y-129487456D02*
X119713257Y-129467290D01*
X119713257Y-129467290D02*
X119783384Y-129447005D01*
X119783384Y-129447005D02*
X119861260Y-129424326D01*
X119861260Y-129424326D02*
X119923527Y-129406077D01*
X119923527Y-129406077D02*
X120001317Y-129383131D01*
X120001317Y-129383131D02*
X120071287Y-129362356D01*
X120071287Y-129362356D02*
X120137335Y-129342624D01*
X120137335Y-129342624D02*
X120211112Y-129320445D01*
X120211112Y-129320445D02*
X120277087Y-129300489D01*
X120277087Y-129300489D02*
X120350781Y-129278059D01*
X120350781Y-129278059D02*
X120420557Y-129256687D01*
X120420557Y-129256687D02*
X120482544Y-129237589D01*
X120482544Y-129237589D02*
X120544505Y-129218398D01*
X120544505Y-129218398D02*
X120614168Y-129196696D01*
X120614168Y-129196696D02*
X120691528Y-129172442D01*
X120691528Y-129172442D02*
X120776567Y-129145597D01*
X120776567Y-129145597D02*
X120846098Y-129123498D01*
X120846098Y-129123498D02*
X120907870Y-129103755D01*
X120907870Y-129103755D02*
X120977326Y-129081435D01*
X120977326Y-129081435D02*
X121039030Y-129061495D01*
X121039030Y-129061495D02*
X121108408Y-129038949D01*
X121108408Y-129038949D02*
X121170044Y-129018810D01*
X121170044Y-129018810D02*
X121239344Y-128996040D01*
X121239344Y-128996040D02*
X121316297Y-128970604D01*
X121316297Y-128970604D02*
X121404729Y-128941172D01*
X121404729Y-128941172D02*
X121485411Y-128914129D01*
X121485411Y-128914129D02*
X121562199Y-128888226D01*
X121562199Y-128888226D02*
X121623592Y-128867399D01*
X121623592Y-128867399D02*
X121700287Y-128841233D01*
X121700287Y-128841233D02*
X121761607Y-128820197D01*
X121761607Y-128820197D02*
X121830549Y-128796419D01*
X121830549Y-128796419D02*
X121907104Y-128769863D01*
X121907104Y-128769863D02*
X121975955Y-128745835D01*
X121975955Y-128745835D02*
X122052409Y-128719003D01*
X122052409Y-128719003D02*
X122128808Y-128692025D01*
X122128808Y-128692025D02*
X122205156Y-128664903D01*
X122205156Y-128664903D02*
X122277637Y-128639003D01*
X122277637Y-128639003D02*
X122384359Y-128600594D01*
X122384359Y-128600594D02*
X122449103Y-128577136D01*
X122449103Y-128577136D02*
X122532833Y-128546625D01*
X122532833Y-128546625D02*
X122608894Y-128518735D01*
X122608894Y-128518735D02*
X122684900Y-128490700D01*
X122684900Y-128490700D02*
X122783626Y-128454041D01*
X122783626Y-128454041D02*
X122844333Y-128431360D01*
X122844333Y-128431360D02*
X122920167Y-128402879D01*
X122920167Y-128402879D02*
X122980796Y-128379990D01*
X122980796Y-128379990D02*
X123041389Y-128357009D01*
X123041389Y-128357009D02*
X123117080Y-128328155D01*
X123117080Y-128328155D02*
X123177592Y-128304967D01*
X123177592Y-128304967D02*
X123260736Y-128272934D01*
X123260736Y-128272934D02*
X123321161Y-128249528D01*
X123321161Y-128249528D02*
X123411733Y-128214246D01*
X123411733Y-128214246D02*
X123509760Y-128175792D01*
X123509760Y-128175792D02*
X123570036Y-128152008D01*
X123570036Y-128152008D02*
X123645329Y-128122148D01*
X123645329Y-128122148D02*
X123705524Y-128098157D01*
X123705524Y-128098157D02*
X123773197Y-128071058D01*
X123773197Y-128071058D02*
X123855846Y-128037779D01*
X123855846Y-128037779D02*
X123915909Y-128013468D01*
X123915909Y-128013468D02*
X123983437Y-127986010D01*
X123983437Y-127986010D02*
X124043421Y-127961502D01*
X124043421Y-127961502D02*
X124148306Y-127918400D01*
X124148306Y-127918400D02*
X124208189Y-127893644D01*
X124208189Y-127893644D02*
X124268030Y-127868795D01*
X124268030Y-127868795D02*
X124335307Y-127840731D01*
X124335307Y-127840731D02*
X124395070Y-127815689D01*
X124395070Y-127815689D02*
X124477181Y-127781107D01*
X124477181Y-127781107D02*
X124536852Y-127755850D01*
X124536852Y-127755850D02*
X124603938Y-127727325D01*
X124603938Y-127727325D02*
X124663530Y-127701876D01*
X124663530Y-127701876D02*
X124745403Y-127666731D01*
X124745403Y-127666731D02*
X124808619Y-127639458D01*
X124808619Y-127639458D02*
X124871789Y-127612080D01*
X124871789Y-127612080D02*
X124931205Y-127586220D01*
X124931205Y-127586220D02*
X124990582Y-127560269D01*
X124990582Y-127560269D02*
X125057333Y-127530967D01*
X125057333Y-127530967D02*
X125131446Y-127498275D01*
X125131446Y-127498275D02*
X125190689Y-127472018D01*
X125190689Y-127472018D02*
X125249894Y-127445671D01*
X125249894Y-127445671D02*
X125323843Y-127412609D01*
X125323843Y-127412609D02*
X125390345Y-127382736D01*
X125390345Y-127382736D02*
X125460486Y-127351077D01*
X125460486Y-127351077D02*
X125523196Y-127322641D01*
X125523196Y-127322641D02*
X125582176Y-127295788D01*
X125582176Y-127295788D02*
X125641116Y-127268843D01*
X125641116Y-127268843D02*
X125700016Y-127241805D01*
X125700016Y-127241805D02*
X125780936Y-127204485D01*
X125780936Y-127204485D02*
X125839739Y-127177237D01*
X125839739Y-127177237D02*
X125898501Y-127149898D01*
X125898501Y-127149898D02*
X125957224Y-127122469D01*
X125957224Y-127122469D02*
X126019571Y-127093228D01*
X126019571Y-127093228D02*
X126074545Y-127067342D01*
X126074545Y-127067342D02*
X126136804Y-127037908D01*
X126136804Y-127037908D02*
X126191700Y-127011854D01*
X126191700Y-127011854D02*
X126272148Y-126973498D01*
X126272148Y-126973498D02*
X126330608Y-126945496D01*
X126330608Y-126945496D02*
X126389024Y-126917404D01*
X126389024Y-126917404D02*
X126447400Y-126889223D01*
X126447400Y-126889223D02*
X126505734Y-126860952D01*
X126505734Y-126860952D02*
X126564026Y-126832592D01*
X126564026Y-126832592D02*
X126622274Y-126804142D01*
X126622274Y-126804142D02*
X126680482Y-126775603D01*
X126680482Y-126775603D02*
X126745915Y-126743390D01*
X126745915Y-126743390D02*
X126804034Y-126714662D01*
X126804034Y-126714662D02*
X126862109Y-126685843D01*
X126862109Y-126685843D02*
X126920142Y-126656935D01*
X126920142Y-126656935D02*
X126978132Y-126627939D01*
X126978132Y-126627939D02*
X127036080Y-126598855D01*
X127036080Y-126598855D02*
X127108452Y-126562370D01*
X127108452Y-126562370D02*
X127169917Y-126531251D01*
X127169917Y-126531251D02*
X127224111Y-126503710D01*
X127224111Y-126503710D02*
X127281876Y-126474245D01*
X127281876Y-126474245D02*
X127339595Y-126444692D01*
X127339595Y-126444692D02*
X127404480Y-126411338D01*
X127404480Y-126411338D02*
X127462108Y-126381598D01*
X127462108Y-126381598D02*
X127519693Y-126351768D01*
X127519693Y-126351768D02*
X127584423Y-126318102D01*
X127584423Y-126318102D02*
X127649097Y-126284322D01*
X127649097Y-126284322D02*
X127706539Y-126254205D01*
X127706539Y-126254205D02*
X127778280Y-126216432D01*
X127778280Y-126216432D02*
X127835623Y-126186115D01*
X127835623Y-126186115D02*
X127892921Y-126155709D01*
X127892921Y-126155709D02*
X127957330Y-126121396D01*
X127957330Y-126121396D02*
X128021679Y-126086969D01*
X128021679Y-126086969D02*
X128085972Y-126052433D01*
X128085972Y-126052433D02*
X128150210Y-126017783D01*
X128150210Y-126017783D02*
X128214390Y-125983023D01*
X128214390Y-125983023D02*
X128278514Y-125948150D01*
X128278514Y-125948150D02*
X128342580Y-125913168D01*
X128342580Y-125913168D02*
X128399481Y-125881978D01*
X128399481Y-125881978D02*
X128470540Y-125842865D01*
X128470540Y-125842865D02*
X128534434Y-125807548D01*
X128534434Y-125807548D02*
X128598268Y-125772118D01*
X128598268Y-125772118D02*
X128662048Y-125736578D01*
X128662048Y-125736578D02*
X128725768Y-125700926D01*
X128725768Y-125700926D02*
X128789428Y-125665163D01*
X128789428Y-125665163D02*
X128853034Y-125629290D01*
X128853034Y-125629290D02*
X128916577Y-125593305D01*
X128916577Y-125593305D02*
X128994161Y-125549172D01*
X128994161Y-125549172D02*
X129050534Y-125516971D01*
X129050534Y-125516971D02*
X129113896Y-125480642D01*
X129113896Y-125480642D02*
X129184227Y-125440145D01*
X129184227Y-125440145D02*
X129247463Y-125403582D01*
X129247463Y-125403582D02*
X129310642Y-125366909D01*
X129310642Y-125366909D02*
X129387775Y-125321933D01*
X129387775Y-125321933D02*
X129443818Y-125289120D01*
X129443818Y-125289120D02*
X129527792Y-125239739D01*
X129527792Y-125239739D02*
X129583715Y-125206709D01*
X129583715Y-125206709D02*
X129660533Y-125161150D01*
X129660533Y-125161150D02*
X129723315Y-125123754D01*
X129723315Y-125123754D02*
X129786040Y-125086245D01*
X129786040Y-125086245D02*
X129848699Y-125048627D01*
X129848699Y-125048627D02*
X129904346Y-125015096D01*
X129904346Y-125015096D02*
X129959946Y-124981478D01*
X129959946Y-124981478D02*
X130015498Y-124947774D01*
X130015498Y-124947774D02*
X130077936Y-124909753D01*
X130077936Y-124909753D02*
X130140310Y-124871622D01*
X130140310Y-124871622D02*
X130202627Y-124833383D01*
X130202627Y-124833383D02*
X130257964Y-124799297D01*
X130257964Y-124799297D02*
X130313254Y-124765127D01*
X130313254Y-124765127D02*
X130368493Y-124730870D01*
X130368493Y-124730870D02*
X130423686Y-124696528D01*
X130423686Y-124696528D02*
X130485717Y-124657787D01*
X130485717Y-124657787D02*
X130540805Y-124623260D01*
X130540805Y-124623260D02*
X130609591Y-124579980D01*
X130609591Y-124579980D02*
X130678302Y-124536565D01*
X130678302Y-124536565D02*
X130746935Y-124493015D01*
X130746935Y-124493015D02*
X130801786Y-124458077D01*
X130801786Y-124458077D02*
X130863434Y-124418671D01*
X130863434Y-124418671D02*
X130931855Y-124374756D01*
X130931855Y-124374756D02*
X131007029Y-124326296D01*
X131007029Y-124326296D02*
X131075287Y-124282102D01*
X131075287Y-124282102D02*
X131143465Y-124237770D01*
X131143465Y-124237770D02*
X131197952Y-124202209D01*
X131197952Y-124202209D02*
X131272785Y-124153173D01*
X131272785Y-124153173D02*
X131333942Y-124112931D01*
X131333942Y-124112931D02*
X131408603Y-124063601D01*
X131408603Y-124063601D02*
X131469617Y-124023120D01*
X131469617Y-124023120D02*
X131523798Y-123987046D01*
X131523798Y-123987046D02*
X131577925Y-123950882D01*
X131577925Y-123950882D02*
X131638757Y-123910099D01*
X131638757Y-123910099D02*
X131719764Y-123855553D01*
X131719764Y-123855553D02*
X131787183Y-123809952D01*
X131787183Y-123809952D02*
X131867976Y-123755053D01*
X131867976Y-123755053D02*
X131948655Y-123699965D01*
X131948655Y-123699965D02*
X132002374Y-123663130D01*
X132002374Y-123663130D02*
X132069448Y-123616968D01*
X132069448Y-123616968D02*
X132123050Y-123579943D01*
X132123050Y-123579943D02*
X132183289Y-123538188D01*
X132183289Y-123538188D02*
X132250143Y-123491668D01*
X132250143Y-123491668D02*
X132303567Y-123454356D01*
X132303567Y-123454356D02*
X132356938Y-123416961D01*
X132356938Y-123416961D02*
X132430236Y-123365401D01*
X132430236Y-123365401D02*
X132510081Y-123308971D01*
X132510081Y-123308971D02*
X132589810Y-123252351D01*
X132589810Y-123252351D02*
X132669416Y-123195539D01*
X132669416Y-123195539D02*
X132729042Y-123152806D01*
X132729042Y-123152806D02*
X132788599Y-123109967D01*
X132788599Y-123109967D02*
X132841482Y-123071797D01*
X132841482Y-123071797D02*
X132920704Y-123014383D01*
X132920704Y-123014383D02*
X132973452Y-122976001D01*
X132973452Y-122976001D02*
X133052471Y-122918272D01*
X133052471Y-122918272D02*
X133131369Y-122860352D01*
X133131369Y-122860352D02*
X133183898Y-122821634D01*
X133183898Y-122821634D02*
X133256037Y-122768260D01*
X133256037Y-122768260D02*
X133308436Y-122729340D01*
X133308436Y-122729340D02*
X133360780Y-122690337D01*
X133360780Y-122690337D02*
X133413069Y-122651251D01*
X133413069Y-122651251D02*
X133465303Y-122612081D01*
X133465303Y-122612081D02*
X133524000Y-122567913D01*
X133524000Y-122567913D02*
X133576117Y-122528564D01*
X133576117Y-122528564D02*
X133621675Y-122494065D01*
X133621675Y-122494065D02*
X133667189Y-122459501D01*
X133667189Y-122459501D02*
X133732135Y-122410014D01*
X133732135Y-122410014D02*
X133784029Y-122370329D01*
X133784029Y-122370329D02*
X133835867Y-122330561D01*
X133835867Y-122330561D02*
X133887649Y-122290709D01*
X133887649Y-122290709D02*
X133932913Y-122255771D01*
X133932913Y-122255771D02*
X133978133Y-122220769D01*
X133978133Y-122220769D02*
X134023310Y-122185703D01*
X134023310Y-122185703D02*
X134074889Y-122145547D01*
X134074889Y-122145547D02*
X134119973Y-122110344D01*
X134119973Y-122110344D02*
X134165014Y-122075076D01*
X134165014Y-122075076D02*
X134210012Y-122039744D01*
X134210012Y-122039744D02*
X134254966Y-122004349D01*
X134254966Y-122004349D02*
X134299876Y-121968890D01*
X134299876Y-121968890D02*
X134344742Y-121933367D01*
X134344742Y-121933367D02*
X134389566Y-121897781D01*
X134389566Y-121897781D02*
X134434346Y-121862132D01*
X134434346Y-121862132D02*
X134479083Y-121826418D01*
X134479083Y-121826418D02*
X134530154Y-121785524D01*
X134530154Y-121785524D02*
X134581169Y-121744547D01*
X134581169Y-121744547D02*
X134625761Y-121708625D01*
X134625761Y-121708625D02*
X134670307Y-121672639D01*
X134670307Y-121672639D02*
X134714809Y-121636588D01*
X134714809Y-121636588D02*
X134759269Y-121600474D01*
X134759269Y-121600474D02*
X134810024Y-121559125D01*
X134810024Y-121559125D02*
X134867055Y-121512508D01*
X134867055Y-121512508D02*
X134924011Y-121465786D01*
X134924011Y-121465786D02*
X134968259Y-121429373D01*
X134968259Y-121429373D02*
X135018773Y-121387681D01*
X135018773Y-121387681D02*
X135062926Y-121351133D01*
X135062926Y-121351133D02*
X135107033Y-121314522D01*
X135107033Y-121314522D02*
X135163677Y-121267358D01*
X135163677Y-121267358D02*
X135213965Y-121225346D01*
X135213965Y-121225346D02*
X135264195Y-121183252D01*
X135264195Y-121183252D02*
X135314364Y-121141075D01*
X135314364Y-121141075D02*
X135370734Y-121093529D01*
X135370734Y-121093529D02*
X135420778Y-121051178D01*
X135420778Y-121051178D02*
X135470763Y-121008744D01*
X135470763Y-121008744D02*
X135520688Y-120966228D01*
X135520688Y-120966228D02*
X135570554Y-120923629D01*
X135570554Y-120923629D02*
X135620359Y-120880950D01*
X135620359Y-120880950D02*
X135663891Y-120843538D01*
X135663891Y-120843538D02*
X135707376Y-120806062D01*
X135707376Y-120806062D02*
X135750815Y-120768524D01*
X135750815Y-120768524D02*
X135794208Y-120730922D01*
X135794208Y-120730922D02*
X135837556Y-120693258D01*
X135837556Y-120693258D02*
X135899403Y-120639344D01*
X135899403Y-120639344D02*
X135948810Y-120596121D01*
X135948810Y-120596121D02*
X136022809Y-120531133D01*
X136022809Y-120531133D02*
X136065912Y-120493138D01*
X136065912Y-120493138D02*
X136127407Y-120438751D01*
X136127407Y-120438751D02*
X136188806Y-120384236D01*
X136188806Y-120384236D02*
X136237857Y-120340532D01*
X136237857Y-120340532D02*
X136299085Y-120285789D01*
X136299085Y-120285789D02*
X136354108Y-120236410D01*
X136354108Y-120236410D02*
X136409054Y-120186927D01*
X136409054Y-120186927D02*
X136451737Y-120148371D01*
X136451737Y-120148371D02*
X136494371Y-120109751D01*
X136494371Y-120109751D02*
X136536958Y-120071069D01*
X136536958Y-120071069D02*
X136579498Y-120032325D01*
X136579498Y-120032325D02*
X136621989Y-119993519D01*
X136621989Y-119993519D02*
X136664437Y-119954652D01*
X136664437Y-119954652D02*
X136706834Y-119915720D01*
X136706834Y-119915720D02*
X136773362Y-119854418D01*
X136773362Y-119854418D02*
X136815638Y-119815328D01*
X136815638Y-119815328D02*
X136857866Y-119776177D01*
X136857866Y-119776177D02*
X136900046Y-119736962D01*
X136900046Y-119736962D02*
X136960220Y-119680833D01*
X136960220Y-119680833D02*
X137020296Y-119624579D01*
X137020296Y-119624579D02*
X137092258Y-119556909D01*
X137092258Y-119556909D02*
X137152117Y-119500377D01*
X137152117Y-119500377D02*
X137211878Y-119443718D01*
X137211878Y-119443718D02*
X137283461Y-119375562D01*
X137283461Y-119375562D02*
X137343005Y-119318626D01*
X137343005Y-119318626D02*
X137390568Y-119272986D01*
X137390568Y-119272986D02*
X137432135Y-119232987D01*
X137432135Y-119232987D02*
X137485503Y-119181467D01*
X137485503Y-119181467D02*
X137532875Y-119135586D01*
X137532875Y-119135586D02*
X137580183Y-119089627D01*
X137580183Y-119089627D02*
X137627428Y-119043587D01*
X137627428Y-119043587D02*
X137674607Y-118997463D01*
X137674607Y-118997463D02*
X137715838Y-118957042D01*
X137715838Y-118957042D02*
X137757018Y-118916558D01*
X137757018Y-118916558D02*
X137804021Y-118870218D01*
X137804021Y-118870218D02*
X137850958Y-118823795D01*
X137850958Y-118823795D02*
X137915393Y-118759834D01*
X137915393Y-118759834D02*
X137956333Y-118719053D01*
X137956333Y-118719053D02*
X137994307Y-118681133D01*
X77882106Y-118681130D02*
X77925920Y-118724881D01*
X77925920Y-118724881D02*
X77972721Y-118771473D01*
X77972721Y-118771473D02*
X78013724Y-118812174D01*
X78013724Y-118812174D02*
X78054777Y-118852815D01*
X78054777Y-118852815D02*
X78095880Y-118893395D01*
X78095880Y-118893395D02*
X78137032Y-118933913D01*
X78137032Y-118933913D02*
X78178232Y-118974370D01*
X78178232Y-118974370D02*
X78248978Y-119043584D01*
X78248978Y-119043584D02*
X78296222Y-119089624D01*
X78296222Y-119089624D02*
X78337613Y-119129843D01*
X78337613Y-119129843D02*
X78379053Y-119170002D01*
X78379053Y-119170002D02*
X78420542Y-119210099D01*
X78420542Y-119210099D02*
X78462079Y-119250135D01*
X78462079Y-119250135D02*
X78527451Y-119312922D01*
X78527451Y-119312922D02*
X78581027Y-119364182D01*
X78581027Y-119364182D02*
X78622753Y-119403980D01*
X78622753Y-119403980D02*
X78664527Y-119443715D01*
X78664527Y-119443715D02*
X78748218Y-119523002D01*
X78748218Y-119523002D02*
X78790137Y-119562552D01*
X78790137Y-119562552D02*
X78832106Y-119602041D01*
X78832106Y-119602041D02*
X78874122Y-119641466D01*
X78874122Y-119641466D02*
X78940241Y-119703296D01*
X78940241Y-119703296D02*
X78982381Y-119742564D01*
X78982381Y-119742564D02*
X79024569Y-119781771D01*
X79024569Y-119781771D02*
X79066801Y-119820913D01*
X79066801Y-119820913D02*
X79139314Y-119887871D01*
X79139314Y-119887871D02*
X79181678Y-119926846D01*
X79181678Y-119926846D02*
X79230153Y-119971314D01*
X79230153Y-119971314D02*
X79284761Y-120021242D01*
X79284761Y-120021242D02*
X79339446Y-120071066D01*
X79339446Y-120071066D02*
X79382034Y-120109748D01*
X79382034Y-120109748D02*
X79430764Y-120153880D01*
X79430764Y-120153880D02*
X79479553Y-120197930D01*
X79479553Y-120197930D02*
X79528405Y-120241898D01*
X79528405Y-120241898D02*
X79583437Y-120291266D01*
X79583437Y-120291266D02*
X79632420Y-120335061D01*
X79632420Y-120335061D02*
X79687597Y-120384233D01*
X79687597Y-120384233D02*
X79736709Y-120427855D01*
X79736709Y-120427855D02*
X79785883Y-120471395D01*
X79785883Y-120471395D02*
X79835116Y-120514854D01*
X79835116Y-120514854D02*
X79884411Y-120558230D01*
X79884411Y-120558230D02*
X79927594Y-120596118D01*
X79927594Y-120596118D02*
X79977002Y-120639341D01*
X79977002Y-120639341D02*
X80026470Y-120682483D01*
X80026470Y-120682483D02*
X80100787Y-120747043D01*
X80100787Y-120747043D02*
X80144198Y-120784617D01*
X80144198Y-120784617D02*
X80193871Y-120827482D01*
X80193871Y-120827482D02*
X80249822Y-120875606D01*
X80249822Y-120875606D02*
X80299621Y-120918297D01*
X80299621Y-120918297D02*
X80349478Y-120960904D01*
X80349478Y-120960904D02*
X80399397Y-121003432D01*
X80399397Y-121003432D02*
X80455624Y-121051175D01*
X80455624Y-121051175D02*
X80499410Y-121088237D01*
X80499410Y-121088237D02*
X80543239Y-121125235D01*
X80543239Y-121125235D02*
X80587116Y-121162171D01*
X80587116Y-121162171D02*
X80637315Y-121204307D01*
X80637315Y-121204307D02*
X80693861Y-121251610D01*
X80693861Y-121251610D02*
X80744185Y-121293570D01*
X80744185Y-121293570D02*
X80794569Y-121335449D01*
X80794569Y-121335449D02*
X80838701Y-121372023D01*
X80838701Y-121372023D02*
X80882880Y-121408534D01*
X80882880Y-121408534D02*
X80927103Y-121444983D01*
X80927103Y-121444983D02*
X80977699Y-121486561D01*
X80977699Y-121486561D02*
X81022018Y-121522873D01*
X81022018Y-121522873D02*
X81072722Y-121564295D01*
X81072722Y-121564295D02*
X81123484Y-121605634D01*
X81123484Y-121605634D02*
X81174304Y-121646892D01*
X81174304Y-121646892D02*
X81218819Y-121682924D01*
X81218819Y-121682924D02*
X81263378Y-121718892D01*
X81263378Y-121718892D02*
X81314357Y-121759920D01*
X81314357Y-121759920D02*
X81359011Y-121795753D01*
X81359011Y-121795753D02*
X81403711Y-121831522D01*
X81403711Y-121831522D02*
X81454847Y-121872321D01*
X81454847Y-121872321D02*
X81544474Y-121943520D01*
X81544474Y-121943520D02*
X81595768Y-121984091D01*
X81595768Y-121984091D02*
X81647119Y-122024580D01*
X81647119Y-122024580D02*
X81692098Y-122059938D01*
X81692098Y-122059938D02*
X81737121Y-122095234D01*
X81737121Y-122095234D02*
X81788629Y-122135493D01*
X81788629Y-122135493D02*
X81840194Y-122175669D01*
X81840194Y-122175669D02*
X81885357Y-122210753D01*
X81885357Y-122210753D02*
X81930565Y-122245774D01*
X81930565Y-122245774D02*
X81988752Y-122290706D01*
X81988752Y-122290706D02*
X82047012Y-122335533D01*
X82047012Y-122335533D02*
X82098857Y-122375291D01*
X82098857Y-122375291D02*
X82150758Y-122414966D01*
X82150758Y-122414966D02*
X82196217Y-122449612D01*
X82196217Y-122449612D02*
X82248223Y-122489129D01*
X82248223Y-122489129D02*
X82300283Y-122528561D01*
X82300283Y-122528561D02*
X82358919Y-122572823D01*
X82358919Y-122572823D02*
X82417624Y-122616978D01*
X82417624Y-122616978D02*
X82482934Y-122665915D01*
X82482934Y-122665915D02*
X82535245Y-122704970D01*
X82535245Y-122704970D02*
X82594161Y-122748807D01*
X82594161Y-122748807D02*
X82646589Y-122787685D01*
X82646589Y-122787685D02*
X82705634Y-122831319D01*
X82705634Y-122831319D02*
X82771320Y-122879677D01*
X82771320Y-122879677D02*
X82823930Y-122918269D01*
X82823930Y-122918269D02*
X82883185Y-122961584D01*
X82883185Y-122961584D02*
X82935912Y-122999996D01*
X82935912Y-122999996D02*
X83001897Y-123047894D01*
X83001897Y-123047894D02*
X83067968Y-123095661D01*
X83067968Y-123095661D02*
X83127501Y-123138535D01*
X83127501Y-123138535D02*
X83213616Y-123200277D01*
X83213616Y-123200277D02*
X83273316Y-123242892D01*
X83273316Y-123242892D02*
X83339730Y-123290116D01*
X83339730Y-123290116D02*
X83399574Y-123332504D01*
X83399574Y-123332504D02*
X83452826Y-123370091D01*
X83452826Y-123370091D02*
X83512797Y-123412278D01*
X83512797Y-123412278D02*
X83579511Y-123459023D01*
X83579511Y-123459023D02*
X83646306Y-123505635D01*
X83646306Y-123505635D02*
X83733265Y-123566035D01*
X83733265Y-123566035D02*
X83786846Y-123603091D01*
X83786846Y-123603091D02*
X83853897Y-123649293D01*
X83853897Y-123649293D02*
X83914314Y-123690761D01*
X83914314Y-123690761D02*
X83974796Y-123732120D01*
X83974796Y-123732120D02*
X84042076Y-123777949D01*
X84042076Y-123777949D02*
X84102696Y-123819079D01*
X84102696Y-123819079D02*
X84163385Y-123860103D01*
X84163385Y-123860103D02*
X84217383Y-123896477D01*
X84217383Y-123896477D02*
X84278194Y-123937297D01*
X84278194Y-123937297D02*
X84332304Y-123973491D01*
X84332304Y-123973491D02*
X84393238Y-124014106D01*
X84393238Y-124014106D02*
X84454236Y-124054612D01*
X84454236Y-124054612D02*
X84515300Y-124095009D01*
X84515300Y-124095009D02*
X84569633Y-124130828D01*
X84569633Y-124130828D02*
X84644424Y-124179936D01*
X84644424Y-124179936D02*
X84705687Y-124219997D01*
X84705687Y-124219997D02*
X84773834Y-124264383D01*
X84773834Y-124264383D02*
X84848886Y-124313049D01*
X84848886Y-124313049D02*
X84903530Y-124348341D01*
X84903530Y-124348341D02*
X84971903Y-124392335D01*
X84971903Y-124392335D02*
X85033510Y-124431815D01*
X85033510Y-124431815D02*
X85102033Y-124475554D01*
X85102033Y-124475554D02*
X85163772Y-124514804D01*
X85163772Y-124514804D02*
X85225575Y-124553946D01*
X85225575Y-124553946D02*
X85301193Y-124601634D01*
X85301193Y-124601634D02*
X85356248Y-124636214D01*
X85356248Y-124636214D02*
X85432032Y-124683623D01*
X85432032Y-124683623D02*
X85501005Y-124726579D01*
X85501005Y-124726579D02*
X85556239Y-124760847D01*
X85556239Y-124760847D02*
X85646100Y-124816348D01*
X85646100Y-124816348D02*
X85701462Y-124850388D01*
X85701462Y-124850388D02*
X85770734Y-124892816D01*
X85770734Y-124892816D02*
X85826207Y-124926661D01*
X85826207Y-124926661D02*
X85902562Y-124973058D01*
X85902562Y-124973058D02*
X85965100Y-125010895D01*
X85965100Y-125010895D02*
X86027703Y-125048624D01*
X86027703Y-125048624D02*
X86097330Y-125090415D01*
X86097330Y-125090415D02*
X86153087Y-125123751D01*
X86153087Y-125123751D02*
X86215868Y-125161147D01*
X86215868Y-125161147D02*
X86271725Y-125194296D01*
X86271725Y-125194296D02*
X86348609Y-125239736D01*
X86348609Y-125239736D02*
X86411578Y-125276791D01*
X86411578Y-125276791D02*
X86467603Y-125309636D01*
X86467603Y-125309636D02*
X86523674Y-125342393D01*
X86523674Y-125342393D02*
X86593831Y-125383218D01*
X86593831Y-125383218D02*
X86657034Y-125419842D01*
X86657034Y-125419842D02*
X86734363Y-125464456D01*
X86734363Y-125464456D02*
X86790659Y-125496800D01*
X86790659Y-125496800D02*
X86868140Y-125541127D01*
X86868140Y-125541127D02*
X86931600Y-125577273D01*
X86931600Y-125577273D02*
X87009244Y-125621301D01*
X87009244Y-125621301D02*
X87079901Y-125661179D01*
X87079901Y-125661179D02*
X87157710Y-125704890D01*
X87157710Y-125704890D02*
X87221437Y-125740529D01*
X87221437Y-125740529D02*
X87278131Y-125772115D01*
X87278131Y-125772115D02*
X87331324Y-125801648D01*
X87331324Y-125801648D02*
X87384555Y-125831101D01*
X87384555Y-125831101D02*
X87448488Y-125866347D01*
X87448488Y-125866347D02*
X87519592Y-125905375D01*
X87519592Y-125905375D02*
X87590767Y-125944266D01*
X87590767Y-125944266D02*
X87669140Y-125986888D01*
X87669140Y-125986888D02*
X87733327Y-126021635D01*
X87733327Y-126021635D02*
X87818998Y-126067794D01*
X87818998Y-126067794D02*
X87890467Y-126106105D01*
X87890467Y-126106105D02*
X87962007Y-126144280D01*
X87962007Y-126144280D02*
X88015706Y-126172819D01*
X88015706Y-126172819D02*
X88076612Y-126205070D01*
X88076612Y-126205070D02*
X88148334Y-126242885D01*
X88148334Y-126242885D02*
X88220122Y-126280560D01*
X88220122Y-126280560D02*
X88299168Y-126321845D01*
X88299168Y-126321845D02*
X88363905Y-126355498D01*
X88363905Y-126355498D02*
X88421494Y-126385316D01*
X88421494Y-126385316D02*
X88479129Y-126415046D01*
X88479129Y-126415046D02*
X88536806Y-126444689D01*
X88536806Y-126444689D02*
X88619794Y-126487145D01*
X88619794Y-126487145D02*
X88681188Y-126518405D01*
X88681188Y-126518405D02*
X88753482Y-126555055D01*
X88753482Y-126555055D02*
X88825842Y-126591565D01*
X88825842Y-126591565D02*
X88891024Y-126624305D01*
X88891024Y-126624305D02*
X88949009Y-126653313D01*
X88949009Y-126653313D02*
X89025179Y-126691251D01*
X89025179Y-126691251D02*
X89079630Y-126718255D01*
X89079630Y-126718255D02*
X89137752Y-126746971D01*
X89137752Y-126746971D02*
X89195919Y-126775600D01*
X89195919Y-126775600D02*
X89261405Y-126807700D01*
X89261405Y-126807700D02*
X89326945Y-126839687D01*
X89326945Y-126839687D02*
X89385246Y-126868025D01*
X89385246Y-126868025D02*
X89450887Y-126899797D01*
X89450887Y-126899797D02*
X89509279Y-126927946D01*
X89509279Y-126927946D02*
X89582326Y-126963004D01*
X89582326Y-126963004D02*
X89655439Y-126997923D01*
X89655439Y-126997923D02*
X89710316Y-127024020D01*
X89710316Y-127024020D02*
X89772555Y-127053501D01*
X89772555Y-127053501D02*
X89831172Y-127081154D01*
X89831172Y-127081154D02*
X89889832Y-127108718D01*
X89889832Y-127108718D02*
X89948532Y-127136192D01*
X89948532Y-127136192D02*
X90007275Y-127163576D01*
X90007275Y-127163576D02*
X90066058Y-127190869D01*
X90066058Y-127190869D02*
X90146950Y-127228251D01*
X90146950Y-127228251D02*
X90205830Y-127255331D01*
X90205830Y-127255331D02*
X90272118Y-127285691D01*
X90272118Y-127285691D02*
X90342142Y-127317610D01*
X90342142Y-127317610D02*
X90397464Y-127342721D01*
X90397464Y-127342721D02*
X90471285Y-127376078D01*
X90471285Y-127376078D02*
X90537775Y-127405978D01*
X90537775Y-127405978D02*
X90596920Y-127432461D01*
X90596920Y-127432461D02*
X90678308Y-127468726D01*
X90678308Y-127468726D02*
X90737548Y-127494995D01*
X90737548Y-127494995D02*
X90804239Y-127524437D01*
X90804239Y-127524437D02*
X90900658Y-127566763D01*
X90900658Y-127566763D02*
X90967472Y-127595926D01*
X90967472Y-127595926D02*
X91026902Y-127621752D01*
X91026902Y-127621752D02*
X91093807Y-127650697D01*
X91093807Y-127650697D02*
X91153321Y-127676330D01*
X91153321Y-127676330D02*
X91220320Y-127705059D01*
X91220320Y-127705059D02*
X91279915Y-127730497D01*
X91279915Y-127730497D02*
X91339548Y-127755847D01*
X91339548Y-127755847D02*
X91399220Y-127781104D01*
X91399220Y-127781104D02*
X91466397Y-127809412D01*
X91466397Y-127809412D02*
X91526150Y-127834476D01*
X91526150Y-127834476D02*
X91585943Y-127859450D01*
X91585943Y-127859450D02*
X91653254Y-127887436D01*
X91653254Y-127887436D02*
X91713124Y-127912215D01*
X91713124Y-127912215D02*
X91784272Y-127941524D01*
X91784272Y-127941524D02*
X91847974Y-127967635D01*
X91847974Y-127967635D02*
X91907968Y-127992119D01*
X91907968Y-127992119D02*
X91967999Y-128016508D01*
X91967999Y-128016508D02*
X92058114Y-128052924D01*
X92058114Y-128052924D02*
X92118239Y-128077088D01*
X92118239Y-128077088D02*
X92185922Y-128104161D01*
X92185922Y-128104161D02*
X92246125Y-128128129D01*
X92246125Y-128128129D02*
X92313897Y-128154982D01*
X92313897Y-128154982D02*
X92374177Y-128178756D01*
X92374177Y-128178756D02*
X92494848Y-128226026D01*
X92494848Y-128226026D02*
X92555239Y-128249525D01*
X92555239Y-128249525D02*
X92645892Y-128284601D01*
X92645892Y-128284601D02*
X92706371Y-128307867D01*
X92706371Y-128307867D02*
X92774455Y-128333934D01*
X92774455Y-128333934D02*
X92835012Y-128357006D01*
X92835012Y-128357006D02*
X92895603Y-128379987D01*
X92895603Y-128379987D02*
X92956231Y-128402876D01*
X92956231Y-128402876D02*
X93020688Y-128427094D01*
X93020688Y-128427094D02*
X93085185Y-128451208D01*
X93085185Y-128451208D02*
X93153518Y-128476627D01*
X93153518Y-128476627D02*
X93221896Y-128501928D01*
X93221896Y-128501928D02*
X93282714Y-128524321D01*
X93282714Y-128524321D02*
X93374006Y-128557738D01*
X93374006Y-128557738D02*
X93442526Y-128582661D01*
X93442526Y-128582661D02*
X93511092Y-128607470D01*
X93511092Y-128607470D02*
X93598767Y-128639000D01*
X93598767Y-128639000D02*
X93663614Y-128662180D01*
X93663614Y-128662180D02*
X93755229Y-128694727D01*
X93755229Y-128694727D02*
X93831634Y-128721689D01*
X93831634Y-128721689D02*
X93892796Y-128743155D01*
X93892796Y-128743155D02*
X93980778Y-128773853D01*
X93980778Y-128773853D02*
X94045849Y-128796416D01*
X94045849Y-128796416D02*
X94145447Y-128830724D01*
X94145447Y-128830724D02*
X94214452Y-128854332D01*
X94214452Y-128854332D02*
X94275825Y-128875217D01*
X94275825Y-128875217D02*
X94337231Y-128896010D01*
X94337231Y-128896010D02*
X94414034Y-128921869D01*
X94414034Y-128921869D02*
X94475514Y-128942452D01*
X94475514Y-128942452D02*
X94552411Y-128968049D01*
X94552411Y-128968049D02*
X94613965Y-128988422D01*
X94613965Y-128988422D02*
X94675551Y-129008702D01*
X94675551Y-129008702D02*
X94744875Y-129031404D01*
X94744875Y-129031404D02*
X94814240Y-129053989D01*
X94814240Y-129053989D02*
X94875931Y-129073964D01*
X94875931Y-129073964D02*
X94968529Y-129103752D01*
X94968529Y-129103752D02*
X95030301Y-129123495D01*
X95030301Y-129123495D02*
X95107562Y-129148042D01*
X95107562Y-129148042D02*
X95177137Y-129170006D01*
X95177137Y-129170006D02*
X95254491Y-129194274D01*
X95254491Y-129194274D02*
X95324154Y-129215990D01*
X95324154Y-129215990D02*
X95393855Y-129237586D01*
X95393855Y-129237586D02*
X95455844Y-129256684D01*
X95455844Y-129256684D02*
X95525620Y-129278056D01*
X95525620Y-129278056D02*
X95587677Y-129296954D01*
X95587677Y-129296954D02*
X95676935Y-129323953D01*
X95676935Y-129323953D02*
X95742949Y-129343784D01*
X95742949Y-129343784D02*
X95820658Y-129366980D01*
X95820658Y-129366980D02*
X95882858Y-129385429D01*
X95882858Y-129385429D02*
X95945092Y-129403786D01*
X95945092Y-129403786D02*
X96007355Y-129422047D01*
X96007355Y-129422047D02*
X96085225Y-129444741D01*
X96085225Y-129444741D02*
X96155348Y-129465038D01*
X96155348Y-129465038D02*
X96217712Y-129482982D01*
X96217712Y-129482982D02*
X96280106Y-129500832D01*
X96280106Y-129500832D02*
X96350335Y-129520799D01*
X96350335Y-129520799D02*
X96412791Y-129538445D01*
X96412791Y-129538445D02*
X96475279Y-129555998D01*
X96475279Y-129555998D02*
X96553430Y-129577807D01*
X96553430Y-129577807D02*
X96631624Y-129599467D01*
X96631624Y-129599467D02*
X96702040Y-129618834D01*
X96702040Y-129618834D02*
X96788151Y-129642342D01*
X96788151Y-129642342D02*
X96882155Y-129667783D01*
X96882155Y-129667783D02*
X96960541Y-129688820D01*
X96960541Y-129688820D02*
X97038972Y-129709708D01*
X97038972Y-129709708D02*
X97117447Y-129730448D01*
X97117447Y-129730448D02*
X97188113Y-129748987D01*
X97188113Y-129748987D02*
X97274529Y-129771482D01*
X97274529Y-129771482D02*
X97345275Y-129789755D01*
X97345275Y-129789755D02*
X97447525Y-129815935D01*
X97447525Y-129815935D02*
X97534100Y-129837889D01*
X97534100Y-129837889D02*
X97604974Y-129855719D01*
X97604974Y-129855719D02*
X97683763Y-129875387D01*
X97683763Y-129875387D02*
X97754710Y-129892961D01*
X97754710Y-129892961D02*
X97825693Y-129910414D01*
X97825693Y-129910414D02*
X97896707Y-129927744D01*
X97896707Y-129927744D02*
X97967757Y-129944955D01*
X97967757Y-129944955D02*
X98046742Y-129963937D01*
X98046742Y-129963937D02*
X98125769Y-129982767D01*
X98125769Y-129982767D02*
X98196928Y-129999588D01*
X98196928Y-129999588D02*
X98268121Y-130016286D01*
X98268121Y-130016286D02*
X98347263Y-130034697D01*
X98347263Y-130034697D02*
X98418527Y-130051140D01*
X98418527Y-130051140D02*
X98497747Y-130069267D01*
X98497747Y-130069267D02*
X98569080Y-130085454D01*
X98569080Y-130085454D02*
X98640447Y-130101516D01*
X98640447Y-130101516D02*
X98711845Y-130117459D01*
X98711845Y-130117459D02*
X98783276Y-130133278D01*
X98783276Y-130133278D02*
X98854738Y-130148976D01*
X98854738Y-130148976D02*
X98934180Y-130166276D01*
X98934180Y-130166276D02*
X99013660Y-130183426D01*
X99013660Y-130183426D02*
X99085227Y-130198733D01*
X99085227Y-130198733D02*
X99156825Y-130213914D01*
X99156825Y-130213914D02*
X99244378Y-130232306D01*
X99244378Y-130232306D02*
X99316046Y-130247217D01*
X99316046Y-130247217D02*
X99403682Y-130265277D01*
X99403682Y-130265277D02*
X99475421Y-130279918D01*
X99475421Y-130279918D02*
X99563142Y-130297645D01*
X99563142Y-130297645D02*
X99714766Y-130327830D01*
X99714766Y-130327830D02*
X99786637Y-130341940D01*
X99786637Y-130341940D02*
X99866529Y-130357472D01*
X99866529Y-130357472D02*
X99938460Y-130371320D01*
X99938460Y-130371320D02*
X100026422Y-130388080D01*
X100026422Y-130388080D02*
X100098421Y-130401656D01*
X100098421Y-130401656D02*
X100186460Y-130418082D01*
X100186460Y-130418082D02*
X100258526Y-130431385D01*
X100258526Y-130431385D02*
X100338633Y-130446021D01*
X100338633Y-130446021D02*
X100410761Y-130459065D01*
X100410761Y-130459065D02*
X100482916Y-130471984D01*
X100482916Y-130471984D02*
X100555101Y-130484779D01*
X100555101Y-130484779D02*
X100651391Y-130501649D01*
X100651391Y-130501649D02*
X100723641Y-130514156D01*
X100723641Y-130514156D02*
X100811986Y-130529274D01*
X100811986Y-130529274D02*
X100884301Y-130541510D01*
X100884301Y-130541510D02*
X100956642Y-130553618D01*
X100956642Y-130553618D02*
X101029011Y-130565603D01*
X101029011Y-130565603D02*
X101149690Y-130585306D01*
X101149690Y-130585306D02*
X101238233Y-130599532D01*
X101238233Y-130599532D02*
X101318763Y-130612308D01*
X101318763Y-130612308D02*
X101391270Y-130623675D01*
X101391270Y-130623675D02*
X101463802Y-130634915D01*
X101463802Y-130634915D02*
X101536362Y-130646034D01*
X101536362Y-130646034D02*
X101641217Y-130661872D01*
X101641217Y-130661872D02*
X101729984Y-130675073D01*
X101729984Y-130675073D02*
X101834939Y-130690432D01*
X101834939Y-130690432D02*
X101923791Y-130703228D01*
X101923791Y-130703228D02*
X101996515Y-130713556D01*
X101996515Y-130713556D02*
X102069265Y-130723760D01*
X102069265Y-130723760D02*
X102142042Y-130733841D01*
X102142042Y-130733841D02*
X102214842Y-130743796D01*
X102214842Y-130743796D02*
X102295764Y-130754712D01*
X102295764Y-130754712D02*
X102384810Y-130766540D01*
X102384810Y-130766540D02*
X102457695Y-130776079D01*
X102457695Y-130776079D02*
X102530603Y-130785492D01*
X102530603Y-130785492D02*
X102611644Y-130795806D01*
X102611644Y-130795806D02*
X102684606Y-130804957D01*
X102684606Y-130804957D02*
X102757591Y-130813980D01*
X102757591Y-130813980D02*
X102846826Y-130824839D01*
X102846826Y-130824839D02*
X102927981Y-130834549D01*
X102927981Y-130834549D02*
X103001045Y-130843154D01*
X103001045Y-130843154D02*
X103074133Y-130851636D01*
X103074133Y-130851636D02*
X103163494Y-130861831D01*
X103163494Y-130861831D02*
X103244762Y-130870936D01*
X103244762Y-130870936D02*
X103326058Y-130879886D01*
X103326058Y-130879886D02*
X103407383Y-130888681D01*
X103407383Y-130888681D02*
X103480601Y-130896465D01*
X103480601Y-130896465D02*
X103553837Y-130904121D01*
X103553837Y-130904121D02*
X103635240Y-130912480D01*
X103635240Y-130912480D02*
X103708526Y-130919870D01*
X103708526Y-130919870D02*
X103781832Y-130927135D01*
X103781832Y-130927135D02*
X103871461Y-130935843D01*
X103871461Y-130935843D02*
X103952967Y-130943593D01*
X103952967Y-130943593D02*
X104026347Y-130950436D01*
X104026347Y-130950436D02*
X104116062Y-130958627D01*
X104116062Y-130958627D02*
X104197650Y-130965912D01*
X104197650Y-130965912D02*
X104287425Y-130973743D01*
X104287425Y-130973743D02*
X104369067Y-130980699D01*
X104369067Y-130980699D02*
X104450732Y-130987498D01*
X104450732Y-130987498D02*
X104556937Y-130996102D01*
X104556937Y-130996102D02*
X104638661Y-131002542D01*
X104638661Y-131002542D02*
X104720412Y-131008825D01*
X104720412Y-131008825D02*
X104802188Y-131014949D01*
X104802188Y-131014949D02*
X104900347Y-131022093D01*
X104900347Y-131022093D02*
X104982176Y-131027873D01*
X104982176Y-131027873D02*
X105072213Y-131034050D01*
X105072213Y-131034050D02*
X105154091Y-131039499D01*
X105154091Y-131039499D02*
X105235993Y-131044793D01*
X105235993Y-131044793D02*
X105317919Y-131049928D01*
X105317919Y-131049928D02*
X105399866Y-131054906D01*
X105399866Y-131054906D02*
X105481835Y-131059727D01*
X105481835Y-131059727D02*
X105563831Y-131064392D01*
X105563831Y-131064392D02*
X105645846Y-131068896D01*
X105645846Y-131068896D02*
X105727884Y-131073244D01*
X105727884Y-131073244D02*
X105809945Y-131077435D01*
X105809945Y-131077435D02*
X105900236Y-131081861D01*
X105900236Y-131081861D02*
X105982342Y-131085718D01*
X105982342Y-131085718D02*
X106064470Y-131089419D01*
X106064470Y-131089419D02*
X106154835Y-131093306D01*
X106154835Y-131093306D02*
X106269880Y-131097975D01*
X106269880Y-131097975D02*
X106352082Y-131101123D01*
X106352082Y-131101123D02*
X106442526Y-131104400D01*
X106442526Y-131104400D02*
X106524770Y-131107212D01*
X106524770Y-131107212D02*
X106607033Y-131109866D01*
X106607033Y-131109866D02*
X106705775Y-131112841D01*
X106705775Y-131112841D02*
X106812780Y-131115808D01*
X106812780Y-131115808D02*
X106911581Y-131118306D01*
X106911581Y-131118306D02*
X107010410Y-131120576D01*
X107010410Y-131120576D02*
X107092787Y-131122292D01*
X107092787Y-131122292D02*
X107175184Y-131123851D01*
X107175184Y-131123851D02*
X107274085Y-131125509D01*
X107274085Y-131125509D02*
X107356522Y-131126715D01*
X107356522Y-131126715D02*
X107438976Y-131127761D01*
X107438976Y-131127761D02*
X107529697Y-131128728D01*
X107529697Y-131128728D02*
X107612190Y-131129440D01*
X107612190Y-131129440D02*
X107694699Y-131129991D01*
X107694699Y-131129991D02*
X107785479Y-131130414D01*
X107785479Y-131130414D02*
X107884536Y-131130654D01*
X107884536Y-131130654D02*
X107938204Y-131130691D01*
X98742500Y-37917414D02*
X98742500Y-47180500D01*
X65432542Y-88625032D02*
X65432645Y-88719971D01*
X65432645Y-88719971D02*
X65432907Y-88802510D01*
X65432907Y-88802510D02*
X65433332Y-88885034D01*
X65433332Y-88885034D02*
X65433915Y-88967539D01*
X65433915Y-88967539D02*
X65434658Y-89050027D01*
X65434658Y-89050027D02*
X65435762Y-89148992D01*
X65435762Y-89148992D02*
X65436854Y-89231440D01*
X65436854Y-89231440D02*
X65438243Y-89322113D01*
X65438243Y-89322113D02*
X65439825Y-89412766D01*
X65439825Y-89412766D02*
X65441430Y-89495156D01*
X65441430Y-89495156D02*
X65443380Y-89585763D01*
X65443380Y-89585763D02*
X65445523Y-89676352D01*
X65445523Y-89676352D02*
X65447635Y-89758681D01*
X65447635Y-89758681D02*
X65449908Y-89840992D01*
X65449908Y-89840992D02*
X65452846Y-89939741D01*
X65452846Y-89939741D02*
X65455738Y-90030234D01*
X65455738Y-90030234D02*
X65458536Y-90112479D01*
X65458536Y-90112479D02*
X65461493Y-90194705D01*
X65461493Y-90194705D02*
X65465571Y-90301567D01*
X65465571Y-90301567D02*
X65468891Y-90383744D01*
X65468891Y-90383744D02*
X65473085Y-90482331D01*
X65473085Y-90482331D02*
X65476753Y-90564462D01*
X65476753Y-90564462D02*
X65480581Y-90646571D01*
X65480581Y-90646571D02*
X65484567Y-90728663D01*
X65484567Y-90728663D02*
X65489556Y-90827139D01*
X65489556Y-90827139D02*
X65493885Y-90909179D01*
X65493885Y-90909179D02*
X65498376Y-90991199D01*
X65498376Y-90991199D02*
X65503022Y-91073192D01*
X65503022Y-91073192D02*
X65507828Y-91155167D01*
X65507828Y-91155167D02*
X65513296Y-91245309D01*
X65513296Y-91245309D02*
X65518431Y-91327234D01*
X65518431Y-91327234D02*
X65523724Y-91409135D01*
X65523724Y-91409135D02*
X65529175Y-91491014D01*
X65529175Y-91491014D02*
X65534781Y-91572867D01*
X65534781Y-91572867D02*
X65540547Y-91654698D01*
X65540547Y-91654698D02*
X65547672Y-91752862D01*
X65547672Y-91752862D02*
X65556895Y-91875518D01*
X65556895Y-91875518D02*
X65563882Y-91965429D01*
X65563882Y-91965429D02*
X65570402Y-92047142D01*
X65570402Y-92047142D02*
X65579107Y-92153330D01*
X65579107Y-92153330D02*
X65585984Y-92234984D01*
X65585984Y-92234984D02*
X65593018Y-92316613D01*
X65593018Y-92316613D02*
X65600208Y-92398215D01*
X65600208Y-92398215D02*
X65607552Y-92479790D01*
X65607552Y-92479790D02*
X65615057Y-92561344D01*
X65615057Y-92561344D02*
X65621941Y-92634716D01*
X65621941Y-92634716D02*
X65628953Y-92708067D01*
X65628953Y-92708067D02*
X65636092Y-92781396D01*
X65636092Y-92781396D02*
X65643356Y-92854703D01*
X65643356Y-92854703D02*
X65651574Y-92936129D01*
X65651574Y-92936129D02*
X65662492Y-93041942D01*
X65662492Y-93041942D02*
X65670204Y-93115171D01*
X65670204Y-93115171D02*
X65678921Y-93196508D01*
X65678921Y-93196508D02*
X65686899Y-93269690D01*
X65686899Y-93269690D02*
X65696821Y-93359101D01*
X65696821Y-93359101D02*
X65706004Y-93440355D01*
X65706004Y-93440355D02*
X65717227Y-93537820D01*
X65717227Y-93537820D02*
X65725793Y-93610894D01*
X65725793Y-93610894D02*
X65734483Y-93683941D01*
X65734483Y-93683941D02*
X65743298Y-93756966D01*
X65743298Y-93756966D02*
X65753241Y-93838078D01*
X65753241Y-93838078D02*
X65764356Y-93927264D01*
X65764356Y-93927264D02*
X65780856Y-94056926D01*
X65780856Y-94056926D02*
X65791369Y-94137926D01*
X65791369Y-94137926D02*
X65802038Y-94218895D01*
X65802038Y-94218895D02*
X65811771Y-94291741D01*
X65811771Y-94291741D02*
X65821629Y-94364561D01*
X65821629Y-94364561D02*
X65831612Y-94437358D01*
X65831612Y-94437358D02*
X65842851Y-94518213D01*
X65842851Y-94518213D02*
X65854244Y-94599036D01*
X65854244Y-94599036D02*
X65864628Y-94671750D01*
X65864628Y-94671750D02*
X65876313Y-94752512D01*
X65876313Y-94752512D02*
X65888152Y-94833243D01*
X65888152Y-94833243D02*
X65898940Y-94905875D01*
X65898940Y-94905875D02*
X65909849Y-94978477D01*
X65909849Y-94978477D02*
X65923353Y-95067179D01*
X65923353Y-95067179D02*
X65934539Y-95139724D01*
X65934539Y-95139724D02*
X65957285Y-95284732D01*
X65957285Y-95284732D02*
X65970135Y-95365246D01*
X65970135Y-95365246D02*
X65981831Y-95437680D01*
X65981831Y-95437680D02*
X65993651Y-95510085D01*
X65993651Y-95510085D02*
X66005596Y-95582465D01*
X66005596Y-95582465D02*
X66017665Y-95654814D01*
X66017665Y-95654814D02*
X66029857Y-95727137D01*
X66029857Y-95727137D02*
X66042174Y-95799434D01*
X66042174Y-95799434D02*
X66056002Y-95879727D01*
X66056002Y-95879727D02*
X66068579Y-95951963D01*
X66068579Y-95951963D02*
X66088387Y-96064273D01*
X66088387Y-96064273D02*
X66105604Y-96160482D01*
X66105604Y-96160482D02*
X66121578Y-96248630D01*
X66121578Y-96248630D02*
X66136260Y-96328726D01*
X66136260Y-96328726D02*
X66149603Y-96400782D01*
X66149603Y-96400782D02*
X66164575Y-96480811D01*
X66164575Y-96480811D02*
X66178178Y-96552802D01*
X66178178Y-96552802D02*
X66191904Y-96624765D01*
X66191904Y-96624765D02*
X66205755Y-96696701D01*
X66205755Y-96696701D02*
X66219727Y-96768604D01*
X66219727Y-96768604D02*
X66235395Y-96848460D01*
X66235395Y-96848460D02*
X66251215Y-96928282D01*
X66251215Y-96928282D02*
X66265582Y-97000086D01*
X66265582Y-97000086D02*
X66283309Y-97087808D01*
X66283309Y-97087808D02*
X66301219Y-97175481D01*
X66301219Y-97175481D02*
X66317658Y-97255145D01*
X66317658Y-97255145D02*
X66332583Y-97326811D01*
X66332583Y-97326811D02*
X66349310Y-97406401D01*
X66349310Y-97406401D02*
X66364493Y-97478000D01*
X66364493Y-97478000D02*
X66383216Y-97565464D01*
X66383216Y-97565464D02*
X66403849Y-97660829D01*
X66403849Y-97660829D02*
X66419465Y-97732312D01*
X66419465Y-97732312D02*
X66435205Y-97803765D01*
X66435205Y-97803765D02*
X66454608Y-97891053D01*
X66454608Y-97891053D02*
X66472406Y-97970364D01*
X66472406Y-97970364D02*
X66497571Y-98081327D01*
X66497571Y-98081327D02*
X66519377Y-98176376D01*
X66519377Y-98176376D02*
X66537712Y-98255540D01*
X66537712Y-98255540D02*
X66554344Y-98326751D01*
X66554344Y-98326751D02*
X66593622Y-98492781D01*
X66593622Y-98492781D02*
X66610658Y-98563880D01*
X66610658Y-98563880D02*
X66631643Y-98650732D01*
X66631643Y-98650732D02*
X66652812Y-98737536D01*
X66652812Y-98737536D02*
X66674158Y-98824287D01*
X66674158Y-98824287D02*
X66691759Y-98895226D01*
X66691759Y-98895226D02*
X66717397Y-98997633D01*
X66717397Y-98997633D02*
X66745287Y-99107836D01*
X66745287Y-99107836D02*
X66763370Y-99178635D01*
X66763370Y-99178635D02*
X66781575Y-99249399D01*
X66781575Y-99249399D02*
X66803988Y-99335840D01*
X66803988Y-99335840D02*
X66826582Y-99422229D01*
X66826582Y-99422229D02*
X66845203Y-99492870D01*
X66845203Y-99492870D02*
X66866030Y-99571317D01*
X66866030Y-99571317D02*
X66884904Y-99641882D01*
X66884904Y-99641882D02*
X66903899Y-99712410D01*
X66903899Y-99712410D02*
X66925143Y-99790734D01*
X66925143Y-99790734D02*
X66944391Y-99861186D01*
X66944391Y-99861186D02*
X66968077Y-99947244D01*
X66968077Y-99947244D02*
X66991944Y-100033247D01*
X66991944Y-100033247D02*
X67011605Y-100103572D01*
X67011605Y-100103572D02*
X67035798Y-100189473D01*
X67035798Y-100189473D02*
X67053504Y-100251910D01*
X67053504Y-100251910D02*
X67071305Y-100314320D01*
X67071305Y-100314320D02*
X67093689Y-100392289D01*
X67093689Y-100392289D02*
X67113962Y-100462422D01*
X67113962Y-100462422D02*
X67132081Y-100524729D01*
X67132081Y-100524729D02*
X67150295Y-100587006D01*
X67150295Y-100587006D02*
X67170899Y-100657032D01*
X67170899Y-100657032D02*
X67189314Y-100719246D01*
X67189314Y-100719246D02*
X67210145Y-100789199D01*
X67210145Y-100789199D02*
X67228760Y-100851348D01*
X67228760Y-100851348D02*
X67249815Y-100921229D01*
X67249815Y-100921229D02*
X67268632Y-100983312D01*
X67268632Y-100983312D02*
X67292281Y-101060870D01*
X67292281Y-101060870D02*
X67328033Y-101177119D01*
X67328033Y-101177119D02*
X67347236Y-101239074D01*
X67347236Y-101239074D02*
X67366531Y-101300995D01*
X67366531Y-101300995D02*
X67388352Y-101370620D01*
X67388352Y-101370620D02*
X67407848Y-101432475D01*
X67407848Y-101432475D02*
X67427438Y-101494301D01*
X67427438Y-101494301D02*
X67452055Y-101571535D01*
X67452055Y-101571535D02*
X67481791Y-101664152D01*
X67481791Y-101664152D02*
X67501733Y-101725856D01*
X67501733Y-101725856D02*
X67521767Y-101787528D01*
X67521767Y-101787528D02*
X67544418Y-101856870D01*
X67544418Y-101856870D02*
X67567186Y-101926170D01*
X67567186Y-101926170D02*
X67590074Y-101995430D01*
X67590074Y-101995430D02*
X67610516Y-102056959D01*
X67610516Y-102056959D02*
X67631051Y-102118454D01*
X67631051Y-102118454D02*
X67651680Y-102179918D01*
X67651680Y-102179918D02*
X67672404Y-102241349D01*
X67672404Y-102241349D02*
X67704970Y-102337268D01*
X67704970Y-102337268D02*
X67732499Y-102417777D01*
X67732499Y-102417777D02*
X67756225Y-102486739D01*
X67756225Y-102486739D02*
X67777413Y-102548003D01*
X67777413Y-102548003D02*
X67798692Y-102609233D01*
X67798692Y-102609233D02*
X67820066Y-102670428D01*
X67820066Y-102670428D02*
X67841535Y-102731592D01*
X67841535Y-102731592D02*
X67865795Y-102800359D01*
X67865795Y-102800359D02*
X67898326Y-102891982D01*
X67898326Y-102891982D02*
X67924229Y-102964463D01*
X67924229Y-102964463D02*
X67950257Y-103036892D01*
X67950257Y-103036892D02*
X67972280Y-103097848D01*
X67972280Y-103097848D02*
X68002712Y-103181609D01*
X68002712Y-103181609D02*
X68027743Y-103250090D01*
X68027743Y-103250090D02*
X68052890Y-103318528D01*
X68052890Y-103318528D02*
X68078153Y-103386922D01*
X68078153Y-103386922D02*
X68106358Y-103462861D01*
X68106358Y-103462861D02*
X68140397Y-103553916D01*
X68140397Y-103553916D02*
X68163206Y-103614574D01*
X68163206Y-103614574D02*
X68188975Y-103682775D01*
X68188975Y-103682775D02*
X68214860Y-103750928D01*
X68214860Y-103750928D02*
X68243758Y-103826601D01*
X68243758Y-103826601D02*
X68266980Y-103887101D01*
X68266980Y-103887101D02*
X68293217Y-103955117D01*
X68293217Y-103955117D02*
X68321034Y-104026863D01*
X68321034Y-104026863D02*
X68346033Y-104091014D01*
X68346033Y-104091014D02*
X68369658Y-104151355D01*
X68369658Y-104151355D02*
X68399317Y-104226729D01*
X68399317Y-104226729D02*
X68435097Y-104317102D01*
X68435097Y-104317102D02*
X68471085Y-104407394D01*
X68471085Y-104407394D02*
X68495189Y-104467540D01*
X68495189Y-104467540D02*
X68525448Y-104542672D01*
X68525448Y-104542672D02*
X68561950Y-104632754D01*
X68561950Y-104632754D02*
X68592527Y-104707758D01*
X68592527Y-104707758D02*
X68620166Y-104775212D01*
X68620166Y-104775212D02*
X68651011Y-104850105D01*
X68651011Y-104850105D02*
X68675793Y-104909978D01*
X68675793Y-104909978D02*
X68703777Y-104977287D01*
X68703777Y-104977287D02*
X68728750Y-105037077D01*
X68728750Y-105037077D02*
X68760096Y-105111763D01*
X68760096Y-105111763D02*
X68791583Y-105186388D01*
X68791583Y-105186388D02*
X68816875Y-105246047D01*
X68816875Y-105246047D02*
X68848617Y-105320564D01*
X68848617Y-105320564D02*
X68874114Y-105380136D01*
X68874114Y-105380136D02*
X68902904Y-105447106D01*
X68902904Y-105447106D02*
X68928596Y-105506596D01*
X68928596Y-105506596D02*
X68957604Y-105573474D01*
X68957604Y-105573474D02*
X68983487Y-105632879D01*
X68983487Y-105632879D02*
X69009460Y-105692246D01*
X69009460Y-105692246D02*
X69035525Y-105751574D01*
X69035525Y-105751574D02*
X69068232Y-105825680D01*
X69068232Y-105825680D02*
X69110961Y-105921922D01*
X69110961Y-105921922D02*
X69147304Y-106003277D01*
X69147304Y-106003277D02*
X69180494Y-106077171D01*
X69180494Y-106077171D02*
X69210483Y-106143622D01*
X69210483Y-106143622D02*
X69240586Y-106210022D01*
X69240586Y-106210022D02*
X69274170Y-106283741D01*
X69274170Y-106283741D02*
X69304514Y-106350034D01*
X69304514Y-106350034D02*
X69331583Y-106408918D01*
X69331583Y-106408918D02*
X69358741Y-106467761D01*
X69358741Y-106467761D02*
X69389403Y-106533912D01*
X69389403Y-106533912D02*
X69423606Y-106607353D01*
X69423606Y-106607353D02*
X69451069Y-106666059D01*
X69451069Y-106666059D02*
X69478621Y-106724725D01*
X69478621Y-106724725D02*
X69506267Y-106783351D01*
X69506267Y-106783351D02*
X69540944Y-106856571D01*
X69540944Y-106856571D02*
X69575763Y-106929728D01*
X69575763Y-106929728D02*
X69610724Y-107002821D01*
X69610724Y-107002821D02*
X69638790Y-107061248D01*
X69638790Y-107061248D02*
X69666950Y-107119634D01*
X69666950Y-107119634D02*
X69695197Y-107177979D01*
X69695197Y-107177979D02*
X69723537Y-107236281D01*
X69723537Y-107236281D02*
X69751964Y-107294540D01*
X69751964Y-107294540D02*
X69787623Y-107367307D01*
X69787623Y-107367307D02*
X69830598Y-107454540D01*
X69830598Y-107454540D02*
X69866566Y-107527160D01*
X69866566Y-107527160D02*
X69902674Y-107599715D01*
X69902674Y-107599715D02*
X69935288Y-107664957D01*
X69935288Y-107664957D02*
X69964375Y-107722905D01*
X69964375Y-107722905D02*
X70000856Y-107795277D01*
X70000856Y-107795277D02*
X70041146Y-107874810D01*
X70041146Y-107874810D02*
X70077923Y-107947044D01*
X70077923Y-107947044D02*
X70105594Y-108001173D01*
X70105594Y-108001173D02*
X70137051Y-108062475D01*
X70137051Y-108062475D02*
X70181629Y-108148933D01*
X70181629Y-108148933D02*
X70215196Y-108213714D01*
X70215196Y-108213714D02*
X70245126Y-108271248D01*
X70245126Y-108271248D02*
X70275145Y-108328739D01*
X70275145Y-108328739D02*
X70305253Y-108386187D01*
X70305253Y-108386187D02*
X70339229Y-108450762D01*
X70339229Y-108450762D02*
X70369526Y-108508116D01*
X70369526Y-108508116D02*
X70418947Y-108601222D01*
X70418947Y-108601222D02*
X70453298Y-108665611D01*
X70453298Y-108665611D02*
X70491595Y-108737086D01*
X70491595Y-108737086D02*
X70520409Y-108790646D01*
X70520409Y-108790646D02*
X70553159Y-108851302D01*
X70553159Y-108851302D02*
X70595690Y-108929722D01*
X70595690Y-108929722D02*
X70630611Y-108993819D01*
X70630611Y-108993819D02*
X70661747Y-109050748D01*
X70661747Y-109050748D02*
X70696879Y-109114739D01*
X70696879Y-109114739D02*
X70730162Y-109175119D01*
X70730162Y-109175119D02*
X70759610Y-109228354D01*
X70759610Y-109228354D02*
X70795053Y-109292184D01*
X70795053Y-109292184D02*
X70834563Y-109363037D01*
X70834563Y-109363037D02*
X70870239Y-109426744D01*
X70870239Y-109426744D02*
X70902045Y-109483324D01*
X70902045Y-109483324D02*
X70933939Y-109539859D01*
X70933939Y-109539859D02*
X70973929Y-109610460D01*
X70973929Y-109610460D02*
X71010037Y-109673937D01*
X71010037Y-109673937D02*
X71042225Y-109730315D01*
X71042225Y-109730315D02*
X71078543Y-109793684D01*
X71078543Y-109793684D02*
X71114971Y-109856992D01*
X71114971Y-109856992D02*
X71155577Y-109927265D01*
X71155577Y-109927265D02*
X71196321Y-109997467D01*
X71196321Y-109997467D02*
X71237198Y-110067592D01*
X71237198Y-110067592D02*
X71282323Y-110144646D01*
X71282323Y-110144646D02*
X71315244Y-110200629D01*
X71315244Y-110200629D02*
X71360654Y-110277528D01*
X71360654Y-110277528D02*
X71402077Y-110347358D01*
X71402077Y-110347358D02*
X71443638Y-110417113D01*
X71443638Y-110417113D02*
X71481159Y-110479829D01*
X71481159Y-110479829D02*
X71518789Y-110542483D01*
X71518789Y-110542483D02*
X71564931Y-110618977D01*
X71564931Y-110618977D02*
X71611237Y-110695383D01*
X71611237Y-110695383D02*
X71649245Y-110757826D01*
X71649245Y-110757826D02*
X71687363Y-110820208D01*
X71687363Y-110820208D02*
X71729848Y-110889452D01*
X71729848Y-110889452D02*
X71763931Y-110944789D01*
X71763931Y-110944789D02*
X71798101Y-111000079D01*
X71798101Y-111000079D02*
X71832357Y-111055318D01*
X71832357Y-111055318D02*
X71875300Y-111124301D01*
X71875300Y-111124301D02*
X71909752Y-111179431D01*
X71909752Y-111179431D02*
X71961591Y-111262032D01*
X71961591Y-111262032D02*
X72000599Y-111323912D01*
X72000599Y-111323912D02*
X72044069Y-111392590D01*
X72044069Y-111392590D02*
X72087672Y-111461191D01*
X72087672Y-111461191D02*
X72122652Y-111516017D01*
X72122652Y-111516017D02*
X72170891Y-111591320D01*
X72170891Y-111591320D02*
X72210479Y-111652863D01*
X72210479Y-111652863D02*
X72254595Y-111721167D01*
X72254595Y-111721167D02*
X72294414Y-111782574D01*
X72294414Y-111782574D02*
X72329899Y-111837103D01*
X72329899Y-111837103D02*
X72374377Y-111905195D01*
X72374377Y-111905195D02*
X72418988Y-111973206D01*
X72418988Y-111973206D02*
X72459255Y-112034348D01*
X72459255Y-112034348D02*
X72499630Y-112095428D01*
X72499630Y-112095428D02*
X72544617Y-112163217D01*
X72544617Y-112163217D02*
X72580703Y-112217391D01*
X72580703Y-112217391D02*
X72634992Y-112298553D01*
X72634992Y-112298553D02*
X72671291Y-112352596D01*
X72671291Y-112352596D02*
X72712230Y-112413335D01*
X72712230Y-112413335D02*
X72757846Y-112480744D01*
X72757846Y-112480744D02*
X72803592Y-112548073D01*
X72803592Y-112548073D02*
X72844880Y-112608598D01*
X72844880Y-112608598D02*
X72881671Y-112662345D01*
X72881671Y-112662345D02*
X72932397Y-112736159D01*
X72932397Y-112736159D02*
X72974021Y-112796480D01*
X72974021Y-112796480D02*
X73038982Y-112890179D01*
X73038982Y-112890179D02*
X73076218Y-112943648D01*
X73076218Y-112943648D02*
X73118213Y-113003739D01*
X73118213Y-113003739D02*
X73160316Y-113063765D01*
X73160316Y-113063765D02*
X73207219Y-113130376D01*
X73207219Y-113130376D02*
X73249547Y-113190257D01*
X73249547Y-113190257D02*
X73291983Y-113250071D01*
X73291983Y-113250071D02*
X73329793Y-113303182D01*
X73329793Y-113303182D02*
X73381921Y-113376123D01*
X73381921Y-113376123D02*
X73424691Y-113435726D01*
X73424691Y-113435726D02*
X73462798Y-113488650D01*
X73462798Y-113488650D02*
X73500988Y-113541519D01*
X73500988Y-113541519D02*
X73548845Y-113607528D01*
X73548845Y-113607528D02*
X73592029Y-113666866D01*
X73592029Y-113666866D02*
X73630506Y-113719553D01*
X73630506Y-113719553D02*
X73683549Y-113791907D01*
X73683549Y-113791907D02*
X73722225Y-113844463D01*
X73722225Y-113844463D02*
X73765837Y-113903527D01*
X73765837Y-113903527D02*
X73804693Y-113955966D01*
X73804693Y-113955966D02*
X73858255Y-114027981D01*
X73858255Y-114027981D02*
X73897310Y-114080291D01*
X73897310Y-114080291D02*
X73936449Y-114132547D01*
X73936449Y-114132547D02*
X73980580Y-114191266D01*
X73980580Y-114191266D02*
X74029740Y-114256430D01*
X74029740Y-114256430D02*
X74064231Y-114301993D01*
X74064231Y-114301993D02*
X74128453Y-114386498D01*
X74128453Y-114386498D02*
X74163127Y-114431939D01*
X74163127Y-114431939D02*
X74202832Y-114483818D01*
X74202832Y-114483818D02*
X74267531Y-114568004D01*
X74267531Y-114568004D02*
X74312452Y-114626200D01*
X74312452Y-114626200D02*
X74367500Y-114697232D01*
X74367500Y-114697232D02*
X74402615Y-114742379D01*
X74402615Y-114742379D02*
X74442819Y-114793920D01*
X74442819Y-114793920D02*
X74478069Y-114838974D01*
X74478069Y-114838974D02*
X74513381Y-114883983D01*
X74513381Y-114883983D02*
X74558879Y-114941790D01*
X74558879Y-114941790D02*
X74599408Y-114993112D01*
X74599408Y-114993112D02*
X74665447Y-115076390D01*
X74665447Y-115076390D02*
X74706195Y-115127564D01*
X74706195Y-115127564D02*
X74747027Y-115178679D01*
X74747027Y-115178679D02*
X74787941Y-115229737D01*
X74787941Y-115229737D02*
X74823809Y-115274366D01*
X74823809Y-115274366D02*
X74859741Y-115318951D01*
X74859741Y-115318951D02*
X74895738Y-115363492D01*
X74895738Y-115363492D02*
X74931796Y-115407988D01*
X74931796Y-115407988D02*
X74967920Y-115452440D01*
X74967920Y-115452440D02*
X75004105Y-115496848D01*
X75004105Y-115496848D02*
X75040356Y-115541211D01*
X75040356Y-115541211D02*
X75076668Y-115585531D01*
X75076668Y-115585531D02*
X75113043Y-115629803D01*
X75113043Y-115629803D02*
X75149483Y-115674032D01*
X75149483Y-115674032D02*
X75196425Y-115730833D01*
X75196425Y-115730833D02*
X75238241Y-115781260D01*
X75238241Y-115781260D02*
X75280138Y-115831628D01*
X75280138Y-115831628D02*
X75322119Y-115881938D01*
X75322119Y-115881938D02*
X75369446Y-115938467D01*
X75369446Y-115938467D02*
X75411602Y-115988651D01*
X75411602Y-115988651D02*
X75448555Y-116032513D01*
X75448555Y-116032513D02*
X75485573Y-116076331D01*
X75485573Y-116076331D02*
X75527954Y-116126353D01*
X75527954Y-116126353D02*
X75565108Y-116170075D01*
X75565108Y-116170075D02*
X75607643Y-116219985D01*
X75607643Y-116219985D02*
X75650262Y-116269835D01*
X75650262Y-116269835D02*
X75692963Y-116319625D01*
X75692963Y-116319625D02*
X75730395Y-116363145D01*
X75730395Y-116363145D02*
X75773248Y-116412823D01*
X75773248Y-116412823D02*
X75816185Y-116462442D01*
X75816185Y-116462442D02*
X75859203Y-116512000D01*
X75859203Y-116512000D02*
X75902305Y-116561500D01*
X75902305Y-116561500D02*
X75940082Y-116604760D01*
X75940082Y-116604760D02*
X75977926Y-116647975D01*
X75977926Y-116647975D02*
X76021252Y-116697308D01*
X76021252Y-116697308D02*
X76064660Y-116746580D01*
X76064660Y-116746580D02*
X76113591Y-116801938D01*
X76113591Y-116801938D02*
X76157172Y-116851081D01*
X76157172Y-116851081D02*
X76200834Y-116900162D01*
X76200834Y-116900162D02*
X76244579Y-116949183D01*
X76244579Y-116949183D02*
X76282922Y-116992025D01*
X76282922Y-116992025D02*
X76321329Y-117034822D01*
X76321329Y-117034822D02*
X76359797Y-117077570D01*
X76359797Y-117077570D02*
X76398328Y-117120273D01*
X76398328Y-117120273D02*
X76453480Y-117181194D01*
X76453480Y-117181194D02*
X76492162Y-117223781D01*
X76492162Y-117223781D02*
X76536446Y-117272394D01*
X76536446Y-117272394D02*
X76580811Y-117320945D01*
X76580811Y-117320945D02*
X76625257Y-117369435D01*
X76625257Y-117369435D02*
X76669783Y-117417861D01*
X76669783Y-117417861D02*
X76719973Y-117472268D01*
X76719973Y-117472268D02*
X76764675Y-117520565D01*
X76764675Y-117520565D02*
X76803853Y-117562772D01*
X76803853Y-117562772D02*
X76848704Y-117610950D01*
X76848704Y-117610950D02*
X76910507Y-117677093D01*
X76910507Y-117677093D02*
X76949917Y-117719122D01*
X76949917Y-117719122D02*
X76995030Y-117767097D01*
X76995030Y-117767097D02*
X77062854Y-117838940D01*
X77062854Y-117838940D02*
X77108172Y-117886757D01*
X77108172Y-117886757D02*
X77147891Y-117928546D01*
X77147891Y-117928546D02*
X77193358Y-117976244D01*
X77193358Y-117976244D02*
X77244605Y-118029828D01*
X77244605Y-118029828D02*
X77295954Y-118083332D01*
X77295954Y-118083332D02*
X77335963Y-118124891D01*
X77335963Y-118124891D02*
X77381762Y-118172326D01*
X77381762Y-118172326D02*
X77433384Y-118225615D01*
X77433384Y-118225615D02*
X77473604Y-118267006D01*
X77473604Y-118267006D02*
X77519646Y-118314251D01*
X77519646Y-118314251D02*
X77577311Y-118373215D01*
X77577311Y-118373215D02*
X77623533Y-118420315D01*
X77623533Y-118420315D02*
X77675627Y-118473225D01*
X77675627Y-118473225D02*
X77716217Y-118514320D01*
X77716217Y-118514320D02*
X77762679Y-118561226D01*
X77762679Y-118561226D02*
X77815044Y-118613919D01*
X77815044Y-118613919D02*
X77855843Y-118654845D01*
X77855843Y-118654845D02*
X77882106Y-118681130D01*
X150443874Y-88625032D02*
X150443696Y-88530216D01*
X150443696Y-88530216D02*
X150442607Y-88326141D01*
X150442607Y-88326141D02*
X150441844Y-88238739D01*
X150441844Y-88238739D02*
X150440906Y-88151374D01*
X150440906Y-88151374D02*
X150439585Y-88049491D01*
X150439585Y-88049491D02*
X150438261Y-87962201D01*
X150438261Y-87962201D02*
X150433866Y-87729606D01*
X150433866Y-87729606D02*
X150431895Y-87642450D01*
X150431895Y-87642450D02*
X150428607Y-87511785D01*
X150428607Y-87511785D02*
X150424050Y-87352196D01*
X150424050Y-87352196D02*
X150421315Y-87265199D01*
X150421315Y-87265199D02*
X150418405Y-87178241D01*
X150418405Y-87178241D02*
X150415319Y-87091320D01*
X150415319Y-87091320D02*
X150410933Y-86975485D01*
X150410933Y-86975485D02*
X150398605Y-86686195D01*
X150398605Y-86686195D02*
X150393128Y-86570599D01*
X150393128Y-86570599D02*
X150387344Y-86455074D01*
X150387344Y-86455074D02*
X150381249Y-86339618D01*
X150381249Y-86339618D02*
X150374844Y-86224232D01*
X150374844Y-86224232D02*
X150369839Y-86137740D01*
X150369839Y-86137740D02*
X150364659Y-86051287D01*
X150364659Y-86051287D02*
X150357484Y-85936080D01*
X150357484Y-85936080D02*
X150351901Y-85849723D01*
X150351901Y-85849723D02*
X150346142Y-85763404D01*
X150346142Y-85763404D02*
X150338197Y-85648377D01*
X150338197Y-85648377D02*
X150322473Y-85432900D01*
X150322473Y-85432900D02*
X150310256Y-85275049D01*
X150310256Y-85275049D02*
X150303348Y-85189007D01*
X150303348Y-85189007D02*
X150290239Y-85031376D01*
X150290239Y-85031376D02*
X150282845Y-84945455D01*
X150282845Y-84945455D02*
X150275279Y-84859576D01*
X150275279Y-84859576D02*
X150263609Y-84730838D01*
X150263609Y-84730838D02*
X150254266Y-84630776D01*
X150254266Y-84630776D02*
X150234884Y-84430829D01*
X150234884Y-84430829D02*
X150224843Y-84330945D01*
X150224843Y-84330945D02*
X150216053Y-84245380D01*
X150216053Y-84245380D02*
X150207091Y-84159857D01*
X150207091Y-84159857D02*
X150197962Y-84074379D01*
X150197962Y-84074379D02*
X150188662Y-83988946D01*
X150188662Y-83988946D02*
X150179191Y-83903558D01*
X150179191Y-83903558D02*
X150164668Y-83775560D01*
X150164668Y-83775560D02*
X150154773Y-83690284D01*
X150154773Y-83690284D02*
X150120573Y-83406363D01*
X150120573Y-83406363D02*
X150108159Y-83307112D01*
X150108159Y-83307112D02*
X150097338Y-83222090D01*
X150097338Y-83222090D02*
X150084499Y-83122956D01*
X150084499Y-83122956D02*
X150075188Y-83052186D01*
X150075188Y-83052186D02*
X150061955Y-82953161D01*
X150061955Y-82953161D02*
X150048495Y-82854201D01*
X150048495Y-82854201D02*
X150036777Y-82769431D01*
X150036777Y-82769431D02*
X150026884Y-82698824D01*
X150026884Y-82698824D02*
X150016874Y-82628251D01*
X150016874Y-82628251D02*
X150002665Y-82529505D01*
X150002665Y-82529505D02*
X149988229Y-82430824D01*
X149988229Y-82430824D02*
X149967211Y-82289965D01*
X149967211Y-82289965D02*
X149947901Y-82163309D01*
X149947901Y-82163309D02*
X149914882Y-81952461D01*
X149914882Y-81952461D02*
X149892294Y-81812066D01*
X149892294Y-81812066D02*
X149816921Y-81363741D01*
X149816921Y-81363741D02*
X149684441Y-80638310D01*
X149684441Y-80638310D02*
X149407653Y-79309518D01*
X149407653Y-79309518D02*
X149385849Y-79213174D01*
X149385849Y-79213174D02*
X149370141Y-79144404D01*
X149370141Y-79144404D02*
X149347962Y-79048192D01*
X149347962Y-79048192D02*
X149328779Y-78965784D01*
X149328779Y-78965784D02*
X149302950Y-78855996D01*
X149302950Y-78855996D02*
X149213675Y-78486207D01*
X149213675Y-78486207D02*
X149159247Y-78267621D01*
X149159247Y-78267621D02*
X149138544Y-78185759D01*
X149138544Y-78185759D02*
X149114190Y-78090325D01*
X149114190Y-78090325D02*
X149064834Y-77899698D01*
X149064834Y-77899698D02*
X149046998Y-77831695D01*
X149046998Y-77831695D02*
X149029053Y-77763734D01*
X149029053Y-77763734D02*
X148978216Y-77573657D01*
X148978216Y-77573657D02*
X148922798Y-77370365D01*
X148922798Y-77370365D02*
X148862600Y-77153935D01*
X148862600Y-77153935D02*
X148843558Y-77086389D01*
X148843558Y-77086389D02*
X148801285Y-76937938D01*
X148801285Y-76937938D02*
X148781897Y-76870528D01*
X148781897Y-76870528D02*
X148734918Y-76708918D01*
X148734918Y-76708918D02*
X148639090Y-76386440D01*
X148639090Y-76386440D02*
X148586143Y-76212183D01*
X148586143Y-76212183D02*
X148536624Y-76051594D01*
X148536624Y-76051594D02*
X148490684Y-75904607D01*
X148490684Y-75904607D02*
X148444226Y-75757836D01*
X148444226Y-75757836D02*
X148405829Y-75637910D01*
X148405829Y-75637910D02*
X148349753Y-75464939D01*
X148349753Y-75464939D02*
X148270921Y-75225947D01*
X148270921Y-75225947D02*
X148230986Y-75106669D01*
X148230986Y-75106669D02*
X148190709Y-74987540D01*
X148190709Y-74987540D02*
X148104547Y-74736533D01*
X148104547Y-74736533D02*
X148067811Y-74631044D01*
X148067811Y-74631044D02*
X148026160Y-74512514D01*
X148026160Y-74512514D02*
X147955984Y-74315299D01*
X147955984Y-74315299D02*
X147918168Y-74210288D01*
X147918168Y-74210288D02*
X147875303Y-74092295D01*
X147875303Y-74092295D02*
X147769095Y-73804517D01*
X147769095Y-73804517D02*
X147744674Y-73739242D01*
X147744674Y-73739242D02*
X147700454Y-73621868D01*
X147700454Y-73621868D02*
X147630994Y-73439594D01*
X147630994Y-73439594D02*
X147595959Y-73348599D01*
X147595959Y-73348599D02*
X147560718Y-73257701D01*
X147560718Y-73257701D02*
X147464046Y-73011458D01*
X147464046Y-73011458D02*
X147428053Y-72920915D01*
X147428053Y-72920915D02*
X147397041Y-72843385D01*
X147397041Y-72843385D02*
X147339800Y-72701432D01*
X147339800Y-72701432D02*
X147303114Y-72611221D01*
X147303114Y-72611221D02*
X147271507Y-72533976D01*
X147271507Y-72533976D02*
X147202521Y-72366860D01*
X147202521Y-72366860D02*
X147175802Y-72302675D01*
X147175802Y-72302675D02*
X147148981Y-72238541D01*
X147148981Y-72238541D02*
X147051581Y-72008075D01*
X147051581Y-72008075D02*
X147018820Y-71931399D01*
X147018820Y-71931399D02*
X146985913Y-71854799D01*
X146985913Y-71854799D02*
X146908557Y-71676347D01*
X146908557Y-71676347D02*
X146869581Y-71587272D01*
X146869581Y-71587272D02*
X146841619Y-71523710D01*
X146841619Y-71523710D02*
X146728761Y-71269979D01*
X146728761Y-71269979D02*
X146694587Y-71194022D01*
X146694587Y-71194022D02*
X146643056Y-71080229D01*
X146643056Y-71080229D02*
X146608520Y-71004461D01*
X146608520Y-71004461D02*
X146573839Y-70928768D01*
X146573839Y-70928768D02*
X146498199Y-70765030D01*
X146498199Y-70765030D02*
X146468927Y-70702149D01*
X146468927Y-70702149D02*
X146433668Y-70626763D01*
X146433668Y-70626763D02*
X146332986Y-70413585D01*
X146332986Y-70413585D02*
X146297176Y-70338495D01*
X146297176Y-70338495D02*
X146255217Y-70250988D01*
X146255217Y-70250988D02*
X146219094Y-70176063D01*
X146219094Y-70176063D02*
X146115974Y-69964206D01*
X146115974Y-69964206D02*
X146085427Y-69902015D01*
X146085427Y-69902015D02*
X146054781Y-69839880D01*
X146054781Y-69839880D02*
X146011708Y-69752981D01*
X146011708Y-69752981D02*
X145980825Y-69690976D01*
X145980825Y-69690976D02*
X145949842Y-69629027D01*
X145949842Y-69629027D02*
X145875083Y-69480572D01*
X145875083Y-69480572D02*
X145843765Y-69418811D01*
X145843765Y-69418811D02*
X145742887Y-69221546D01*
X145742887Y-69221546D02*
X145692072Y-69123129D01*
X145692072Y-69123129D02*
X145641006Y-69024855D01*
X145641006Y-69024855D02*
X145589690Y-68926725D01*
X145589690Y-68926725D02*
X145362249Y-68499110D01*
X145362249Y-68499110D02*
X145269941Y-68328848D01*
X145269941Y-68328848D02*
X145210199Y-68219632D01*
X145210199Y-68219632D02*
X145170198Y-68146923D01*
X145170198Y-68146923D02*
X145116647Y-68050110D01*
X145116647Y-68050110D02*
X145042613Y-67917235D01*
X145042613Y-67917235D02*
X144988475Y-67820775D01*
X144988475Y-67820775D02*
X144947711Y-67748528D01*
X144947711Y-67748528D02*
X144913636Y-67688387D01*
X144913636Y-67688387D02*
X144824592Y-67532293D01*
X144824592Y-67532293D02*
X144776377Y-67448409D01*
X144776377Y-67448409D02*
X144581655Y-67114034D01*
X144581655Y-67114034D02*
X144476112Y-66935672D01*
X144476112Y-66935672D02*
X144440740Y-66876339D01*
X144440740Y-66876339D02*
X144326922Y-66686876D01*
X144326922Y-66686876D02*
X144212139Y-66498036D01*
X144212139Y-66498036D02*
X144096392Y-66309820D01*
X144096392Y-66309820D02*
X144001641Y-66157356D01*
X144001641Y-66157356D02*
X143898896Y-65993630D01*
X143898896Y-65993630D02*
X143802834Y-65842031D01*
X143802834Y-65842031D02*
X143721061Y-65714086D01*
X143721061Y-65714086D02*
X143465472Y-65320531D01*
X143465472Y-65320531D02*
X143351357Y-65147832D01*
X143351357Y-65147832D02*
X143297820Y-65067434D01*
X143297820Y-65067434D02*
X143221026Y-64952796D01*
X143221026Y-64952796D02*
X143136131Y-64826990D01*
X143136131Y-64826990D02*
X143074109Y-64735689D01*
X143074109Y-64735689D02*
X142918037Y-64508162D01*
X142918037Y-64508162D02*
X142863067Y-64428769D01*
X142863067Y-64428769D02*
X142673251Y-64157542D01*
X142673251Y-64157542D02*
X142481353Y-63887820D01*
X142481353Y-63887820D02*
X142416927Y-63798252D01*
X142416927Y-63798252D02*
X142352270Y-63708852D01*
X142352270Y-63708852D02*
X142058484Y-63308663D01*
X142058484Y-63308663D02*
X141726647Y-62868095D01*
X141726647Y-62868095D02*
X141617583Y-62725847D01*
X141617583Y-62725847D02*
X141524830Y-62605841D01*
X141524830Y-62605841D02*
X141474060Y-62540524D01*
X141474060Y-62540524D02*
X141423163Y-62475307D01*
X141423163Y-62475307D02*
X141363625Y-62399345D01*
X141363625Y-62399345D02*
X141320991Y-62345169D01*
X141320991Y-62345169D02*
X141261158Y-62269438D01*
X141261158Y-62269438D02*
X141175387Y-62161489D01*
X141175387Y-62161489D02*
X141132370Y-62107618D01*
X141132370Y-62107618D02*
X141020122Y-61967880D01*
X141020122Y-61967880D02*
X140976791Y-61914261D01*
X140976791Y-61914261D02*
X140881161Y-61796544D01*
X140881161Y-61796544D02*
X140837554Y-61743149D01*
X140837554Y-61743149D02*
X140741315Y-61625927D01*
X140741315Y-61625927D02*
X140662265Y-61530274D01*
X140662265Y-61530274D02*
X140574104Y-61424260D01*
X140574104Y-61424260D02*
X140476731Y-61307974D01*
X140476731Y-61307974D02*
X140387849Y-61202559D01*
X140387849Y-61202559D02*
X140343280Y-61149959D01*
X140343280Y-61149959D02*
X140298626Y-61097431D01*
X140298626Y-61097431D02*
X140182126Y-60961192D01*
X140182126Y-60961192D02*
X140083101Y-60846295D01*
X140083101Y-60846295D02*
X139892910Y-60627918D01*
X139892910Y-60627918D02*
X139801822Y-60524379D01*
X139801822Y-60524379D02*
X139591035Y-60287348D01*
X139591035Y-60287348D02*
X139397028Y-60072287D01*
X139397028Y-60072287D02*
X134681964Y-55615917D01*
X134681964Y-55615917D02*
X134281643Y-55295583D01*
X134281643Y-55295583D02*
X134150933Y-55192693D01*
X134150933Y-55192693D02*
X133997898Y-55073277D01*
X133997898Y-55073277D02*
X133789281Y-54912290D01*
X133789281Y-54912290D02*
X133723180Y-54861711D01*
X133723180Y-54861711D02*
X132989129Y-54313597D01*
X132989129Y-54313597D02*
X132820535Y-54191154D01*
X132820535Y-54191154D02*
X132752917Y-54142400D01*
X132752917Y-54142400D02*
X132549436Y-53996898D01*
X132549436Y-53996898D02*
X132447349Y-53924578D01*
X132447349Y-53924578D02*
X132036693Y-53638194D01*
X132036693Y-53638194D02*
X131910479Y-53551611D01*
X131910479Y-53551611D02*
X131703213Y-53410876D01*
X131703213Y-53410876D02*
X131622363Y-53356461D01*
X131622363Y-53356461D02*
X131355748Y-53178923D01*
X131355748Y-53178923D02*
X131216059Y-53087060D01*
X131216059Y-53087060D02*
X130970637Y-52927566D01*
X130970637Y-52927566D02*
X130888560Y-52874761D01*
X130888560Y-52874761D02*
X130806347Y-52822137D01*
X130806347Y-52822137D02*
X130723999Y-52769694D01*
X130723999Y-52769694D02*
X130405109Y-52569108D01*
X130405109Y-52569108D02*
X130167611Y-52422274D01*
X130167611Y-52422274D02*
X130024589Y-52334888D01*
X130024589Y-52334888D02*
X129689360Y-52133093D01*
X129689360Y-52133093D02*
X129545043Y-52047512D01*
X129545043Y-52047512D02*
X129484797Y-52012015D01*
X129484797Y-52012015D02*
X129412415Y-51969542D01*
X129412415Y-51969542D02*
X129170444Y-51828954D01*
X129170444Y-51828954D02*
X129073358Y-51773146D01*
X129073358Y-51773146D02*
X128915232Y-51682978D01*
X128915232Y-51682978D02*
X128756660Y-51593457D01*
X128756660Y-51593457D02*
X128622136Y-51518216D01*
X128622136Y-51518216D02*
X128524101Y-51463787D01*
X128524101Y-51463787D02*
X128462743Y-51429893D01*
X128462743Y-51429893D02*
X128364435Y-51375867D01*
X128364435Y-51375867D02*
X127820768Y-51083157D01*
X127820768Y-51083157D02*
X127746242Y-51043824D01*
X127746242Y-51043824D02*
X127571991Y-50952602D01*
X127571991Y-50952602D02*
X127472195Y-50900821D01*
X127472195Y-50900821D02*
X127397239Y-50862148D01*
X127397239Y-50862148D02*
X127284633Y-50804407D01*
X127284633Y-50804407D02*
X127221985Y-50772466D01*
X127221985Y-50772466D02*
X127071370Y-50696212D01*
X127071370Y-50696212D02*
X126819537Y-50570392D01*
X126819537Y-50570392D02*
X126705882Y-50514290D01*
X126705882Y-50514290D02*
X126477962Y-50403057D01*
X126477962Y-50403057D02*
X126363698Y-50347928D01*
X126363698Y-50347928D02*
X126172810Y-50256767D01*
X126172810Y-50256767D02*
X126096297Y-50220556D01*
X126096297Y-50220556D02*
X125853423Y-50106850D01*
X125853423Y-50106850D02*
X125699568Y-50035787D01*
X125699568Y-50035787D02*
X125583945Y-49982872D01*
X125583945Y-49982872D02*
X125493878Y-49941945D01*
X125493878Y-49941945D02*
X125403693Y-49901218D01*
X125403693Y-49901218D02*
X125197105Y-49808875D01*
X125197105Y-49808875D02*
X125119473Y-49774515D01*
X125119473Y-49774515D02*
X124912032Y-49683615D01*
X124912032Y-49683615D02*
X124821081Y-49644177D01*
X124821081Y-49644177D02*
X124521414Y-49516018D01*
X124521414Y-49516018D02*
X124377647Y-49455499D01*
X124377647Y-49455499D02*
X124299107Y-49422700D01*
X124299107Y-49422700D02*
X124154897Y-49362959D01*
X124154897Y-49362959D02*
X124076113Y-49330582D01*
X124076113Y-49330582D02*
X123891956Y-49255624D01*
X123891956Y-49255624D02*
X123786517Y-49213159D01*
X123786517Y-49213159D02*
X123561958Y-49123811D01*
X123561958Y-49123811D02*
X123469295Y-49087375D01*
X123469295Y-49087375D02*
X123363256Y-49045986D01*
X123363256Y-49045986D02*
X123283630Y-49015120D01*
X123283630Y-49015120D02*
X123217209Y-48989515D01*
X123217209Y-48989515D02*
X122924272Y-48878112D01*
X122924272Y-48878112D02*
X122777385Y-48823181D01*
X122777385Y-48823181D02*
X122643610Y-48773690D01*
X122643610Y-48773690D02*
X122563236Y-48744200D01*
X122563236Y-48744200D02*
X122442521Y-48700257D01*
X122442521Y-48700257D02*
X122361939Y-48671150D01*
X122361939Y-48671150D02*
X122267825Y-48637389D01*
X122267825Y-48637389D02*
X122119707Y-48584762D01*
X122119707Y-48584762D02*
X122052291Y-48561013D01*
X122052291Y-48561013D02*
X121903776Y-48509144D01*
X121903776Y-48509144D02*
X121714363Y-48443884D01*
X121714363Y-48443884D02*
X121619493Y-48411572D01*
X121619493Y-48411572D02*
X121497354Y-48370340D01*
X121497354Y-48370340D02*
X121402233Y-48338514D01*
X121402233Y-48338514D02*
X121334223Y-48315912D01*
X121334223Y-48315912D02*
X121225290Y-48279974D01*
X121225290Y-48279974D02*
X121157137Y-48257656D01*
X121157137Y-48257656D02*
X121047974Y-48222172D01*
X121047974Y-48222172D02*
X120651082Y-48095893D01*
X120651082Y-48095893D02*
X120568735Y-48070226D01*
X120568735Y-48070226D02*
X120155832Y-47944281D01*
X120155832Y-47944281D02*
X120086826Y-47923676D01*
X120086826Y-47923676D02*
X120017766Y-47903183D01*
X120017766Y-47903183D02*
X119948652Y-47882802D01*
X119948652Y-47882802D02*
X119713263Y-47814333D01*
X119713263Y-47814333D02*
X119643913Y-47794441D01*
X119643913Y-47794441D02*
X119560623Y-47770717D01*
X119560623Y-47770717D02*
X119435545Y-47735433D01*
X119435545Y-47735433D02*
X119352064Y-47712113D01*
X119352064Y-47712113D02*
X119282438Y-47692801D01*
X119282438Y-47692801D02*
X119101164Y-47643118D01*
X119101164Y-47643118D02*
X119031349Y-47624213D01*
X119031349Y-47624213D02*
X118821588Y-47568169D01*
X118821588Y-47568169D02*
X118751563Y-47549712D01*
X118751563Y-47549712D02*
X118597325Y-47509509D01*
X118597325Y-47509509D02*
X118470943Y-47477022D01*
X118470943Y-47477022D02*
X118274015Y-47427219D01*
X118274015Y-47427219D02*
X118076684Y-47378307D01*
X118076684Y-47378307D02*
X117991991Y-47357619D01*
X117991991Y-47357619D02*
X117893088Y-47333689D01*
X117893088Y-47333689D02*
X117524863Y-47246778D01*
X117524863Y-47246778D02*
X117453893Y-47230421D01*
X117453893Y-47230421D02*
X117254910Y-47185230D01*
X117254910Y-47185230D02*
X117169510Y-47166140D01*
X117169510Y-47166140D02*
X117133908Y-47158237D01*
X137994307Y-118681133D02*
X138038058Y-118637314D01*
X138038058Y-118637314D02*
X138102100Y-118572945D01*
X138102100Y-118572945D02*
X138148581Y-118526056D01*
X138148581Y-118526056D02*
X138194984Y-118479101D01*
X138194984Y-118479101D02*
X138241305Y-118432082D01*
X138241305Y-118432082D02*
X138310637Y-118361433D01*
X138310637Y-118361433D02*
X138350999Y-118320155D01*
X138350999Y-118320155D02*
X138391297Y-118278827D01*
X138391297Y-118278827D02*
X138448760Y-118219701D01*
X138448760Y-118219701D02*
X138494641Y-118172329D01*
X138494641Y-118172329D02*
X138534721Y-118130826D01*
X138534721Y-118130826D02*
X138574739Y-118089275D01*
X138574739Y-118089275D02*
X138620398Y-118041727D01*
X138620398Y-118041727D02*
X138660283Y-118000072D01*
X138660283Y-118000072D02*
X138722837Y-117934514D01*
X138722837Y-117934514D02*
X138779571Y-117874812D01*
X138779571Y-117874812D02*
X138836179Y-117815011D01*
X138836179Y-117815011D02*
X138903941Y-117743120D01*
X138903941Y-117743120D02*
X138960270Y-117683103D01*
X138960270Y-117683103D02*
X139016473Y-117622988D01*
X139016473Y-117622988D02*
X139083752Y-117550721D01*
X139083752Y-117550721D02*
X139128502Y-117502464D01*
X139128502Y-117502464D02*
X139167592Y-117460188D01*
X139167592Y-117460188D02*
X139206620Y-117417864D01*
X139206620Y-117417864D02*
X139256709Y-117363380D01*
X139256709Y-117363380D02*
X139306693Y-117308815D01*
X139306693Y-117308815D02*
X139345499Y-117266324D01*
X139345499Y-117266324D02*
X139384243Y-117223784D01*
X139384243Y-117223784D02*
X139422925Y-117181197D01*
X139422925Y-117181197D02*
X139461545Y-117138563D01*
X139461545Y-117138563D02*
X139500101Y-117095880D01*
X139500101Y-117095880D02*
X139538597Y-117053153D01*
X139538597Y-117053153D02*
X139577029Y-117010376D01*
X139577029Y-117010376D02*
X139620877Y-116961432D01*
X139620877Y-116961432D02*
X139675568Y-116900165D01*
X139675568Y-116900165D02*
X139730134Y-116838804D01*
X139730134Y-116838804D02*
X139773695Y-116789645D01*
X139773695Y-116789645D02*
X139817174Y-116740428D01*
X139817174Y-116740428D02*
X139876823Y-116672653D01*
X139876823Y-116672653D02*
X139920108Y-116623290D01*
X139920108Y-116623290D02*
X139984883Y-116549132D01*
X139984883Y-116549132D02*
X140027962Y-116499617D01*
X140027962Y-116499617D02*
X140070961Y-116450044D01*
X140070961Y-116450044D02*
X140113877Y-116400411D01*
X140113877Y-116400411D02*
X140156712Y-116350717D01*
X140156712Y-116350717D02*
X140194125Y-116307185D01*
X140194125Y-116307185D02*
X140236804Y-116257380D01*
X140236804Y-116257380D02*
X140279403Y-116207514D01*
X140279403Y-116207514D02*
X140321919Y-116157589D01*
X140321919Y-116157589D02*
X140359054Y-116113856D01*
X140359054Y-116113856D02*
X140396125Y-116070076D01*
X140396125Y-116070076D02*
X140433132Y-116026252D01*
X140433132Y-116026252D02*
X140470077Y-115982384D01*
X140470077Y-115982384D02*
X140517485Y-115925913D01*
X140517485Y-115925913D02*
X140554284Y-115881940D01*
X140554284Y-115881940D02*
X140606748Y-115819045D01*
X140606748Y-115819045D02*
X140648627Y-115768662D01*
X140648627Y-115768662D02*
X140690421Y-115718220D01*
X140690421Y-115718220D02*
X140726923Y-115674034D01*
X140726923Y-115674034D02*
X140768563Y-115623484D01*
X140768563Y-115623484D02*
X140810121Y-115572875D01*
X140810121Y-115572875D02*
X140851594Y-115522206D01*
X140851594Y-115522206D02*
X140887816Y-115477823D01*
X140887816Y-115477823D02*
X140929134Y-115427046D01*
X140929134Y-115427046D02*
X140975520Y-115369853D01*
X140975520Y-115369853D02*
X141016663Y-115318953D01*
X141016663Y-115318953D02*
X141057722Y-115267995D01*
X141057722Y-115267995D02*
X141093581Y-115223360D01*
X141093581Y-115223360D02*
X141129377Y-115178681D01*
X141129377Y-115178681D02*
X141170208Y-115127566D01*
X141170208Y-115127566D02*
X141205866Y-115082792D01*
X141205866Y-115082792D02*
X141241461Y-115037975D01*
X141241461Y-115037975D02*
X141276994Y-114993114D01*
X141276994Y-114993114D02*
X141317524Y-114941792D01*
X141317524Y-114941792D02*
X141352919Y-114896838D01*
X141352919Y-114896838D02*
X141388251Y-114851840D01*
X141388251Y-114851840D02*
X141423519Y-114806799D01*
X141423519Y-114806799D02*
X141458722Y-114761715D01*
X141458722Y-114761715D02*
X141498878Y-114710136D01*
X141498878Y-114710136D02*
X141533944Y-114664959D01*
X141533944Y-114664959D02*
X141568946Y-114619739D01*
X141568946Y-114619739D02*
X141603884Y-114574475D01*
X141603884Y-114574475D02*
X141643736Y-114522693D01*
X141643736Y-114522693D02*
X141678538Y-114477338D01*
X141678538Y-114477338D02*
X141713276Y-114431941D01*
X141713276Y-114431941D02*
X141747950Y-114386500D01*
X141747950Y-114386500D02*
X141782559Y-114341016D01*
X141782559Y-114341016D02*
X141817103Y-114295489D01*
X141817103Y-114295489D02*
X141851584Y-114249920D01*
X141851584Y-114249920D02*
X141905639Y-114178227D01*
X141905639Y-114178227D02*
X141944852Y-114126021D01*
X141944852Y-114126021D02*
X142003512Y-114047606D01*
X142003512Y-114047606D02*
X142042515Y-113995262D01*
X142042515Y-113995262D02*
X142081435Y-113942863D01*
X142081435Y-113942863D02*
X142129964Y-113877286D01*
X142129964Y-113877286D02*
X142168692Y-113824763D01*
X142168692Y-113824763D02*
X142212161Y-113765610D01*
X142212161Y-113765610D02*
X142255525Y-113706389D01*
X142255525Y-113706389D02*
X142293978Y-113653689D01*
X142293978Y-113653689D02*
X142351504Y-113574536D01*
X142351504Y-113574536D02*
X142394522Y-113515093D01*
X142394522Y-113515093D02*
X142437434Y-113455580D01*
X142437434Y-113455580D02*
X142475487Y-113402623D01*
X142475487Y-113402623D02*
X142537143Y-113316453D01*
X142537143Y-113316453D02*
X142589141Y-113243430D01*
X142589141Y-113243430D02*
X142645682Y-113163654D01*
X142645682Y-113163654D02*
X142702032Y-113083758D01*
X142702032Y-113083758D02*
X142739492Y-113030426D01*
X142739492Y-113030426D02*
X142786199Y-112963689D01*
X142786199Y-112963689D02*
X142828121Y-112903553D01*
X142828121Y-112903553D02*
X142874575Y-112836658D01*
X142874575Y-112836658D02*
X142925520Y-112762978D01*
X142925520Y-112762978D02*
X142976306Y-112689201D01*
X142976306Y-112689201D02*
X143013141Y-112635482D01*
X143013141Y-112635482D02*
X143054474Y-112574984D01*
X143054474Y-112574984D02*
X143091128Y-112521153D01*
X143091128Y-112521153D02*
X143141384Y-112447051D01*
X143141384Y-112447051D02*
X143191480Y-112372852D01*
X143191480Y-112372852D02*
X143245946Y-112291795D01*
X143245946Y-112291795D02*
X143291188Y-112224160D01*
X143291188Y-112224160D02*
X143336296Y-112156444D01*
X143336296Y-112156444D02*
X143376777Y-112095430D01*
X143376777Y-112095430D02*
X143417151Y-112034350D01*
X143417151Y-112034350D02*
X143452948Y-111980005D01*
X143452948Y-111980005D02*
X143493115Y-111918805D01*
X143493115Y-111918805D02*
X143528730Y-111864352D01*
X143528730Y-111864352D02*
X143568695Y-111803030D01*
X143568695Y-111803030D02*
X143608550Y-111741644D01*
X143608550Y-111741644D02*
X143657114Y-111666532D01*
X143657114Y-111666532D02*
X143709906Y-111584481D01*
X143709906Y-111584481D02*
X143753753Y-111516019D01*
X143753753Y-111516019D02*
X143806191Y-111433762D01*
X143806191Y-111433762D02*
X143845392Y-111371995D01*
X143845392Y-111371995D02*
X143880147Y-111317041D01*
X143880147Y-111317041D02*
X143914813Y-111262034D01*
X143914813Y-111262034D02*
X143962339Y-111186320D01*
X143962339Y-111186320D02*
X144001104Y-111124303D01*
X144001104Y-111124303D02*
X144035468Y-111069123D01*
X144035468Y-111069123D02*
X144074026Y-111006989D01*
X144074026Y-111006989D02*
X144112473Y-110944791D01*
X144112473Y-110944791D02*
X144146559Y-110889454D01*
X144146559Y-110889454D02*
X144184798Y-110827137D01*
X144184798Y-110827137D02*
X144222930Y-110764763D01*
X144222930Y-110764763D02*
X144260951Y-110702325D01*
X144260951Y-110702325D02*
X144294655Y-110646773D01*
X144294655Y-110646773D02*
X144328273Y-110591173D01*
X144328273Y-110591173D02*
X144361804Y-110535526D01*
X144361804Y-110535526D02*
X144399422Y-110472867D01*
X144399422Y-110472867D02*
X144432768Y-110417115D01*
X144432768Y-110417115D02*
X144474328Y-110347360D01*
X144474328Y-110347360D02*
X144507477Y-110291501D01*
X144507477Y-110291501D02*
X144552917Y-110214619D01*
X144552917Y-110214619D02*
X144589972Y-110151649D01*
X144589972Y-110151649D02*
X144626916Y-110088617D01*
X144626916Y-110088617D02*
X144667837Y-110018514D01*
X144667837Y-110018514D02*
X144698437Y-109965887D01*
X144698437Y-109965887D02*
X144728960Y-109913218D01*
X144728960Y-109913218D02*
X144765486Y-109849963D01*
X144765486Y-109849963D02*
X144805943Y-109779609D01*
X144805943Y-109779609D02*
X144842236Y-109716226D01*
X144842236Y-109716226D02*
X144878417Y-109652786D01*
X144878417Y-109652786D02*
X144914489Y-109589288D01*
X144914489Y-109589288D02*
X144950450Y-109525732D01*
X144950450Y-109525732D02*
X144990275Y-109455041D01*
X144990275Y-109455041D02*
X145029963Y-109384282D01*
X145029963Y-109384282D02*
X145061616Y-109327622D01*
X145061616Y-109327622D02*
X145101056Y-109256732D01*
X145101056Y-109256732D02*
X145136436Y-109192870D01*
X145136436Y-109192870D02*
X145171705Y-109128953D01*
X145171705Y-109128953D02*
X145206862Y-109064975D01*
X145206862Y-109064975D02*
X145241907Y-109000940D01*
X145241907Y-109000940D02*
X145276841Y-108936848D01*
X145276841Y-108936848D02*
X145311665Y-108872701D01*
X145311665Y-108872701D02*
X145346375Y-108808494D01*
X145346375Y-108808494D02*
X145380975Y-108744231D01*
X145380975Y-108744231D02*
X145409722Y-108690637D01*
X145409722Y-108690637D02*
X145446022Y-108622693D01*
X145446022Y-108622693D02*
X145476496Y-108565427D01*
X145476496Y-108565427D02*
X145510672Y-108500952D01*
X145510672Y-108500952D02*
X145544735Y-108436420D01*
X145544735Y-108436420D02*
X145578687Y-108371830D01*
X145578687Y-108371830D02*
X145612527Y-108307187D01*
X145612527Y-108307187D02*
X145642514Y-108249679D01*
X145642514Y-108249679D02*
X145672412Y-108192128D01*
X145672412Y-108192128D02*
X145705939Y-108127330D01*
X145705939Y-108127330D02*
X145735647Y-108069685D01*
X145735647Y-108069685D02*
X145768963Y-108004782D01*
X145768963Y-108004782D02*
X145798484Y-107947046D01*
X145798484Y-107947046D02*
X145831586Y-107882039D01*
X145831586Y-107882039D02*
X145860917Y-107824210D01*
X145860917Y-107824210D02*
X145890158Y-107766338D01*
X145890158Y-107766338D02*
X145922950Y-107701181D01*
X145922950Y-107701181D02*
X145955626Y-107635969D01*
X145955626Y-107635969D02*
X145984578Y-107577958D01*
X145984578Y-107577958D02*
X146013441Y-107519903D01*
X146013441Y-107519903D02*
X146042215Y-107461806D01*
X146042215Y-107461806D02*
X146070898Y-107403667D01*
X146070898Y-107403667D02*
X146099493Y-107345486D01*
X146099493Y-107345486D02*
X146127999Y-107287263D01*
X146127999Y-107287263D02*
X146156415Y-107228998D01*
X146156415Y-107228998D02*
X146188276Y-107163398D01*
X146188276Y-107163398D02*
X146220024Y-107097746D01*
X146220024Y-107097746D02*
X146248150Y-107039345D01*
X146248150Y-107039345D02*
X146276185Y-106980902D01*
X146276185Y-106980902D02*
X146304130Y-106922417D01*
X146304130Y-106922417D02*
X146342410Y-106841934D01*
X146342410Y-106841934D02*
X146370143Y-106783353D01*
X146370143Y-106783353D02*
X146397786Y-106724727D01*
X146397786Y-106724727D02*
X146427058Y-106662393D01*
X146427058Y-106662393D02*
X146452801Y-106607355D01*
X146452801Y-106607355D02*
X146481881Y-106544935D01*
X146481881Y-106544935D02*
X146507456Y-106489819D01*
X146507456Y-106489819D02*
X146541432Y-106416277D01*
X146541432Y-106416277D02*
X146571891Y-106350036D01*
X146571891Y-106350036D02*
X146605603Y-106276373D01*
X146605603Y-106276373D02*
X146635819Y-106210023D01*
X146635819Y-106210023D02*
X146664255Y-106147313D01*
X146664255Y-106147313D02*
X146689259Y-106091943D01*
X146689259Y-106091943D02*
X146719159Y-106025452D01*
X146719159Y-106025452D02*
X146745642Y-105966308D01*
X146745642Y-105966308D02*
X146772034Y-105907124D01*
X146772034Y-105907124D02*
X146798337Y-105847901D01*
X146798337Y-105847901D02*
X146824547Y-105788636D01*
X146824547Y-105788636D02*
X146857183Y-105714499D01*
X146857183Y-105714499D02*
X146883190Y-105655148D01*
X146883190Y-105655148D02*
X146918802Y-105573475D01*
X146918802Y-105573475D02*
X146944595Y-105514030D01*
X146944595Y-105514030D02*
X146970296Y-105454546D01*
X146970296Y-105454546D02*
X146995906Y-105395024D01*
X146995906Y-105395024D02*
X147024608Y-105328014D01*
X147024608Y-105328014D02*
X147050026Y-105268409D01*
X147050026Y-105268409D02*
X147084825Y-105186389D01*
X147084825Y-105186389D02*
X147119454Y-105104299D01*
X147119454Y-105104299D02*
X147144530Y-105044550D01*
X147144530Y-105044550D02*
X147175747Y-104969811D01*
X147175747Y-104969811D02*
X147206823Y-104895016D01*
X147206823Y-104895016D02*
X147231579Y-104835133D01*
X147231579Y-104835133D02*
X147256245Y-104775213D01*
X147256245Y-104775213D02*
X147283882Y-104707759D01*
X147283882Y-104707759D02*
X147309881Y-104644010D01*
X147309881Y-104644010D02*
X147335774Y-104580216D01*
X147335774Y-104580216D02*
X147363079Y-104512627D01*
X147363079Y-104512627D02*
X147393284Y-104437472D01*
X147393284Y-104437472D02*
X147423343Y-104362259D01*
X147423343Y-104362259D02*
X147448782Y-104298282D01*
X147448782Y-104298282D02*
X147477091Y-104226730D01*
X147477091Y-104226730D02*
X147518573Y-104121191D01*
X147518573Y-104121191D02*
X147542151Y-104060832D01*
X147542151Y-104060832D02*
X147568567Y-103992885D01*
X147568567Y-103992885D02*
X147597783Y-103917337D01*
X147597783Y-103917337D02*
X147638440Y-103811473D01*
X147638440Y-103811473D02*
X147661547Y-103750929D01*
X147661547Y-103750929D02*
X147684564Y-103690350D01*
X147684564Y-103690350D02*
X147707486Y-103629735D01*
X147707486Y-103629735D02*
X147736010Y-103553917D01*
X147736010Y-103553917D02*
X147758724Y-103493223D01*
X147758724Y-103493223D02*
X147784171Y-103424899D01*
X147784171Y-103424899D02*
X147812305Y-103348931D01*
X147812305Y-103348931D02*
X147840296Y-103272908D01*
X147840296Y-103272908D02*
X147870920Y-103189221D01*
X147870920Y-103189221D02*
X147893080Y-103128315D01*
X147893080Y-103128315D02*
X147931641Y-103021650D01*
X147931641Y-103021650D02*
X147959011Y-102945395D01*
X147959011Y-102945395D02*
X147986234Y-102869084D01*
X147986234Y-102869084D02*
X148013313Y-102792721D01*
X148013313Y-102792721D02*
X148040248Y-102716306D01*
X148040248Y-102716306D02*
X148064364Y-102647486D01*
X148064364Y-102647486D02*
X148109598Y-102517376D01*
X148109598Y-102517376D02*
X148133376Y-102448434D01*
X148133376Y-102448434D02*
X148154412Y-102387114D01*
X148154412Y-102387114D02*
X148175357Y-102325762D01*
X148175357Y-102325762D02*
X148201405Y-102249026D01*
X148201405Y-102249026D02*
X148224725Y-102179919D01*
X148224725Y-102179919D02*
X148250497Y-102103086D01*
X148250497Y-102103086D02*
X148276124Y-102026200D01*
X148276124Y-102026200D02*
X148299063Y-101956959D01*
X148299063Y-101956959D02*
X148319353Y-101895375D01*
X148319353Y-101895375D02*
X148339550Y-101833761D01*
X148339550Y-101833761D02*
X148362163Y-101764405D01*
X148362163Y-101764405D02*
X148387146Y-101687294D01*
X148387146Y-101687294D02*
X148407028Y-101625571D01*
X148407028Y-101625571D02*
X148426817Y-101563815D01*
X148426817Y-101563815D02*
X148448970Y-101494302D01*
X148448970Y-101494302D02*
X148471001Y-101424747D01*
X148471001Y-101424747D02*
X148495340Y-101347417D01*
X148495340Y-101347417D02*
X148514707Y-101285519D01*
X148514707Y-101285519D02*
X148538784Y-101208100D01*
X148538784Y-101208100D02*
X148557941Y-101146130D01*
X148557941Y-101146130D02*
X148577003Y-101084130D01*
X148577003Y-101084130D02*
X148598335Y-101014342D01*
X148598335Y-101014342D02*
X148617197Y-100952275D01*
X148617197Y-100952275D02*
X148640642Y-100874647D01*
X148640642Y-100874647D02*
X148661617Y-100804741D01*
X148661617Y-100804741D02*
X148680162Y-100742571D01*
X148680162Y-100742571D02*
X148703209Y-100664812D01*
X148703209Y-100664812D02*
X148723826Y-100594790D01*
X148723826Y-100594790D02*
X148744325Y-100524730D01*
X148744325Y-100524730D02*
X148771469Y-100431258D01*
X148771469Y-100431258D02*
X148789448Y-100368905D01*
X148789448Y-100368905D02*
X148811788Y-100290921D01*
X148811788Y-100290921D02*
X148831768Y-100220696D01*
X148831768Y-100220696D02*
X148849426Y-100158242D01*
X148849426Y-100158242D02*
X148871368Y-100080134D01*
X148871368Y-100080134D02*
X148895334Y-99994164D01*
X148895334Y-99994164D02*
X148914807Y-99923781D01*
X148914807Y-99923781D02*
X148934159Y-99853360D01*
X148934159Y-99853360D02*
X148953394Y-99782905D01*
X148953394Y-99782905D02*
X148976739Y-99696742D01*
X148976739Y-99696742D02*
X149002002Y-99602685D01*
X149002002Y-99602685D02*
X149024970Y-99516409D01*
X149024970Y-99516409D02*
X149049824Y-99422229D01*
X149049824Y-99422229D02*
X149071394Y-99339768D01*
X149071394Y-99339768D02*
X149094831Y-99249399D01*
X149094831Y-99249399D02*
X149113036Y-99178635D01*
X149113036Y-99178635D02*
X149131120Y-99107836D01*
X149131120Y-99107836D02*
X149153058Y-99021255D01*
X149153058Y-99021255D02*
X149174817Y-98934623D01*
X149174817Y-98934623D02*
X149192485Y-98863702D01*
X149192485Y-98863702D02*
X149213914Y-98776974D01*
X149213914Y-98776974D02*
X149231312Y-98705977D01*
X149231312Y-98705977D02*
X149248591Y-98634944D01*
X149248591Y-98634944D02*
X149267647Y-98555981D01*
X149267647Y-98555981D02*
X149290315Y-98461170D01*
X149290315Y-98461170D02*
X149309042Y-98382115D01*
X149309042Y-98382115D02*
X149325768Y-98310928D01*
X149325768Y-98310928D02*
X149344210Y-98231796D01*
X149344210Y-98231796D02*
X149360678Y-98160540D01*
X149360678Y-98160540D02*
X149377027Y-98089250D01*
X149377027Y-98089250D02*
X149395049Y-98010002D01*
X149395049Y-98010002D02*
X149411138Y-97938644D01*
X149411138Y-97938644D02*
X149428876Y-97859317D01*
X149428876Y-97859317D02*
X149446460Y-97779951D01*
X149446460Y-97779951D02*
X149463895Y-97700546D01*
X149463895Y-97700546D02*
X149479458Y-97629047D01*
X149479458Y-97629047D02*
X149494899Y-97557515D01*
X149494899Y-97557515D02*
X149510220Y-97485953D01*
X149510220Y-97485953D02*
X149527096Y-97406401D01*
X149527096Y-97406401D02*
X149543823Y-97326811D01*
X149543823Y-97326811D02*
X149558748Y-97255145D01*
X149558748Y-97255145D02*
X149573553Y-97183450D01*
X149573553Y-97183450D02*
X149588233Y-97111724D01*
X149588233Y-97111724D02*
X149606010Y-97024015D01*
X149606010Y-97024015D02*
X149626783Y-96920301D01*
X149626783Y-96920301D02*
X149644160Y-96832493D01*
X149644160Y-96832493D02*
X149662907Y-96736650D01*
X149662907Y-96736650D02*
X149676823Y-96664732D01*
X149676823Y-96664732D02*
X149692145Y-96584790D01*
X149692145Y-96584790D02*
X149707312Y-96504811D01*
X149707312Y-96504811D02*
X149720834Y-96432798D01*
X149720834Y-96432798D02*
X149735713Y-96352749D01*
X149735713Y-96352749D02*
X149750439Y-96272662D01*
X149750439Y-96272662D02*
X149766467Y-96184528D01*
X149766467Y-96184528D02*
X149780874Y-96104365D01*
X149780874Y-96104365D02*
X149793710Y-96032191D01*
X149793710Y-96032191D02*
X149806425Y-95959987D01*
X149806425Y-95959987D02*
X149820405Y-95879727D01*
X149820405Y-95879727D02*
X149834235Y-95799434D01*
X149834235Y-95799434D02*
X149847910Y-95719103D01*
X149847910Y-95719103D02*
X149868139Y-95598545D01*
X149868139Y-95598545D02*
X149884074Y-95502040D01*
X149884074Y-95502040D02*
X149895881Y-95429634D01*
X149895881Y-95429634D02*
X149908854Y-95349146D01*
X149908854Y-95349146D02*
X149920400Y-95276679D01*
X149920400Y-95276679D02*
X149933082Y-95196128D01*
X149933082Y-95196128D02*
X149944365Y-95123605D01*
X149944365Y-95123605D02*
X149955524Y-95051054D01*
X149955524Y-95051054D02*
X149966559Y-94978477D01*
X149966559Y-94978477D02*
X149977471Y-94905875D01*
X149977471Y-94905875D02*
X149988256Y-94833243D01*
X149988256Y-94833243D02*
X150002444Y-94736363D01*
X150002444Y-94736363D02*
X150015255Y-94647516D01*
X150015255Y-94647516D02*
X150026739Y-94566710D01*
X150026739Y-94566710D02*
X150036943Y-94493959D01*
X150036943Y-94493959D02*
X150048137Y-94413096D01*
X150048137Y-94413096D02*
X150059174Y-94332200D01*
X150059174Y-94332200D02*
X150071140Y-94243180D01*
X150071140Y-94243180D02*
X150083979Y-94146023D01*
X150083979Y-94146023D02*
X150093460Y-94073129D01*
X150093460Y-94073129D02*
X150102820Y-94000210D01*
X150102820Y-94000210D02*
X150115102Y-93902944D01*
X150115102Y-93902944D02*
X150126166Y-93813747D01*
X150126166Y-93813747D02*
X150135080Y-93740742D01*
X150135080Y-93740742D02*
X150143867Y-93667710D01*
X150143867Y-93667710D02*
X150152529Y-93594657D01*
X150152529Y-93594657D02*
X150161065Y-93521578D01*
X150161065Y-93521578D02*
X150171329Y-93432230D01*
X150171329Y-93432230D02*
X150179587Y-93359101D01*
X150179587Y-93359101D02*
X150187718Y-93285948D01*
X150187718Y-93285948D02*
X150195725Y-93212774D01*
X150195725Y-93212774D02*
X150203604Y-93139574D01*
X150203604Y-93139574D02*
X150212213Y-93058218D01*
X150212213Y-93058218D02*
X150220667Y-92976831D01*
X150220667Y-92976831D02*
X150228141Y-92903563D01*
X150228141Y-92903563D02*
X150235490Y-92830271D01*
X150235490Y-92830271D02*
X150242712Y-92756957D01*
X150242712Y-92756957D02*
X150250588Y-92675467D01*
X150250588Y-92675467D02*
X150257543Y-92602108D01*
X150257543Y-92602108D02*
X150264372Y-92528725D01*
X150264372Y-92528725D02*
X150271810Y-92447164D01*
X150271810Y-92447164D02*
X150279814Y-92357417D01*
X150279814Y-92357417D02*
X150288329Y-92259474D01*
X150288329Y-92259474D02*
X150295938Y-92169663D01*
X150295938Y-92169663D02*
X150302690Y-92087987D01*
X150302690Y-92087987D02*
X150311234Y-91981774D01*
X150311234Y-91981774D02*
X150317626Y-91900042D01*
X150317626Y-91900042D02*
X150323862Y-91818285D01*
X150323862Y-91818285D02*
X150330538Y-91728323D01*
X150330538Y-91728323D02*
X150336446Y-91646516D01*
X150336446Y-91646516D02*
X150343324Y-91548313D01*
X150343324Y-91548313D02*
X150348885Y-91466452D01*
X150348885Y-91466452D02*
X150354287Y-91384568D01*
X150354287Y-91384568D02*
X150362098Y-91261698D01*
X150362098Y-91261698D02*
X150367106Y-91179753D01*
X150367106Y-91179753D02*
X150371958Y-91097787D01*
X150371958Y-91097787D02*
X150377575Y-90999399D01*
X150377575Y-90999399D02*
X150382079Y-90917381D01*
X150382079Y-90917381D02*
X150387278Y-90818933D01*
X150387278Y-90818933D02*
X150391438Y-90736870D01*
X150391438Y-90736870D02*
X150396992Y-90621941D01*
X150396992Y-90621941D02*
X150401141Y-90531613D01*
X150401141Y-90531613D02*
X150405097Y-90441257D01*
X150405097Y-90441257D02*
X150409526Y-90334441D01*
X150409526Y-90334441D02*
X150412751Y-90252251D01*
X150412751Y-90252251D02*
X150415818Y-90170039D01*
X150415818Y-90170039D02*
X150419010Y-90079584D01*
X150419010Y-90079584D02*
X150421742Y-89997329D01*
X150421742Y-89997329D02*
X150424566Y-89906827D01*
X150424566Y-89906827D02*
X150427198Y-89816301D01*
X150427198Y-89816301D02*
X150429423Y-89733984D01*
X150429423Y-89733984D02*
X150431883Y-89635177D01*
X150431883Y-89635177D02*
X150433759Y-89552818D01*
X150433759Y-89552818D02*
X150435475Y-89470440D01*
X150435475Y-89470440D02*
X150437181Y-89379803D01*
X150437181Y-89379803D02*
X150438692Y-89289144D01*
X150438692Y-89289144D02*
X150439898Y-89206706D01*
X150439898Y-89206706D02*
X150441040Y-89116006D01*
X150441040Y-89116006D02*
X150441990Y-89025283D01*
X150441990Y-89025283D02*
X150442684Y-88942789D01*
X150442684Y-88942789D02*
X150443221Y-88860278D01*
X150443221Y-88860278D02*
X150443626Y-88769496D01*
X150443626Y-88769496D02*
X150443826Y-88686952D01*
X150443826Y-88686952D02*
X150443874Y-88625032D01*
X98742500Y-47180500D02*
X98649991Y-47201102D01*
X98649991Y-47201102D02*
X98564675Y-47220295D01*
X98564675Y-47220295D02*
X98252471Y-47292086D01*
X98252471Y-47292086D02*
X98153339Y-47315396D01*
X98153339Y-47315396D02*
X98054307Y-47338929D01*
X98054307Y-47338929D02*
X97687345Y-47428299D01*
X97687345Y-47428299D02*
X97616935Y-47445841D01*
X97616935Y-47445841D02*
X97532509Y-47467039D01*
X97532509Y-47467039D02*
X97462212Y-47484829D01*
X97462212Y-47484829D02*
X97377925Y-47506328D01*
X97377925Y-47506328D02*
X97307740Y-47524365D01*
X97307740Y-47524365D02*
X97153520Y-47564453D01*
X97153520Y-47564453D02*
X97027526Y-47597656D01*
X97027526Y-47597656D02*
X96929649Y-47623737D01*
X96929649Y-47623737D02*
X96803955Y-47657587D01*
X96803955Y-47657587D02*
X96594846Y-47714819D01*
X96594846Y-47714819D02*
X96344541Y-47784828D01*
X96344541Y-47784828D02*
X96261261Y-47808488D01*
X96261261Y-47808488D02*
X96191916Y-47828325D01*
X96191916Y-47828325D02*
X96081079Y-47860298D01*
X96081079Y-47860298D02*
X96011875Y-47880425D01*
X96011875Y-47880425D02*
X95942724Y-47900664D01*
X95942724Y-47900664D02*
X95832195Y-47933277D01*
X95832195Y-47933277D02*
X95556472Y-48016050D01*
X95556472Y-48016050D02*
X95446426Y-48049653D01*
X95446426Y-48049653D02*
X95254180Y-48109140D01*
X95254180Y-48109140D02*
X95130818Y-48147836D01*
X95130818Y-48147836D02*
X95021311Y-48182530D01*
X95021311Y-48182530D02*
X94939274Y-48208737D01*
X94939274Y-48208737D02*
X94830013Y-48243921D01*
X94830013Y-48243921D02*
X94734526Y-48274939D01*
X94734526Y-48274939D02*
X94598301Y-48319618D01*
X94598301Y-48319618D02*
X94326522Y-48410286D01*
X94326522Y-48410286D02*
X94109739Y-48484067D01*
X94109739Y-48484067D02*
X93462846Y-48712037D01*
X93462846Y-48712037D02*
X93301938Y-48770573D01*
X93301938Y-48770573D02*
X93221608Y-48800073D01*
X93221608Y-48800073D02*
X93154727Y-48824772D01*
X93154727Y-48824772D02*
X93061193Y-48859530D01*
X93061193Y-48859530D02*
X92994453Y-48884486D01*
X92994453Y-48884486D02*
X92914437Y-48914571D01*
X92914437Y-48914571D02*
X92608488Y-49031314D01*
X92608488Y-49031314D02*
X92502357Y-49072445D01*
X92502357Y-49072445D02*
X92422858Y-49103470D01*
X92422858Y-49103470D02*
X92356672Y-49129440D01*
X92356672Y-49129440D02*
X92052971Y-49250253D01*
X92052971Y-49250253D02*
X91987112Y-49276810D01*
X91987112Y-49276810D02*
X91908161Y-49308817D01*
X91908161Y-49308817D02*
X91763637Y-49367887D01*
X91763637Y-49367887D02*
X91619399Y-49427460D01*
X91619399Y-49427460D02*
X91370939Y-49531540D01*
X91370939Y-49531540D02*
X91305699Y-49559178D01*
X91305699Y-49559178D02*
X91110334Y-49642712D01*
X91110334Y-49642712D02*
X90876610Y-49744177D01*
X90876610Y-49744177D02*
X90424391Y-49945270D01*
X90424391Y-49945270D02*
X90257185Y-50021235D01*
X90257185Y-50021235D02*
X90192985Y-50050635D01*
X90192985Y-50050635D02*
X90026353Y-50127550D01*
X90026353Y-50127550D02*
X89872908Y-50199156D01*
X89872908Y-50199156D02*
X89707075Y-50277384D01*
X89707075Y-50277384D02*
X89351328Y-50448179D01*
X89351328Y-50448179D02*
X89262697Y-50491371D01*
X89262697Y-50491371D02*
X89098420Y-50572097D01*
X89098420Y-50572097D02*
X88959750Y-50640931D01*
X88959750Y-50640931D02*
X88808823Y-50716570D01*
X88808823Y-50716570D02*
X88695867Y-50773674D01*
X88695867Y-50773674D02*
X88558089Y-50843903D01*
X88558089Y-50843903D02*
X88458080Y-50895278D01*
X88458080Y-50895278D02*
X88295912Y-50979296D01*
X88295912Y-50979296D02*
X88047271Y-51109852D01*
X88047271Y-51109852D02*
X87985270Y-51142734D01*
X87985270Y-51142734D02*
X87923335Y-51175714D01*
X87923335Y-51175714D02*
X87614630Y-51342077D01*
X87614630Y-51342077D02*
X87417912Y-51449819D01*
X87417912Y-51449819D02*
X87319803Y-51504062D01*
X87319803Y-51504062D02*
X87221863Y-51558551D01*
X87221863Y-51558551D02*
X87026484Y-51668266D01*
X87026484Y-51668266D02*
X86831781Y-51778962D01*
X86831781Y-51778962D02*
X86492684Y-51975028D01*
X86492684Y-51975028D02*
X86396180Y-52031593D01*
X86396180Y-52031593D02*
X86215700Y-52138306D01*
X86215700Y-52138306D02*
X86155674Y-52174067D01*
X86155674Y-52174067D02*
X86059773Y-52231479D01*
X86059773Y-52231479D02*
X85916243Y-52318045D01*
X85916243Y-52318045D02*
X85606600Y-52507458D01*
X85606600Y-52507458D02*
X85286994Y-52706823D01*
X85286994Y-52706823D02*
X85145585Y-52796296D01*
X85145585Y-52796296D02*
X85016309Y-52878778D01*
X85016309Y-52878778D02*
X84875661Y-52969269D01*
X84875661Y-52969269D02*
X84817175Y-53007129D01*
X84817175Y-53007129D02*
X84677093Y-53098369D01*
X84677093Y-53098369D02*
X84467717Y-53236211D01*
X84467717Y-53236211D02*
X84351788Y-53313301D01*
X84351788Y-53313301D02*
X84109249Y-53476369D01*
X84109249Y-53476369D02*
X83925290Y-53601682D01*
X83925290Y-53601682D02*
X83696357Y-53759615D01*
X83696357Y-53759615D02*
X83400441Y-53967067D01*
X83400441Y-53967067D02*
X83241901Y-54079770D01*
X83241901Y-54079770D02*
X82736124Y-54446719D01*
X82736124Y-54446719D02*
X82613380Y-54537500D01*
X82613380Y-54537500D02*
X82502101Y-54620394D01*
X82502101Y-54620394D02*
X82380029Y-54711980D01*
X82380029Y-54711980D02*
X81764073Y-55184728D01*
X81764073Y-55184728D02*
X81687731Y-55244580D01*
X81687731Y-55244580D02*
X81600658Y-55313185D01*
X81600658Y-55313185D02*
X76681655Y-59873399D01*
X76681655Y-59873399D02*
X76486196Y-60087028D01*
X76486196Y-60087028D02*
X76430621Y-60148304D01*
X76430621Y-60148304D02*
X76319832Y-60271176D01*
X76319832Y-60271176D02*
X76044973Y-60580206D01*
X76044973Y-60580206D02*
X75990364Y-60642328D01*
X75990364Y-60642328D02*
X75674242Y-61006785D01*
X75674242Y-61006785D02*
X75575749Y-61122058D01*
X75575749Y-61122058D02*
X75495469Y-61216631D01*
X75495469Y-61216631D02*
X75344586Y-61395902D01*
X75344586Y-61395902D02*
X75265108Y-61491142D01*
X75265108Y-61491142D02*
X75080742Y-61714264D01*
X75080742Y-61714264D02*
X74949982Y-61874398D01*
X74949982Y-61874398D02*
X74811365Y-62045903D01*
X74811365Y-62045903D02*
X74759610Y-62110400D01*
X74759610Y-62110400D02*
X74707981Y-62174998D01*
X74707981Y-62174998D02*
X74562382Y-62358570D01*
X74562382Y-62358570D02*
X74502723Y-62434392D01*
X74502723Y-62434392D02*
X74358548Y-62619090D01*
X74358548Y-62619090D02*
X74240579Y-62771792D01*
X74240579Y-62771792D02*
X74140011Y-62903104D01*
X74140011Y-62903104D02*
X74098258Y-62957934D01*
X74098258Y-62957934D02*
X74048270Y-63023818D01*
X74048270Y-63023818D02*
X73932128Y-63177928D01*
X73932128Y-63177928D02*
X73808461Y-63343632D01*
X73808461Y-63343632D02*
X73759219Y-63410085D01*
X73759219Y-63410085D02*
X73701931Y-63487733D01*
X73701931Y-63487733D02*
X73652966Y-63554392D01*
X73652966Y-63554392D02*
X73514930Y-63743781D01*
X73514930Y-63743781D02*
X73410072Y-63889128D01*
X73410072Y-63889128D02*
X73337833Y-63990014D01*
X73337833Y-63990014D02*
X73281849Y-64068627D01*
X73281849Y-64068627D02*
X73234004Y-64136113D01*
X73234004Y-64136113D02*
X73146625Y-64260081D01*
X73146625Y-64260081D02*
X73091248Y-64339136D01*
X73091248Y-64339136D02*
X73028175Y-64429638D01*
X73028175Y-64429638D02*
X72934003Y-64565705D01*
X72934003Y-64565705D02*
X72887112Y-64633878D01*
X72887112Y-64633878D02*
X72801489Y-64759104D01*
X72801489Y-64759104D02*
X72739495Y-64850373D01*
X72739495Y-64850373D02*
X72654636Y-64976136D01*
X72654636Y-64976136D02*
X72593196Y-65067793D01*
X72593196Y-65067793D02*
X72349789Y-65436049D01*
X72349789Y-65436049D02*
X72259483Y-65574811D01*
X72259483Y-65574811D02*
X72162254Y-65725544D01*
X72162254Y-65725544D02*
X72073059Y-65865057D01*
X72073059Y-65865057D02*
X72006516Y-65969927D01*
X72006516Y-65969927D02*
X71962322Y-66039952D01*
X71962322Y-66039952D02*
X71867027Y-66191979D01*
X71867027Y-66191979D02*
X71779622Y-66332680D01*
X71779622Y-66332680D02*
X71736120Y-66403163D01*
X71736120Y-66403163D02*
X71663920Y-66520830D01*
X71663920Y-66520830D02*
X71549181Y-66709602D01*
X71549181Y-66709602D02*
X71315580Y-67100902D01*
X71315580Y-67100902D02*
X71266558Y-67184240D01*
X71266558Y-67184240D02*
X71224687Y-67255766D01*
X71224687Y-67255766D02*
X71148280Y-67387120D01*
X71148280Y-67387120D02*
X71106799Y-67458890D01*
X71106799Y-67458890D02*
X71051703Y-67554714D01*
X71051703Y-67554714D02*
X70928629Y-67770869D01*
X70928629Y-67770869D02*
X70887881Y-67843090D01*
X70887881Y-67843090D02*
X70833765Y-67939514D01*
X70833765Y-67939514D02*
X70686212Y-68205449D01*
X70686212Y-68205449D02*
X70646296Y-68278172D01*
X70646296Y-68278172D02*
X70586679Y-68387410D01*
X70586679Y-68387410D02*
X70533951Y-68484668D01*
X70533951Y-68484668D02*
X70494566Y-68557707D01*
X70494566Y-68557707D02*
X70442272Y-68655222D01*
X70442272Y-68655222D02*
X70390225Y-68752881D01*
X70390225Y-68752881D02*
X70261199Y-68997662D01*
X70261199Y-68997662D02*
X70210026Y-69095828D01*
X70210026Y-69095828D02*
X70159103Y-69194137D01*
X70159103Y-69194137D02*
X70108431Y-69292591D01*
X70108431Y-69292591D02*
X70058010Y-69391186D01*
X70058010Y-69391186D02*
X70020361Y-69465228D01*
X70020361Y-69465228D02*
X69976613Y-69551708D01*
X69976613Y-69551708D02*
X69926851Y-69650676D01*
X69926851Y-69650676D02*
X69846527Y-69811800D01*
X69846527Y-69811800D02*
X69760772Y-69985732D01*
X69760772Y-69985732D02*
X69687886Y-70135157D01*
X69687886Y-70135157D02*
X69657686Y-70197510D01*
X69657686Y-70197510D02*
X69597583Y-70322378D01*
X69597583Y-70322378D02*
X69520044Y-70485028D01*
X69520044Y-70485028D02*
X69466758Y-70597846D01*
X69466758Y-70597846D02*
X69431414Y-70673154D01*
X69431414Y-70673154D02*
X69378668Y-70786258D01*
X69378668Y-70786258D02*
X69320442Y-70912131D01*
X69320442Y-70912131D02*
X69291480Y-70975147D01*
X69291480Y-70975147D02*
X69239602Y-71088710D01*
X69239602Y-71088710D02*
X69210921Y-71151874D01*
X69210921Y-71151874D02*
X69176636Y-71227738D01*
X69176636Y-71227738D02*
X69125483Y-71341677D01*
X69125483Y-71341677D02*
X69097205Y-71405050D01*
X69097205Y-71405050D02*
X69057786Y-71493859D01*
X69057786Y-71493859D02*
X69007397Y-71608191D01*
X69007397Y-71608191D02*
X68946256Y-71748157D01*
X68946256Y-71748157D02*
X68918627Y-71811861D01*
X68918627Y-71811861D02*
X68880117Y-71901132D01*
X68880117Y-71901132D02*
X68847267Y-71977730D01*
X68847267Y-71977730D02*
X68792843Y-72105555D01*
X68792843Y-72105555D02*
X68760385Y-72182349D01*
X68760385Y-72182349D02*
X68706615Y-72310499D01*
X68706615Y-72310499D02*
X68663893Y-72413165D01*
X68663893Y-72413165D02*
X68605579Y-72554540D01*
X68605579Y-72554540D02*
X68516437Y-72773504D01*
X68516437Y-72773504D02*
X68480077Y-72863832D01*
X68480077Y-72863832D02*
X68443920Y-72954258D01*
X68443920Y-72954258D02*
X68387510Y-73096551D01*
X68387510Y-73096551D02*
X68346799Y-73200184D01*
X68346799Y-73200184D02*
X68316438Y-73277992D01*
X68316438Y-73277992D02*
X68276191Y-73381845D01*
X68276191Y-73381845D02*
X68251171Y-73446816D01*
X68251171Y-73446816D02*
X68211357Y-73550872D01*
X68211357Y-73550872D02*
X68176737Y-73642020D01*
X68176737Y-73642020D02*
X68137422Y-73746306D01*
X68137422Y-73746306D02*
X68112986Y-73811546D01*
X68112986Y-73811546D02*
X68074105Y-73916032D01*
X68074105Y-73916032D02*
X68035492Y-74020639D01*
X68035492Y-74020639D02*
X68001925Y-74112270D01*
X68001925Y-74112270D02*
X67963815Y-74217104D01*
X67963815Y-74217104D02*
X67921263Y-74335189D01*
X67921263Y-74335189D02*
X67883723Y-74440277D01*
X67883723Y-74440277D02*
X67851098Y-74532330D01*
X67851098Y-74532330D02*
X67814063Y-74637643D01*
X67814063Y-74637643D02*
X67772725Y-74756264D01*
X67772725Y-74756264D02*
X67736266Y-74861829D01*
X67736266Y-74861829D02*
X67695575Y-74980733D01*
X67695575Y-74980733D02*
X67650764Y-75113021D01*
X67650764Y-75113021D02*
X67601964Y-75258748D01*
X67601964Y-75258748D02*
X67549314Y-75417975D01*
X67549314Y-75417975D02*
X67523218Y-75497685D01*
X67523218Y-75497685D02*
X67471490Y-75657299D01*
X67471490Y-75657299D02*
X67428854Y-75790507D01*
X67428854Y-75790507D02*
X67386647Y-75923894D01*
X67386647Y-75923894D02*
X67353191Y-76030732D01*
X67353191Y-76030732D02*
X67324141Y-76124306D01*
X67324141Y-76124306D02*
X67291199Y-76231353D01*
X67291199Y-76231353D02*
X67242303Y-76392135D01*
X67242303Y-76392135D02*
X67182060Y-76593465D01*
X67182060Y-76593465D02*
X67138500Y-76741352D01*
X67138500Y-76741352D02*
X67118873Y-76808644D01*
X67118873Y-76808644D02*
X67079945Y-76943353D01*
X67079945Y-76943353D02*
X67018565Y-77159241D01*
X67018565Y-77159241D02*
X66973263Y-77321441D01*
X66973263Y-77321441D02*
X66950847Y-77402633D01*
X66950847Y-77402633D02*
X66884543Y-77646565D01*
X66884543Y-77646565D02*
X66826801Y-77863844D01*
X66826801Y-77863844D02*
X66808986Y-77931831D01*
X66808986Y-77931831D02*
X66731912Y-78231454D01*
X66731912Y-78231454D02*
X66714692Y-78299659D01*
X66714692Y-78299659D02*
X66660332Y-78518186D01*
X66660332Y-78518186D02*
X66626934Y-78654977D01*
X66626934Y-78654977D02*
X66610399Y-78723429D01*
X66610399Y-78723429D02*
X66538974Y-79025094D01*
X66538974Y-79025094D02*
X66516701Y-79121238D01*
X66516701Y-79121238D02*
X66500924Y-79189959D01*
X66500924Y-79189959D02*
X66479025Y-79286234D01*
X66479025Y-79286234D02*
X66423720Y-79534146D01*
X66423720Y-79534146D02*
X66396610Y-79658286D01*
X66396610Y-79658286D02*
X66190209Y-80669719D01*
X66190209Y-80669719D02*
X66171685Y-80767120D01*
X66171685Y-80767120D02*
X66153384Y-80864593D01*
X66153384Y-80864593D02*
X66137873Y-80948196D01*
X66137873Y-80948196D02*
X66065227Y-81353009D01*
X66065227Y-81353009D02*
X66053090Y-81422926D01*
X66053090Y-81422926D02*
X66038676Y-81506870D01*
X66038676Y-81506870D02*
X65989530Y-81801077D01*
X65989530Y-81801077D02*
X65973599Y-81899282D01*
X65973599Y-81899282D02*
X65957892Y-81997556D01*
X65957892Y-81997556D02*
X65931494Y-82166180D01*
X65931494Y-82166180D02*
X65920690Y-82236498D01*
X65920690Y-82236498D02*
X65905760Y-82335001D01*
X65905760Y-82335001D02*
X65878634Y-82518109D01*
X65878634Y-82518109D02*
X65864353Y-82616801D01*
X65864353Y-82616801D02*
X65826736Y-82885005D01*
X65826736Y-82885005D02*
X65800093Y-83082935D01*
X65800093Y-83082935D02*
X65790798Y-83153686D01*
X65790798Y-83153686D02*
X65765396Y-83351960D01*
X65765396Y-83351960D02*
X65735784Y-83593061D01*
X65735784Y-83593061D02*
X65714054Y-83777683D01*
X65714054Y-83777683D02*
X65704291Y-83862964D01*
X65704291Y-83862964D02*
X65689969Y-83990972D01*
X65689969Y-83990972D02*
X65680630Y-84076366D01*
X65680630Y-84076366D02*
X65666942Y-84204540D01*
X65666942Y-84204540D02*
X65649286Y-84375596D01*
X65649286Y-84375596D02*
X65629550Y-84575386D01*
X65629550Y-84575386D02*
X65613371Y-84746822D01*
X65613371Y-84746822D02*
X65599143Y-84904124D01*
X65599143Y-84904124D02*
X65591623Y-84989985D01*
X65591623Y-84989985D02*
X65581864Y-85104533D01*
X65581864Y-85104533D02*
X65571250Y-85233488D01*
X65571250Y-85233488D02*
X65556603Y-85419928D01*
X65556603Y-85419928D02*
X65546934Y-85549115D01*
X65546934Y-85549115D02*
X65533656Y-85735885D01*
X65533656Y-85735885D02*
X65524938Y-85865299D01*
X65524938Y-85865299D02*
X65517514Y-85980411D01*
X65517514Y-85980411D02*
X65501940Y-86239674D01*
X65501940Y-86239674D02*
X65491663Y-86427144D01*
X65491663Y-86427144D02*
X65485745Y-86542603D01*
X65485745Y-86542603D02*
X65480821Y-86643685D01*
X65480821Y-86643685D02*
X65475485Y-86759275D01*
X65475485Y-86759275D02*
X65470457Y-86874930D01*
X65470457Y-86874930D02*
X65464610Y-87019598D01*
X65464610Y-87019598D02*
X65460282Y-87135407D01*
X65460282Y-87135407D02*
X65455787Y-87265775D01*
X65455787Y-87265775D02*
X65449991Y-87454233D01*
X65449991Y-87454233D02*
X65446092Y-87599319D01*
X65446092Y-87599319D02*
X65443004Y-87729984D01*
X65443004Y-87729984D02*
X65439502Y-87904332D01*
X65439502Y-87904332D02*
X65437123Y-88049732D01*
X65437123Y-88049732D02*
X65435074Y-88209787D01*
X65435074Y-88209787D02*
X65434080Y-88311703D01*
X65434080Y-88311703D02*
X65433241Y-88428237D01*
X65433241Y-88428237D02*
X65432765Y-88530256D01*
X65432765Y-88530256D02*
X65432542Y-88625032D01*
X117133908Y-37917414D02*
X98742500Y-37917414D01*
X98742500Y-47180500D02*
X98749780Y-47253991D01*
X98749780Y-47253991D02*
X98765762Y-47319948D01*
X98765762Y-47319948D02*
X98785981Y-47380449D01*
X98785981Y-47380449D02*
X98809143Y-47438312D01*
X98809143Y-47438312D02*
X98834145Y-47493720D01*
X98834145Y-47493720D02*
X98861190Y-47548654D01*
X98861190Y-47548654D02*
X98888870Y-47601249D01*
X98888870Y-47601249D02*
X98918973Y-47655464D01*
X98918973Y-47655464D02*
X98948655Y-47706634D01*
X98948655Y-47706634D02*
X98979690Y-47758251D01*
X98979690Y-47758251D02*
X99010406Y-47807809D01*
X99010406Y-47807809D02*
X99043565Y-47859924D01*
X99043565Y-47859924D02*
X99075418Y-47908862D01*
X99075418Y-47908862D02*
X99108952Y-47959385D01*
X99108952Y-47959385D02*
X99142997Y-48009788D01*
X99142997Y-48009788D02*
X99175658Y-48057425D01*
X99175658Y-48057425D02*
X99209113Y-48105593D01*
X99209113Y-48105593D02*
X99243927Y-48155128D01*
X99243927Y-48155128D02*
X99277557Y-48202492D01*
X99277557Y-48202492D02*
X99313045Y-48252019D01*
X99313045Y-48252019D02*
X99349100Y-48301925D01*
X99349100Y-48301925D02*
X99383034Y-48348570D01*
X99383034Y-48348570D02*
X99417363Y-48395480D01*
X99417363Y-48395480D02*
X99452037Y-48442620D01*
X99452037Y-48442620D02*
X99488364Y-48491786D01*
X99488364Y-48491786D02*
X99524959Y-48541133D01*
X99524959Y-48541133D02*
X99560409Y-48588792D01*
X99560409Y-48588792D02*
X99597392Y-48638398D01*
X99597392Y-48638398D02*
X99633116Y-48686240D01*
X99633116Y-48686240D02*
X99671659Y-48737811D01*
X99671659Y-48737811D02*
X99710217Y-48789390D01*
X99710217Y-48789390D02*
X99745984Y-48837263D01*
X99745984Y-48837263D02*
X99784412Y-48888755D01*
X99784412Y-48888755D02*
X99818595Y-48934645D01*
X99818595Y-48934645D02*
X99853972Y-48982255D01*
X99853972Y-48982255D02*
X99891819Y-49033361D01*
X99891819Y-49033361D02*
X99926684Y-49080629D01*
X99926684Y-49080629D02*
X99961231Y-49127684D01*
X99961231Y-49127684D02*
X99998028Y-49178086D01*
X99998028Y-49178086D02*
X100031767Y-49224602D01*
X100031767Y-49224602D02*
X100067586Y-49274350D01*
X100067586Y-49274350D02*
X100100941Y-49321069D01*
X100100941Y-49321069D02*
X100134943Y-49369142D01*
X100134943Y-49369142D02*
X100168868Y-49417624D01*
X100168868Y-49417624D02*
X100203788Y-49468150D01*
X100203788Y-49468150D02*
X100236658Y-49516388D01*
X100236658Y-49516388D02*
X100269723Y-49565676D01*
X100269723Y-49565676D02*
X100302276Y-49615083D01*
X100302276Y-49615083D02*
X100333681Y-49663721D01*
X100333681Y-49663721D02*
X100365830Y-49714698D01*
X100365830Y-49714698D02*
X100396972Y-49765463D01*
X100396972Y-49765463D02*
X100427823Y-49817415D01*
X100427823Y-49817415D02*
X100458042Y-49870325D01*
X100458042Y-49870325D02*
X100486485Y-49922511D01*
X100486485Y-49922511D02*
X100514658Y-49977277D01*
X100514658Y-49977277D02*
X100540543Y-50031435D01*
X100540543Y-50031435D02*
X100564775Y-50087250D01*
X100564775Y-50087250D02*
X100587175Y-50146446D01*
X100587175Y-50146446D02*
X100605876Y-50207773D01*
X100605876Y-50207773D02*
X100619346Y-50274812D01*
X100619346Y-50274812D02*
X100622856Y-50324600D01*
D11*
X108354761Y-128105571D02*
X108211904Y-128153190D01*
X108164285Y-128200809D01*
X108116666Y-128296047D01*
X108116666Y-128438904D01*
X108164285Y-128534142D01*
X108211904Y-128581761D01*
X108307142Y-128629380D01*
X108688095Y-128629380D01*
X108688095Y-127629380D01*
X108354761Y-127629380D01*
X108259523Y-127677000D01*
X108211904Y-127724619D01*
X108164285Y-127819857D01*
X108164285Y-127915095D01*
X108211904Y-128010333D01*
X108259523Y-128057952D01*
X108354761Y-128105571D01*
X108688095Y-128105571D01*
X107164285Y-128629380D02*
X107735714Y-128629380D01*
X107450000Y-128629380D02*
X107450000Y-127629380D01*
X107545238Y-127772238D01*
X107640476Y-127867476D01*
X107735714Y-127915095D01*
M02*
