G04 #@! TF.GenerationSoftware,KiCad,Pcbnew,(5.1.0)-1*
G04 #@! TF.CreationDate,2019-11-25T20:58:05-05:00*
G04 #@! TF.ProjectId,Christmas Ornament 2019,43687269-7374-46d6-9173-204f726e616d,rev?*
G04 #@! TF.SameCoordinates,Original*
G04 #@! TF.FileFunction,Copper,L2,Bot*
G04 #@! TF.FilePolarity,Positive*
%FSLAX46Y46*%
G04 Gerber Fmt 4.6, Leading zero omitted, Abs format (unit mm)*
G04 Created by KiCad (PCBNEW (5.1.0)-1) date 2019-11-25 20:58:05*
%MOMM*%
%LPD*%
G04 APERTURE LIST*
%ADD10R,1.800000X1.800000*%
%ADD11C,1.800000*%
%ADD12C,1.600000*%
%ADD13C,1.600000*%
%ADD14O,1.600000X1.600000*%
%ADD15R,2.400000X1.600000*%
%ADD16O,2.400000X1.600000*%
%ADD17R,1.498600X1.498600*%
%ADD18C,1.498600*%
%ADD19C,17.780000*%
%ADD20C,2.286000*%
%ADD21C,0.800000*%
%ADD22C,0.250000*%
%ADD23C,0.254000*%
G04 APERTURE END LIST*
D10*
X131000000Y-59000000D03*
D11*
X133540000Y-59000000D03*
D10*
X142000000Y-78000000D03*
D11*
X144540000Y-78000000D03*
D10*
X109220000Y-52387500D03*
D11*
X106680000Y-52387500D03*
D10*
X142000000Y-101000000D03*
D11*
X144540000Y-101000000D03*
D10*
X131000000Y-118000000D03*
D11*
X133540000Y-118000000D03*
D10*
X82000000Y-118000000D03*
D11*
X84540000Y-118000000D03*
D10*
X71000000Y-101000000D03*
D11*
X73540000Y-101000000D03*
D10*
X71000000Y-79000000D03*
D11*
X73540000Y-79000000D03*
D10*
X82000000Y-59000000D03*
D11*
X84540000Y-59000000D03*
D12*
X130000000Y-69000000D03*
X122815795Y-76184205D03*
D13*
X122815795Y-76184205D02*
X122815795Y-76184205D01*
D12*
X133000000Y-86000000D03*
D14*
X122840000Y-86000000D03*
D12*
X108000000Y-59000000D03*
D14*
X108000000Y-69160000D03*
D12*
X133000000Y-95000000D03*
D14*
X122840000Y-95000000D03*
D12*
X129000000Y-111000000D03*
X121815795Y-103815795D03*
D13*
X121815795Y-103815795D02*
X121815795Y-103815795D01*
D12*
X92394000Y-65778000D03*
D14*
X102554000Y-65778000D03*
D12*
X84000000Y-111000000D03*
X91184205Y-103815795D03*
D13*
X91184205Y-103815795D02*
X91184205Y-103815795D01*
D12*
X81000000Y-95000000D03*
D14*
X91160000Y-95000000D03*
D12*
X81000000Y-86000000D03*
D14*
X91160000Y-86000000D03*
D12*
X84000000Y-69000000D03*
X91184205Y-76184205D03*
D13*
X91184205Y-76184205D02*
X91184205Y-76184205D01*
D15*
X104000000Y-74000000D03*
D16*
X111620000Y-81620000D03*
X104000000Y-76540000D03*
X111620000Y-79080000D03*
X104000000Y-79080000D03*
X111620000Y-76540000D03*
X104000000Y-81620000D03*
X111620000Y-74000000D03*
D15*
X104000000Y-88000000D03*
D16*
X111620000Y-105780000D03*
X104000000Y-90540000D03*
X111620000Y-103240000D03*
X104000000Y-93080000D03*
X111620000Y-100700000D03*
X104000000Y-95620000D03*
X111620000Y-98160000D03*
X104000000Y-98160000D03*
X111620000Y-95620000D03*
X104000000Y-100700000D03*
X111620000Y-93080000D03*
X104000000Y-103240000D03*
X111620000Y-90540000D03*
X104000000Y-105780000D03*
X111620000Y-88000000D03*
D17*
X93893999Y-55277999D03*
D18*
X93893999Y-59778000D03*
X100394001Y-59778000D03*
X100394001Y-55277999D03*
D19*
X107950000Y-118110000D03*
D20*
X118364000Y-116332000D03*
X118364000Y-119380000D03*
X97536000Y-116332000D03*
X97536000Y-119380000D03*
D21*
X109220000Y-96520000D03*
D22*
X107696000Y-110526000D02*
X107696000Y-114808000D01*
X116840000Y-92000000D02*
X116840000Y-104140000D01*
X122840000Y-86000000D02*
X116840000Y-92000000D01*
X116840000Y-104140000D02*
X113538000Y-107442000D01*
X111290996Y-107442000D02*
X107442000Y-103593004D01*
X113538000Y-107442000D02*
X111290996Y-107442000D01*
X104400000Y-88000000D02*
X104000000Y-88000000D01*
X107442000Y-91042000D02*
X104400000Y-88000000D01*
X107442000Y-103593004D02*
X107442000Y-91042000D01*
X111104595Y-107892009D02*
X106934000Y-103721414D01*
X113724400Y-107892010D02*
X111104595Y-107892009D01*
X122840000Y-95000000D02*
X122840000Y-98776410D01*
X122840000Y-98776410D02*
X113724400Y-107892010D01*
X104400000Y-90540000D02*
X104000000Y-90540000D01*
X106934000Y-93074000D02*
X104400000Y-90540000D01*
X106934000Y-103721414D02*
X106934000Y-93074000D01*
X105450000Y-93080000D02*
X104000000Y-93080000D01*
X121815795Y-103815795D02*
X118437025Y-103815795D01*
X118437025Y-103815795D02*
X113910799Y-108342019D01*
X113910799Y-108342019D02*
X110882019Y-108342019D01*
X110882019Y-108342019D02*
X106483990Y-103943990D01*
X106483990Y-103943990D02*
X106483990Y-94113990D01*
X106483990Y-94113990D02*
X105450000Y-93080000D01*
X99319700Y-62489700D02*
X99319700Y-56382300D01*
X102616000Y-65786000D02*
X99319700Y-62489700D01*
X99319700Y-56382300D02*
X100330000Y-55372000D01*
X118364000Y-117425798D02*
X118364000Y-117763554D01*
X118364000Y-117763554D02*
X118364000Y-119380000D01*
X111220000Y-88000000D02*
X111620000Y-88000000D01*
X109220000Y-90000000D02*
X111220000Y-88000000D01*
X109220000Y-96520000D02*
X109220000Y-90000000D01*
X112020000Y-76540000D02*
X115316000Y-79836000D01*
X111620000Y-76540000D02*
X112020000Y-76540000D01*
X115316000Y-79836000D02*
X115316000Y-97028000D01*
X115316000Y-97028000D02*
X114300000Y-98044000D01*
X114300000Y-98044000D02*
X111506000Y-98044000D01*
X110170000Y-79080000D02*
X107950000Y-81300000D01*
X111620000Y-79080000D02*
X110170000Y-79080000D01*
X107950000Y-81300000D02*
X107950000Y-99822000D01*
X107950000Y-99822000D02*
X108712000Y-100584000D01*
X108712000Y-100584000D02*
X111506000Y-100584000D01*
X113538000Y-92964000D02*
X111506000Y-92964000D01*
X106634000Y-77724000D02*
X112567590Y-77724000D01*
X105450000Y-76540000D02*
X106634000Y-77724000D01*
X112567590Y-77724000D02*
X114300000Y-79456410D01*
X114300000Y-79456410D02*
X114300000Y-92202000D01*
X104000000Y-76540000D02*
X105450000Y-76540000D01*
X114300000Y-92202000D02*
X113538000Y-92964000D01*
D23*
G36*
X118135491Y-48461492D02*
G01*
X125877967Y-50966411D01*
X132007696Y-54968465D01*
X135802765Y-57751516D01*
X141375672Y-64337679D01*
X145933802Y-71428104D01*
X149226731Y-82066797D01*
X149732738Y-87632876D01*
X149479589Y-93202152D01*
X147959980Y-100546930D01*
X144822326Y-108270386D01*
X144801965Y-108308496D01*
X144773730Y-108361136D01*
X144739664Y-108424406D01*
X144705744Y-108487154D01*
X144671161Y-108550856D01*
X144636947Y-108613629D01*
X144602583Y-108676421D01*
X144568007Y-108739344D01*
X144533015Y-108802759D01*
X144498189Y-108865621D01*
X144459510Y-108935145D01*
X144428155Y-108991271D01*
X144422784Y-109000847D01*
X139622541Y-115858338D01*
X139590336Y-115895700D01*
X139548043Y-115944613D01*
X139505583Y-115993565D01*
X139463594Y-116041827D01*
X139399215Y-116115532D01*
X139357174Y-116163477D01*
X139298080Y-116230621D01*
X139255587Y-116278721D01*
X139212529Y-116327313D01*
X139158824Y-116387704D01*
X139105071Y-116447921D01*
X139064514Y-116493192D01*
X132007391Y-122576918D01*
X122343991Y-127828765D01*
X122288205Y-127849221D01*
X122206222Y-127879095D01*
X122142357Y-127902235D01*
X122036892Y-127940191D01*
X121966187Y-127965456D01*
X121890911Y-127992198D01*
X121815305Y-128018896D01*
X121740656Y-128045095D01*
X121672712Y-128068806D01*
X121597248Y-128094984D01*
X121529237Y-128118441D01*
X121469385Y-128138974D01*
X121393524Y-128164855D01*
X121333492Y-128185221D01*
X121257600Y-128210822D01*
X121178231Y-128237425D01*
X121090739Y-128266544D01*
X121015188Y-128291517D01*
X120947545Y-128313742D01*
X120886576Y-128333663D01*
X120817974Y-128355957D01*
X120757743Y-128375421D01*
X120689388Y-128397387D01*
X120628158Y-128416957D01*
X120560136Y-128438576D01*
X120475958Y-128465149D01*
X120400292Y-128488872D01*
X120331595Y-128510273D01*
X120270464Y-128529207D01*
X120209891Y-128547870D01*
X120141158Y-128568922D01*
X120068437Y-128591057D01*
X120003694Y-128610640D01*
X119931045Y-128632480D01*
X119866163Y-128651865D01*
X119797314Y-128672307D01*
X119720810Y-128694874D01*
X119659277Y-128712908D01*
X119582602Y-128735237D01*
X119513444Y-128755242D01*
X119444301Y-128775114D01*
X119383037Y-128792615D01*
X119313899Y-128812242D01*
X119252638Y-128829524D01*
X119191587Y-128846650D01*
X119113987Y-128868276D01*
X119044513Y-128887497D01*
X118975812Y-128906377D01*
X118906041Y-128925425D01*
X118806064Y-128952493D01*
X118666906Y-128989725D01*
X118597871Y-129008007D01*
X118504576Y-129032510D01*
X118412042Y-129056589D01*
X118334935Y-129076481D01*
X118249471Y-129098346D01*
X118179948Y-129115990D01*
X118094466Y-129137512D01*
X118024871Y-129154891D01*
X117954853Y-129172249D01*
X117877728Y-129191221D01*
X117799655Y-129210266D01*
X117721951Y-129229064D01*
X117652157Y-129245817D01*
X117574235Y-129264368D01*
X117504221Y-129280903D01*
X117418319Y-129301017D01*
X117348436Y-129317238D01*
X117270874Y-129335095D01*
X117192527Y-129352975D01*
X117122250Y-129368880D01*
X117052344Y-129384571D01*
X116974188Y-129401965D01*
X116903630Y-129417537D01*
X116825608Y-129434607D01*
X116755682Y-129449772D01*
X116684436Y-129465094D01*
X116614262Y-129480059D01*
X116544192Y-129494874D01*
X116465433Y-129511381D01*
X116379545Y-129529201D01*
X116292994Y-129546967D01*
X116214666Y-129562881D01*
X116128435Y-129580224D01*
X116026154Y-129600543D01*
X115947687Y-129615955D01*
X115861012Y-129632796D01*
X115774893Y-129649342D01*
X115703449Y-129662927D01*
X115632886Y-129676220D01*
X115554427Y-129690849D01*
X115475633Y-129705386D01*
X115388557Y-129721269D01*
X115317591Y-129734075D01*
X115246436Y-129746788D01*
X115159516Y-129762142D01*
X115089083Y-129774448D01*
X115001785Y-129789525D01*
X114922490Y-129803057D01*
X114851416Y-129815053D01*
X114748956Y-129832122D01*
X114669582Y-129845166D01*
X114590243Y-129858049D01*
X114510939Y-129870767D01*
X114439871Y-129882035D01*
X114368669Y-129893198D01*
X114289272Y-129905495D01*
X114209783Y-129917653D01*
X114130736Y-129929584D01*
X114050983Y-129941468D01*
X113971412Y-129953169D01*
X113884164Y-129965817D01*
X113812763Y-129976028D01*
X113741015Y-129986162D01*
X113661591Y-129997233D01*
X113581596Y-130008228D01*
X113478443Y-130022171D01*
X113390631Y-130033835D01*
X113319158Y-130043190D01*
X113247188Y-130052481D01*
X113175259Y-130061643D01*
X113103983Y-130070596D01*
X113031950Y-130079516D01*
X112960046Y-130088296D01*
X112888215Y-130096938D01*
X112816483Y-130105444D01*
X112736241Y-130114810D01*
X112656511Y-130123961D01*
X112584682Y-130132072D01*
X112512327Y-130140114D01*
X112440571Y-130147966D01*
X112368490Y-130155726D01*
X112280544Y-130165023D01*
X112208491Y-130172501D01*
X112128511Y-130180653D01*
X112039899Y-130189503D01*
X111927426Y-130200463D01*
X111855853Y-130207275D01*
X111783336Y-130214051D01*
X111711028Y-130220681D01*
X111614766Y-130229313D01*
X111534150Y-130236370D01*
X111453938Y-130243234D01*
X111373741Y-130249941D01*
X111293546Y-130256494D01*
X111172756Y-130266069D01*
X111084025Y-130272879D01*
X111003675Y-130278883D01*
X110906878Y-130285908D01*
X110826679Y-130291556D01*
X110729808Y-130298175D01*
X110649502Y-130303488D01*
X110568873Y-130308667D01*
X110447652Y-130316162D01*
X110366956Y-130320952D01*
X110286282Y-130325589D01*
X110189623Y-130330937D01*
X110108643Y-130335244D01*
X110012061Y-130340177D01*
X109931406Y-130344122D01*
X109842181Y-130348305D01*
X109761136Y-130351941D01*
X109680437Y-130355405D01*
X109600018Y-130358699D01*
X109588974Y-130359130D01*
X104273479Y-130232571D01*
X104243983Y-130229998D01*
X104164062Y-130222862D01*
X104075745Y-130214798D01*
X104003490Y-130208060D01*
X103923610Y-130200465D01*
X103834682Y-130191825D01*
X103763068Y-130184728D01*
X103690912Y-130177452D01*
X103610943Y-130169240D01*
X103538215Y-130161637D01*
X103466864Y-130154051D01*
X103386401Y-130145350D01*
X103306655Y-130136570D01*
X103226408Y-130127579D01*
X103138390Y-130117537D01*
X103066754Y-130109223D01*
X102994895Y-130100760D01*
X102914884Y-130091187D01*
X102827072Y-130080501D01*
X102755491Y-130071652D01*
X102683493Y-130062622D01*
X102603856Y-130052486D01*
X102531765Y-130043179D01*
X102460568Y-130033861D01*
X102372454Y-130022157D01*
X102292924Y-130011429D01*
X102221568Y-130001671D01*
X102149858Y-129991738D01*
X102077756Y-129981625D01*
X102006758Y-129971542D01*
X101919136Y-129958923D01*
X101815845Y-129943807D01*
X101728620Y-129930836D01*
X101625447Y-129915252D01*
X101553629Y-129904246D01*
X101482692Y-129893254D01*
X101410985Y-129882012D01*
X101332267Y-129869524D01*
X101244743Y-129855462D01*
X101126170Y-129836102D01*
X101054401Y-129824217D01*
X100983851Y-129812409D01*
X100912698Y-129800369D01*
X100825260Y-129785407D01*
X100754635Y-129773181D01*
X100659620Y-129756534D01*
X100588371Y-129743905D01*
X100517814Y-129731272D01*
X100446332Y-129718345D01*
X100367724Y-129703983D01*
X100347047Y-129700166D01*
X90829064Y-126739016D01*
X90801747Y-126726785D01*
X90735891Y-126697171D01*
X90663188Y-126664319D01*
X90609323Y-126639869D01*
X90540138Y-126608333D01*
X90474507Y-126578274D01*
X90416660Y-126551669D01*
X90337557Y-126515114D01*
X90278974Y-126487914D01*
X90221255Y-126461007D01*
X90164013Y-126434215D01*
X90106183Y-126407041D01*
X90066140Y-126388151D01*
X87459315Y-124854724D01*
X101384881Y-124854724D01*
X102427497Y-125927138D01*
X104058658Y-126854321D01*
X105839362Y-127445465D01*
X107701176Y-127677852D01*
X109572553Y-127542551D01*
X111381576Y-127044763D01*
X113058725Y-126203616D01*
X113472503Y-125927138D01*
X114515119Y-124854724D01*
X107950000Y-118289605D01*
X101384881Y-124854724D01*
X87459315Y-124854724D01*
X83539369Y-122548873D01*
X83508812Y-122526965D01*
X83449948Y-122484573D01*
X83385078Y-122437673D01*
X83320002Y-122390435D01*
X83268717Y-122353073D01*
X83209686Y-122309922D01*
X83158275Y-122272210D01*
X83093631Y-122224619D01*
X83035326Y-122181531D01*
X82983840Y-122143351D01*
X82926071Y-122100368D01*
X82874825Y-122062108D01*
X82810082Y-122013596D01*
X82752523Y-121970303D01*
X82694759Y-121926700D01*
X82643346Y-121887758D01*
X82592418Y-121849059D01*
X82547760Y-121815025D01*
X82496354Y-121775728D01*
X82445677Y-121736865D01*
X82388170Y-121692618D01*
X82330538Y-121648114D01*
X82286031Y-121613636D01*
X82286032Y-121613636D01*
X82242354Y-121579706D01*
X82191244Y-121539886D01*
X82140524Y-121500242D01*
X82095849Y-121465219D01*
X82052179Y-121430890D01*
X82001413Y-121390862D01*
X81951007Y-121350994D01*
X81862814Y-121280934D01*
X81811989Y-121240383D01*
X81768045Y-121205218D01*
X81724864Y-121170567D01*
X81674588Y-121130106D01*
X81630090Y-121094187D01*
X81630089Y-121094187D01*
X81586547Y-121058941D01*
X81536718Y-121018487D01*
X81486755Y-120977799D01*
X81436648Y-120936865D01*
X81393090Y-120901176D01*
X81343192Y-120860172D01*
X81300111Y-120824664D01*
X81256461Y-120788591D01*
X81213202Y-120752741D01*
X81163540Y-120711463D01*
X81114164Y-120670293D01*
X81057911Y-120623236D01*
X81009029Y-120582205D01*
X80965721Y-120545748D01*
X80922117Y-120508940D01*
X80879756Y-120473085D01*
X80823961Y-120425708D01*
X80774646Y-120383695D01*
X80726070Y-120342183D01*
X80700270Y-120320066D01*
X79368959Y-118900000D01*
X80461928Y-118900000D01*
X80474188Y-119024482D01*
X80510498Y-119144180D01*
X80569463Y-119254494D01*
X80648815Y-119351185D01*
X80745506Y-119430537D01*
X80855820Y-119489502D01*
X80975518Y-119525812D01*
X81100000Y-119538072D01*
X81714250Y-119535000D01*
X81873000Y-119376250D01*
X81873000Y-118127000D01*
X80623750Y-118127000D01*
X80465000Y-118285750D01*
X80461928Y-118900000D01*
X79368959Y-118900000D01*
X77681459Y-117100000D01*
X80461928Y-117100000D01*
X80465000Y-117714250D01*
X80623750Y-117873000D01*
X81873000Y-117873000D01*
X81873000Y-116623750D01*
X82127000Y-116623750D01*
X82127000Y-117873000D01*
X82147000Y-117873000D01*
X82147000Y-118127000D01*
X82127000Y-118127000D01*
X82127000Y-119376250D01*
X82285750Y-119535000D01*
X82900000Y-119538072D01*
X83024482Y-119525812D01*
X83144180Y-119489502D01*
X83254494Y-119430537D01*
X83351185Y-119351185D01*
X83430537Y-119254494D01*
X83489502Y-119144180D01*
X83495056Y-119125873D01*
X83561495Y-119192312D01*
X83812905Y-119360299D01*
X84092257Y-119476011D01*
X84388816Y-119535000D01*
X84691184Y-119535000D01*
X84987743Y-119476011D01*
X85267095Y-119360299D01*
X85518505Y-119192312D01*
X85732312Y-118978505D01*
X85900299Y-118727095D01*
X86016011Y-118447743D01*
X86075000Y-118151184D01*
X86075000Y-117848816D01*
X86016011Y-117552257D01*
X85900299Y-117272905D01*
X85732312Y-117021495D01*
X85518505Y-116807688D01*
X85267095Y-116639701D01*
X84987743Y-116523989D01*
X84691184Y-116465000D01*
X84388816Y-116465000D01*
X84092257Y-116523989D01*
X83812905Y-116639701D01*
X83561495Y-116807688D01*
X83495056Y-116874127D01*
X83489502Y-116855820D01*
X83430537Y-116745506D01*
X83351185Y-116648815D01*
X83254494Y-116569463D01*
X83144180Y-116510498D01*
X83024482Y-116474188D01*
X82900000Y-116461928D01*
X82285750Y-116465000D01*
X82127000Y-116623750D01*
X81873000Y-116623750D01*
X81714250Y-116465000D01*
X81100000Y-116461928D01*
X80975518Y-116474188D01*
X80855820Y-116510498D01*
X80745506Y-116569463D01*
X80648815Y-116648815D01*
X80569463Y-116745506D01*
X80510498Y-116855820D01*
X80474188Y-116975518D01*
X80461928Y-117100000D01*
X77681459Y-117100000D01*
X76797286Y-116156882D01*
X95758000Y-116156882D01*
X95758000Y-116507118D01*
X95826328Y-116850623D01*
X95960357Y-117174199D01*
X96154937Y-117465409D01*
X96402591Y-117713063D01*
X96616512Y-117856000D01*
X96402591Y-117998937D01*
X96154937Y-118246591D01*
X95960357Y-118537801D01*
X95826328Y-118861377D01*
X95758000Y-119204882D01*
X95758000Y-119555118D01*
X95826328Y-119898623D01*
X95960357Y-120222199D01*
X96154937Y-120513409D01*
X96402591Y-120761063D01*
X96693801Y-120955643D01*
X97017377Y-121089672D01*
X97360882Y-121158000D01*
X97711118Y-121158000D01*
X98054623Y-121089672D01*
X98378199Y-120955643D01*
X98669409Y-120761063D01*
X98772183Y-120658289D01*
X99015237Y-121541576D01*
X99856384Y-123218725D01*
X100132862Y-123632503D01*
X101205276Y-124675119D01*
X107770395Y-118110000D01*
X108129605Y-118110000D01*
X114694724Y-124675119D01*
X115767138Y-123632503D01*
X116694321Y-122001342D01*
X117137097Y-120667569D01*
X117230591Y-120761063D01*
X117521801Y-120955643D01*
X117845377Y-121089672D01*
X118188882Y-121158000D01*
X118539118Y-121158000D01*
X118882623Y-121089672D01*
X119206199Y-120955643D01*
X119497409Y-120761063D01*
X119745063Y-120513409D01*
X119939643Y-120222199D01*
X120073672Y-119898623D01*
X120142000Y-119555118D01*
X120142000Y-119204882D01*
X120081355Y-118900000D01*
X129461928Y-118900000D01*
X129474188Y-119024482D01*
X129510498Y-119144180D01*
X129569463Y-119254494D01*
X129648815Y-119351185D01*
X129745506Y-119430537D01*
X129855820Y-119489502D01*
X129975518Y-119525812D01*
X130100000Y-119538072D01*
X130714250Y-119535000D01*
X130873000Y-119376250D01*
X130873000Y-118127000D01*
X129623750Y-118127000D01*
X129465000Y-118285750D01*
X129461928Y-118900000D01*
X120081355Y-118900000D01*
X120073672Y-118861377D01*
X119939643Y-118537801D01*
X119745063Y-118246591D01*
X119497409Y-117998937D01*
X119283488Y-117856000D01*
X119497409Y-117713063D01*
X119745063Y-117465409D01*
X119939643Y-117174199D01*
X119970377Y-117100000D01*
X129461928Y-117100000D01*
X129465000Y-117714250D01*
X129623750Y-117873000D01*
X130873000Y-117873000D01*
X130873000Y-116623750D01*
X131127000Y-116623750D01*
X131127000Y-117873000D01*
X131147000Y-117873000D01*
X131147000Y-118127000D01*
X131127000Y-118127000D01*
X131127000Y-119376250D01*
X131285750Y-119535000D01*
X131900000Y-119538072D01*
X132024482Y-119525812D01*
X132144180Y-119489502D01*
X132254494Y-119430537D01*
X132351185Y-119351185D01*
X132430537Y-119254494D01*
X132489502Y-119144180D01*
X132495056Y-119125873D01*
X132561495Y-119192312D01*
X132812905Y-119360299D01*
X133092257Y-119476011D01*
X133388816Y-119535000D01*
X133691184Y-119535000D01*
X133987743Y-119476011D01*
X134267095Y-119360299D01*
X134518505Y-119192312D01*
X134732312Y-118978505D01*
X134900299Y-118727095D01*
X135016011Y-118447743D01*
X135075000Y-118151184D01*
X135075000Y-117848816D01*
X135016011Y-117552257D01*
X134900299Y-117272905D01*
X134732312Y-117021495D01*
X134518505Y-116807688D01*
X134267095Y-116639701D01*
X133987743Y-116523989D01*
X133691184Y-116465000D01*
X133388816Y-116465000D01*
X133092257Y-116523989D01*
X132812905Y-116639701D01*
X132561495Y-116807688D01*
X132495056Y-116874127D01*
X132489502Y-116855820D01*
X132430537Y-116745506D01*
X132351185Y-116648815D01*
X132254494Y-116569463D01*
X132144180Y-116510498D01*
X132024482Y-116474188D01*
X131900000Y-116461928D01*
X131285750Y-116465000D01*
X131127000Y-116623750D01*
X130873000Y-116623750D01*
X130714250Y-116465000D01*
X130100000Y-116461928D01*
X129975518Y-116474188D01*
X129855820Y-116510498D01*
X129745506Y-116569463D01*
X129648815Y-116648815D01*
X129569463Y-116745506D01*
X129510498Y-116855820D01*
X129474188Y-116975518D01*
X129461928Y-117100000D01*
X119970377Y-117100000D01*
X120073672Y-116850623D01*
X120142000Y-116507118D01*
X120142000Y-116156882D01*
X120073672Y-115813377D01*
X119939643Y-115489801D01*
X119745063Y-115198591D01*
X119497409Y-114950937D01*
X119206199Y-114756357D01*
X118882623Y-114622328D01*
X118539118Y-114554000D01*
X118188882Y-114554000D01*
X117845377Y-114622328D01*
X117521801Y-114756357D01*
X117230591Y-114950937D01*
X117018195Y-115163333D01*
X116884763Y-114678424D01*
X116043616Y-113001275D01*
X115767138Y-112587497D01*
X114694724Y-111544881D01*
X108129605Y-118110000D01*
X107770395Y-118110000D01*
X101205276Y-111544881D01*
X100132862Y-112587497D01*
X99205679Y-114218658D01*
X98889514Y-115171042D01*
X98669409Y-114950937D01*
X98378199Y-114756357D01*
X98054623Y-114622328D01*
X97711118Y-114554000D01*
X97360882Y-114554000D01*
X97017377Y-114622328D01*
X96693801Y-114756357D01*
X96402591Y-114950937D01*
X96154937Y-115198591D01*
X95960357Y-115489801D01*
X95826328Y-115813377D01*
X95758000Y-116156882D01*
X76797286Y-116156882D01*
X74477886Y-113682857D01*
X74463753Y-113664052D01*
X74425438Y-113612897D01*
X74386871Y-113561241D01*
X74334149Y-113490357D01*
X74295918Y-113438761D01*
X74253076Y-113380741D01*
X74214951Y-113328933D01*
X74162422Y-113257282D01*
X74124659Y-113205572D01*
X74096882Y-113167403D01*
X72735319Y-110858665D01*
X82565000Y-110858665D01*
X82565000Y-111141335D01*
X82620147Y-111418574D01*
X82728320Y-111679727D01*
X82885363Y-111914759D01*
X83085241Y-112114637D01*
X83320273Y-112271680D01*
X83581426Y-112379853D01*
X83858665Y-112435000D01*
X84141335Y-112435000D01*
X84418574Y-112379853D01*
X84679727Y-112271680D01*
X84914759Y-112114637D01*
X85114637Y-111914759D01*
X85271680Y-111679727D01*
X85379853Y-111418574D01*
X85390454Y-111365276D01*
X101384881Y-111365276D01*
X107950000Y-117930395D01*
X114515119Y-111365276D01*
X114022585Y-110858665D01*
X127565000Y-110858665D01*
X127565000Y-111141335D01*
X127620147Y-111418574D01*
X127728320Y-111679727D01*
X127885363Y-111914759D01*
X128085241Y-112114637D01*
X128320273Y-112271680D01*
X128581426Y-112379853D01*
X128858665Y-112435000D01*
X129141335Y-112435000D01*
X129418574Y-112379853D01*
X129679727Y-112271680D01*
X129914759Y-112114637D01*
X130114637Y-111914759D01*
X130271680Y-111679727D01*
X130379853Y-111418574D01*
X130435000Y-111141335D01*
X130435000Y-110858665D01*
X130379853Y-110581426D01*
X130271680Y-110320273D01*
X130114637Y-110085241D01*
X129914759Y-109885363D01*
X129679727Y-109728320D01*
X129418574Y-109620147D01*
X129141335Y-109565000D01*
X128858665Y-109565000D01*
X128581426Y-109620147D01*
X128320273Y-109728320D01*
X128085241Y-109885363D01*
X127885363Y-110085241D01*
X127728320Y-110320273D01*
X127620147Y-110581426D01*
X127565000Y-110858665D01*
X114022585Y-110858665D01*
X113472503Y-110292862D01*
X111841342Y-109365679D01*
X111047119Y-109102019D01*
X113873476Y-109102019D01*
X113910799Y-109105695D01*
X113948121Y-109102019D01*
X113948132Y-109102019D01*
X114059785Y-109091022D01*
X114203046Y-109047565D01*
X114335075Y-108976993D01*
X114450800Y-108882020D01*
X114474603Y-108853016D01*
X118751827Y-104575795D01*
X120594894Y-104575795D01*
X120616863Y-104616896D01*
X120796187Y-104835403D01*
X121014694Y-105014727D01*
X121263987Y-105147977D01*
X121534486Y-105230031D01*
X121745303Y-105250795D01*
X121886287Y-105250795D01*
X122097104Y-105230031D01*
X122367603Y-105147977D01*
X122616896Y-105014727D01*
X122835403Y-104835403D01*
X123014727Y-104616896D01*
X123147977Y-104367603D01*
X123230031Y-104097104D01*
X123257738Y-103815795D01*
X123230031Y-103534486D01*
X123147977Y-103263987D01*
X123014727Y-103014694D01*
X122835403Y-102796187D01*
X122616896Y-102616863D01*
X122367603Y-102483613D01*
X122097104Y-102401559D01*
X121886287Y-102380795D01*
X121745303Y-102380795D01*
X121534486Y-102401559D01*
X121263987Y-102483613D01*
X121014694Y-102616863D01*
X120796187Y-102796187D01*
X120616863Y-103014694D01*
X120594894Y-103055795D01*
X119635417Y-103055795D01*
X120791212Y-101900000D01*
X140461928Y-101900000D01*
X140474188Y-102024482D01*
X140510498Y-102144180D01*
X140569463Y-102254494D01*
X140648815Y-102351185D01*
X140745506Y-102430537D01*
X140855820Y-102489502D01*
X140975518Y-102525812D01*
X141100000Y-102538072D01*
X141714250Y-102535000D01*
X141873000Y-102376250D01*
X141873000Y-101127000D01*
X140623750Y-101127000D01*
X140465000Y-101285750D01*
X140461928Y-101900000D01*
X120791212Y-101900000D01*
X122591212Y-100100000D01*
X140461928Y-100100000D01*
X140465000Y-100714250D01*
X140623750Y-100873000D01*
X141873000Y-100873000D01*
X141873000Y-99623750D01*
X142127000Y-99623750D01*
X142127000Y-100873000D01*
X142147000Y-100873000D01*
X142147000Y-101127000D01*
X142127000Y-101127000D01*
X142127000Y-102376250D01*
X142285750Y-102535000D01*
X142900000Y-102538072D01*
X143024482Y-102525812D01*
X143144180Y-102489502D01*
X143254494Y-102430537D01*
X143351185Y-102351185D01*
X143430537Y-102254494D01*
X143489502Y-102144180D01*
X143495056Y-102125873D01*
X143561495Y-102192312D01*
X143812905Y-102360299D01*
X144092257Y-102476011D01*
X144388816Y-102535000D01*
X144691184Y-102535000D01*
X144987743Y-102476011D01*
X145267095Y-102360299D01*
X145518505Y-102192312D01*
X145732312Y-101978505D01*
X145900299Y-101727095D01*
X146016011Y-101447743D01*
X146075000Y-101151184D01*
X146075000Y-100848816D01*
X146016011Y-100552257D01*
X145900299Y-100272905D01*
X145732312Y-100021495D01*
X145518505Y-99807688D01*
X145267095Y-99639701D01*
X144987743Y-99523989D01*
X144691184Y-99465000D01*
X144388816Y-99465000D01*
X144092257Y-99523989D01*
X143812905Y-99639701D01*
X143561495Y-99807688D01*
X143495056Y-99874127D01*
X143489502Y-99855820D01*
X143430537Y-99745506D01*
X143351185Y-99648815D01*
X143254494Y-99569463D01*
X143144180Y-99510498D01*
X143024482Y-99474188D01*
X142900000Y-99461928D01*
X142285750Y-99465000D01*
X142127000Y-99623750D01*
X141873000Y-99623750D01*
X141714250Y-99465000D01*
X141100000Y-99461928D01*
X140975518Y-99474188D01*
X140855820Y-99510498D01*
X140745506Y-99569463D01*
X140648815Y-99648815D01*
X140569463Y-99745506D01*
X140510498Y-99855820D01*
X140474188Y-99975518D01*
X140461928Y-100100000D01*
X122591212Y-100100000D01*
X123351003Y-99340209D01*
X123380001Y-99316411D01*
X123410489Y-99279261D01*
X123474974Y-99200687D01*
X123545546Y-99068657D01*
X123550177Y-99053391D01*
X123589003Y-98925396D01*
X123600000Y-98813743D01*
X123600000Y-98813734D01*
X123603676Y-98776411D01*
X123600000Y-98739088D01*
X123600000Y-96220901D01*
X123641101Y-96198932D01*
X123859608Y-96019608D01*
X124038932Y-95801101D01*
X124172182Y-95551808D01*
X124254236Y-95281309D01*
X124281943Y-95000000D01*
X124268023Y-94858665D01*
X131565000Y-94858665D01*
X131565000Y-95141335D01*
X131620147Y-95418574D01*
X131728320Y-95679727D01*
X131885363Y-95914759D01*
X132085241Y-96114637D01*
X132320273Y-96271680D01*
X132581426Y-96379853D01*
X132858665Y-96435000D01*
X133141335Y-96435000D01*
X133418574Y-96379853D01*
X133679727Y-96271680D01*
X133914759Y-96114637D01*
X134114637Y-95914759D01*
X134271680Y-95679727D01*
X134379853Y-95418574D01*
X134435000Y-95141335D01*
X134435000Y-94858665D01*
X134379853Y-94581426D01*
X134271680Y-94320273D01*
X134114637Y-94085241D01*
X133914759Y-93885363D01*
X133679727Y-93728320D01*
X133418574Y-93620147D01*
X133141335Y-93565000D01*
X132858665Y-93565000D01*
X132581426Y-93620147D01*
X132320273Y-93728320D01*
X132085241Y-93885363D01*
X131885363Y-94085241D01*
X131728320Y-94320273D01*
X131620147Y-94581426D01*
X131565000Y-94858665D01*
X124268023Y-94858665D01*
X124254236Y-94718691D01*
X124172182Y-94448192D01*
X124038932Y-94198899D01*
X123859608Y-93980392D01*
X123641101Y-93801068D01*
X123391808Y-93667818D01*
X123121309Y-93585764D01*
X122910492Y-93565000D01*
X122769508Y-93565000D01*
X122558691Y-93585764D01*
X122288192Y-93667818D01*
X122038899Y-93801068D01*
X121820392Y-93980392D01*
X121641068Y-94198899D01*
X121507818Y-94448192D01*
X121425764Y-94718691D01*
X121398057Y-95000000D01*
X121425764Y-95281309D01*
X121507818Y-95551808D01*
X121641068Y-95801101D01*
X121820392Y-96019608D01*
X122038899Y-96198932D01*
X122080000Y-96220901D01*
X122080001Y-98461607D01*
X117600000Y-102941609D01*
X117600000Y-92314801D01*
X122514095Y-87400708D01*
X122558691Y-87414236D01*
X122769508Y-87435000D01*
X122910492Y-87435000D01*
X123121309Y-87414236D01*
X123391808Y-87332182D01*
X123641101Y-87198932D01*
X123859608Y-87019608D01*
X124038932Y-86801101D01*
X124172182Y-86551808D01*
X124254236Y-86281309D01*
X124281943Y-86000000D01*
X124268023Y-85858665D01*
X131565000Y-85858665D01*
X131565000Y-86141335D01*
X131620147Y-86418574D01*
X131728320Y-86679727D01*
X131885363Y-86914759D01*
X132085241Y-87114637D01*
X132320273Y-87271680D01*
X132581426Y-87379853D01*
X132858665Y-87435000D01*
X133141335Y-87435000D01*
X133418574Y-87379853D01*
X133679727Y-87271680D01*
X133914759Y-87114637D01*
X134114637Y-86914759D01*
X134271680Y-86679727D01*
X134379853Y-86418574D01*
X134435000Y-86141335D01*
X134435000Y-85858665D01*
X134379853Y-85581426D01*
X134271680Y-85320273D01*
X134114637Y-85085241D01*
X133914759Y-84885363D01*
X133679727Y-84728320D01*
X133418574Y-84620147D01*
X133141335Y-84565000D01*
X132858665Y-84565000D01*
X132581426Y-84620147D01*
X132320273Y-84728320D01*
X132085241Y-84885363D01*
X131885363Y-85085241D01*
X131728320Y-85320273D01*
X131620147Y-85581426D01*
X131565000Y-85858665D01*
X124268023Y-85858665D01*
X124254236Y-85718691D01*
X124172182Y-85448192D01*
X124038932Y-85198899D01*
X123859608Y-84980392D01*
X123641101Y-84801068D01*
X123391808Y-84667818D01*
X123121309Y-84585764D01*
X122910492Y-84565000D01*
X122769508Y-84565000D01*
X122558691Y-84585764D01*
X122288192Y-84667818D01*
X122038899Y-84801068D01*
X121820392Y-84980392D01*
X121641068Y-85198899D01*
X121507818Y-85448192D01*
X121425764Y-85718691D01*
X121398057Y-86000000D01*
X121425764Y-86281309D01*
X121439292Y-86325905D01*
X116329003Y-91436196D01*
X116299999Y-91459999D01*
X116257191Y-91512161D01*
X116205026Y-91575724D01*
X116150906Y-91676974D01*
X116134454Y-91707754D01*
X116090997Y-91851015D01*
X116080000Y-91962668D01*
X116080000Y-91962678D01*
X116076324Y-92000000D01*
X116080000Y-92037322D01*
X116080001Y-103825197D01*
X113223199Y-106682000D01*
X113136126Y-106682000D01*
X113218932Y-106581101D01*
X113352182Y-106331808D01*
X113434236Y-106061309D01*
X113461943Y-105780000D01*
X113434236Y-105498691D01*
X113352182Y-105228192D01*
X113218932Y-104978899D01*
X113039608Y-104760392D01*
X112821101Y-104581068D01*
X112688142Y-104510000D01*
X112821101Y-104438932D01*
X113039608Y-104259608D01*
X113218932Y-104041101D01*
X113352182Y-103791808D01*
X113434236Y-103521309D01*
X113461943Y-103240000D01*
X113434236Y-102958691D01*
X113352182Y-102688192D01*
X113218932Y-102438899D01*
X113039608Y-102220392D01*
X112821101Y-102041068D01*
X112688142Y-101970000D01*
X112821101Y-101898932D01*
X113039608Y-101719608D01*
X113218932Y-101501101D01*
X113352182Y-101251808D01*
X113434236Y-100981309D01*
X113461943Y-100700000D01*
X113434236Y-100418691D01*
X113352182Y-100148192D01*
X113218932Y-99898899D01*
X113039608Y-99680392D01*
X112821101Y-99501068D01*
X112688142Y-99430000D01*
X112821101Y-99358932D01*
X113039608Y-99179608D01*
X113218932Y-98961101D01*
X113302904Y-98804000D01*
X114262678Y-98804000D01*
X114300000Y-98807676D01*
X114337322Y-98804000D01*
X114337333Y-98804000D01*
X114448986Y-98793003D01*
X114592247Y-98749546D01*
X114724276Y-98678974D01*
X114840001Y-98584001D01*
X114863804Y-98554998D01*
X115827003Y-97591799D01*
X115856001Y-97568001D01*
X115892439Y-97523601D01*
X115950974Y-97452277D01*
X116021546Y-97320247D01*
X116024275Y-97311250D01*
X116065003Y-97176986D01*
X116076000Y-97065333D01*
X116076000Y-97065323D01*
X116079676Y-97028000D01*
X116076000Y-96990678D01*
X116076000Y-79873323D01*
X116079676Y-79836000D01*
X116076000Y-79798677D01*
X116076000Y-79798667D01*
X116065003Y-79687014D01*
X116021546Y-79543753D01*
X116018509Y-79538072D01*
X115950974Y-79411723D01*
X115879799Y-79324997D01*
X115856001Y-79295999D01*
X115827004Y-79272202D01*
X115454802Y-78900000D01*
X140461928Y-78900000D01*
X140474188Y-79024482D01*
X140510498Y-79144180D01*
X140569463Y-79254494D01*
X140648815Y-79351185D01*
X140745506Y-79430537D01*
X140855820Y-79489502D01*
X140975518Y-79525812D01*
X141100000Y-79538072D01*
X141714250Y-79535000D01*
X141873000Y-79376250D01*
X141873000Y-78127000D01*
X140623750Y-78127000D01*
X140465000Y-78285750D01*
X140461928Y-78900000D01*
X115454802Y-78900000D01*
X113420708Y-76865906D01*
X113434236Y-76821309D01*
X113461943Y-76540000D01*
X113434236Y-76258691D01*
X113411642Y-76184205D01*
X121373852Y-76184205D01*
X121401559Y-76465514D01*
X121483613Y-76736013D01*
X121616863Y-76985306D01*
X121796187Y-77203813D01*
X122014694Y-77383137D01*
X122263987Y-77516387D01*
X122534486Y-77598441D01*
X122745303Y-77619205D01*
X122886287Y-77619205D01*
X123097104Y-77598441D01*
X123367603Y-77516387D01*
X123616896Y-77383137D01*
X123835403Y-77203813D01*
X123920600Y-77100000D01*
X140461928Y-77100000D01*
X140465000Y-77714250D01*
X140623750Y-77873000D01*
X141873000Y-77873000D01*
X141873000Y-76623750D01*
X142127000Y-76623750D01*
X142127000Y-77873000D01*
X142147000Y-77873000D01*
X142147000Y-78127000D01*
X142127000Y-78127000D01*
X142127000Y-79376250D01*
X142285750Y-79535000D01*
X142900000Y-79538072D01*
X143024482Y-79525812D01*
X143144180Y-79489502D01*
X143254494Y-79430537D01*
X143351185Y-79351185D01*
X143430537Y-79254494D01*
X143489502Y-79144180D01*
X143495056Y-79125873D01*
X143561495Y-79192312D01*
X143812905Y-79360299D01*
X144092257Y-79476011D01*
X144388816Y-79535000D01*
X144691184Y-79535000D01*
X144987743Y-79476011D01*
X145267095Y-79360299D01*
X145518505Y-79192312D01*
X145732312Y-78978505D01*
X145900299Y-78727095D01*
X146016011Y-78447743D01*
X146075000Y-78151184D01*
X146075000Y-77848816D01*
X146016011Y-77552257D01*
X145900299Y-77272905D01*
X145732312Y-77021495D01*
X145518505Y-76807688D01*
X145267095Y-76639701D01*
X144987743Y-76523989D01*
X144691184Y-76465000D01*
X144388816Y-76465000D01*
X144092257Y-76523989D01*
X143812905Y-76639701D01*
X143561495Y-76807688D01*
X143495056Y-76874127D01*
X143489502Y-76855820D01*
X143430537Y-76745506D01*
X143351185Y-76648815D01*
X143254494Y-76569463D01*
X143144180Y-76510498D01*
X143024482Y-76474188D01*
X142900000Y-76461928D01*
X142285750Y-76465000D01*
X142127000Y-76623750D01*
X141873000Y-76623750D01*
X141714250Y-76465000D01*
X141100000Y-76461928D01*
X140975518Y-76474188D01*
X140855820Y-76510498D01*
X140745506Y-76569463D01*
X140648815Y-76648815D01*
X140569463Y-76745506D01*
X140510498Y-76855820D01*
X140474188Y-76975518D01*
X140461928Y-77100000D01*
X123920600Y-77100000D01*
X124014727Y-76985306D01*
X124147977Y-76736013D01*
X124230031Y-76465514D01*
X124257738Y-76184205D01*
X124230031Y-75902896D01*
X124147977Y-75632397D01*
X124014727Y-75383104D01*
X123835403Y-75164597D01*
X123616896Y-74985273D01*
X123367603Y-74852023D01*
X123097104Y-74769969D01*
X122886287Y-74749205D01*
X122745303Y-74749205D01*
X122534486Y-74769969D01*
X122263987Y-74852023D01*
X122014694Y-74985273D01*
X121796187Y-75164597D01*
X121616863Y-75383104D01*
X121483613Y-75632397D01*
X121401559Y-75902896D01*
X121373852Y-76184205D01*
X113411642Y-76184205D01*
X113352182Y-75988192D01*
X113218932Y-75738899D01*
X113039608Y-75520392D01*
X112821101Y-75341068D01*
X112688142Y-75270000D01*
X112821101Y-75198932D01*
X113039608Y-75019608D01*
X113218932Y-74801101D01*
X113352182Y-74551808D01*
X113434236Y-74281309D01*
X113461943Y-74000000D01*
X113434236Y-73718691D01*
X113352182Y-73448192D01*
X113218932Y-73198899D01*
X113039608Y-72980392D01*
X112821101Y-72801068D01*
X112571808Y-72667818D01*
X112301309Y-72585764D01*
X112090492Y-72565000D01*
X111149508Y-72565000D01*
X110938691Y-72585764D01*
X110668192Y-72667818D01*
X110418899Y-72801068D01*
X110200392Y-72980392D01*
X110021068Y-73198899D01*
X109887818Y-73448192D01*
X109805764Y-73718691D01*
X109778057Y-74000000D01*
X109805764Y-74281309D01*
X109887818Y-74551808D01*
X110021068Y-74801101D01*
X110200392Y-75019608D01*
X110418899Y-75198932D01*
X110551858Y-75270000D01*
X110418899Y-75341068D01*
X110200392Y-75520392D01*
X110021068Y-75738899D01*
X109887818Y-75988192D01*
X109805764Y-76258691D01*
X109778057Y-76540000D01*
X109805764Y-76821309D01*
X109849048Y-76964000D01*
X106948802Y-76964000D01*
X106013804Y-76029003D01*
X105990001Y-75999999D01*
X105874276Y-75905026D01*
X105742247Y-75834454D01*
X105632157Y-75801059D01*
X105598932Y-75738899D01*
X105419608Y-75520392D01*
X105306518Y-75427581D01*
X105324482Y-75425812D01*
X105444180Y-75389502D01*
X105554494Y-75330537D01*
X105651185Y-75251185D01*
X105730537Y-75154494D01*
X105789502Y-75044180D01*
X105825812Y-74924482D01*
X105838072Y-74800000D01*
X105838072Y-73200000D01*
X105825812Y-73075518D01*
X105789502Y-72955820D01*
X105730537Y-72845506D01*
X105651185Y-72748815D01*
X105554494Y-72669463D01*
X105444180Y-72610498D01*
X105324482Y-72574188D01*
X105200000Y-72561928D01*
X102800000Y-72561928D01*
X102675518Y-72574188D01*
X102555820Y-72610498D01*
X102445506Y-72669463D01*
X102348815Y-72748815D01*
X102269463Y-72845506D01*
X102210498Y-72955820D01*
X102174188Y-73075518D01*
X102161928Y-73200000D01*
X102161928Y-74800000D01*
X102174188Y-74924482D01*
X102210498Y-75044180D01*
X102269463Y-75154494D01*
X102348815Y-75251185D01*
X102445506Y-75330537D01*
X102555820Y-75389502D01*
X102675518Y-75425812D01*
X102693482Y-75427581D01*
X102580392Y-75520392D01*
X102401068Y-75738899D01*
X102267818Y-75988192D01*
X102185764Y-76258691D01*
X102158057Y-76540000D01*
X102185764Y-76821309D01*
X102267818Y-77091808D01*
X102401068Y-77341101D01*
X102580392Y-77559608D01*
X102798899Y-77738932D01*
X102931858Y-77810000D01*
X102798899Y-77881068D01*
X102580392Y-78060392D01*
X102401068Y-78278899D01*
X102267818Y-78528192D01*
X102185764Y-78798691D01*
X102158057Y-79080000D01*
X102185764Y-79361309D01*
X102267818Y-79631808D01*
X102401068Y-79881101D01*
X102580392Y-80099608D01*
X102798899Y-80278932D01*
X102926741Y-80347265D01*
X102697161Y-80497399D01*
X102495500Y-80695105D01*
X102336285Y-80928354D01*
X102225633Y-81188182D01*
X102208096Y-81270961D01*
X102330085Y-81493000D01*
X103873000Y-81493000D01*
X103873000Y-81473000D01*
X104127000Y-81473000D01*
X104127000Y-81493000D01*
X105669915Y-81493000D01*
X105791904Y-81270961D01*
X105774367Y-81188182D01*
X105663715Y-80928354D01*
X105504500Y-80695105D01*
X105302839Y-80497399D01*
X105073259Y-80347265D01*
X105201101Y-80278932D01*
X105419608Y-80099608D01*
X105598932Y-79881101D01*
X105732182Y-79631808D01*
X105814236Y-79361309D01*
X105841943Y-79080000D01*
X105814236Y-78798691D01*
X105732182Y-78528192D01*
X105598932Y-78278899D01*
X105419608Y-78060392D01*
X105201101Y-77881068D01*
X105068142Y-77810000D01*
X105201101Y-77738932D01*
X105405986Y-77570787D01*
X106070200Y-78235002D01*
X106093999Y-78264001D01*
X106209724Y-78358974D01*
X106341753Y-78429546D01*
X106485014Y-78473003D01*
X106596667Y-78484000D01*
X106596677Y-78484000D01*
X106634000Y-78487676D01*
X106671323Y-78484000D01*
X109698234Y-78484000D01*
X109676987Y-78501437D01*
X109629999Y-78539999D01*
X109606201Y-78568997D01*
X107439003Y-80736196D01*
X107409999Y-80759999D01*
X107356346Y-80825376D01*
X107315026Y-80875724D01*
X107261173Y-80976476D01*
X107244454Y-81007754D01*
X107200997Y-81151015D01*
X107190000Y-81262668D01*
X107190000Y-81262678D01*
X107186324Y-81300000D01*
X107190000Y-81337322D01*
X107190000Y-89715199D01*
X105838072Y-88363271D01*
X105838072Y-87200000D01*
X105825812Y-87075518D01*
X105789502Y-86955820D01*
X105730537Y-86845506D01*
X105651185Y-86748815D01*
X105554494Y-86669463D01*
X105444180Y-86610498D01*
X105324482Y-86574188D01*
X105200000Y-86561928D01*
X102800000Y-86561928D01*
X102675518Y-86574188D01*
X102555820Y-86610498D01*
X102445506Y-86669463D01*
X102348815Y-86748815D01*
X102269463Y-86845506D01*
X102210498Y-86955820D01*
X102174188Y-87075518D01*
X102161928Y-87200000D01*
X102161928Y-88800000D01*
X102174188Y-88924482D01*
X102210498Y-89044180D01*
X102269463Y-89154494D01*
X102348815Y-89251185D01*
X102445506Y-89330537D01*
X102555820Y-89389502D01*
X102675518Y-89425812D01*
X102693482Y-89427581D01*
X102580392Y-89520392D01*
X102401068Y-89738899D01*
X102267818Y-89988192D01*
X102185764Y-90258691D01*
X102158057Y-90540000D01*
X102185764Y-90821309D01*
X102267818Y-91091808D01*
X102401068Y-91341101D01*
X102580392Y-91559608D01*
X102798899Y-91738932D01*
X102931858Y-91810000D01*
X102798899Y-91881068D01*
X102580392Y-92060392D01*
X102401068Y-92278899D01*
X102267818Y-92528192D01*
X102185764Y-92798691D01*
X102158057Y-93080000D01*
X102185764Y-93361309D01*
X102267818Y-93631808D01*
X102401068Y-93881101D01*
X102580392Y-94099608D01*
X102798899Y-94278932D01*
X102931858Y-94350000D01*
X102798899Y-94421068D01*
X102580392Y-94600392D01*
X102401068Y-94818899D01*
X102267818Y-95068192D01*
X102185764Y-95338691D01*
X102158057Y-95620000D01*
X102185764Y-95901309D01*
X102267818Y-96171808D01*
X102401068Y-96421101D01*
X102580392Y-96639608D01*
X102798899Y-96818932D01*
X102931858Y-96890000D01*
X102798899Y-96961068D01*
X102580392Y-97140392D01*
X102401068Y-97358899D01*
X102267818Y-97608192D01*
X102185764Y-97878691D01*
X102158057Y-98160000D01*
X102185764Y-98441309D01*
X102267818Y-98711808D01*
X102401068Y-98961101D01*
X102580392Y-99179608D01*
X102798899Y-99358932D01*
X102931858Y-99430000D01*
X102798899Y-99501068D01*
X102580392Y-99680392D01*
X102401068Y-99898899D01*
X102267818Y-100148192D01*
X102185764Y-100418691D01*
X102158057Y-100700000D01*
X102185764Y-100981309D01*
X102267818Y-101251808D01*
X102401068Y-101501101D01*
X102580392Y-101719608D01*
X102798899Y-101898932D01*
X102931858Y-101970000D01*
X102798899Y-102041068D01*
X102580392Y-102220392D01*
X102401068Y-102438899D01*
X102267818Y-102688192D01*
X102185764Y-102958691D01*
X102158057Y-103240000D01*
X102185764Y-103521309D01*
X102267818Y-103791808D01*
X102401068Y-104041101D01*
X102580392Y-104259608D01*
X102798899Y-104438932D01*
X102926741Y-104507265D01*
X102697161Y-104657399D01*
X102495500Y-104855105D01*
X102336285Y-105088354D01*
X102225633Y-105348182D01*
X102208096Y-105430961D01*
X102330085Y-105653000D01*
X103873000Y-105653000D01*
X103873000Y-105633000D01*
X104127000Y-105633000D01*
X104127000Y-105653000D01*
X105669915Y-105653000D01*
X105791904Y-105430961D01*
X105774367Y-105348182D01*
X105663715Y-105088354D01*
X105504500Y-104855105D01*
X105302839Y-104657399D01*
X105073259Y-104507265D01*
X105201101Y-104438932D01*
X105419608Y-104259608D01*
X105598932Y-104041101D01*
X105723990Y-103807134D01*
X105723990Y-103906668D01*
X105720314Y-103943990D01*
X105723990Y-103981312D01*
X105723990Y-103981322D01*
X105734987Y-104092975D01*
X105774557Y-104223423D01*
X105778444Y-104236236D01*
X105849016Y-104368266D01*
X105883390Y-104410150D01*
X105943989Y-104483991D01*
X105972993Y-104507794D01*
X110318220Y-108853022D01*
X110326142Y-108862675D01*
X110060638Y-108774535D01*
X108198824Y-108542148D01*
X106327447Y-108677449D01*
X104518424Y-109175237D01*
X102841275Y-110016384D01*
X102427497Y-110292862D01*
X101384881Y-111365276D01*
X85390454Y-111365276D01*
X85435000Y-111141335D01*
X85435000Y-110858665D01*
X85379853Y-110581426D01*
X85271680Y-110320273D01*
X85114637Y-110085241D01*
X84914759Y-109885363D01*
X84679727Y-109728320D01*
X84418574Y-109620147D01*
X84141335Y-109565000D01*
X83858665Y-109565000D01*
X83581426Y-109620147D01*
X83320273Y-109728320D01*
X83085241Y-109885363D01*
X82885363Y-110085241D01*
X82728320Y-110320273D01*
X82620147Y-110581426D01*
X82565000Y-110858665D01*
X72735319Y-110858665D01*
X70023480Y-106260329D01*
X70022623Y-106258498D01*
X69988914Y-106186119D01*
X69962457Y-106129039D01*
X102208096Y-106129039D01*
X102225633Y-106211818D01*
X102336285Y-106471646D01*
X102495500Y-106704895D01*
X102697161Y-106902601D01*
X102933517Y-107057166D01*
X103195486Y-107162650D01*
X103473000Y-107215000D01*
X103873000Y-107215000D01*
X103873000Y-105907000D01*
X104127000Y-105907000D01*
X104127000Y-107215000D01*
X104527000Y-107215000D01*
X104804514Y-107162650D01*
X105066483Y-107057166D01*
X105302839Y-106902601D01*
X105504500Y-106704895D01*
X105663715Y-106471646D01*
X105774367Y-106211818D01*
X105791904Y-106129039D01*
X105669915Y-105907000D01*
X104127000Y-105907000D01*
X103873000Y-105907000D01*
X102330085Y-105907000D01*
X102208096Y-106129039D01*
X69962457Y-106129039D01*
X69958688Y-106120908D01*
X69931757Y-106062556D01*
X69905115Y-106004599D01*
X69875340Y-105939547D01*
X69842348Y-105867126D01*
X69812849Y-105802058D01*
X69783043Y-105736012D01*
X69750640Y-105663871D01*
X69714761Y-105583552D01*
X69672850Y-105489153D01*
X69640524Y-105415910D01*
X69614749Y-105357241D01*
X69589556Y-105299657D01*
X69563847Y-105240651D01*
X69535299Y-105174832D01*
X69510064Y-105116400D01*
X69481540Y-105050048D01*
X69456468Y-104991466D01*
X69425528Y-104918832D01*
X69400468Y-104859720D01*
X69369713Y-104786829D01*
X69338626Y-104712761D01*
X69314044Y-104653908D01*
X69286588Y-104587867D01*
X69262113Y-104528736D01*
X69231742Y-104454992D01*
X69204641Y-104388851D01*
X69174523Y-104314971D01*
X69138564Y-104226229D01*
X69108978Y-104152769D01*
X69085179Y-104093384D01*
X69049709Y-104004393D01*
X69014572Y-103915645D01*
X68985293Y-103841237D01*
X68975333Y-103815795D01*
X89742262Y-103815795D01*
X89769969Y-104097104D01*
X89852023Y-104367603D01*
X89985273Y-104616896D01*
X90164597Y-104835403D01*
X90383104Y-105014727D01*
X90632397Y-105147977D01*
X90902896Y-105230031D01*
X91113713Y-105250795D01*
X91254697Y-105250795D01*
X91465514Y-105230031D01*
X91736013Y-105147977D01*
X91985306Y-105014727D01*
X92203813Y-104835403D01*
X92383137Y-104616896D01*
X92516387Y-104367603D01*
X92598441Y-104097104D01*
X92626148Y-103815795D01*
X92598441Y-103534486D01*
X92516387Y-103263987D01*
X92383137Y-103014694D01*
X92203813Y-102796187D01*
X91985306Y-102616863D01*
X91736013Y-102483613D01*
X91465514Y-102401559D01*
X91254697Y-102380795D01*
X91113713Y-102380795D01*
X90902896Y-102401559D01*
X90632397Y-102483613D01*
X90383104Y-102616863D01*
X90164597Y-102796187D01*
X89985273Y-103014694D01*
X89852023Y-103263987D01*
X89769969Y-103534486D01*
X89742262Y-103815795D01*
X68975333Y-103815795D01*
X68961999Y-103781740D01*
X68937267Y-103718274D01*
X68910174Y-103648396D01*
X68884245Y-103581178D01*
X68861266Y-103521309D01*
X68832976Y-103447228D01*
X68807515Y-103380191D01*
X68782114Y-103312963D01*
X68759622Y-103253148D01*
X68726280Y-103163956D01*
X68698230Y-103088434D01*
X68673548Y-103021611D01*
X68648830Y-102954340D01*
X68624114Y-102886722D01*
X68594286Y-102804623D01*
X68572608Y-102744623D01*
X68546906Y-102673099D01*
X68521389Y-102601698D01*
X68489407Y-102511619D01*
X68465491Y-102443828D01*
X68444475Y-102383954D01*
X68423482Y-102323849D01*
X68402456Y-102263347D01*
X68381704Y-102203345D01*
X68358190Y-102135000D01*
X68331119Y-102055828D01*
X68298979Y-101961164D01*
X68278566Y-101900651D01*
X68278348Y-101900000D01*
X69461928Y-101900000D01*
X69474188Y-102024482D01*
X69510498Y-102144180D01*
X69569463Y-102254494D01*
X69648815Y-102351185D01*
X69745506Y-102430537D01*
X69855820Y-102489502D01*
X69975518Y-102525812D01*
X70100000Y-102538072D01*
X70714250Y-102535000D01*
X70873000Y-102376250D01*
X70873000Y-101127000D01*
X69623750Y-101127000D01*
X69465000Y-101285750D01*
X69461928Y-101900000D01*
X68278348Y-101900000D01*
X68258598Y-101841157D01*
X68238143Y-101779902D01*
X68218184Y-101719825D01*
X68195567Y-101651387D01*
X68173163Y-101583194D01*
X68150925Y-101515117D01*
X68131010Y-101453811D01*
X68111615Y-101393798D01*
X68082251Y-101302342D01*
X68058207Y-101226905D01*
X68038619Y-101165087D01*
X68019573Y-101104659D01*
X67998222Y-101036533D01*
X67978974Y-100974763D01*
X67960219Y-100914251D01*
X67925071Y-100799967D01*
X67901744Y-100723465D01*
X67883166Y-100662169D01*
X67862633Y-100594022D01*
X67844233Y-100532589D01*
X67823667Y-100463529D01*
X67805549Y-100402316D01*
X67785317Y-100333558D01*
X67767406Y-100272316D01*
X67749714Y-100211477D01*
X67729600Y-100141894D01*
X67717573Y-100100000D01*
X69461928Y-100100000D01*
X69465000Y-100714250D01*
X69623750Y-100873000D01*
X70873000Y-100873000D01*
X70873000Y-99623750D01*
X71127000Y-99623750D01*
X71127000Y-100873000D01*
X71147000Y-100873000D01*
X71147000Y-101127000D01*
X71127000Y-101127000D01*
X71127000Y-102376250D01*
X71285750Y-102535000D01*
X71900000Y-102538072D01*
X72024482Y-102525812D01*
X72144180Y-102489502D01*
X72254494Y-102430537D01*
X72351185Y-102351185D01*
X72430537Y-102254494D01*
X72489502Y-102144180D01*
X72495056Y-102125873D01*
X72561495Y-102192312D01*
X72812905Y-102360299D01*
X73092257Y-102476011D01*
X73388816Y-102535000D01*
X73691184Y-102535000D01*
X73987743Y-102476011D01*
X74267095Y-102360299D01*
X74518505Y-102192312D01*
X74732312Y-101978505D01*
X74900299Y-101727095D01*
X75016011Y-101447743D01*
X75075000Y-101151184D01*
X75075000Y-100848816D01*
X75016011Y-100552257D01*
X74900299Y-100272905D01*
X74732312Y-100021495D01*
X74518505Y-99807688D01*
X74267095Y-99639701D01*
X73987743Y-99523989D01*
X73691184Y-99465000D01*
X73388816Y-99465000D01*
X73092257Y-99523989D01*
X72812905Y-99639701D01*
X72561495Y-99807688D01*
X72495056Y-99874127D01*
X72489502Y-99855820D01*
X72430537Y-99745506D01*
X72351185Y-99648815D01*
X72254494Y-99569463D01*
X72144180Y-99510498D01*
X72024482Y-99474188D01*
X71900000Y-99461928D01*
X71285750Y-99465000D01*
X71127000Y-99623750D01*
X70873000Y-99623750D01*
X70714250Y-99465000D01*
X70100000Y-99461928D01*
X69975518Y-99474188D01*
X69855820Y-99510498D01*
X69745506Y-99569463D01*
X69648815Y-99648815D01*
X69569463Y-99745506D01*
X69510498Y-99855820D01*
X69474188Y-99975518D01*
X69461928Y-100100000D01*
X67717573Y-100100000D01*
X67707398Y-100064559D01*
X67690058Y-100003765D01*
X67672749Y-99942725D01*
X67648794Y-99857671D01*
X67629456Y-99788501D01*
X67605976Y-99703892D01*
X67582596Y-99618946D01*
X67563764Y-99550015D01*
X67542820Y-99472800D01*
X67524128Y-99403395D01*
X67505537Y-99333889D01*
X67485052Y-99256729D01*
X67466773Y-99187385D01*
X67444466Y-99102093D01*
X67422430Y-99017104D01*
X67404502Y-98947418D01*
X67386711Y-98877760D01*
X67359336Y-98769593D01*
X67334003Y-98668401D01*
X67316610Y-98598301D01*
X67295763Y-98513577D01*
X67274934Y-98428168D01*
X67254252Y-98342569D01*
X67237528Y-98272772D01*
X67198736Y-98108798D01*
X67182411Y-98038898D01*
X67164380Y-97961047D01*
X67142984Y-97867783D01*
X67118145Y-97758259D01*
X67100609Y-97680113D01*
X67081631Y-97594737D01*
X67066054Y-97524025D01*
X67050698Y-97453732D01*
X67030483Y-97360297D01*
X67012040Y-97274148D01*
X66996999Y-97203217D01*
X66980632Y-97125339D01*
X66965904Y-97054621D01*
X66949727Y-96976227D01*
X66932108Y-96889976D01*
X66914638Y-96803529D01*
X66900479Y-96732762D01*
X66884956Y-96654441D01*
X66869502Y-96575673D01*
X66855796Y-96505139D01*
X66842189Y-96434473D01*
X66828525Y-96362835D01*
X66815308Y-96292887D01*
X66800542Y-96213958D01*
X66787361Y-96142777D01*
X66772887Y-96063814D01*
X66757188Y-95977183D01*
X66740192Y-95882201D01*
X66720787Y-95772174D01*
X66708380Y-95700916D01*
X66694780Y-95621950D01*
X66682661Y-95550811D01*
X66670654Y-95479582D01*
X66658810Y-95408584D01*
X66646943Y-95336675D01*
X66635479Y-95266452D01*
X66623823Y-95194262D01*
X66611302Y-95115810D01*
X66588821Y-94972491D01*
X66577863Y-94901427D01*
X66571354Y-94858665D01*
X79565000Y-94858665D01*
X79565000Y-95141335D01*
X79620147Y-95418574D01*
X79728320Y-95679727D01*
X79885363Y-95914759D01*
X80085241Y-96114637D01*
X80320273Y-96271680D01*
X80581426Y-96379853D01*
X80858665Y-96435000D01*
X81141335Y-96435000D01*
X81418574Y-96379853D01*
X81679727Y-96271680D01*
X81914759Y-96114637D01*
X82114637Y-95914759D01*
X82271680Y-95679727D01*
X82379853Y-95418574D01*
X82435000Y-95141335D01*
X82435000Y-95000000D01*
X89718057Y-95000000D01*
X89745764Y-95281309D01*
X89827818Y-95551808D01*
X89961068Y-95801101D01*
X90140392Y-96019608D01*
X90358899Y-96198932D01*
X90608192Y-96332182D01*
X90878691Y-96414236D01*
X91089508Y-96435000D01*
X91230492Y-96435000D01*
X91441309Y-96414236D01*
X91711808Y-96332182D01*
X91961101Y-96198932D01*
X92179608Y-96019608D01*
X92358932Y-95801101D01*
X92492182Y-95551808D01*
X92574236Y-95281309D01*
X92601943Y-95000000D01*
X92574236Y-94718691D01*
X92492182Y-94448192D01*
X92358932Y-94198899D01*
X92179608Y-93980392D01*
X91961101Y-93801068D01*
X91711808Y-93667818D01*
X91441309Y-93585764D01*
X91230492Y-93565000D01*
X91089508Y-93565000D01*
X90878691Y-93585764D01*
X90608192Y-93667818D01*
X90358899Y-93801068D01*
X90140392Y-93980392D01*
X89961068Y-94198899D01*
X89827818Y-94448192D01*
X89745764Y-94718691D01*
X89718057Y-95000000D01*
X82435000Y-95000000D01*
X82435000Y-94858665D01*
X82379853Y-94581426D01*
X82271680Y-94320273D01*
X82114637Y-94085241D01*
X81914759Y-93885363D01*
X81679727Y-93728320D01*
X81418574Y-93620147D01*
X81141335Y-93565000D01*
X80858665Y-93565000D01*
X80581426Y-93620147D01*
X80320273Y-93728320D01*
X80085241Y-93885363D01*
X79885363Y-94085241D01*
X79728320Y-94320273D01*
X79620147Y-94581426D01*
X79565000Y-94858665D01*
X66571354Y-94858665D01*
X66564576Y-94814144D01*
X66553747Y-94742077D01*
X66543229Y-94671257D01*
X66531551Y-94591623D01*
X66520076Y-94512313D01*
X66509819Y-94440491D01*
X66498642Y-94361200D01*
X66487559Y-94281466D01*
X66477787Y-94210209D01*
X66467970Y-94137689D01*
X66458393Y-94066002D01*
X66447969Y-93986890D01*
X66437662Y-93907476D01*
X66421366Y-93779419D01*
X66410459Y-93691900D01*
X66400643Y-93611828D01*
X66392036Y-93540528D01*
X66383367Y-93467655D01*
X66374988Y-93396169D01*
X66363950Y-93300306D01*
X66354941Y-93220597D01*
X66345122Y-93132108D01*
X66337351Y-93060826D01*
X66328713Y-92980226D01*
X66321124Y-92908166D01*
X66310383Y-92804064D01*
X66302300Y-92723973D01*
X66295196Y-92652288D01*
X66288130Y-92579708D01*
X66281248Y-92507709D01*
X66274441Y-92435158D01*
X66267066Y-92355022D01*
X66259850Y-92274873D01*
X66252777Y-92194594D01*
X66245855Y-92114267D01*
X66239068Y-92033678D01*
X66230495Y-91929108D01*
X66224113Y-91849118D01*
X66217239Y-91760664D01*
X66208133Y-91639563D01*
X66201116Y-91542878D01*
X66195412Y-91461923D01*
X66189951Y-91382185D01*
X66184588Y-91301617D01*
X66179362Y-91220756D01*
X66174328Y-91140448D01*
X66168921Y-91051305D01*
X66164188Y-90970578D01*
X66159617Y-90889905D01*
X66155216Y-90809531D01*
X66150951Y-90728695D01*
X66146055Y-90632053D01*
X66142121Y-90551031D01*
X66138347Y-90470084D01*
X66134740Y-90389326D01*
X66130616Y-90292388D01*
X66127347Y-90211468D01*
X66123332Y-90106256D01*
X66120427Y-90025476D01*
X66117675Y-89944565D01*
X66114813Y-89855024D01*
X66111940Y-89758451D01*
X66109693Y-89677089D01*
X66107616Y-89596122D01*
X66105513Y-89507240D01*
X66103586Y-89417698D01*
X66102008Y-89336666D01*
X66100456Y-89247752D01*
X66099086Y-89158310D01*
X66098011Y-89077167D01*
X66096926Y-88979905D01*
X66096191Y-88898342D01*
X66095619Y-88817286D01*
X66095201Y-88736054D01*
X66094944Y-88655031D01*
X66094843Y-88561806D01*
X66095061Y-88469331D01*
X66095530Y-88368801D01*
X66096358Y-88253770D01*
X66097331Y-88153968D01*
X66099353Y-87996081D01*
X66101692Y-87853072D01*
X66105142Y-87681317D01*
X66108184Y-87552606D01*
X66112009Y-87410273D01*
X66117730Y-87224245D01*
X66122148Y-87096135D01*
X66126403Y-86982257D01*
X66132160Y-86839824D01*
X66137107Y-86726026D01*
X66142357Y-86612309D01*
X66147213Y-86512613D01*
X66153015Y-86399416D01*
X66163136Y-86214799D01*
X66178498Y-85959063D01*
X66184973Y-85858665D01*
X79565000Y-85858665D01*
X79565000Y-86141335D01*
X79620147Y-86418574D01*
X79728320Y-86679727D01*
X79885363Y-86914759D01*
X80085241Y-87114637D01*
X80320273Y-87271680D01*
X80581426Y-87379853D01*
X80858665Y-87435000D01*
X81141335Y-87435000D01*
X81418574Y-87379853D01*
X81679727Y-87271680D01*
X81914759Y-87114637D01*
X82114637Y-86914759D01*
X82271680Y-86679727D01*
X82379853Y-86418574D01*
X82435000Y-86141335D01*
X82435000Y-86000000D01*
X89718057Y-86000000D01*
X89745764Y-86281309D01*
X89827818Y-86551808D01*
X89961068Y-86801101D01*
X90140392Y-87019608D01*
X90358899Y-87198932D01*
X90608192Y-87332182D01*
X90878691Y-87414236D01*
X91089508Y-87435000D01*
X91230492Y-87435000D01*
X91441309Y-87414236D01*
X91711808Y-87332182D01*
X91961101Y-87198932D01*
X92179608Y-87019608D01*
X92358932Y-86801101D01*
X92492182Y-86551808D01*
X92574236Y-86281309D01*
X92601943Y-86000000D01*
X92574236Y-85718691D01*
X92492182Y-85448192D01*
X92358932Y-85198899D01*
X92179608Y-84980392D01*
X91961101Y-84801068D01*
X91711808Y-84667818D01*
X91441309Y-84585764D01*
X91230492Y-84565000D01*
X91089508Y-84565000D01*
X90878691Y-84585764D01*
X90608192Y-84667818D01*
X90358899Y-84801068D01*
X90140392Y-84980392D01*
X89961068Y-85198899D01*
X89827818Y-85448192D01*
X89745764Y-85718691D01*
X89718057Y-86000000D01*
X82435000Y-86000000D01*
X82435000Y-85858665D01*
X82379853Y-85581426D01*
X82271680Y-85320273D01*
X82114637Y-85085241D01*
X81914759Y-84885363D01*
X81679727Y-84728320D01*
X81418574Y-84620147D01*
X81141335Y-84565000D01*
X80858665Y-84565000D01*
X80581426Y-84620147D01*
X80320273Y-84728320D01*
X80085241Y-84885363D01*
X79885363Y-85085241D01*
X79728320Y-85320273D01*
X79620147Y-85581426D01*
X79565000Y-85858665D01*
X66184973Y-85858665D01*
X66185794Y-85845946D01*
X66194347Y-85718985D01*
X66207459Y-85534551D01*
X66216913Y-85408235D01*
X66231391Y-85223949D01*
X66241794Y-85097561D01*
X66251433Y-84984422D01*
X66258776Y-84900574D01*
X66272819Y-84745324D01*
X66288714Y-84576898D01*
X66308154Y-84380093D01*
X66325552Y-84211540D01*
X66339049Y-84085155D01*
X66348188Y-84001587D01*
X66362280Y-83875636D01*
X66371843Y-83792104D01*
X66393241Y-83610294D01*
X66422444Y-83372516D01*
X66447511Y-83176863D01*
X66456478Y-83108609D01*
X66482770Y-82913287D01*
X66519904Y-82648521D01*
X66533801Y-82552489D01*
X66560597Y-82371603D01*
X66575303Y-82274578D01*
X66585804Y-82206234D01*
X66611931Y-82039344D01*
X66623167Y-81969039D01*
X102208096Y-81969039D01*
X102225633Y-82051818D01*
X102336285Y-82311646D01*
X102495500Y-82544895D01*
X102697161Y-82742601D01*
X102933517Y-82897166D01*
X103195486Y-83002650D01*
X103473000Y-83055000D01*
X103873000Y-83055000D01*
X103873000Y-81747000D01*
X104127000Y-81747000D01*
X104127000Y-83055000D01*
X104527000Y-83055000D01*
X104804514Y-83002650D01*
X105066483Y-82897166D01*
X105302839Y-82742601D01*
X105504500Y-82544895D01*
X105663715Y-82311646D01*
X105774367Y-82051818D01*
X105791904Y-81969039D01*
X105669915Y-81747000D01*
X104127000Y-81747000D01*
X103873000Y-81747000D01*
X102330085Y-81747000D01*
X102208096Y-81969039D01*
X66623167Y-81969039D01*
X66627299Y-81943190D01*
X66642867Y-81847223D01*
X66691492Y-81556132D01*
X66705555Y-81474235D01*
X66717240Y-81406920D01*
X66789220Y-81005816D01*
X66804213Y-80925006D01*
X66822259Y-80828892D01*
X66839771Y-80736812D01*
X67010536Y-79900000D01*
X69461928Y-79900000D01*
X69474188Y-80024482D01*
X69510498Y-80144180D01*
X69569463Y-80254494D01*
X69648815Y-80351185D01*
X69745506Y-80430537D01*
X69855820Y-80489502D01*
X69975518Y-80525812D01*
X70100000Y-80538072D01*
X70714250Y-80535000D01*
X70873000Y-80376250D01*
X70873000Y-79127000D01*
X69623750Y-79127000D01*
X69465000Y-79285750D01*
X69461928Y-79900000D01*
X67010536Y-79900000D01*
X67044347Y-79734316D01*
X67070143Y-79616194D01*
X67124806Y-79371160D01*
X67146309Y-79276628D01*
X67161733Y-79209443D01*
X67183478Y-79115577D01*
X67254197Y-78816891D01*
X67270192Y-78750679D01*
X67303027Y-78616191D01*
X67356750Y-78400225D01*
X67373282Y-78334747D01*
X67433667Y-78100000D01*
X69461928Y-78100000D01*
X69465000Y-78714250D01*
X69623750Y-78873000D01*
X70873000Y-78873000D01*
X70873000Y-77623750D01*
X71127000Y-77623750D01*
X71127000Y-78873000D01*
X71147000Y-78873000D01*
X71147000Y-79127000D01*
X71127000Y-79127000D01*
X71127000Y-80376250D01*
X71285750Y-80535000D01*
X71900000Y-80538072D01*
X72024482Y-80525812D01*
X72144180Y-80489502D01*
X72254494Y-80430537D01*
X72351185Y-80351185D01*
X72430537Y-80254494D01*
X72489502Y-80144180D01*
X72495056Y-80125873D01*
X72561495Y-80192312D01*
X72812905Y-80360299D01*
X73092257Y-80476011D01*
X73388816Y-80535000D01*
X73691184Y-80535000D01*
X73987743Y-80476011D01*
X74267095Y-80360299D01*
X74518505Y-80192312D01*
X74732312Y-79978505D01*
X74900299Y-79727095D01*
X75016011Y-79447743D01*
X75075000Y-79151184D01*
X75075000Y-78848816D01*
X75016011Y-78552257D01*
X74900299Y-78272905D01*
X74732312Y-78021495D01*
X74518505Y-77807688D01*
X74267095Y-77639701D01*
X73987743Y-77523989D01*
X73691184Y-77465000D01*
X73388816Y-77465000D01*
X73092257Y-77523989D01*
X72812905Y-77639701D01*
X72561495Y-77807688D01*
X72495056Y-77874127D01*
X72489502Y-77855820D01*
X72430537Y-77745506D01*
X72351185Y-77648815D01*
X72254494Y-77569463D01*
X72144180Y-77510498D01*
X72024482Y-77474188D01*
X71900000Y-77461928D01*
X71285750Y-77465000D01*
X71127000Y-77623750D01*
X70873000Y-77623750D01*
X70714250Y-77465000D01*
X70100000Y-77461928D01*
X69975518Y-77474188D01*
X69855820Y-77510498D01*
X69745506Y-77569463D01*
X69648815Y-77648815D01*
X69569463Y-77745506D01*
X69510498Y-77855820D01*
X69474188Y-77975518D01*
X69461928Y-78100000D01*
X67433667Y-78100000D01*
X67449664Y-78037814D01*
X67466760Y-77972571D01*
X67523722Y-77758229D01*
X67589163Y-77517473D01*
X67611001Y-77438374D01*
X67655559Y-77278838D01*
X67716070Y-77066008D01*
X67754425Y-76933282D01*
X67773594Y-76867560D01*
X67816468Y-76722000D01*
X67875863Y-76523509D01*
X67923966Y-76365334D01*
X67956384Y-76259989D01*
X67979911Y-76184205D01*
X89742262Y-76184205D01*
X89769969Y-76465514D01*
X89852023Y-76736013D01*
X89985273Y-76985306D01*
X90164597Y-77203813D01*
X90383104Y-77383137D01*
X90632397Y-77516387D01*
X90902896Y-77598441D01*
X91113713Y-77619205D01*
X91254697Y-77619205D01*
X91465514Y-77598441D01*
X91736013Y-77516387D01*
X91985306Y-77383137D01*
X92203813Y-77203813D01*
X92383137Y-76985306D01*
X92516387Y-76736013D01*
X92598441Y-76465514D01*
X92626148Y-76184205D01*
X92598441Y-75902896D01*
X92516387Y-75632397D01*
X92383137Y-75383104D01*
X92203813Y-75164597D01*
X91985306Y-74985273D01*
X91736013Y-74852023D01*
X91465514Y-74769969D01*
X91254697Y-74749205D01*
X91113713Y-74749205D01*
X90902896Y-74769969D01*
X90632397Y-74852023D01*
X90383104Y-74985273D01*
X90164597Y-75164597D01*
X89985273Y-75383104D01*
X89852023Y-75632397D01*
X89769969Y-75902896D01*
X89742262Y-76184205D01*
X67979911Y-76184205D01*
X67984907Y-76168114D01*
X68017734Y-76063284D01*
X68059407Y-75931584D01*
X68101285Y-75800744D01*
X68152384Y-75643072D01*
X68177783Y-75565491D01*
X68229713Y-75408442D01*
X68277753Y-75264983D01*
X68321832Y-75134857D01*
X68361916Y-75017728D01*
X68397761Y-74913939D01*
X68438394Y-74797341D01*
X68474901Y-74693531D01*
X68506969Y-74603046D01*
X68543854Y-74499791D01*
X68585825Y-74383320D01*
X68623297Y-74280242D01*
X68656315Y-74190108D01*
X68694324Y-74087135D01*
X68732579Y-73984332D01*
X68756445Y-73920613D01*
X68795424Y-73817218D01*
X68829318Y-73727982D01*
X68868692Y-73625074D01*
X68893096Y-73561702D01*
X68932963Y-73458832D01*
X68962609Y-73382856D01*
X69002674Y-73280866D01*
X69058278Y-73140607D01*
X69093912Y-73051487D01*
X69129375Y-72963390D01*
X69217509Y-72746901D01*
X69274888Y-72607793D01*
X69316637Y-72507466D01*
X69369808Y-72380743D01*
X69401540Y-72305668D01*
X69455199Y-72179639D01*
X69487606Y-72104074D01*
X69525435Y-72016383D01*
X69552408Y-71954191D01*
X69612890Y-71815733D01*
X69662328Y-71703558D01*
X69701203Y-71615975D01*
X69728820Y-71554083D01*
X69779382Y-71441461D01*
X69812969Y-71367140D01*
X69831417Y-71326510D01*
X71343967Y-68858665D01*
X82565000Y-68858665D01*
X82565000Y-69141335D01*
X82620147Y-69418574D01*
X82728320Y-69679727D01*
X82885363Y-69914759D01*
X83085241Y-70114637D01*
X83320273Y-70271680D01*
X83581426Y-70379853D01*
X83858665Y-70435000D01*
X84141335Y-70435000D01*
X84418574Y-70379853D01*
X84679727Y-70271680D01*
X84914759Y-70114637D01*
X85114637Y-69914759D01*
X85271680Y-69679727D01*
X85379853Y-69418574D01*
X85431287Y-69160000D01*
X106558057Y-69160000D01*
X106585764Y-69441309D01*
X106667818Y-69711808D01*
X106801068Y-69961101D01*
X106980392Y-70179608D01*
X107198899Y-70358932D01*
X107448192Y-70492182D01*
X107718691Y-70574236D01*
X107929508Y-70595000D01*
X108070492Y-70595000D01*
X108281309Y-70574236D01*
X108551808Y-70492182D01*
X108801101Y-70358932D01*
X109019608Y-70179608D01*
X109198932Y-69961101D01*
X109332182Y-69711808D01*
X109414236Y-69441309D01*
X109441943Y-69160000D01*
X109414236Y-68878691D01*
X109408162Y-68858665D01*
X128565000Y-68858665D01*
X128565000Y-69141335D01*
X128620147Y-69418574D01*
X128728320Y-69679727D01*
X128885363Y-69914759D01*
X129085241Y-70114637D01*
X129320273Y-70271680D01*
X129581426Y-70379853D01*
X129858665Y-70435000D01*
X130141335Y-70435000D01*
X130418574Y-70379853D01*
X130679727Y-70271680D01*
X130914759Y-70114637D01*
X131114637Y-69914759D01*
X131271680Y-69679727D01*
X131379853Y-69418574D01*
X131435000Y-69141335D01*
X131435000Y-68858665D01*
X131379853Y-68581426D01*
X131271680Y-68320273D01*
X131114637Y-68085241D01*
X130914759Y-67885363D01*
X130679727Y-67728320D01*
X130418574Y-67620147D01*
X130141335Y-67565000D01*
X129858665Y-67565000D01*
X129581426Y-67620147D01*
X129320273Y-67728320D01*
X129085241Y-67885363D01*
X128885363Y-68085241D01*
X128728320Y-68320273D01*
X128620147Y-68581426D01*
X128565000Y-68858665D01*
X109408162Y-68858665D01*
X109332182Y-68608192D01*
X109198932Y-68358899D01*
X109019608Y-68140392D01*
X108801101Y-67961068D01*
X108551808Y-67827818D01*
X108281309Y-67745764D01*
X108070492Y-67725000D01*
X107929508Y-67725000D01*
X107718691Y-67745764D01*
X107448192Y-67827818D01*
X107198899Y-67961068D01*
X106980392Y-68140392D01*
X106801068Y-68358899D01*
X106667818Y-68608192D01*
X106585764Y-68878691D01*
X106558057Y-69160000D01*
X85431287Y-69160000D01*
X85435000Y-69141335D01*
X85435000Y-68858665D01*
X85379853Y-68581426D01*
X85271680Y-68320273D01*
X85114637Y-68085241D01*
X84914759Y-67885363D01*
X84679727Y-67728320D01*
X84418574Y-67620147D01*
X84141335Y-67565000D01*
X83858665Y-67565000D01*
X83581426Y-67620147D01*
X83320273Y-67728320D01*
X83085241Y-67885363D01*
X82885363Y-68085241D01*
X82728320Y-68320273D01*
X82620147Y-68581426D01*
X82565000Y-68858665D01*
X71343967Y-68858665D01*
X72623685Y-66770702D01*
X91580903Y-66770702D01*
X91652486Y-67014671D01*
X91907996Y-67135571D01*
X92182184Y-67204300D01*
X92464512Y-67218217D01*
X92744130Y-67176787D01*
X93010292Y-67081603D01*
X93135514Y-67014671D01*
X93207097Y-66770702D01*
X92394000Y-65957605D01*
X91580903Y-66770702D01*
X72623685Y-66770702D01*
X73188899Y-65848512D01*
X90953783Y-65848512D01*
X90995213Y-66128130D01*
X91090397Y-66394292D01*
X91157329Y-66519514D01*
X91401298Y-66591097D01*
X92214395Y-65778000D01*
X92573605Y-65778000D01*
X93386702Y-66591097D01*
X93630671Y-66519514D01*
X93751571Y-66264004D01*
X93820300Y-65989816D01*
X93834217Y-65707488D01*
X93792787Y-65427870D01*
X93697603Y-65161708D01*
X93630671Y-65036486D01*
X93386702Y-64964903D01*
X92573605Y-65778000D01*
X92214395Y-65778000D01*
X91401298Y-64964903D01*
X91157329Y-65036486D01*
X91036429Y-65291996D01*
X90967700Y-65566184D01*
X90953783Y-65848512D01*
X73188899Y-65848512D01*
X73840546Y-64785298D01*
X91580903Y-64785298D01*
X92394000Y-65598395D01*
X93207097Y-64785298D01*
X93135514Y-64541329D01*
X92880004Y-64420429D01*
X92605816Y-64351700D01*
X92323488Y-64337783D01*
X92043870Y-64379213D01*
X91777708Y-64474397D01*
X91652486Y-64541329D01*
X91580903Y-64785298D01*
X73840546Y-64785298D01*
X74270659Y-64083537D01*
X77931253Y-59900000D01*
X80461928Y-59900000D01*
X80474188Y-60024482D01*
X80510498Y-60144180D01*
X80569463Y-60254494D01*
X80648815Y-60351185D01*
X80745506Y-60430537D01*
X80855820Y-60489502D01*
X80975518Y-60525812D01*
X81100000Y-60538072D01*
X81714250Y-60535000D01*
X81873000Y-60376250D01*
X81873000Y-59127000D01*
X80623750Y-59127000D01*
X80465000Y-59285750D01*
X80461928Y-59900000D01*
X77931253Y-59900000D01*
X79506253Y-58100000D01*
X80461928Y-58100000D01*
X80465000Y-58714250D01*
X80623750Y-58873000D01*
X81873000Y-58873000D01*
X81873000Y-57623750D01*
X82127000Y-57623750D01*
X82127000Y-58873000D01*
X82147000Y-58873000D01*
X82147000Y-59127000D01*
X82127000Y-59127000D01*
X82127000Y-60376250D01*
X82285750Y-60535000D01*
X82900000Y-60538072D01*
X83024482Y-60525812D01*
X83144180Y-60489502D01*
X83254494Y-60430537D01*
X83351185Y-60351185D01*
X83430537Y-60254494D01*
X83489502Y-60144180D01*
X83495056Y-60125873D01*
X83561495Y-60192312D01*
X83812905Y-60360299D01*
X84092257Y-60476011D01*
X84388816Y-60535000D01*
X84691184Y-60535000D01*
X84987743Y-60476011D01*
X85267095Y-60360299D01*
X85518505Y-60192312D01*
X85732312Y-59978505D01*
X85900299Y-59727095D01*
X85935688Y-59641658D01*
X92509699Y-59641658D01*
X92509699Y-59914342D01*
X92562897Y-60181785D01*
X92667248Y-60433712D01*
X92818743Y-60660440D01*
X93011559Y-60853256D01*
X93238287Y-61004751D01*
X93490214Y-61109102D01*
X93757657Y-61162300D01*
X94030341Y-61162300D01*
X94297784Y-61109102D01*
X94549711Y-61004751D01*
X94776439Y-60853256D01*
X94969255Y-60660440D01*
X95120750Y-60433712D01*
X95225101Y-60181785D01*
X95278299Y-59914342D01*
X95278299Y-59641658D01*
X95225101Y-59374215D01*
X95120750Y-59122288D01*
X94969255Y-58895560D01*
X94776439Y-58702744D01*
X94549711Y-58551249D01*
X94297784Y-58446898D01*
X94030341Y-58393700D01*
X93757657Y-58393700D01*
X93490214Y-58446898D01*
X93238287Y-58551249D01*
X93011559Y-58702744D01*
X92818743Y-58895560D01*
X92667248Y-59122288D01*
X92562897Y-59374215D01*
X92509699Y-59641658D01*
X85935688Y-59641658D01*
X86016011Y-59447743D01*
X86075000Y-59151184D01*
X86075000Y-58848816D01*
X86016011Y-58552257D01*
X85900299Y-58272905D01*
X85732312Y-58021495D01*
X85518505Y-57807688D01*
X85267095Y-57639701D01*
X84987743Y-57523989D01*
X84691184Y-57465000D01*
X84388816Y-57465000D01*
X84092257Y-57523989D01*
X83812905Y-57639701D01*
X83561495Y-57807688D01*
X83495056Y-57874127D01*
X83489502Y-57855820D01*
X83430537Y-57745506D01*
X83351185Y-57648815D01*
X83254494Y-57569463D01*
X83144180Y-57510498D01*
X83024482Y-57474188D01*
X82900000Y-57461928D01*
X82285750Y-57465000D01*
X82127000Y-57623750D01*
X81873000Y-57623750D01*
X81714250Y-57465000D01*
X81100000Y-57461928D01*
X80975518Y-57474188D01*
X80855820Y-57510498D01*
X80745506Y-57569463D01*
X80648815Y-57648815D01*
X80569463Y-57745506D01*
X80510498Y-57855820D01*
X80474188Y-57975518D01*
X80461928Y-58100000D01*
X79506253Y-58100000D01*
X79506295Y-58099952D01*
X79816047Y-57812794D01*
X83700459Y-54528699D01*
X92506627Y-54528699D01*
X92506627Y-56027299D01*
X92518887Y-56151781D01*
X92555197Y-56271479D01*
X92614162Y-56381793D01*
X92693514Y-56478484D01*
X92790205Y-56557836D01*
X92900519Y-56616801D01*
X93020217Y-56653111D01*
X93144699Y-56665371D01*
X94643299Y-56665371D01*
X94767781Y-56653111D01*
X94887479Y-56616801D01*
X94997793Y-56557836D01*
X95094484Y-56478484D01*
X95173419Y-56382300D01*
X98556024Y-56382300D01*
X98559701Y-56419632D01*
X98559700Y-62452377D01*
X98556024Y-62489700D01*
X98559700Y-62527022D01*
X98559700Y-62527032D01*
X98570697Y-62638685D01*
X98606274Y-62755968D01*
X98614154Y-62781946D01*
X98684726Y-62913976D01*
X98716514Y-62952709D01*
X98779699Y-63029701D01*
X98808703Y-63053504D01*
X101165860Y-65410662D01*
X101139764Y-65496691D01*
X101112057Y-65778000D01*
X101139764Y-66059309D01*
X101221818Y-66329808D01*
X101355068Y-66579101D01*
X101534392Y-66797608D01*
X101752899Y-66976932D01*
X102002192Y-67110182D01*
X102272691Y-67192236D01*
X102483508Y-67213000D01*
X102624492Y-67213000D01*
X102835309Y-67192236D01*
X103105808Y-67110182D01*
X103355101Y-66976932D01*
X103573608Y-66797608D01*
X103752932Y-66579101D01*
X103886182Y-66329808D01*
X103968236Y-66059309D01*
X103995943Y-65778000D01*
X103968236Y-65496691D01*
X103886182Y-65226192D01*
X103752932Y-64976899D01*
X103573608Y-64758392D01*
X103355101Y-64579068D01*
X103105808Y-64445818D01*
X102835309Y-64363764D01*
X102624492Y-64343000D01*
X102483508Y-64343000D01*
X102272691Y-64363764D01*
X102269526Y-64364724D01*
X100079700Y-62174899D01*
X100079700Y-61126902D01*
X100257659Y-61162300D01*
X100530343Y-61162300D01*
X100797786Y-61109102D01*
X101049713Y-61004751D01*
X101276441Y-60853256D01*
X101469257Y-60660440D01*
X101620752Y-60433712D01*
X101725103Y-60181785D01*
X101778301Y-59914342D01*
X101778301Y-59641658D01*
X101725103Y-59374215D01*
X101620752Y-59122288D01*
X101469257Y-58895560D01*
X101432362Y-58858665D01*
X106565000Y-58858665D01*
X106565000Y-59141335D01*
X106620147Y-59418574D01*
X106728320Y-59679727D01*
X106885363Y-59914759D01*
X107085241Y-60114637D01*
X107320273Y-60271680D01*
X107581426Y-60379853D01*
X107858665Y-60435000D01*
X108141335Y-60435000D01*
X108418574Y-60379853D01*
X108679727Y-60271680D01*
X108914759Y-60114637D01*
X109114637Y-59914759D01*
X109124498Y-59900000D01*
X129461928Y-59900000D01*
X129474188Y-60024482D01*
X129510498Y-60144180D01*
X129569463Y-60254494D01*
X129648815Y-60351185D01*
X129745506Y-60430537D01*
X129855820Y-60489502D01*
X129975518Y-60525812D01*
X130100000Y-60538072D01*
X130714250Y-60535000D01*
X130873000Y-60376250D01*
X130873000Y-59127000D01*
X129623750Y-59127000D01*
X129465000Y-59285750D01*
X129461928Y-59900000D01*
X109124498Y-59900000D01*
X109271680Y-59679727D01*
X109379853Y-59418574D01*
X109435000Y-59141335D01*
X109435000Y-58858665D01*
X109379853Y-58581426D01*
X109271680Y-58320273D01*
X109124499Y-58100000D01*
X129461928Y-58100000D01*
X129465000Y-58714250D01*
X129623750Y-58873000D01*
X130873000Y-58873000D01*
X130873000Y-57623750D01*
X131127000Y-57623750D01*
X131127000Y-58873000D01*
X131147000Y-58873000D01*
X131147000Y-59127000D01*
X131127000Y-59127000D01*
X131127000Y-60376250D01*
X131285750Y-60535000D01*
X131900000Y-60538072D01*
X132024482Y-60525812D01*
X132144180Y-60489502D01*
X132254494Y-60430537D01*
X132351185Y-60351185D01*
X132430537Y-60254494D01*
X132489502Y-60144180D01*
X132495056Y-60125873D01*
X132561495Y-60192312D01*
X132812905Y-60360299D01*
X133092257Y-60476011D01*
X133388816Y-60535000D01*
X133691184Y-60535000D01*
X133987743Y-60476011D01*
X134267095Y-60360299D01*
X134518505Y-60192312D01*
X134732312Y-59978505D01*
X134900299Y-59727095D01*
X135016011Y-59447743D01*
X135075000Y-59151184D01*
X135075000Y-58848816D01*
X135016011Y-58552257D01*
X134900299Y-58272905D01*
X134732312Y-58021495D01*
X134518505Y-57807688D01*
X134267095Y-57639701D01*
X133987743Y-57523989D01*
X133691184Y-57465000D01*
X133388816Y-57465000D01*
X133092257Y-57523989D01*
X132812905Y-57639701D01*
X132561495Y-57807688D01*
X132495056Y-57874127D01*
X132489502Y-57855820D01*
X132430537Y-57745506D01*
X132351185Y-57648815D01*
X132254494Y-57569463D01*
X132144180Y-57510498D01*
X132024482Y-57474188D01*
X131900000Y-57461928D01*
X131285750Y-57465000D01*
X131127000Y-57623750D01*
X130873000Y-57623750D01*
X130714250Y-57465000D01*
X130100000Y-57461928D01*
X129975518Y-57474188D01*
X129855820Y-57510498D01*
X129745506Y-57569463D01*
X129648815Y-57648815D01*
X129569463Y-57745506D01*
X129510498Y-57855820D01*
X129474188Y-57975518D01*
X129461928Y-58100000D01*
X109124499Y-58100000D01*
X109114637Y-58085241D01*
X108914759Y-57885363D01*
X108679727Y-57728320D01*
X108418574Y-57620147D01*
X108141335Y-57565000D01*
X107858665Y-57565000D01*
X107581426Y-57620147D01*
X107320273Y-57728320D01*
X107085241Y-57885363D01*
X106885363Y-58085241D01*
X106728320Y-58320273D01*
X106620147Y-58581426D01*
X106565000Y-58858665D01*
X101432362Y-58858665D01*
X101276441Y-58702744D01*
X101049713Y-58551249D01*
X100797786Y-58446898D01*
X100530343Y-58393700D01*
X100257659Y-58393700D01*
X100079700Y-58429098D01*
X100079700Y-56697101D01*
X100138254Y-56638548D01*
X100257659Y-56662299D01*
X100530343Y-56662299D01*
X100797786Y-56609101D01*
X101049713Y-56504750D01*
X101276441Y-56353255D01*
X101469257Y-56160439D01*
X101620752Y-55933711D01*
X101725103Y-55681784D01*
X101778301Y-55414341D01*
X101778301Y-55141657D01*
X101725103Y-54874214D01*
X101620752Y-54622287D01*
X101469257Y-54395559D01*
X101276441Y-54202743D01*
X101049713Y-54051248D01*
X100797786Y-53946897D01*
X100530343Y-53893699D01*
X100257659Y-53893699D01*
X99990216Y-53946897D01*
X99738289Y-54051248D01*
X99511561Y-54202743D01*
X99318745Y-54395559D01*
X99167250Y-54622287D01*
X99062899Y-54874214D01*
X99009701Y-55141657D01*
X99009701Y-55414341D01*
X99043407Y-55583792D01*
X98808698Y-55818501D01*
X98779700Y-55842299D01*
X98755902Y-55871297D01*
X98755901Y-55871298D01*
X98684726Y-55958024D01*
X98614154Y-56090054D01*
X98570698Y-56233315D01*
X98556024Y-56382300D01*
X95173419Y-56382300D01*
X95173836Y-56381793D01*
X95232801Y-56271479D01*
X95269111Y-56151781D01*
X95281371Y-56027299D01*
X95281371Y-54528699D01*
X95269111Y-54404217D01*
X95232801Y-54284519D01*
X95173836Y-54174205D01*
X95094484Y-54077514D01*
X94997793Y-53998162D01*
X94887479Y-53939197D01*
X94767781Y-53902887D01*
X94643299Y-53890627D01*
X93144699Y-53890627D01*
X93020217Y-53902887D01*
X92900519Y-53939197D01*
X92790205Y-53998162D01*
X92693514Y-54077514D01*
X92614162Y-54174205D01*
X92555197Y-54284519D01*
X92518887Y-54404217D01*
X92506627Y-54528699D01*
X83700459Y-54528699D01*
X83839058Y-54411520D01*
X84069101Y-54250249D01*
X84294239Y-54094934D01*
X84474847Y-53971904D01*
X84714281Y-53810923D01*
X84827434Y-53735679D01*
X85034065Y-53599643D01*
X85172014Y-53509793D01*
X85228806Y-53473028D01*
X85367690Y-53383672D01*
X85494800Y-53302571D01*
X85633435Y-53214854D01*
X85948610Y-53018253D01*
X86254017Y-52831431D01*
X86394708Y-52746577D01*
X86402114Y-52742144D01*
X87537645Y-52236316D01*
X105145000Y-52236316D01*
X105145000Y-52538684D01*
X105203989Y-52835243D01*
X105319701Y-53114595D01*
X105487688Y-53366005D01*
X105701495Y-53579812D01*
X105952905Y-53747799D01*
X106232257Y-53863511D01*
X106528816Y-53922500D01*
X106831184Y-53922500D01*
X107127743Y-53863511D01*
X107407095Y-53747799D01*
X107658505Y-53579812D01*
X107724944Y-53513373D01*
X107730498Y-53531680D01*
X107789463Y-53641994D01*
X107868815Y-53738685D01*
X107965506Y-53818037D01*
X108075820Y-53877002D01*
X108195518Y-53913312D01*
X108320000Y-53925572D01*
X108934250Y-53922500D01*
X109093000Y-53763750D01*
X109093000Y-52514500D01*
X109347000Y-52514500D01*
X109347000Y-53763750D01*
X109505750Y-53922500D01*
X110120000Y-53925572D01*
X110244482Y-53913312D01*
X110364180Y-53877002D01*
X110474494Y-53818037D01*
X110571185Y-53738685D01*
X110650537Y-53641994D01*
X110709502Y-53531680D01*
X110745812Y-53411982D01*
X110758072Y-53287500D01*
X110755000Y-52673250D01*
X110596250Y-52514500D01*
X109347000Y-52514500D01*
X109093000Y-52514500D01*
X109073000Y-52514500D01*
X109073000Y-52260500D01*
X109093000Y-52260500D01*
X109093000Y-51011250D01*
X109347000Y-51011250D01*
X109347000Y-52260500D01*
X110596250Y-52260500D01*
X110755000Y-52101750D01*
X110758072Y-51487500D01*
X110745812Y-51363018D01*
X110709502Y-51243320D01*
X110650537Y-51133006D01*
X110571185Y-51036315D01*
X110474494Y-50956963D01*
X110364180Y-50897998D01*
X110244482Y-50861688D01*
X110120000Y-50849428D01*
X109505750Y-50852500D01*
X109347000Y-51011250D01*
X109093000Y-51011250D01*
X108934250Y-50852500D01*
X108320000Y-50849428D01*
X108195518Y-50861688D01*
X108075820Y-50897998D01*
X107965506Y-50956963D01*
X107868815Y-51036315D01*
X107789463Y-51133006D01*
X107730498Y-51243320D01*
X107724944Y-51261627D01*
X107658505Y-51195188D01*
X107407095Y-51027201D01*
X107127743Y-50911489D01*
X106831184Y-50852500D01*
X106528816Y-50852500D01*
X106232257Y-50911489D01*
X105952905Y-51027201D01*
X105701495Y-51195188D01*
X105487688Y-51408995D01*
X105319701Y-51660405D01*
X105203989Y-51939757D01*
X105145000Y-52236316D01*
X87537645Y-52236316D01*
X95626642Y-48633035D01*
X95631975Y-48631385D01*
X95739352Y-48598597D01*
X96012100Y-48516717D01*
X96120167Y-48484830D01*
X96188194Y-48464920D01*
X96256117Y-48445166D01*
X96365562Y-48413594D01*
X96433387Y-48394192D01*
X96514959Y-48371016D01*
X96762198Y-48301864D01*
X96826068Y-48284383D01*
X106045478Y-47422309D01*
X118135491Y-48461492D01*
X118135491Y-48461492D01*
G37*
X118135491Y-48461492D02*
X125877967Y-50966411D01*
X132007696Y-54968465D01*
X135802765Y-57751516D01*
X141375672Y-64337679D01*
X145933802Y-71428104D01*
X149226731Y-82066797D01*
X149732738Y-87632876D01*
X149479589Y-93202152D01*
X147959980Y-100546930D01*
X144822326Y-108270386D01*
X144801965Y-108308496D01*
X144773730Y-108361136D01*
X144739664Y-108424406D01*
X144705744Y-108487154D01*
X144671161Y-108550856D01*
X144636947Y-108613629D01*
X144602583Y-108676421D01*
X144568007Y-108739344D01*
X144533015Y-108802759D01*
X144498189Y-108865621D01*
X144459510Y-108935145D01*
X144428155Y-108991271D01*
X144422784Y-109000847D01*
X139622541Y-115858338D01*
X139590336Y-115895700D01*
X139548043Y-115944613D01*
X139505583Y-115993565D01*
X139463594Y-116041827D01*
X139399215Y-116115532D01*
X139357174Y-116163477D01*
X139298080Y-116230621D01*
X139255587Y-116278721D01*
X139212529Y-116327313D01*
X139158824Y-116387704D01*
X139105071Y-116447921D01*
X139064514Y-116493192D01*
X132007391Y-122576918D01*
X122343991Y-127828765D01*
X122288205Y-127849221D01*
X122206222Y-127879095D01*
X122142357Y-127902235D01*
X122036892Y-127940191D01*
X121966187Y-127965456D01*
X121890911Y-127992198D01*
X121815305Y-128018896D01*
X121740656Y-128045095D01*
X121672712Y-128068806D01*
X121597248Y-128094984D01*
X121529237Y-128118441D01*
X121469385Y-128138974D01*
X121393524Y-128164855D01*
X121333492Y-128185221D01*
X121257600Y-128210822D01*
X121178231Y-128237425D01*
X121090739Y-128266544D01*
X121015188Y-128291517D01*
X120947545Y-128313742D01*
X120886576Y-128333663D01*
X120817974Y-128355957D01*
X120757743Y-128375421D01*
X120689388Y-128397387D01*
X120628158Y-128416957D01*
X120560136Y-128438576D01*
X120475958Y-128465149D01*
X120400292Y-128488872D01*
X120331595Y-128510273D01*
X120270464Y-128529207D01*
X120209891Y-128547870D01*
X120141158Y-128568922D01*
X120068437Y-128591057D01*
X120003694Y-128610640D01*
X119931045Y-128632480D01*
X119866163Y-128651865D01*
X119797314Y-128672307D01*
X119720810Y-128694874D01*
X119659277Y-128712908D01*
X119582602Y-128735237D01*
X119513444Y-128755242D01*
X119444301Y-128775114D01*
X119383037Y-128792615D01*
X119313899Y-128812242D01*
X119252638Y-128829524D01*
X119191587Y-128846650D01*
X119113987Y-128868276D01*
X119044513Y-128887497D01*
X118975812Y-128906377D01*
X118906041Y-128925425D01*
X118806064Y-128952493D01*
X118666906Y-128989725D01*
X118597871Y-129008007D01*
X118504576Y-129032510D01*
X118412042Y-129056589D01*
X118334935Y-129076481D01*
X118249471Y-129098346D01*
X118179948Y-129115990D01*
X118094466Y-129137512D01*
X118024871Y-129154891D01*
X117954853Y-129172249D01*
X117877728Y-129191221D01*
X117799655Y-129210266D01*
X117721951Y-129229064D01*
X117652157Y-129245817D01*
X117574235Y-129264368D01*
X117504221Y-129280903D01*
X117418319Y-129301017D01*
X117348436Y-129317238D01*
X117270874Y-129335095D01*
X117192527Y-129352975D01*
X117122250Y-129368880D01*
X117052344Y-129384571D01*
X116974188Y-129401965D01*
X116903630Y-129417537D01*
X116825608Y-129434607D01*
X116755682Y-129449772D01*
X116684436Y-129465094D01*
X116614262Y-129480059D01*
X116544192Y-129494874D01*
X116465433Y-129511381D01*
X116379545Y-129529201D01*
X116292994Y-129546967D01*
X116214666Y-129562881D01*
X116128435Y-129580224D01*
X116026154Y-129600543D01*
X115947687Y-129615955D01*
X115861012Y-129632796D01*
X115774893Y-129649342D01*
X115703449Y-129662927D01*
X115632886Y-129676220D01*
X115554427Y-129690849D01*
X115475633Y-129705386D01*
X115388557Y-129721269D01*
X115317591Y-129734075D01*
X115246436Y-129746788D01*
X115159516Y-129762142D01*
X115089083Y-129774448D01*
X115001785Y-129789525D01*
X114922490Y-129803057D01*
X114851416Y-129815053D01*
X114748956Y-129832122D01*
X114669582Y-129845166D01*
X114590243Y-129858049D01*
X114510939Y-129870767D01*
X114439871Y-129882035D01*
X114368669Y-129893198D01*
X114289272Y-129905495D01*
X114209783Y-129917653D01*
X114130736Y-129929584D01*
X114050983Y-129941468D01*
X113971412Y-129953169D01*
X113884164Y-129965817D01*
X113812763Y-129976028D01*
X113741015Y-129986162D01*
X113661591Y-129997233D01*
X113581596Y-130008228D01*
X113478443Y-130022171D01*
X113390631Y-130033835D01*
X113319158Y-130043190D01*
X113247188Y-130052481D01*
X113175259Y-130061643D01*
X113103983Y-130070596D01*
X113031950Y-130079516D01*
X112960046Y-130088296D01*
X112888215Y-130096938D01*
X112816483Y-130105444D01*
X112736241Y-130114810D01*
X112656511Y-130123961D01*
X112584682Y-130132072D01*
X112512327Y-130140114D01*
X112440571Y-130147966D01*
X112368490Y-130155726D01*
X112280544Y-130165023D01*
X112208491Y-130172501D01*
X112128511Y-130180653D01*
X112039899Y-130189503D01*
X111927426Y-130200463D01*
X111855853Y-130207275D01*
X111783336Y-130214051D01*
X111711028Y-130220681D01*
X111614766Y-130229313D01*
X111534150Y-130236370D01*
X111453938Y-130243234D01*
X111373741Y-130249941D01*
X111293546Y-130256494D01*
X111172756Y-130266069D01*
X111084025Y-130272879D01*
X111003675Y-130278883D01*
X110906878Y-130285908D01*
X110826679Y-130291556D01*
X110729808Y-130298175D01*
X110649502Y-130303488D01*
X110568873Y-130308667D01*
X110447652Y-130316162D01*
X110366956Y-130320952D01*
X110286282Y-130325589D01*
X110189623Y-130330937D01*
X110108643Y-130335244D01*
X110012061Y-130340177D01*
X109931406Y-130344122D01*
X109842181Y-130348305D01*
X109761136Y-130351941D01*
X109680437Y-130355405D01*
X109600018Y-130358699D01*
X109588974Y-130359130D01*
X104273479Y-130232571D01*
X104243983Y-130229998D01*
X104164062Y-130222862D01*
X104075745Y-130214798D01*
X104003490Y-130208060D01*
X103923610Y-130200465D01*
X103834682Y-130191825D01*
X103763068Y-130184728D01*
X103690912Y-130177452D01*
X103610943Y-130169240D01*
X103538215Y-130161637D01*
X103466864Y-130154051D01*
X103386401Y-130145350D01*
X103306655Y-130136570D01*
X103226408Y-130127579D01*
X103138390Y-130117537D01*
X103066754Y-130109223D01*
X102994895Y-130100760D01*
X102914884Y-130091187D01*
X102827072Y-130080501D01*
X102755491Y-130071652D01*
X102683493Y-130062622D01*
X102603856Y-130052486D01*
X102531765Y-130043179D01*
X102460568Y-130033861D01*
X102372454Y-130022157D01*
X102292924Y-130011429D01*
X102221568Y-130001671D01*
X102149858Y-129991738D01*
X102077756Y-129981625D01*
X102006758Y-129971542D01*
X101919136Y-129958923D01*
X101815845Y-129943807D01*
X101728620Y-129930836D01*
X101625447Y-129915252D01*
X101553629Y-129904246D01*
X101482692Y-129893254D01*
X101410985Y-129882012D01*
X101332267Y-129869524D01*
X101244743Y-129855462D01*
X101126170Y-129836102D01*
X101054401Y-129824217D01*
X100983851Y-129812409D01*
X100912698Y-129800369D01*
X100825260Y-129785407D01*
X100754635Y-129773181D01*
X100659620Y-129756534D01*
X100588371Y-129743905D01*
X100517814Y-129731272D01*
X100446332Y-129718345D01*
X100367724Y-129703983D01*
X100347047Y-129700166D01*
X90829064Y-126739016D01*
X90801747Y-126726785D01*
X90735891Y-126697171D01*
X90663188Y-126664319D01*
X90609323Y-126639869D01*
X90540138Y-126608333D01*
X90474507Y-126578274D01*
X90416660Y-126551669D01*
X90337557Y-126515114D01*
X90278974Y-126487914D01*
X90221255Y-126461007D01*
X90164013Y-126434215D01*
X90106183Y-126407041D01*
X90066140Y-126388151D01*
X87459315Y-124854724D01*
X101384881Y-124854724D01*
X102427497Y-125927138D01*
X104058658Y-126854321D01*
X105839362Y-127445465D01*
X107701176Y-127677852D01*
X109572553Y-127542551D01*
X111381576Y-127044763D01*
X113058725Y-126203616D01*
X113472503Y-125927138D01*
X114515119Y-124854724D01*
X107950000Y-118289605D01*
X101384881Y-124854724D01*
X87459315Y-124854724D01*
X83539369Y-122548873D01*
X83508812Y-122526965D01*
X83449948Y-122484573D01*
X83385078Y-122437673D01*
X83320002Y-122390435D01*
X83268717Y-122353073D01*
X83209686Y-122309922D01*
X83158275Y-122272210D01*
X83093631Y-122224619D01*
X83035326Y-122181531D01*
X82983840Y-122143351D01*
X82926071Y-122100368D01*
X82874825Y-122062108D01*
X82810082Y-122013596D01*
X82752523Y-121970303D01*
X82694759Y-121926700D01*
X82643346Y-121887758D01*
X82592418Y-121849059D01*
X82547760Y-121815025D01*
X82496354Y-121775728D01*
X82445677Y-121736865D01*
X82388170Y-121692618D01*
X82330538Y-121648114D01*
X82286031Y-121613636D01*
X82286032Y-121613636D01*
X82242354Y-121579706D01*
X82191244Y-121539886D01*
X82140524Y-121500242D01*
X82095849Y-121465219D01*
X82052179Y-121430890D01*
X82001413Y-121390862D01*
X81951007Y-121350994D01*
X81862814Y-121280934D01*
X81811989Y-121240383D01*
X81768045Y-121205218D01*
X81724864Y-121170567D01*
X81674588Y-121130106D01*
X81630090Y-121094187D01*
X81630089Y-121094187D01*
X81586547Y-121058941D01*
X81536718Y-121018487D01*
X81486755Y-120977799D01*
X81436648Y-120936865D01*
X81393090Y-120901176D01*
X81343192Y-120860172D01*
X81300111Y-120824664D01*
X81256461Y-120788591D01*
X81213202Y-120752741D01*
X81163540Y-120711463D01*
X81114164Y-120670293D01*
X81057911Y-120623236D01*
X81009029Y-120582205D01*
X80965721Y-120545748D01*
X80922117Y-120508940D01*
X80879756Y-120473085D01*
X80823961Y-120425708D01*
X80774646Y-120383695D01*
X80726070Y-120342183D01*
X80700270Y-120320066D01*
X79368959Y-118900000D01*
X80461928Y-118900000D01*
X80474188Y-119024482D01*
X80510498Y-119144180D01*
X80569463Y-119254494D01*
X80648815Y-119351185D01*
X80745506Y-119430537D01*
X80855820Y-119489502D01*
X80975518Y-119525812D01*
X81100000Y-119538072D01*
X81714250Y-119535000D01*
X81873000Y-119376250D01*
X81873000Y-118127000D01*
X80623750Y-118127000D01*
X80465000Y-118285750D01*
X80461928Y-118900000D01*
X79368959Y-118900000D01*
X77681459Y-117100000D01*
X80461928Y-117100000D01*
X80465000Y-117714250D01*
X80623750Y-117873000D01*
X81873000Y-117873000D01*
X81873000Y-116623750D01*
X82127000Y-116623750D01*
X82127000Y-117873000D01*
X82147000Y-117873000D01*
X82147000Y-118127000D01*
X82127000Y-118127000D01*
X82127000Y-119376250D01*
X82285750Y-119535000D01*
X82900000Y-119538072D01*
X83024482Y-119525812D01*
X83144180Y-119489502D01*
X83254494Y-119430537D01*
X83351185Y-119351185D01*
X83430537Y-119254494D01*
X83489502Y-119144180D01*
X83495056Y-119125873D01*
X83561495Y-119192312D01*
X83812905Y-119360299D01*
X84092257Y-119476011D01*
X84388816Y-119535000D01*
X84691184Y-119535000D01*
X84987743Y-119476011D01*
X85267095Y-119360299D01*
X85518505Y-119192312D01*
X85732312Y-118978505D01*
X85900299Y-118727095D01*
X86016011Y-118447743D01*
X86075000Y-118151184D01*
X86075000Y-117848816D01*
X86016011Y-117552257D01*
X85900299Y-117272905D01*
X85732312Y-117021495D01*
X85518505Y-116807688D01*
X85267095Y-116639701D01*
X84987743Y-116523989D01*
X84691184Y-116465000D01*
X84388816Y-116465000D01*
X84092257Y-116523989D01*
X83812905Y-116639701D01*
X83561495Y-116807688D01*
X83495056Y-116874127D01*
X83489502Y-116855820D01*
X83430537Y-116745506D01*
X83351185Y-116648815D01*
X83254494Y-116569463D01*
X83144180Y-116510498D01*
X83024482Y-116474188D01*
X82900000Y-116461928D01*
X82285750Y-116465000D01*
X82127000Y-116623750D01*
X81873000Y-116623750D01*
X81714250Y-116465000D01*
X81100000Y-116461928D01*
X80975518Y-116474188D01*
X80855820Y-116510498D01*
X80745506Y-116569463D01*
X80648815Y-116648815D01*
X80569463Y-116745506D01*
X80510498Y-116855820D01*
X80474188Y-116975518D01*
X80461928Y-117100000D01*
X77681459Y-117100000D01*
X76797286Y-116156882D01*
X95758000Y-116156882D01*
X95758000Y-116507118D01*
X95826328Y-116850623D01*
X95960357Y-117174199D01*
X96154937Y-117465409D01*
X96402591Y-117713063D01*
X96616512Y-117856000D01*
X96402591Y-117998937D01*
X96154937Y-118246591D01*
X95960357Y-118537801D01*
X95826328Y-118861377D01*
X95758000Y-119204882D01*
X95758000Y-119555118D01*
X95826328Y-119898623D01*
X95960357Y-120222199D01*
X96154937Y-120513409D01*
X96402591Y-120761063D01*
X96693801Y-120955643D01*
X97017377Y-121089672D01*
X97360882Y-121158000D01*
X97711118Y-121158000D01*
X98054623Y-121089672D01*
X98378199Y-120955643D01*
X98669409Y-120761063D01*
X98772183Y-120658289D01*
X99015237Y-121541576D01*
X99856384Y-123218725D01*
X100132862Y-123632503D01*
X101205276Y-124675119D01*
X107770395Y-118110000D01*
X108129605Y-118110000D01*
X114694724Y-124675119D01*
X115767138Y-123632503D01*
X116694321Y-122001342D01*
X117137097Y-120667569D01*
X117230591Y-120761063D01*
X117521801Y-120955643D01*
X117845377Y-121089672D01*
X118188882Y-121158000D01*
X118539118Y-121158000D01*
X118882623Y-121089672D01*
X119206199Y-120955643D01*
X119497409Y-120761063D01*
X119745063Y-120513409D01*
X119939643Y-120222199D01*
X120073672Y-119898623D01*
X120142000Y-119555118D01*
X120142000Y-119204882D01*
X120081355Y-118900000D01*
X129461928Y-118900000D01*
X129474188Y-119024482D01*
X129510498Y-119144180D01*
X129569463Y-119254494D01*
X129648815Y-119351185D01*
X129745506Y-119430537D01*
X129855820Y-119489502D01*
X129975518Y-119525812D01*
X130100000Y-119538072D01*
X130714250Y-119535000D01*
X130873000Y-119376250D01*
X130873000Y-118127000D01*
X129623750Y-118127000D01*
X129465000Y-118285750D01*
X129461928Y-118900000D01*
X120081355Y-118900000D01*
X120073672Y-118861377D01*
X119939643Y-118537801D01*
X119745063Y-118246591D01*
X119497409Y-117998937D01*
X119283488Y-117856000D01*
X119497409Y-117713063D01*
X119745063Y-117465409D01*
X119939643Y-117174199D01*
X119970377Y-117100000D01*
X129461928Y-117100000D01*
X129465000Y-117714250D01*
X129623750Y-117873000D01*
X130873000Y-117873000D01*
X130873000Y-116623750D01*
X131127000Y-116623750D01*
X131127000Y-117873000D01*
X131147000Y-117873000D01*
X131147000Y-118127000D01*
X131127000Y-118127000D01*
X131127000Y-119376250D01*
X131285750Y-119535000D01*
X131900000Y-119538072D01*
X132024482Y-119525812D01*
X132144180Y-119489502D01*
X132254494Y-119430537D01*
X132351185Y-119351185D01*
X132430537Y-119254494D01*
X132489502Y-119144180D01*
X132495056Y-119125873D01*
X132561495Y-119192312D01*
X132812905Y-119360299D01*
X133092257Y-119476011D01*
X133388816Y-119535000D01*
X133691184Y-119535000D01*
X133987743Y-119476011D01*
X134267095Y-119360299D01*
X134518505Y-119192312D01*
X134732312Y-118978505D01*
X134900299Y-118727095D01*
X135016011Y-118447743D01*
X135075000Y-118151184D01*
X135075000Y-117848816D01*
X135016011Y-117552257D01*
X134900299Y-117272905D01*
X134732312Y-117021495D01*
X134518505Y-116807688D01*
X134267095Y-116639701D01*
X133987743Y-116523989D01*
X133691184Y-116465000D01*
X133388816Y-116465000D01*
X133092257Y-116523989D01*
X132812905Y-116639701D01*
X132561495Y-116807688D01*
X132495056Y-116874127D01*
X132489502Y-116855820D01*
X132430537Y-116745506D01*
X132351185Y-116648815D01*
X132254494Y-116569463D01*
X132144180Y-116510498D01*
X132024482Y-116474188D01*
X131900000Y-116461928D01*
X131285750Y-116465000D01*
X131127000Y-116623750D01*
X130873000Y-116623750D01*
X130714250Y-116465000D01*
X130100000Y-116461928D01*
X129975518Y-116474188D01*
X129855820Y-116510498D01*
X129745506Y-116569463D01*
X129648815Y-116648815D01*
X129569463Y-116745506D01*
X129510498Y-116855820D01*
X129474188Y-116975518D01*
X129461928Y-117100000D01*
X119970377Y-117100000D01*
X120073672Y-116850623D01*
X120142000Y-116507118D01*
X120142000Y-116156882D01*
X120073672Y-115813377D01*
X119939643Y-115489801D01*
X119745063Y-115198591D01*
X119497409Y-114950937D01*
X119206199Y-114756357D01*
X118882623Y-114622328D01*
X118539118Y-114554000D01*
X118188882Y-114554000D01*
X117845377Y-114622328D01*
X117521801Y-114756357D01*
X117230591Y-114950937D01*
X117018195Y-115163333D01*
X116884763Y-114678424D01*
X116043616Y-113001275D01*
X115767138Y-112587497D01*
X114694724Y-111544881D01*
X108129605Y-118110000D01*
X107770395Y-118110000D01*
X101205276Y-111544881D01*
X100132862Y-112587497D01*
X99205679Y-114218658D01*
X98889514Y-115171042D01*
X98669409Y-114950937D01*
X98378199Y-114756357D01*
X98054623Y-114622328D01*
X97711118Y-114554000D01*
X97360882Y-114554000D01*
X97017377Y-114622328D01*
X96693801Y-114756357D01*
X96402591Y-114950937D01*
X96154937Y-115198591D01*
X95960357Y-115489801D01*
X95826328Y-115813377D01*
X95758000Y-116156882D01*
X76797286Y-116156882D01*
X74477886Y-113682857D01*
X74463753Y-113664052D01*
X74425438Y-113612897D01*
X74386871Y-113561241D01*
X74334149Y-113490357D01*
X74295918Y-113438761D01*
X74253076Y-113380741D01*
X74214951Y-113328933D01*
X74162422Y-113257282D01*
X74124659Y-113205572D01*
X74096882Y-113167403D01*
X72735319Y-110858665D01*
X82565000Y-110858665D01*
X82565000Y-111141335D01*
X82620147Y-111418574D01*
X82728320Y-111679727D01*
X82885363Y-111914759D01*
X83085241Y-112114637D01*
X83320273Y-112271680D01*
X83581426Y-112379853D01*
X83858665Y-112435000D01*
X84141335Y-112435000D01*
X84418574Y-112379853D01*
X84679727Y-112271680D01*
X84914759Y-112114637D01*
X85114637Y-111914759D01*
X85271680Y-111679727D01*
X85379853Y-111418574D01*
X85390454Y-111365276D01*
X101384881Y-111365276D01*
X107950000Y-117930395D01*
X114515119Y-111365276D01*
X114022585Y-110858665D01*
X127565000Y-110858665D01*
X127565000Y-111141335D01*
X127620147Y-111418574D01*
X127728320Y-111679727D01*
X127885363Y-111914759D01*
X128085241Y-112114637D01*
X128320273Y-112271680D01*
X128581426Y-112379853D01*
X128858665Y-112435000D01*
X129141335Y-112435000D01*
X129418574Y-112379853D01*
X129679727Y-112271680D01*
X129914759Y-112114637D01*
X130114637Y-111914759D01*
X130271680Y-111679727D01*
X130379853Y-111418574D01*
X130435000Y-111141335D01*
X130435000Y-110858665D01*
X130379853Y-110581426D01*
X130271680Y-110320273D01*
X130114637Y-110085241D01*
X129914759Y-109885363D01*
X129679727Y-109728320D01*
X129418574Y-109620147D01*
X129141335Y-109565000D01*
X128858665Y-109565000D01*
X128581426Y-109620147D01*
X128320273Y-109728320D01*
X128085241Y-109885363D01*
X127885363Y-110085241D01*
X127728320Y-110320273D01*
X127620147Y-110581426D01*
X127565000Y-110858665D01*
X114022585Y-110858665D01*
X113472503Y-110292862D01*
X111841342Y-109365679D01*
X111047119Y-109102019D01*
X113873476Y-109102019D01*
X113910799Y-109105695D01*
X113948121Y-109102019D01*
X113948132Y-109102019D01*
X114059785Y-109091022D01*
X114203046Y-109047565D01*
X114335075Y-108976993D01*
X114450800Y-108882020D01*
X114474603Y-108853016D01*
X118751827Y-104575795D01*
X120594894Y-104575795D01*
X120616863Y-104616896D01*
X120796187Y-104835403D01*
X121014694Y-105014727D01*
X121263987Y-105147977D01*
X121534486Y-105230031D01*
X121745303Y-105250795D01*
X121886287Y-105250795D01*
X122097104Y-105230031D01*
X122367603Y-105147977D01*
X122616896Y-105014727D01*
X122835403Y-104835403D01*
X123014727Y-104616896D01*
X123147977Y-104367603D01*
X123230031Y-104097104D01*
X123257738Y-103815795D01*
X123230031Y-103534486D01*
X123147977Y-103263987D01*
X123014727Y-103014694D01*
X122835403Y-102796187D01*
X122616896Y-102616863D01*
X122367603Y-102483613D01*
X122097104Y-102401559D01*
X121886287Y-102380795D01*
X121745303Y-102380795D01*
X121534486Y-102401559D01*
X121263987Y-102483613D01*
X121014694Y-102616863D01*
X120796187Y-102796187D01*
X120616863Y-103014694D01*
X120594894Y-103055795D01*
X119635417Y-103055795D01*
X120791212Y-101900000D01*
X140461928Y-101900000D01*
X140474188Y-102024482D01*
X140510498Y-102144180D01*
X140569463Y-102254494D01*
X140648815Y-102351185D01*
X140745506Y-102430537D01*
X140855820Y-102489502D01*
X140975518Y-102525812D01*
X141100000Y-102538072D01*
X141714250Y-102535000D01*
X141873000Y-102376250D01*
X141873000Y-101127000D01*
X140623750Y-101127000D01*
X140465000Y-101285750D01*
X140461928Y-101900000D01*
X120791212Y-101900000D01*
X122591212Y-100100000D01*
X140461928Y-100100000D01*
X140465000Y-100714250D01*
X140623750Y-100873000D01*
X141873000Y-100873000D01*
X141873000Y-99623750D01*
X142127000Y-99623750D01*
X142127000Y-100873000D01*
X142147000Y-100873000D01*
X142147000Y-101127000D01*
X142127000Y-101127000D01*
X142127000Y-102376250D01*
X142285750Y-102535000D01*
X142900000Y-102538072D01*
X143024482Y-102525812D01*
X143144180Y-102489502D01*
X143254494Y-102430537D01*
X143351185Y-102351185D01*
X143430537Y-102254494D01*
X143489502Y-102144180D01*
X143495056Y-102125873D01*
X143561495Y-102192312D01*
X143812905Y-102360299D01*
X144092257Y-102476011D01*
X144388816Y-102535000D01*
X144691184Y-102535000D01*
X144987743Y-102476011D01*
X145267095Y-102360299D01*
X145518505Y-102192312D01*
X145732312Y-101978505D01*
X145900299Y-101727095D01*
X146016011Y-101447743D01*
X146075000Y-101151184D01*
X146075000Y-100848816D01*
X146016011Y-100552257D01*
X145900299Y-100272905D01*
X145732312Y-100021495D01*
X145518505Y-99807688D01*
X145267095Y-99639701D01*
X144987743Y-99523989D01*
X144691184Y-99465000D01*
X144388816Y-99465000D01*
X144092257Y-99523989D01*
X143812905Y-99639701D01*
X143561495Y-99807688D01*
X143495056Y-99874127D01*
X143489502Y-99855820D01*
X143430537Y-99745506D01*
X143351185Y-99648815D01*
X143254494Y-99569463D01*
X143144180Y-99510498D01*
X143024482Y-99474188D01*
X142900000Y-99461928D01*
X142285750Y-99465000D01*
X142127000Y-99623750D01*
X141873000Y-99623750D01*
X141714250Y-99465000D01*
X141100000Y-99461928D01*
X140975518Y-99474188D01*
X140855820Y-99510498D01*
X140745506Y-99569463D01*
X140648815Y-99648815D01*
X140569463Y-99745506D01*
X140510498Y-99855820D01*
X140474188Y-99975518D01*
X140461928Y-100100000D01*
X122591212Y-100100000D01*
X123351003Y-99340209D01*
X123380001Y-99316411D01*
X123410489Y-99279261D01*
X123474974Y-99200687D01*
X123545546Y-99068657D01*
X123550177Y-99053391D01*
X123589003Y-98925396D01*
X123600000Y-98813743D01*
X123600000Y-98813734D01*
X123603676Y-98776411D01*
X123600000Y-98739088D01*
X123600000Y-96220901D01*
X123641101Y-96198932D01*
X123859608Y-96019608D01*
X124038932Y-95801101D01*
X124172182Y-95551808D01*
X124254236Y-95281309D01*
X124281943Y-95000000D01*
X124268023Y-94858665D01*
X131565000Y-94858665D01*
X131565000Y-95141335D01*
X131620147Y-95418574D01*
X131728320Y-95679727D01*
X131885363Y-95914759D01*
X132085241Y-96114637D01*
X132320273Y-96271680D01*
X132581426Y-96379853D01*
X132858665Y-96435000D01*
X133141335Y-96435000D01*
X133418574Y-96379853D01*
X133679727Y-96271680D01*
X133914759Y-96114637D01*
X134114637Y-95914759D01*
X134271680Y-95679727D01*
X134379853Y-95418574D01*
X134435000Y-95141335D01*
X134435000Y-94858665D01*
X134379853Y-94581426D01*
X134271680Y-94320273D01*
X134114637Y-94085241D01*
X133914759Y-93885363D01*
X133679727Y-93728320D01*
X133418574Y-93620147D01*
X133141335Y-93565000D01*
X132858665Y-93565000D01*
X132581426Y-93620147D01*
X132320273Y-93728320D01*
X132085241Y-93885363D01*
X131885363Y-94085241D01*
X131728320Y-94320273D01*
X131620147Y-94581426D01*
X131565000Y-94858665D01*
X124268023Y-94858665D01*
X124254236Y-94718691D01*
X124172182Y-94448192D01*
X124038932Y-94198899D01*
X123859608Y-93980392D01*
X123641101Y-93801068D01*
X123391808Y-93667818D01*
X123121309Y-93585764D01*
X122910492Y-93565000D01*
X122769508Y-93565000D01*
X122558691Y-93585764D01*
X122288192Y-93667818D01*
X122038899Y-93801068D01*
X121820392Y-93980392D01*
X121641068Y-94198899D01*
X121507818Y-94448192D01*
X121425764Y-94718691D01*
X121398057Y-95000000D01*
X121425764Y-95281309D01*
X121507818Y-95551808D01*
X121641068Y-95801101D01*
X121820392Y-96019608D01*
X122038899Y-96198932D01*
X122080000Y-96220901D01*
X122080001Y-98461607D01*
X117600000Y-102941609D01*
X117600000Y-92314801D01*
X122514095Y-87400708D01*
X122558691Y-87414236D01*
X122769508Y-87435000D01*
X122910492Y-87435000D01*
X123121309Y-87414236D01*
X123391808Y-87332182D01*
X123641101Y-87198932D01*
X123859608Y-87019608D01*
X124038932Y-86801101D01*
X124172182Y-86551808D01*
X124254236Y-86281309D01*
X124281943Y-86000000D01*
X124268023Y-85858665D01*
X131565000Y-85858665D01*
X131565000Y-86141335D01*
X131620147Y-86418574D01*
X131728320Y-86679727D01*
X131885363Y-86914759D01*
X132085241Y-87114637D01*
X132320273Y-87271680D01*
X132581426Y-87379853D01*
X132858665Y-87435000D01*
X133141335Y-87435000D01*
X133418574Y-87379853D01*
X133679727Y-87271680D01*
X133914759Y-87114637D01*
X134114637Y-86914759D01*
X134271680Y-86679727D01*
X134379853Y-86418574D01*
X134435000Y-86141335D01*
X134435000Y-85858665D01*
X134379853Y-85581426D01*
X134271680Y-85320273D01*
X134114637Y-85085241D01*
X133914759Y-84885363D01*
X133679727Y-84728320D01*
X133418574Y-84620147D01*
X133141335Y-84565000D01*
X132858665Y-84565000D01*
X132581426Y-84620147D01*
X132320273Y-84728320D01*
X132085241Y-84885363D01*
X131885363Y-85085241D01*
X131728320Y-85320273D01*
X131620147Y-85581426D01*
X131565000Y-85858665D01*
X124268023Y-85858665D01*
X124254236Y-85718691D01*
X124172182Y-85448192D01*
X124038932Y-85198899D01*
X123859608Y-84980392D01*
X123641101Y-84801068D01*
X123391808Y-84667818D01*
X123121309Y-84585764D01*
X122910492Y-84565000D01*
X122769508Y-84565000D01*
X122558691Y-84585764D01*
X122288192Y-84667818D01*
X122038899Y-84801068D01*
X121820392Y-84980392D01*
X121641068Y-85198899D01*
X121507818Y-85448192D01*
X121425764Y-85718691D01*
X121398057Y-86000000D01*
X121425764Y-86281309D01*
X121439292Y-86325905D01*
X116329003Y-91436196D01*
X116299999Y-91459999D01*
X116257191Y-91512161D01*
X116205026Y-91575724D01*
X116150906Y-91676974D01*
X116134454Y-91707754D01*
X116090997Y-91851015D01*
X116080000Y-91962668D01*
X116080000Y-91962678D01*
X116076324Y-92000000D01*
X116080000Y-92037322D01*
X116080001Y-103825197D01*
X113223199Y-106682000D01*
X113136126Y-106682000D01*
X113218932Y-106581101D01*
X113352182Y-106331808D01*
X113434236Y-106061309D01*
X113461943Y-105780000D01*
X113434236Y-105498691D01*
X113352182Y-105228192D01*
X113218932Y-104978899D01*
X113039608Y-104760392D01*
X112821101Y-104581068D01*
X112688142Y-104510000D01*
X112821101Y-104438932D01*
X113039608Y-104259608D01*
X113218932Y-104041101D01*
X113352182Y-103791808D01*
X113434236Y-103521309D01*
X113461943Y-103240000D01*
X113434236Y-102958691D01*
X113352182Y-102688192D01*
X113218932Y-102438899D01*
X113039608Y-102220392D01*
X112821101Y-102041068D01*
X112688142Y-101970000D01*
X112821101Y-101898932D01*
X113039608Y-101719608D01*
X113218932Y-101501101D01*
X113352182Y-101251808D01*
X113434236Y-100981309D01*
X113461943Y-100700000D01*
X113434236Y-100418691D01*
X113352182Y-100148192D01*
X113218932Y-99898899D01*
X113039608Y-99680392D01*
X112821101Y-99501068D01*
X112688142Y-99430000D01*
X112821101Y-99358932D01*
X113039608Y-99179608D01*
X113218932Y-98961101D01*
X113302904Y-98804000D01*
X114262678Y-98804000D01*
X114300000Y-98807676D01*
X114337322Y-98804000D01*
X114337333Y-98804000D01*
X114448986Y-98793003D01*
X114592247Y-98749546D01*
X114724276Y-98678974D01*
X114840001Y-98584001D01*
X114863804Y-98554998D01*
X115827003Y-97591799D01*
X115856001Y-97568001D01*
X115892439Y-97523601D01*
X115950974Y-97452277D01*
X116021546Y-97320247D01*
X116024275Y-97311250D01*
X116065003Y-97176986D01*
X116076000Y-97065333D01*
X116076000Y-97065323D01*
X116079676Y-97028000D01*
X116076000Y-96990678D01*
X116076000Y-79873323D01*
X116079676Y-79836000D01*
X116076000Y-79798677D01*
X116076000Y-79798667D01*
X116065003Y-79687014D01*
X116021546Y-79543753D01*
X116018509Y-79538072D01*
X115950974Y-79411723D01*
X115879799Y-79324997D01*
X115856001Y-79295999D01*
X115827004Y-79272202D01*
X115454802Y-78900000D01*
X140461928Y-78900000D01*
X140474188Y-79024482D01*
X140510498Y-79144180D01*
X140569463Y-79254494D01*
X140648815Y-79351185D01*
X140745506Y-79430537D01*
X140855820Y-79489502D01*
X140975518Y-79525812D01*
X141100000Y-79538072D01*
X141714250Y-79535000D01*
X141873000Y-79376250D01*
X141873000Y-78127000D01*
X140623750Y-78127000D01*
X140465000Y-78285750D01*
X140461928Y-78900000D01*
X115454802Y-78900000D01*
X113420708Y-76865906D01*
X113434236Y-76821309D01*
X113461943Y-76540000D01*
X113434236Y-76258691D01*
X113411642Y-76184205D01*
X121373852Y-76184205D01*
X121401559Y-76465514D01*
X121483613Y-76736013D01*
X121616863Y-76985306D01*
X121796187Y-77203813D01*
X122014694Y-77383137D01*
X122263987Y-77516387D01*
X122534486Y-77598441D01*
X122745303Y-77619205D01*
X122886287Y-77619205D01*
X123097104Y-77598441D01*
X123367603Y-77516387D01*
X123616896Y-77383137D01*
X123835403Y-77203813D01*
X123920600Y-77100000D01*
X140461928Y-77100000D01*
X140465000Y-77714250D01*
X140623750Y-77873000D01*
X141873000Y-77873000D01*
X141873000Y-76623750D01*
X142127000Y-76623750D01*
X142127000Y-77873000D01*
X142147000Y-77873000D01*
X142147000Y-78127000D01*
X142127000Y-78127000D01*
X142127000Y-79376250D01*
X142285750Y-79535000D01*
X142900000Y-79538072D01*
X143024482Y-79525812D01*
X143144180Y-79489502D01*
X143254494Y-79430537D01*
X143351185Y-79351185D01*
X143430537Y-79254494D01*
X143489502Y-79144180D01*
X143495056Y-79125873D01*
X143561495Y-79192312D01*
X143812905Y-79360299D01*
X144092257Y-79476011D01*
X144388816Y-79535000D01*
X144691184Y-79535000D01*
X144987743Y-79476011D01*
X145267095Y-79360299D01*
X145518505Y-79192312D01*
X145732312Y-78978505D01*
X145900299Y-78727095D01*
X146016011Y-78447743D01*
X146075000Y-78151184D01*
X146075000Y-77848816D01*
X146016011Y-77552257D01*
X145900299Y-77272905D01*
X145732312Y-77021495D01*
X145518505Y-76807688D01*
X145267095Y-76639701D01*
X144987743Y-76523989D01*
X144691184Y-76465000D01*
X144388816Y-76465000D01*
X144092257Y-76523989D01*
X143812905Y-76639701D01*
X143561495Y-76807688D01*
X143495056Y-76874127D01*
X143489502Y-76855820D01*
X143430537Y-76745506D01*
X143351185Y-76648815D01*
X143254494Y-76569463D01*
X143144180Y-76510498D01*
X143024482Y-76474188D01*
X142900000Y-76461928D01*
X142285750Y-76465000D01*
X142127000Y-76623750D01*
X141873000Y-76623750D01*
X141714250Y-76465000D01*
X141100000Y-76461928D01*
X140975518Y-76474188D01*
X140855820Y-76510498D01*
X140745506Y-76569463D01*
X140648815Y-76648815D01*
X140569463Y-76745506D01*
X140510498Y-76855820D01*
X140474188Y-76975518D01*
X140461928Y-77100000D01*
X123920600Y-77100000D01*
X124014727Y-76985306D01*
X124147977Y-76736013D01*
X124230031Y-76465514D01*
X124257738Y-76184205D01*
X124230031Y-75902896D01*
X124147977Y-75632397D01*
X124014727Y-75383104D01*
X123835403Y-75164597D01*
X123616896Y-74985273D01*
X123367603Y-74852023D01*
X123097104Y-74769969D01*
X122886287Y-74749205D01*
X122745303Y-74749205D01*
X122534486Y-74769969D01*
X122263987Y-74852023D01*
X122014694Y-74985273D01*
X121796187Y-75164597D01*
X121616863Y-75383104D01*
X121483613Y-75632397D01*
X121401559Y-75902896D01*
X121373852Y-76184205D01*
X113411642Y-76184205D01*
X113352182Y-75988192D01*
X113218932Y-75738899D01*
X113039608Y-75520392D01*
X112821101Y-75341068D01*
X112688142Y-75270000D01*
X112821101Y-75198932D01*
X113039608Y-75019608D01*
X113218932Y-74801101D01*
X113352182Y-74551808D01*
X113434236Y-74281309D01*
X113461943Y-74000000D01*
X113434236Y-73718691D01*
X113352182Y-73448192D01*
X113218932Y-73198899D01*
X113039608Y-72980392D01*
X112821101Y-72801068D01*
X112571808Y-72667818D01*
X112301309Y-72585764D01*
X112090492Y-72565000D01*
X111149508Y-72565000D01*
X110938691Y-72585764D01*
X110668192Y-72667818D01*
X110418899Y-72801068D01*
X110200392Y-72980392D01*
X110021068Y-73198899D01*
X109887818Y-73448192D01*
X109805764Y-73718691D01*
X109778057Y-74000000D01*
X109805764Y-74281309D01*
X109887818Y-74551808D01*
X110021068Y-74801101D01*
X110200392Y-75019608D01*
X110418899Y-75198932D01*
X110551858Y-75270000D01*
X110418899Y-75341068D01*
X110200392Y-75520392D01*
X110021068Y-75738899D01*
X109887818Y-75988192D01*
X109805764Y-76258691D01*
X109778057Y-76540000D01*
X109805764Y-76821309D01*
X109849048Y-76964000D01*
X106948802Y-76964000D01*
X106013804Y-76029003D01*
X105990001Y-75999999D01*
X105874276Y-75905026D01*
X105742247Y-75834454D01*
X105632157Y-75801059D01*
X105598932Y-75738899D01*
X105419608Y-75520392D01*
X105306518Y-75427581D01*
X105324482Y-75425812D01*
X105444180Y-75389502D01*
X105554494Y-75330537D01*
X105651185Y-75251185D01*
X105730537Y-75154494D01*
X105789502Y-75044180D01*
X105825812Y-74924482D01*
X105838072Y-74800000D01*
X105838072Y-73200000D01*
X105825812Y-73075518D01*
X105789502Y-72955820D01*
X105730537Y-72845506D01*
X105651185Y-72748815D01*
X105554494Y-72669463D01*
X105444180Y-72610498D01*
X105324482Y-72574188D01*
X105200000Y-72561928D01*
X102800000Y-72561928D01*
X102675518Y-72574188D01*
X102555820Y-72610498D01*
X102445506Y-72669463D01*
X102348815Y-72748815D01*
X102269463Y-72845506D01*
X102210498Y-72955820D01*
X102174188Y-73075518D01*
X102161928Y-73200000D01*
X102161928Y-74800000D01*
X102174188Y-74924482D01*
X102210498Y-75044180D01*
X102269463Y-75154494D01*
X102348815Y-75251185D01*
X102445506Y-75330537D01*
X102555820Y-75389502D01*
X102675518Y-75425812D01*
X102693482Y-75427581D01*
X102580392Y-75520392D01*
X102401068Y-75738899D01*
X102267818Y-75988192D01*
X102185764Y-76258691D01*
X102158057Y-76540000D01*
X102185764Y-76821309D01*
X102267818Y-77091808D01*
X102401068Y-77341101D01*
X102580392Y-77559608D01*
X102798899Y-77738932D01*
X102931858Y-77810000D01*
X102798899Y-77881068D01*
X102580392Y-78060392D01*
X102401068Y-78278899D01*
X102267818Y-78528192D01*
X102185764Y-78798691D01*
X102158057Y-79080000D01*
X102185764Y-79361309D01*
X102267818Y-79631808D01*
X102401068Y-79881101D01*
X102580392Y-80099608D01*
X102798899Y-80278932D01*
X102926741Y-80347265D01*
X102697161Y-80497399D01*
X102495500Y-80695105D01*
X102336285Y-80928354D01*
X102225633Y-81188182D01*
X102208096Y-81270961D01*
X102330085Y-81493000D01*
X103873000Y-81493000D01*
X103873000Y-81473000D01*
X104127000Y-81473000D01*
X104127000Y-81493000D01*
X105669915Y-81493000D01*
X105791904Y-81270961D01*
X105774367Y-81188182D01*
X105663715Y-80928354D01*
X105504500Y-80695105D01*
X105302839Y-80497399D01*
X105073259Y-80347265D01*
X105201101Y-80278932D01*
X105419608Y-80099608D01*
X105598932Y-79881101D01*
X105732182Y-79631808D01*
X105814236Y-79361309D01*
X105841943Y-79080000D01*
X105814236Y-78798691D01*
X105732182Y-78528192D01*
X105598932Y-78278899D01*
X105419608Y-78060392D01*
X105201101Y-77881068D01*
X105068142Y-77810000D01*
X105201101Y-77738932D01*
X105405986Y-77570787D01*
X106070200Y-78235002D01*
X106093999Y-78264001D01*
X106209724Y-78358974D01*
X106341753Y-78429546D01*
X106485014Y-78473003D01*
X106596667Y-78484000D01*
X106596677Y-78484000D01*
X106634000Y-78487676D01*
X106671323Y-78484000D01*
X109698234Y-78484000D01*
X109676987Y-78501437D01*
X109629999Y-78539999D01*
X109606201Y-78568997D01*
X107439003Y-80736196D01*
X107409999Y-80759999D01*
X107356346Y-80825376D01*
X107315026Y-80875724D01*
X107261173Y-80976476D01*
X107244454Y-81007754D01*
X107200997Y-81151015D01*
X107190000Y-81262668D01*
X107190000Y-81262678D01*
X107186324Y-81300000D01*
X107190000Y-81337322D01*
X107190000Y-89715199D01*
X105838072Y-88363271D01*
X105838072Y-87200000D01*
X105825812Y-87075518D01*
X105789502Y-86955820D01*
X105730537Y-86845506D01*
X105651185Y-86748815D01*
X105554494Y-86669463D01*
X105444180Y-86610498D01*
X105324482Y-86574188D01*
X105200000Y-86561928D01*
X102800000Y-86561928D01*
X102675518Y-86574188D01*
X102555820Y-86610498D01*
X102445506Y-86669463D01*
X102348815Y-86748815D01*
X102269463Y-86845506D01*
X102210498Y-86955820D01*
X102174188Y-87075518D01*
X102161928Y-87200000D01*
X102161928Y-88800000D01*
X102174188Y-88924482D01*
X102210498Y-89044180D01*
X102269463Y-89154494D01*
X102348815Y-89251185D01*
X102445506Y-89330537D01*
X102555820Y-89389502D01*
X102675518Y-89425812D01*
X102693482Y-89427581D01*
X102580392Y-89520392D01*
X102401068Y-89738899D01*
X102267818Y-89988192D01*
X102185764Y-90258691D01*
X102158057Y-90540000D01*
X102185764Y-90821309D01*
X102267818Y-91091808D01*
X102401068Y-91341101D01*
X102580392Y-91559608D01*
X102798899Y-91738932D01*
X102931858Y-91810000D01*
X102798899Y-91881068D01*
X102580392Y-92060392D01*
X102401068Y-92278899D01*
X102267818Y-92528192D01*
X102185764Y-92798691D01*
X102158057Y-93080000D01*
X102185764Y-93361309D01*
X102267818Y-93631808D01*
X102401068Y-93881101D01*
X102580392Y-94099608D01*
X102798899Y-94278932D01*
X102931858Y-94350000D01*
X102798899Y-94421068D01*
X102580392Y-94600392D01*
X102401068Y-94818899D01*
X102267818Y-95068192D01*
X102185764Y-95338691D01*
X102158057Y-95620000D01*
X102185764Y-95901309D01*
X102267818Y-96171808D01*
X102401068Y-96421101D01*
X102580392Y-96639608D01*
X102798899Y-96818932D01*
X102931858Y-96890000D01*
X102798899Y-96961068D01*
X102580392Y-97140392D01*
X102401068Y-97358899D01*
X102267818Y-97608192D01*
X102185764Y-97878691D01*
X102158057Y-98160000D01*
X102185764Y-98441309D01*
X102267818Y-98711808D01*
X102401068Y-98961101D01*
X102580392Y-99179608D01*
X102798899Y-99358932D01*
X102931858Y-99430000D01*
X102798899Y-99501068D01*
X102580392Y-99680392D01*
X102401068Y-99898899D01*
X102267818Y-100148192D01*
X102185764Y-100418691D01*
X102158057Y-100700000D01*
X102185764Y-100981309D01*
X102267818Y-101251808D01*
X102401068Y-101501101D01*
X102580392Y-101719608D01*
X102798899Y-101898932D01*
X102931858Y-101970000D01*
X102798899Y-102041068D01*
X102580392Y-102220392D01*
X102401068Y-102438899D01*
X102267818Y-102688192D01*
X102185764Y-102958691D01*
X102158057Y-103240000D01*
X102185764Y-103521309D01*
X102267818Y-103791808D01*
X102401068Y-104041101D01*
X102580392Y-104259608D01*
X102798899Y-104438932D01*
X102926741Y-104507265D01*
X102697161Y-104657399D01*
X102495500Y-104855105D01*
X102336285Y-105088354D01*
X102225633Y-105348182D01*
X102208096Y-105430961D01*
X102330085Y-105653000D01*
X103873000Y-105653000D01*
X103873000Y-105633000D01*
X104127000Y-105633000D01*
X104127000Y-105653000D01*
X105669915Y-105653000D01*
X105791904Y-105430961D01*
X105774367Y-105348182D01*
X105663715Y-105088354D01*
X105504500Y-104855105D01*
X105302839Y-104657399D01*
X105073259Y-104507265D01*
X105201101Y-104438932D01*
X105419608Y-104259608D01*
X105598932Y-104041101D01*
X105723990Y-103807134D01*
X105723990Y-103906668D01*
X105720314Y-103943990D01*
X105723990Y-103981312D01*
X105723990Y-103981322D01*
X105734987Y-104092975D01*
X105774557Y-104223423D01*
X105778444Y-104236236D01*
X105849016Y-104368266D01*
X105883390Y-104410150D01*
X105943989Y-104483991D01*
X105972993Y-104507794D01*
X110318220Y-108853022D01*
X110326142Y-108862675D01*
X110060638Y-108774535D01*
X108198824Y-108542148D01*
X106327447Y-108677449D01*
X104518424Y-109175237D01*
X102841275Y-110016384D01*
X102427497Y-110292862D01*
X101384881Y-111365276D01*
X85390454Y-111365276D01*
X85435000Y-111141335D01*
X85435000Y-110858665D01*
X85379853Y-110581426D01*
X85271680Y-110320273D01*
X85114637Y-110085241D01*
X84914759Y-109885363D01*
X84679727Y-109728320D01*
X84418574Y-109620147D01*
X84141335Y-109565000D01*
X83858665Y-109565000D01*
X83581426Y-109620147D01*
X83320273Y-109728320D01*
X83085241Y-109885363D01*
X82885363Y-110085241D01*
X82728320Y-110320273D01*
X82620147Y-110581426D01*
X82565000Y-110858665D01*
X72735319Y-110858665D01*
X70023480Y-106260329D01*
X70022623Y-106258498D01*
X69988914Y-106186119D01*
X69962457Y-106129039D01*
X102208096Y-106129039D01*
X102225633Y-106211818D01*
X102336285Y-106471646D01*
X102495500Y-106704895D01*
X102697161Y-106902601D01*
X102933517Y-107057166D01*
X103195486Y-107162650D01*
X103473000Y-107215000D01*
X103873000Y-107215000D01*
X103873000Y-105907000D01*
X104127000Y-105907000D01*
X104127000Y-107215000D01*
X104527000Y-107215000D01*
X104804514Y-107162650D01*
X105066483Y-107057166D01*
X105302839Y-106902601D01*
X105504500Y-106704895D01*
X105663715Y-106471646D01*
X105774367Y-106211818D01*
X105791904Y-106129039D01*
X105669915Y-105907000D01*
X104127000Y-105907000D01*
X103873000Y-105907000D01*
X102330085Y-105907000D01*
X102208096Y-106129039D01*
X69962457Y-106129039D01*
X69958688Y-106120908D01*
X69931757Y-106062556D01*
X69905115Y-106004599D01*
X69875340Y-105939547D01*
X69842348Y-105867126D01*
X69812849Y-105802058D01*
X69783043Y-105736012D01*
X69750640Y-105663871D01*
X69714761Y-105583552D01*
X69672850Y-105489153D01*
X69640524Y-105415910D01*
X69614749Y-105357241D01*
X69589556Y-105299657D01*
X69563847Y-105240651D01*
X69535299Y-105174832D01*
X69510064Y-105116400D01*
X69481540Y-105050048D01*
X69456468Y-104991466D01*
X69425528Y-104918832D01*
X69400468Y-104859720D01*
X69369713Y-104786829D01*
X69338626Y-104712761D01*
X69314044Y-104653908D01*
X69286588Y-104587867D01*
X69262113Y-104528736D01*
X69231742Y-104454992D01*
X69204641Y-104388851D01*
X69174523Y-104314971D01*
X69138564Y-104226229D01*
X69108978Y-104152769D01*
X69085179Y-104093384D01*
X69049709Y-104004393D01*
X69014572Y-103915645D01*
X68985293Y-103841237D01*
X68975333Y-103815795D01*
X89742262Y-103815795D01*
X89769969Y-104097104D01*
X89852023Y-104367603D01*
X89985273Y-104616896D01*
X90164597Y-104835403D01*
X90383104Y-105014727D01*
X90632397Y-105147977D01*
X90902896Y-105230031D01*
X91113713Y-105250795D01*
X91254697Y-105250795D01*
X91465514Y-105230031D01*
X91736013Y-105147977D01*
X91985306Y-105014727D01*
X92203813Y-104835403D01*
X92383137Y-104616896D01*
X92516387Y-104367603D01*
X92598441Y-104097104D01*
X92626148Y-103815795D01*
X92598441Y-103534486D01*
X92516387Y-103263987D01*
X92383137Y-103014694D01*
X92203813Y-102796187D01*
X91985306Y-102616863D01*
X91736013Y-102483613D01*
X91465514Y-102401559D01*
X91254697Y-102380795D01*
X91113713Y-102380795D01*
X90902896Y-102401559D01*
X90632397Y-102483613D01*
X90383104Y-102616863D01*
X90164597Y-102796187D01*
X89985273Y-103014694D01*
X89852023Y-103263987D01*
X89769969Y-103534486D01*
X89742262Y-103815795D01*
X68975333Y-103815795D01*
X68961999Y-103781740D01*
X68937267Y-103718274D01*
X68910174Y-103648396D01*
X68884245Y-103581178D01*
X68861266Y-103521309D01*
X68832976Y-103447228D01*
X68807515Y-103380191D01*
X68782114Y-103312963D01*
X68759622Y-103253148D01*
X68726280Y-103163956D01*
X68698230Y-103088434D01*
X68673548Y-103021611D01*
X68648830Y-102954340D01*
X68624114Y-102886722D01*
X68594286Y-102804623D01*
X68572608Y-102744623D01*
X68546906Y-102673099D01*
X68521389Y-102601698D01*
X68489407Y-102511619D01*
X68465491Y-102443828D01*
X68444475Y-102383954D01*
X68423482Y-102323849D01*
X68402456Y-102263347D01*
X68381704Y-102203345D01*
X68358190Y-102135000D01*
X68331119Y-102055828D01*
X68298979Y-101961164D01*
X68278566Y-101900651D01*
X68278348Y-101900000D01*
X69461928Y-101900000D01*
X69474188Y-102024482D01*
X69510498Y-102144180D01*
X69569463Y-102254494D01*
X69648815Y-102351185D01*
X69745506Y-102430537D01*
X69855820Y-102489502D01*
X69975518Y-102525812D01*
X70100000Y-102538072D01*
X70714250Y-102535000D01*
X70873000Y-102376250D01*
X70873000Y-101127000D01*
X69623750Y-101127000D01*
X69465000Y-101285750D01*
X69461928Y-101900000D01*
X68278348Y-101900000D01*
X68258598Y-101841157D01*
X68238143Y-101779902D01*
X68218184Y-101719825D01*
X68195567Y-101651387D01*
X68173163Y-101583194D01*
X68150925Y-101515117D01*
X68131010Y-101453811D01*
X68111615Y-101393798D01*
X68082251Y-101302342D01*
X68058207Y-101226905D01*
X68038619Y-101165087D01*
X68019573Y-101104659D01*
X67998222Y-101036533D01*
X67978974Y-100974763D01*
X67960219Y-100914251D01*
X67925071Y-100799967D01*
X67901744Y-100723465D01*
X67883166Y-100662169D01*
X67862633Y-100594022D01*
X67844233Y-100532589D01*
X67823667Y-100463529D01*
X67805549Y-100402316D01*
X67785317Y-100333558D01*
X67767406Y-100272316D01*
X67749714Y-100211477D01*
X67729600Y-100141894D01*
X67717573Y-100100000D01*
X69461928Y-100100000D01*
X69465000Y-100714250D01*
X69623750Y-100873000D01*
X70873000Y-100873000D01*
X70873000Y-99623750D01*
X71127000Y-99623750D01*
X71127000Y-100873000D01*
X71147000Y-100873000D01*
X71147000Y-101127000D01*
X71127000Y-101127000D01*
X71127000Y-102376250D01*
X71285750Y-102535000D01*
X71900000Y-102538072D01*
X72024482Y-102525812D01*
X72144180Y-102489502D01*
X72254494Y-102430537D01*
X72351185Y-102351185D01*
X72430537Y-102254494D01*
X72489502Y-102144180D01*
X72495056Y-102125873D01*
X72561495Y-102192312D01*
X72812905Y-102360299D01*
X73092257Y-102476011D01*
X73388816Y-102535000D01*
X73691184Y-102535000D01*
X73987743Y-102476011D01*
X74267095Y-102360299D01*
X74518505Y-102192312D01*
X74732312Y-101978505D01*
X74900299Y-101727095D01*
X75016011Y-101447743D01*
X75075000Y-101151184D01*
X75075000Y-100848816D01*
X75016011Y-100552257D01*
X74900299Y-100272905D01*
X74732312Y-100021495D01*
X74518505Y-99807688D01*
X74267095Y-99639701D01*
X73987743Y-99523989D01*
X73691184Y-99465000D01*
X73388816Y-99465000D01*
X73092257Y-99523989D01*
X72812905Y-99639701D01*
X72561495Y-99807688D01*
X72495056Y-99874127D01*
X72489502Y-99855820D01*
X72430537Y-99745506D01*
X72351185Y-99648815D01*
X72254494Y-99569463D01*
X72144180Y-99510498D01*
X72024482Y-99474188D01*
X71900000Y-99461928D01*
X71285750Y-99465000D01*
X71127000Y-99623750D01*
X70873000Y-99623750D01*
X70714250Y-99465000D01*
X70100000Y-99461928D01*
X69975518Y-99474188D01*
X69855820Y-99510498D01*
X69745506Y-99569463D01*
X69648815Y-99648815D01*
X69569463Y-99745506D01*
X69510498Y-99855820D01*
X69474188Y-99975518D01*
X69461928Y-100100000D01*
X67717573Y-100100000D01*
X67707398Y-100064559D01*
X67690058Y-100003765D01*
X67672749Y-99942725D01*
X67648794Y-99857671D01*
X67629456Y-99788501D01*
X67605976Y-99703892D01*
X67582596Y-99618946D01*
X67563764Y-99550015D01*
X67542820Y-99472800D01*
X67524128Y-99403395D01*
X67505537Y-99333889D01*
X67485052Y-99256729D01*
X67466773Y-99187385D01*
X67444466Y-99102093D01*
X67422430Y-99017104D01*
X67404502Y-98947418D01*
X67386711Y-98877760D01*
X67359336Y-98769593D01*
X67334003Y-98668401D01*
X67316610Y-98598301D01*
X67295763Y-98513577D01*
X67274934Y-98428168D01*
X67254252Y-98342569D01*
X67237528Y-98272772D01*
X67198736Y-98108798D01*
X67182411Y-98038898D01*
X67164380Y-97961047D01*
X67142984Y-97867783D01*
X67118145Y-97758259D01*
X67100609Y-97680113D01*
X67081631Y-97594737D01*
X67066054Y-97524025D01*
X67050698Y-97453732D01*
X67030483Y-97360297D01*
X67012040Y-97274148D01*
X66996999Y-97203217D01*
X66980632Y-97125339D01*
X66965904Y-97054621D01*
X66949727Y-96976227D01*
X66932108Y-96889976D01*
X66914638Y-96803529D01*
X66900479Y-96732762D01*
X66884956Y-96654441D01*
X66869502Y-96575673D01*
X66855796Y-96505139D01*
X66842189Y-96434473D01*
X66828525Y-96362835D01*
X66815308Y-96292887D01*
X66800542Y-96213958D01*
X66787361Y-96142777D01*
X66772887Y-96063814D01*
X66757188Y-95977183D01*
X66740192Y-95882201D01*
X66720787Y-95772174D01*
X66708380Y-95700916D01*
X66694780Y-95621950D01*
X66682661Y-95550811D01*
X66670654Y-95479582D01*
X66658810Y-95408584D01*
X66646943Y-95336675D01*
X66635479Y-95266452D01*
X66623823Y-95194262D01*
X66611302Y-95115810D01*
X66588821Y-94972491D01*
X66577863Y-94901427D01*
X66571354Y-94858665D01*
X79565000Y-94858665D01*
X79565000Y-95141335D01*
X79620147Y-95418574D01*
X79728320Y-95679727D01*
X79885363Y-95914759D01*
X80085241Y-96114637D01*
X80320273Y-96271680D01*
X80581426Y-96379853D01*
X80858665Y-96435000D01*
X81141335Y-96435000D01*
X81418574Y-96379853D01*
X81679727Y-96271680D01*
X81914759Y-96114637D01*
X82114637Y-95914759D01*
X82271680Y-95679727D01*
X82379853Y-95418574D01*
X82435000Y-95141335D01*
X82435000Y-95000000D01*
X89718057Y-95000000D01*
X89745764Y-95281309D01*
X89827818Y-95551808D01*
X89961068Y-95801101D01*
X90140392Y-96019608D01*
X90358899Y-96198932D01*
X90608192Y-96332182D01*
X90878691Y-96414236D01*
X91089508Y-96435000D01*
X91230492Y-96435000D01*
X91441309Y-96414236D01*
X91711808Y-96332182D01*
X91961101Y-96198932D01*
X92179608Y-96019608D01*
X92358932Y-95801101D01*
X92492182Y-95551808D01*
X92574236Y-95281309D01*
X92601943Y-95000000D01*
X92574236Y-94718691D01*
X92492182Y-94448192D01*
X92358932Y-94198899D01*
X92179608Y-93980392D01*
X91961101Y-93801068D01*
X91711808Y-93667818D01*
X91441309Y-93585764D01*
X91230492Y-93565000D01*
X91089508Y-93565000D01*
X90878691Y-93585764D01*
X90608192Y-93667818D01*
X90358899Y-93801068D01*
X90140392Y-93980392D01*
X89961068Y-94198899D01*
X89827818Y-94448192D01*
X89745764Y-94718691D01*
X89718057Y-95000000D01*
X82435000Y-95000000D01*
X82435000Y-94858665D01*
X82379853Y-94581426D01*
X82271680Y-94320273D01*
X82114637Y-94085241D01*
X81914759Y-93885363D01*
X81679727Y-93728320D01*
X81418574Y-93620147D01*
X81141335Y-93565000D01*
X80858665Y-93565000D01*
X80581426Y-93620147D01*
X80320273Y-93728320D01*
X80085241Y-93885363D01*
X79885363Y-94085241D01*
X79728320Y-94320273D01*
X79620147Y-94581426D01*
X79565000Y-94858665D01*
X66571354Y-94858665D01*
X66564576Y-94814144D01*
X66553747Y-94742077D01*
X66543229Y-94671257D01*
X66531551Y-94591623D01*
X66520076Y-94512313D01*
X66509819Y-94440491D01*
X66498642Y-94361200D01*
X66487559Y-94281466D01*
X66477787Y-94210209D01*
X66467970Y-94137689D01*
X66458393Y-94066002D01*
X66447969Y-93986890D01*
X66437662Y-93907476D01*
X66421366Y-93779419D01*
X66410459Y-93691900D01*
X66400643Y-93611828D01*
X66392036Y-93540528D01*
X66383367Y-93467655D01*
X66374988Y-93396169D01*
X66363950Y-93300306D01*
X66354941Y-93220597D01*
X66345122Y-93132108D01*
X66337351Y-93060826D01*
X66328713Y-92980226D01*
X66321124Y-92908166D01*
X66310383Y-92804064D01*
X66302300Y-92723973D01*
X66295196Y-92652288D01*
X66288130Y-92579708D01*
X66281248Y-92507709D01*
X66274441Y-92435158D01*
X66267066Y-92355022D01*
X66259850Y-92274873D01*
X66252777Y-92194594D01*
X66245855Y-92114267D01*
X66239068Y-92033678D01*
X66230495Y-91929108D01*
X66224113Y-91849118D01*
X66217239Y-91760664D01*
X66208133Y-91639563D01*
X66201116Y-91542878D01*
X66195412Y-91461923D01*
X66189951Y-91382185D01*
X66184588Y-91301617D01*
X66179362Y-91220756D01*
X66174328Y-91140448D01*
X66168921Y-91051305D01*
X66164188Y-90970578D01*
X66159617Y-90889905D01*
X66155216Y-90809531D01*
X66150951Y-90728695D01*
X66146055Y-90632053D01*
X66142121Y-90551031D01*
X66138347Y-90470084D01*
X66134740Y-90389326D01*
X66130616Y-90292388D01*
X66127347Y-90211468D01*
X66123332Y-90106256D01*
X66120427Y-90025476D01*
X66117675Y-89944565D01*
X66114813Y-89855024D01*
X66111940Y-89758451D01*
X66109693Y-89677089D01*
X66107616Y-89596122D01*
X66105513Y-89507240D01*
X66103586Y-89417698D01*
X66102008Y-89336666D01*
X66100456Y-89247752D01*
X66099086Y-89158310D01*
X66098011Y-89077167D01*
X66096926Y-88979905D01*
X66096191Y-88898342D01*
X66095619Y-88817286D01*
X66095201Y-88736054D01*
X66094944Y-88655031D01*
X66094843Y-88561806D01*
X66095061Y-88469331D01*
X66095530Y-88368801D01*
X66096358Y-88253770D01*
X66097331Y-88153968D01*
X66099353Y-87996081D01*
X66101692Y-87853072D01*
X66105142Y-87681317D01*
X66108184Y-87552606D01*
X66112009Y-87410273D01*
X66117730Y-87224245D01*
X66122148Y-87096135D01*
X66126403Y-86982257D01*
X66132160Y-86839824D01*
X66137107Y-86726026D01*
X66142357Y-86612309D01*
X66147213Y-86512613D01*
X66153015Y-86399416D01*
X66163136Y-86214799D01*
X66178498Y-85959063D01*
X66184973Y-85858665D01*
X79565000Y-85858665D01*
X79565000Y-86141335D01*
X79620147Y-86418574D01*
X79728320Y-86679727D01*
X79885363Y-86914759D01*
X80085241Y-87114637D01*
X80320273Y-87271680D01*
X80581426Y-87379853D01*
X80858665Y-87435000D01*
X81141335Y-87435000D01*
X81418574Y-87379853D01*
X81679727Y-87271680D01*
X81914759Y-87114637D01*
X82114637Y-86914759D01*
X82271680Y-86679727D01*
X82379853Y-86418574D01*
X82435000Y-86141335D01*
X82435000Y-86000000D01*
X89718057Y-86000000D01*
X89745764Y-86281309D01*
X89827818Y-86551808D01*
X89961068Y-86801101D01*
X90140392Y-87019608D01*
X90358899Y-87198932D01*
X90608192Y-87332182D01*
X90878691Y-87414236D01*
X91089508Y-87435000D01*
X91230492Y-87435000D01*
X91441309Y-87414236D01*
X91711808Y-87332182D01*
X91961101Y-87198932D01*
X92179608Y-87019608D01*
X92358932Y-86801101D01*
X92492182Y-86551808D01*
X92574236Y-86281309D01*
X92601943Y-86000000D01*
X92574236Y-85718691D01*
X92492182Y-85448192D01*
X92358932Y-85198899D01*
X92179608Y-84980392D01*
X91961101Y-84801068D01*
X91711808Y-84667818D01*
X91441309Y-84585764D01*
X91230492Y-84565000D01*
X91089508Y-84565000D01*
X90878691Y-84585764D01*
X90608192Y-84667818D01*
X90358899Y-84801068D01*
X90140392Y-84980392D01*
X89961068Y-85198899D01*
X89827818Y-85448192D01*
X89745764Y-85718691D01*
X89718057Y-86000000D01*
X82435000Y-86000000D01*
X82435000Y-85858665D01*
X82379853Y-85581426D01*
X82271680Y-85320273D01*
X82114637Y-85085241D01*
X81914759Y-84885363D01*
X81679727Y-84728320D01*
X81418574Y-84620147D01*
X81141335Y-84565000D01*
X80858665Y-84565000D01*
X80581426Y-84620147D01*
X80320273Y-84728320D01*
X80085241Y-84885363D01*
X79885363Y-85085241D01*
X79728320Y-85320273D01*
X79620147Y-85581426D01*
X79565000Y-85858665D01*
X66184973Y-85858665D01*
X66185794Y-85845946D01*
X66194347Y-85718985D01*
X66207459Y-85534551D01*
X66216913Y-85408235D01*
X66231391Y-85223949D01*
X66241794Y-85097561D01*
X66251433Y-84984422D01*
X66258776Y-84900574D01*
X66272819Y-84745324D01*
X66288714Y-84576898D01*
X66308154Y-84380093D01*
X66325552Y-84211540D01*
X66339049Y-84085155D01*
X66348188Y-84001587D01*
X66362280Y-83875636D01*
X66371843Y-83792104D01*
X66393241Y-83610294D01*
X66422444Y-83372516D01*
X66447511Y-83176863D01*
X66456478Y-83108609D01*
X66482770Y-82913287D01*
X66519904Y-82648521D01*
X66533801Y-82552489D01*
X66560597Y-82371603D01*
X66575303Y-82274578D01*
X66585804Y-82206234D01*
X66611931Y-82039344D01*
X66623167Y-81969039D01*
X102208096Y-81969039D01*
X102225633Y-82051818D01*
X102336285Y-82311646D01*
X102495500Y-82544895D01*
X102697161Y-82742601D01*
X102933517Y-82897166D01*
X103195486Y-83002650D01*
X103473000Y-83055000D01*
X103873000Y-83055000D01*
X103873000Y-81747000D01*
X104127000Y-81747000D01*
X104127000Y-83055000D01*
X104527000Y-83055000D01*
X104804514Y-83002650D01*
X105066483Y-82897166D01*
X105302839Y-82742601D01*
X105504500Y-82544895D01*
X105663715Y-82311646D01*
X105774367Y-82051818D01*
X105791904Y-81969039D01*
X105669915Y-81747000D01*
X104127000Y-81747000D01*
X103873000Y-81747000D01*
X102330085Y-81747000D01*
X102208096Y-81969039D01*
X66623167Y-81969039D01*
X66627299Y-81943190D01*
X66642867Y-81847223D01*
X66691492Y-81556132D01*
X66705555Y-81474235D01*
X66717240Y-81406920D01*
X66789220Y-81005816D01*
X66804213Y-80925006D01*
X66822259Y-80828892D01*
X66839771Y-80736812D01*
X67010536Y-79900000D01*
X69461928Y-79900000D01*
X69474188Y-80024482D01*
X69510498Y-80144180D01*
X69569463Y-80254494D01*
X69648815Y-80351185D01*
X69745506Y-80430537D01*
X69855820Y-80489502D01*
X69975518Y-80525812D01*
X70100000Y-80538072D01*
X70714250Y-80535000D01*
X70873000Y-80376250D01*
X70873000Y-79127000D01*
X69623750Y-79127000D01*
X69465000Y-79285750D01*
X69461928Y-79900000D01*
X67010536Y-79900000D01*
X67044347Y-79734316D01*
X67070143Y-79616194D01*
X67124806Y-79371160D01*
X67146309Y-79276628D01*
X67161733Y-79209443D01*
X67183478Y-79115577D01*
X67254197Y-78816891D01*
X67270192Y-78750679D01*
X67303027Y-78616191D01*
X67356750Y-78400225D01*
X67373282Y-78334747D01*
X67433667Y-78100000D01*
X69461928Y-78100000D01*
X69465000Y-78714250D01*
X69623750Y-78873000D01*
X70873000Y-78873000D01*
X70873000Y-77623750D01*
X71127000Y-77623750D01*
X71127000Y-78873000D01*
X71147000Y-78873000D01*
X71147000Y-79127000D01*
X71127000Y-79127000D01*
X71127000Y-80376250D01*
X71285750Y-80535000D01*
X71900000Y-80538072D01*
X72024482Y-80525812D01*
X72144180Y-80489502D01*
X72254494Y-80430537D01*
X72351185Y-80351185D01*
X72430537Y-80254494D01*
X72489502Y-80144180D01*
X72495056Y-80125873D01*
X72561495Y-80192312D01*
X72812905Y-80360299D01*
X73092257Y-80476011D01*
X73388816Y-80535000D01*
X73691184Y-80535000D01*
X73987743Y-80476011D01*
X74267095Y-80360299D01*
X74518505Y-80192312D01*
X74732312Y-79978505D01*
X74900299Y-79727095D01*
X75016011Y-79447743D01*
X75075000Y-79151184D01*
X75075000Y-78848816D01*
X75016011Y-78552257D01*
X74900299Y-78272905D01*
X74732312Y-78021495D01*
X74518505Y-77807688D01*
X74267095Y-77639701D01*
X73987743Y-77523989D01*
X73691184Y-77465000D01*
X73388816Y-77465000D01*
X73092257Y-77523989D01*
X72812905Y-77639701D01*
X72561495Y-77807688D01*
X72495056Y-77874127D01*
X72489502Y-77855820D01*
X72430537Y-77745506D01*
X72351185Y-77648815D01*
X72254494Y-77569463D01*
X72144180Y-77510498D01*
X72024482Y-77474188D01*
X71900000Y-77461928D01*
X71285750Y-77465000D01*
X71127000Y-77623750D01*
X70873000Y-77623750D01*
X70714250Y-77465000D01*
X70100000Y-77461928D01*
X69975518Y-77474188D01*
X69855820Y-77510498D01*
X69745506Y-77569463D01*
X69648815Y-77648815D01*
X69569463Y-77745506D01*
X69510498Y-77855820D01*
X69474188Y-77975518D01*
X69461928Y-78100000D01*
X67433667Y-78100000D01*
X67449664Y-78037814D01*
X67466760Y-77972571D01*
X67523722Y-77758229D01*
X67589163Y-77517473D01*
X67611001Y-77438374D01*
X67655559Y-77278838D01*
X67716070Y-77066008D01*
X67754425Y-76933282D01*
X67773594Y-76867560D01*
X67816468Y-76722000D01*
X67875863Y-76523509D01*
X67923966Y-76365334D01*
X67956384Y-76259989D01*
X67979911Y-76184205D01*
X89742262Y-76184205D01*
X89769969Y-76465514D01*
X89852023Y-76736013D01*
X89985273Y-76985306D01*
X90164597Y-77203813D01*
X90383104Y-77383137D01*
X90632397Y-77516387D01*
X90902896Y-77598441D01*
X91113713Y-77619205D01*
X91254697Y-77619205D01*
X91465514Y-77598441D01*
X91736013Y-77516387D01*
X91985306Y-77383137D01*
X92203813Y-77203813D01*
X92383137Y-76985306D01*
X92516387Y-76736013D01*
X92598441Y-76465514D01*
X92626148Y-76184205D01*
X92598441Y-75902896D01*
X92516387Y-75632397D01*
X92383137Y-75383104D01*
X92203813Y-75164597D01*
X91985306Y-74985273D01*
X91736013Y-74852023D01*
X91465514Y-74769969D01*
X91254697Y-74749205D01*
X91113713Y-74749205D01*
X90902896Y-74769969D01*
X90632397Y-74852023D01*
X90383104Y-74985273D01*
X90164597Y-75164597D01*
X89985273Y-75383104D01*
X89852023Y-75632397D01*
X89769969Y-75902896D01*
X89742262Y-76184205D01*
X67979911Y-76184205D01*
X67984907Y-76168114D01*
X68017734Y-76063284D01*
X68059407Y-75931584D01*
X68101285Y-75800744D01*
X68152384Y-75643072D01*
X68177783Y-75565491D01*
X68229713Y-75408442D01*
X68277753Y-75264983D01*
X68321832Y-75134857D01*
X68361916Y-75017728D01*
X68397761Y-74913939D01*
X68438394Y-74797341D01*
X68474901Y-74693531D01*
X68506969Y-74603046D01*
X68543854Y-74499791D01*
X68585825Y-74383320D01*
X68623297Y-74280242D01*
X68656315Y-74190108D01*
X68694324Y-74087135D01*
X68732579Y-73984332D01*
X68756445Y-73920613D01*
X68795424Y-73817218D01*
X68829318Y-73727982D01*
X68868692Y-73625074D01*
X68893096Y-73561702D01*
X68932963Y-73458832D01*
X68962609Y-73382856D01*
X69002674Y-73280866D01*
X69058278Y-73140607D01*
X69093912Y-73051487D01*
X69129375Y-72963390D01*
X69217509Y-72746901D01*
X69274888Y-72607793D01*
X69316637Y-72507466D01*
X69369808Y-72380743D01*
X69401540Y-72305668D01*
X69455199Y-72179639D01*
X69487606Y-72104074D01*
X69525435Y-72016383D01*
X69552408Y-71954191D01*
X69612890Y-71815733D01*
X69662328Y-71703558D01*
X69701203Y-71615975D01*
X69728820Y-71554083D01*
X69779382Y-71441461D01*
X69812969Y-71367140D01*
X69831417Y-71326510D01*
X71343967Y-68858665D01*
X82565000Y-68858665D01*
X82565000Y-69141335D01*
X82620147Y-69418574D01*
X82728320Y-69679727D01*
X82885363Y-69914759D01*
X83085241Y-70114637D01*
X83320273Y-70271680D01*
X83581426Y-70379853D01*
X83858665Y-70435000D01*
X84141335Y-70435000D01*
X84418574Y-70379853D01*
X84679727Y-70271680D01*
X84914759Y-70114637D01*
X85114637Y-69914759D01*
X85271680Y-69679727D01*
X85379853Y-69418574D01*
X85431287Y-69160000D01*
X106558057Y-69160000D01*
X106585764Y-69441309D01*
X106667818Y-69711808D01*
X106801068Y-69961101D01*
X106980392Y-70179608D01*
X107198899Y-70358932D01*
X107448192Y-70492182D01*
X107718691Y-70574236D01*
X107929508Y-70595000D01*
X108070492Y-70595000D01*
X108281309Y-70574236D01*
X108551808Y-70492182D01*
X108801101Y-70358932D01*
X109019608Y-70179608D01*
X109198932Y-69961101D01*
X109332182Y-69711808D01*
X109414236Y-69441309D01*
X109441943Y-69160000D01*
X109414236Y-68878691D01*
X109408162Y-68858665D01*
X128565000Y-68858665D01*
X128565000Y-69141335D01*
X128620147Y-69418574D01*
X128728320Y-69679727D01*
X128885363Y-69914759D01*
X129085241Y-70114637D01*
X129320273Y-70271680D01*
X129581426Y-70379853D01*
X129858665Y-70435000D01*
X130141335Y-70435000D01*
X130418574Y-70379853D01*
X130679727Y-70271680D01*
X130914759Y-70114637D01*
X131114637Y-69914759D01*
X131271680Y-69679727D01*
X131379853Y-69418574D01*
X131435000Y-69141335D01*
X131435000Y-68858665D01*
X131379853Y-68581426D01*
X131271680Y-68320273D01*
X131114637Y-68085241D01*
X130914759Y-67885363D01*
X130679727Y-67728320D01*
X130418574Y-67620147D01*
X130141335Y-67565000D01*
X129858665Y-67565000D01*
X129581426Y-67620147D01*
X129320273Y-67728320D01*
X129085241Y-67885363D01*
X128885363Y-68085241D01*
X128728320Y-68320273D01*
X128620147Y-68581426D01*
X128565000Y-68858665D01*
X109408162Y-68858665D01*
X109332182Y-68608192D01*
X109198932Y-68358899D01*
X109019608Y-68140392D01*
X108801101Y-67961068D01*
X108551808Y-67827818D01*
X108281309Y-67745764D01*
X108070492Y-67725000D01*
X107929508Y-67725000D01*
X107718691Y-67745764D01*
X107448192Y-67827818D01*
X107198899Y-67961068D01*
X106980392Y-68140392D01*
X106801068Y-68358899D01*
X106667818Y-68608192D01*
X106585764Y-68878691D01*
X106558057Y-69160000D01*
X85431287Y-69160000D01*
X85435000Y-69141335D01*
X85435000Y-68858665D01*
X85379853Y-68581426D01*
X85271680Y-68320273D01*
X85114637Y-68085241D01*
X84914759Y-67885363D01*
X84679727Y-67728320D01*
X84418574Y-67620147D01*
X84141335Y-67565000D01*
X83858665Y-67565000D01*
X83581426Y-67620147D01*
X83320273Y-67728320D01*
X83085241Y-67885363D01*
X82885363Y-68085241D01*
X82728320Y-68320273D01*
X82620147Y-68581426D01*
X82565000Y-68858665D01*
X71343967Y-68858665D01*
X72623685Y-66770702D01*
X91580903Y-66770702D01*
X91652486Y-67014671D01*
X91907996Y-67135571D01*
X92182184Y-67204300D01*
X92464512Y-67218217D01*
X92744130Y-67176787D01*
X93010292Y-67081603D01*
X93135514Y-67014671D01*
X93207097Y-66770702D01*
X92394000Y-65957605D01*
X91580903Y-66770702D01*
X72623685Y-66770702D01*
X73188899Y-65848512D01*
X90953783Y-65848512D01*
X90995213Y-66128130D01*
X91090397Y-66394292D01*
X91157329Y-66519514D01*
X91401298Y-66591097D01*
X92214395Y-65778000D01*
X92573605Y-65778000D01*
X93386702Y-66591097D01*
X93630671Y-66519514D01*
X93751571Y-66264004D01*
X93820300Y-65989816D01*
X93834217Y-65707488D01*
X93792787Y-65427870D01*
X93697603Y-65161708D01*
X93630671Y-65036486D01*
X93386702Y-64964903D01*
X92573605Y-65778000D01*
X92214395Y-65778000D01*
X91401298Y-64964903D01*
X91157329Y-65036486D01*
X91036429Y-65291996D01*
X90967700Y-65566184D01*
X90953783Y-65848512D01*
X73188899Y-65848512D01*
X73840546Y-64785298D01*
X91580903Y-64785298D01*
X92394000Y-65598395D01*
X93207097Y-64785298D01*
X93135514Y-64541329D01*
X92880004Y-64420429D01*
X92605816Y-64351700D01*
X92323488Y-64337783D01*
X92043870Y-64379213D01*
X91777708Y-64474397D01*
X91652486Y-64541329D01*
X91580903Y-64785298D01*
X73840546Y-64785298D01*
X74270659Y-64083537D01*
X77931253Y-59900000D01*
X80461928Y-59900000D01*
X80474188Y-60024482D01*
X80510498Y-60144180D01*
X80569463Y-60254494D01*
X80648815Y-60351185D01*
X80745506Y-60430537D01*
X80855820Y-60489502D01*
X80975518Y-60525812D01*
X81100000Y-60538072D01*
X81714250Y-60535000D01*
X81873000Y-60376250D01*
X81873000Y-59127000D01*
X80623750Y-59127000D01*
X80465000Y-59285750D01*
X80461928Y-59900000D01*
X77931253Y-59900000D01*
X79506253Y-58100000D01*
X80461928Y-58100000D01*
X80465000Y-58714250D01*
X80623750Y-58873000D01*
X81873000Y-58873000D01*
X81873000Y-57623750D01*
X82127000Y-57623750D01*
X82127000Y-58873000D01*
X82147000Y-58873000D01*
X82147000Y-59127000D01*
X82127000Y-59127000D01*
X82127000Y-60376250D01*
X82285750Y-60535000D01*
X82900000Y-60538072D01*
X83024482Y-60525812D01*
X83144180Y-60489502D01*
X83254494Y-60430537D01*
X83351185Y-60351185D01*
X83430537Y-60254494D01*
X83489502Y-60144180D01*
X83495056Y-60125873D01*
X83561495Y-60192312D01*
X83812905Y-60360299D01*
X84092257Y-60476011D01*
X84388816Y-60535000D01*
X84691184Y-60535000D01*
X84987743Y-60476011D01*
X85267095Y-60360299D01*
X85518505Y-60192312D01*
X85732312Y-59978505D01*
X85900299Y-59727095D01*
X85935688Y-59641658D01*
X92509699Y-59641658D01*
X92509699Y-59914342D01*
X92562897Y-60181785D01*
X92667248Y-60433712D01*
X92818743Y-60660440D01*
X93011559Y-60853256D01*
X93238287Y-61004751D01*
X93490214Y-61109102D01*
X93757657Y-61162300D01*
X94030341Y-61162300D01*
X94297784Y-61109102D01*
X94549711Y-61004751D01*
X94776439Y-60853256D01*
X94969255Y-60660440D01*
X95120750Y-60433712D01*
X95225101Y-60181785D01*
X95278299Y-59914342D01*
X95278299Y-59641658D01*
X95225101Y-59374215D01*
X95120750Y-59122288D01*
X94969255Y-58895560D01*
X94776439Y-58702744D01*
X94549711Y-58551249D01*
X94297784Y-58446898D01*
X94030341Y-58393700D01*
X93757657Y-58393700D01*
X93490214Y-58446898D01*
X93238287Y-58551249D01*
X93011559Y-58702744D01*
X92818743Y-58895560D01*
X92667248Y-59122288D01*
X92562897Y-59374215D01*
X92509699Y-59641658D01*
X85935688Y-59641658D01*
X86016011Y-59447743D01*
X86075000Y-59151184D01*
X86075000Y-58848816D01*
X86016011Y-58552257D01*
X85900299Y-58272905D01*
X85732312Y-58021495D01*
X85518505Y-57807688D01*
X85267095Y-57639701D01*
X84987743Y-57523989D01*
X84691184Y-57465000D01*
X84388816Y-57465000D01*
X84092257Y-57523989D01*
X83812905Y-57639701D01*
X83561495Y-57807688D01*
X83495056Y-57874127D01*
X83489502Y-57855820D01*
X83430537Y-57745506D01*
X83351185Y-57648815D01*
X83254494Y-57569463D01*
X83144180Y-57510498D01*
X83024482Y-57474188D01*
X82900000Y-57461928D01*
X82285750Y-57465000D01*
X82127000Y-57623750D01*
X81873000Y-57623750D01*
X81714250Y-57465000D01*
X81100000Y-57461928D01*
X80975518Y-57474188D01*
X80855820Y-57510498D01*
X80745506Y-57569463D01*
X80648815Y-57648815D01*
X80569463Y-57745506D01*
X80510498Y-57855820D01*
X80474188Y-57975518D01*
X80461928Y-58100000D01*
X79506253Y-58100000D01*
X79506295Y-58099952D01*
X79816047Y-57812794D01*
X83700459Y-54528699D01*
X92506627Y-54528699D01*
X92506627Y-56027299D01*
X92518887Y-56151781D01*
X92555197Y-56271479D01*
X92614162Y-56381793D01*
X92693514Y-56478484D01*
X92790205Y-56557836D01*
X92900519Y-56616801D01*
X93020217Y-56653111D01*
X93144699Y-56665371D01*
X94643299Y-56665371D01*
X94767781Y-56653111D01*
X94887479Y-56616801D01*
X94997793Y-56557836D01*
X95094484Y-56478484D01*
X95173419Y-56382300D01*
X98556024Y-56382300D01*
X98559701Y-56419632D01*
X98559700Y-62452377D01*
X98556024Y-62489700D01*
X98559700Y-62527022D01*
X98559700Y-62527032D01*
X98570697Y-62638685D01*
X98606274Y-62755968D01*
X98614154Y-62781946D01*
X98684726Y-62913976D01*
X98716514Y-62952709D01*
X98779699Y-63029701D01*
X98808703Y-63053504D01*
X101165860Y-65410662D01*
X101139764Y-65496691D01*
X101112057Y-65778000D01*
X101139764Y-66059309D01*
X101221818Y-66329808D01*
X101355068Y-66579101D01*
X101534392Y-66797608D01*
X101752899Y-66976932D01*
X102002192Y-67110182D01*
X102272691Y-67192236D01*
X102483508Y-67213000D01*
X102624492Y-67213000D01*
X102835309Y-67192236D01*
X103105808Y-67110182D01*
X103355101Y-66976932D01*
X103573608Y-66797608D01*
X103752932Y-66579101D01*
X103886182Y-66329808D01*
X103968236Y-66059309D01*
X103995943Y-65778000D01*
X103968236Y-65496691D01*
X103886182Y-65226192D01*
X103752932Y-64976899D01*
X103573608Y-64758392D01*
X103355101Y-64579068D01*
X103105808Y-64445818D01*
X102835309Y-64363764D01*
X102624492Y-64343000D01*
X102483508Y-64343000D01*
X102272691Y-64363764D01*
X102269526Y-64364724D01*
X100079700Y-62174899D01*
X100079700Y-61126902D01*
X100257659Y-61162300D01*
X100530343Y-61162300D01*
X100797786Y-61109102D01*
X101049713Y-61004751D01*
X101276441Y-60853256D01*
X101469257Y-60660440D01*
X101620752Y-60433712D01*
X101725103Y-60181785D01*
X101778301Y-59914342D01*
X101778301Y-59641658D01*
X101725103Y-59374215D01*
X101620752Y-59122288D01*
X101469257Y-58895560D01*
X101432362Y-58858665D01*
X106565000Y-58858665D01*
X106565000Y-59141335D01*
X106620147Y-59418574D01*
X106728320Y-59679727D01*
X106885363Y-59914759D01*
X107085241Y-60114637D01*
X107320273Y-60271680D01*
X107581426Y-60379853D01*
X107858665Y-60435000D01*
X108141335Y-60435000D01*
X108418574Y-60379853D01*
X108679727Y-60271680D01*
X108914759Y-60114637D01*
X109114637Y-59914759D01*
X109124498Y-59900000D01*
X129461928Y-59900000D01*
X129474188Y-60024482D01*
X129510498Y-60144180D01*
X129569463Y-60254494D01*
X129648815Y-60351185D01*
X129745506Y-60430537D01*
X129855820Y-60489502D01*
X129975518Y-60525812D01*
X130100000Y-60538072D01*
X130714250Y-60535000D01*
X130873000Y-60376250D01*
X130873000Y-59127000D01*
X129623750Y-59127000D01*
X129465000Y-59285750D01*
X129461928Y-59900000D01*
X109124498Y-59900000D01*
X109271680Y-59679727D01*
X109379853Y-59418574D01*
X109435000Y-59141335D01*
X109435000Y-58858665D01*
X109379853Y-58581426D01*
X109271680Y-58320273D01*
X109124499Y-58100000D01*
X129461928Y-58100000D01*
X129465000Y-58714250D01*
X129623750Y-58873000D01*
X130873000Y-58873000D01*
X130873000Y-57623750D01*
X131127000Y-57623750D01*
X131127000Y-58873000D01*
X131147000Y-58873000D01*
X131147000Y-59127000D01*
X131127000Y-59127000D01*
X131127000Y-60376250D01*
X131285750Y-60535000D01*
X131900000Y-60538072D01*
X132024482Y-60525812D01*
X132144180Y-60489502D01*
X132254494Y-60430537D01*
X132351185Y-60351185D01*
X132430537Y-60254494D01*
X132489502Y-60144180D01*
X132495056Y-60125873D01*
X132561495Y-60192312D01*
X132812905Y-60360299D01*
X133092257Y-60476011D01*
X133388816Y-60535000D01*
X133691184Y-60535000D01*
X133987743Y-60476011D01*
X134267095Y-60360299D01*
X134518505Y-60192312D01*
X134732312Y-59978505D01*
X134900299Y-59727095D01*
X135016011Y-59447743D01*
X135075000Y-59151184D01*
X135075000Y-58848816D01*
X135016011Y-58552257D01*
X134900299Y-58272905D01*
X134732312Y-58021495D01*
X134518505Y-57807688D01*
X134267095Y-57639701D01*
X133987743Y-57523989D01*
X133691184Y-57465000D01*
X133388816Y-57465000D01*
X133092257Y-57523989D01*
X132812905Y-57639701D01*
X132561495Y-57807688D01*
X132495056Y-57874127D01*
X132489502Y-57855820D01*
X132430537Y-57745506D01*
X132351185Y-57648815D01*
X132254494Y-57569463D01*
X132144180Y-57510498D01*
X132024482Y-57474188D01*
X131900000Y-57461928D01*
X131285750Y-57465000D01*
X131127000Y-57623750D01*
X130873000Y-57623750D01*
X130714250Y-57465000D01*
X130100000Y-57461928D01*
X129975518Y-57474188D01*
X129855820Y-57510498D01*
X129745506Y-57569463D01*
X129648815Y-57648815D01*
X129569463Y-57745506D01*
X129510498Y-57855820D01*
X129474188Y-57975518D01*
X129461928Y-58100000D01*
X109124499Y-58100000D01*
X109114637Y-58085241D01*
X108914759Y-57885363D01*
X108679727Y-57728320D01*
X108418574Y-57620147D01*
X108141335Y-57565000D01*
X107858665Y-57565000D01*
X107581426Y-57620147D01*
X107320273Y-57728320D01*
X107085241Y-57885363D01*
X106885363Y-58085241D01*
X106728320Y-58320273D01*
X106620147Y-58581426D01*
X106565000Y-58858665D01*
X101432362Y-58858665D01*
X101276441Y-58702744D01*
X101049713Y-58551249D01*
X100797786Y-58446898D01*
X100530343Y-58393700D01*
X100257659Y-58393700D01*
X100079700Y-58429098D01*
X100079700Y-56697101D01*
X100138254Y-56638548D01*
X100257659Y-56662299D01*
X100530343Y-56662299D01*
X100797786Y-56609101D01*
X101049713Y-56504750D01*
X101276441Y-56353255D01*
X101469257Y-56160439D01*
X101620752Y-55933711D01*
X101725103Y-55681784D01*
X101778301Y-55414341D01*
X101778301Y-55141657D01*
X101725103Y-54874214D01*
X101620752Y-54622287D01*
X101469257Y-54395559D01*
X101276441Y-54202743D01*
X101049713Y-54051248D01*
X100797786Y-53946897D01*
X100530343Y-53893699D01*
X100257659Y-53893699D01*
X99990216Y-53946897D01*
X99738289Y-54051248D01*
X99511561Y-54202743D01*
X99318745Y-54395559D01*
X99167250Y-54622287D01*
X99062899Y-54874214D01*
X99009701Y-55141657D01*
X99009701Y-55414341D01*
X99043407Y-55583792D01*
X98808698Y-55818501D01*
X98779700Y-55842299D01*
X98755902Y-55871297D01*
X98755901Y-55871298D01*
X98684726Y-55958024D01*
X98614154Y-56090054D01*
X98570698Y-56233315D01*
X98556024Y-56382300D01*
X95173419Y-56382300D01*
X95173836Y-56381793D01*
X95232801Y-56271479D01*
X95269111Y-56151781D01*
X95281371Y-56027299D01*
X95281371Y-54528699D01*
X95269111Y-54404217D01*
X95232801Y-54284519D01*
X95173836Y-54174205D01*
X95094484Y-54077514D01*
X94997793Y-53998162D01*
X94887479Y-53939197D01*
X94767781Y-53902887D01*
X94643299Y-53890627D01*
X93144699Y-53890627D01*
X93020217Y-53902887D01*
X92900519Y-53939197D01*
X92790205Y-53998162D01*
X92693514Y-54077514D01*
X92614162Y-54174205D01*
X92555197Y-54284519D01*
X92518887Y-54404217D01*
X92506627Y-54528699D01*
X83700459Y-54528699D01*
X83839058Y-54411520D01*
X84069101Y-54250249D01*
X84294239Y-54094934D01*
X84474847Y-53971904D01*
X84714281Y-53810923D01*
X84827434Y-53735679D01*
X85034065Y-53599643D01*
X85172014Y-53509793D01*
X85228806Y-53473028D01*
X85367690Y-53383672D01*
X85494800Y-53302571D01*
X85633435Y-53214854D01*
X85948610Y-53018253D01*
X86254017Y-52831431D01*
X86394708Y-52746577D01*
X86402114Y-52742144D01*
X87537645Y-52236316D01*
X105145000Y-52236316D01*
X105145000Y-52538684D01*
X105203989Y-52835243D01*
X105319701Y-53114595D01*
X105487688Y-53366005D01*
X105701495Y-53579812D01*
X105952905Y-53747799D01*
X106232257Y-53863511D01*
X106528816Y-53922500D01*
X106831184Y-53922500D01*
X107127743Y-53863511D01*
X107407095Y-53747799D01*
X107658505Y-53579812D01*
X107724944Y-53513373D01*
X107730498Y-53531680D01*
X107789463Y-53641994D01*
X107868815Y-53738685D01*
X107965506Y-53818037D01*
X108075820Y-53877002D01*
X108195518Y-53913312D01*
X108320000Y-53925572D01*
X108934250Y-53922500D01*
X109093000Y-53763750D01*
X109093000Y-52514500D01*
X109347000Y-52514500D01*
X109347000Y-53763750D01*
X109505750Y-53922500D01*
X110120000Y-53925572D01*
X110244482Y-53913312D01*
X110364180Y-53877002D01*
X110474494Y-53818037D01*
X110571185Y-53738685D01*
X110650537Y-53641994D01*
X110709502Y-53531680D01*
X110745812Y-53411982D01*
X110758072Y-53287500D01*
X110755000Y-52673250D01*
X110596250Y-52514500D01*
X109347000Y-52514500D01*
X109093000Y-52514500D01*
X109073000Y-52514500D01*
X109073000Y-52260500D01*
X109093000Y-52260500D01*
X109093000Y-51011250D01*
X109347000Y-51011250D01*
X109347000Y-52260500D01*
X110596250Y-52260500D01*
X110755000Y-52101750D01*
X110758072Y-51487500D01*
X110745812Y-51363018D01*
X110709502Y-51243320D01*
X110650537Y-51133006D01*
X110571185Y-51036315D01*
X110474494Y-50956963D01*
X110364180Y-50897998D01*
X110244482Y-50861688D01*
X110120000Y-50849428D01*
X109505750Y-50852500D01*
X109347000Y-51011250D01*
X109093000Y-51011250D01*
X108934250Y-50852500D01*
X108320000Y-50849428D01*
X108195518Y-50861688D01*
X108075820Y-50897998D01*
X107965506Y-50956963D01*
X107868815Y-51036315D01*
X107789463Y-51133006D01*
X107730498Y-51243320D01*
X107724944Y-51261627D01*
X107658505Y-51195188D01*
X107407095Y-51027201D01*
X107127743Y-50911489D01*
X106831184Y-50852500D01*
X106528816Y-50852500D01*
X106232257Y-50911489D01*
X105952905Y-51027201D01*
X105701495Y-51195188D01*
X105487688Y-51408995D01*
X105319701Y-51660405D01*
X105203989Y-51939757D01*
X105145000Y-52236316D01*
X87537645Y-52236316D01*
X95626642Y-48633035D01*
X95631975Y-48631385D01*
X95739352Y-48598597D01*
X96012100Y-48516717D01*
X96120167Y-48484830D01*
X96188194Y-48464920D01*
X96256117Y-48445166D01*
X96365562Y-48413594D01*
X96433387Y-48394192D01*
X96514959Y-48371016D01*
X96762198Y-48301864D01*
X96826068Y-48284383D01*
X106045478Y-47422309D01*
X118135491Y-48461492D01*
G36*
X114556001Y-96713197D02*
G01*
X113985199Y-97284000D01*
X113157464Y-97284000D01*
X113039608Y-97140392D01*
X112821101Y-96961068D01*
X112693259Y-96892735D01*
X112922839Y-96742601D01*
X113124500Y-96544895D01*
X113283715Y-96311646D01*
X113394367Y-96051818D01*
X113411904Y-95969039D01*
X113289915Y-95747000D01*
X111747000Y-95747000D01*
X111747000Y-95767000D01*
X111493000Y-95767000D01*
X111493000Y-95747000D01*
X111473000Y-95747000D01*
X111473000Y-95493000D01*
X111493000Y-95493000D01*
X111493000Y-95473000D01*
X111747000Y-95473000D01*
X111747000Y-95493000D01*
X113289915Y-95493000D01*
X113411904Y-95270961D01*
X113394367Y-95188182D01*
X113283715Y-94928354D01*
X113124500Y-94695105D01*
X112922839Y-94497399D01*
X112693259Y-94347265D01*
X112821101Y-94278932D01*
X113039608Y-94099608D01*
X113218932Y-93881101D01*
X113302904Y-93724000D01*
X113500678Y-93724000D01*
X113538000Y-93727676D01*
X113575322Y-93724000D01*
X113575333Y-93724000D01*
X113686986Y-93713003D01*
X113830247Y-93669546D01*
X113962276Y-93598974D01*
X114078001Y-93504001D01*
X114101803Y-93474998D01*
X114556001Y-93020801D01*
X114556001Y-96713197D01*
X114556001Y-96713197D01*
G37*
X114556001Y-96713197D02*
X113985199Y-97284000D01*
X113157464Y-97284000D01*
X113039608Y-97140392D01*
X112821101Y-96961068D01*
X112693259Y-96892735D01*
X112922839Y-96742601D01*
X113124500Y-96544895D01*
X113283715Y-96311646D01*
X113394367Y-96051818D01*
X113411904Y-95969039D01*
X113289915Y-95747000D01*
X111747000Y-95747000D01*
X111747000Y-95767000D01*
X111493000Y-95767000D01*
X111493000Y-95747000D01*
X111473000Y-95747000D01*
X111473000Y-95493000D01*
X111493000Y-95493000D01*
X111493000Y-95473000D01*
X111747000Y-95473000D01*
X111747000Y-95493000D01*
X113289915Y-95493000D01*
X113411904Y-95270961D01*
X113394367Y-95188182D01*
X113283715Y-94928354D01*
X113124500Y-94695105D01*
X112922839Y-94497399D01*
X112693259Y-94347265D01*
X112821101Y-94278932D01*
X113039608Y-94099608D01*
X113218932Y-93881101D01*
X113302904Y-93724000D01*
X113500678Y-93724000D01*
X113538000Y-93727676D01*
X113575322Y-93724000D01*
X113575333Y-93724000D01*
X113686986Y-93713003D01*
X113830247Y-93669546D01*
X113962276Y-93598974D01*
X114078001Y-93504001D01*
X114101803Y-93474998D01*
X114556001Y-93020801D01*
X114556001Y-96713197D01*
M02*
