G04 #@! TF.GenerationSoftware,KiCad,Pcbnew,(5.1.0)-1*
G04 #@! TF.CreationDate,2019-11-25T20:58:05-05:00*
G04 #@! TF.ProjectId,Christmas Ornament 2019,43687269-7374-46d6-9173-204f726e616d,rev?*
G04 #@! TF.SameCoordinates,Original*
G04 #@! TF.FileFunction,Copper,L1,Top*
G04 #@! TF.FilePolarity,Positive*
%FSLAX46Y46*%
G04 Gerber Fmt 4.6, Leading zero omitted, Abs format (unit mm)*
G04 Created by KiCad (PCBNEW (5.1.0)-1) date 2019-11-25 20:58:05*
%MOMM*%
%LPD*%
G04 APERTURE LIST*
%ADD10R,1.800000X1.800000*%
%ADD11C,1.800000*%
%ADD12C,1.600000*%
%ADD13C,1.600000*%
%ADD14O,1.600000X1.600000*%
%ADD15R,2.400000X1.600000*%
%ADD16O,2.400000X1.600000*%
%ADD17R,1.498600X1.498600*%
%ADD18C,1.498600*%
%ADD19C,2.286000*%
%ADD20C,0.800000*%
%ADD21C,0.250000*%
G04 APERTURE END LIST*
D10*
X131000000Y-59000000D03*
D11*
X133540000Y-59000000D03*
D10*
X142000000Y-78000000D03*
D11*
X144540000Y-78000000D03*
D10*
X109220000Y-52387500D03*
D11*
X106680000Y-52387500D03*
D10*
X142000000Y-101000000D03*
D11*
X144540000Y-101000000D03*
D10*
X131000000Y-118000000D03*
D11*
X133540000Y-118000000D03*
D10*
X82000000Y-118000000D03*
D11*
X84540000Y-118000000D03*
D10*
X71000000Y-101000000D03*
D11*
X73540000Y-101000000D03*
D10*
X71000000Y-79000000D03*
D11*
X73540000Y-79000000D03*
D10*
X82000000Y-59000000D03*
D11*
X84540000Y-59000000D03*
D12*
X130000000Y-69000000D03*
X122815795Y-76184205D03*
D13*
X122815795Y-76184205D02*
X122815795Y-76184205D01*
D12*
X133000000Y-86000000D03*
D14*
X122840000Y-86000000D03*
D12*
X108000000Y-59000000D03*
D14*
X108000000Y-69160000D03*
D12*
X133000000Y-95000000D03*
D14*
X122840000Y-95000000D03*
D12*
X129000000Y-111000000D03*
X121815795Y-103815795D03*
D13*
X121815795Y-103815795D02*
X121815795Y-103815795D01*
D12*
X92394000Y-65778000D03*
D14*
X102554000Y-65778000D03*
D12*
X84000000Y-111000000D03*
X91184205Y-103815795D03*
D13*
X91184205Y-103815795D02*
X91184205Y-103815795D01*
D12*
X81000000Y-95000000D03*
D14*
X91160000Y-95000000D03*
D12*
X81000000Y-86000000D03*
D14*
X91160000Y-86000000D03*
D12*
X84000000Y-69000000D03*
X91184205Y-76184205D03*
D13*
X91184205Y-76184205D02*
X91184205Y-76184205D01*
D15*
X104000000Y-74000000D03*
D16*
X111620000Y-81620000D03*
X104000000Y-76540000D03*
X111620000Y-79080000D03*
X104000000Y-79080000D03*
X111620000Y-76540000D03*
X104000000Y-81620000D03*
X111620000Y-74000000D03*
D15*
X104000000Y-88000000D03*
D16*
X111620000Y-105780000D03*
X104000000Y-90540000D03*
X111620000Y-103240000D03*
X104000000Y-93080000D03*
X111620000Y-100700000D03*
X104000000Y-95620000D03*
X111620000Y-98160000D03*
X104000000Y-98160000D03*
X111620000Y-95620000D03*
X104000000Y-100700000D03*
X111620000Y-93080000D03*
X104000000Y-103240000D03*
X111620000Y-90540000D03*
X104000000Y-105780000D03*
X111620000Y-88000000D03*
D17*
X93893999Y-55277999D03*
D18*
X93893999Y-59778000D03*
X100394001Y-59778000D03*
X100394001Y-55277999D03*
D19*
X118364000Y-116332000D03*
X118364000Y-119380000D03*
X97536000Y-116332000D03*
X97536000Y-119380000D03*
D20*
X109220000Y-96520000D03*
D21*
X130000000Y-69000000D02*
X130000000Y-62532000D01*
X130000000Y-62532000D02*
X133604000Y-58928000D01*
X110170000Y-95620000D02*
X109220000Y-94670000D01*
X111620000Y-95620000D02*
X110170000Y-95620000D01*
X104400000Y-81620000D02*
X104000000Y-81620000D01*
X109220000Y-86440000D02*
X104400000Y-81620000D01*
X109220000Y-94670000D02*
X109220000Y-86440000D01*
X133799999Y-85200001D02*
X137303999Y-85200001D01*
X133000000Y-86000000D02*
X133799999Y-85200001D01*
X137303999Y-85200001D02*
X144526000Y-77978000D01*
X108000000Y-57868630D02*
X108000000Y-59000000D01*
X106426000Y-56294630D02*
X108000000Y-57868630D01*
X106426000Y-53914292D02*
X106426000Y-56294630D01*
X106680000Y-53660292D02*
X106426000Y-53914292D01*
X106680000Y-52387500D02*
X106680000Y-53660292D01*
X133799999Y-94200001D02*
X137888001Y-94200001D01*
X133000000Y-95000000D02*
X133799999Y-94200001D01*
X137888001Y-94200001D02*
X144526000Y-100838000D01*
X129000000Y-112131370D02*
X133604000Y-116735370D01*
X129000000Y-111000000D02*
X129000000Y-112131370D01*
X133604000Y-116735370D02*
X133604000Y-118110000D01*
X84000000Y-112131370D02*
X84582000Y-112713370D01*
X84000000Y-111000000D02*
X84000000Y-112131370D01*
X84582000Y-112713370D02*
X84582000Y-117856000D01*
X80200001Y-95799999D02*
X78952001Y-95799999D01*
X81000000Y-95000000D02*
X80200001Y-95799999D01*
X78952001Y-95799999D02*
X73660000Y-101092000D01*
X73660000Y-101092000D02*
X73660000Y-100838000D01*
X73660000Y-100838000D02*
X73406000Y-100838000D01*
X74439999Y-79899999D02*
X74819999Y-79899999D01*
X73540000Y-79000000D02*
X74439999Y-79899999D01*
X74819999Y-79899999D02*
X81026000Y-86106000D01*
X84000000Y-67868630D02*
X84582000Y-67286630D01*
X84000000Y-69000000D02*
X84000000Y-67868630D01*
X84582000Y-67286630D02*
X84582000Y-58928000D01*
X112020000Y-90540000D02*
X111620000Y-90540000D01*
X122815795Y-79744205D02*
X112020000Y-90540000D01*
X122815795Y-76184205D02*
X122815795Y-79744205D01*
X112020000Y-81620000D02*
X115570000Y-78070000D01*
X111620000Y-81620000D02*
X112020000Y-81620000D01*
X115570000Y-78070000D02*
X115570000Y-71882000D01*
X115570000Y-71882000D02*
X112776000Y-69088000D01*
X112776000Y-69088000D02*
X107950000Y-69088000D01*
X104000000Y-79080000D02*
X103600000Y-79080000D01*
X101754001Y-66577999D02*
X101754001Y-76862001D01*
X102554000Y-65778000D02*
X101754001Y-66577999D01*
X101754001Y-76862001D02*
X103886000Y-78994000D01*
X106056000Y-95620000D02*
X104000000Y-95620000D01*
X106599970Y-95076030D02*
X106056000Y-95620000D01*
X91184205Y-103815795D02*
X94494215Y-100505785D01*
X94494215Y-89147785D02*
X98471970Y-85170030D01*
X98471970Y-85170030D02*
X104599620Y-85170030D01*
X104599620Y-85170030D02*
X106599970Y-87170380D01*
X94494215Y-100505785D02*
X94494215Y-89147785D01*
X106599970Y-87170380D02*
X106599970Y-95076030D01*
X91160000Y-95000000D02*
X91160000Y-91845590D01*
X98285569Y-84720021D02*
X104786020Y-84720020D01*
X91160000Y-91845590D02*
X98285569Y-84720021D01*
X104786020Y-84720020D02*
X107049980Y-86983980D01*
X106303590Y-98160000D02*
X104000000Y-98160000D01*
X107049980Y-86983980D02*
X107049980Y-97413610D01*
X107049980Y-97413610D02*
X106303590Y-98160000D01*
X104400000Y-100700000D02*
X104000000Y-100700000D01*
X107499990Y-97600010D02*
X104400000Y-100700000D01*
X107499990Y-86546400D02*
X107499990Y-97600010D01*
X105223600Y-84270010D02*
X107499990Y-86546400D01*
X92889990Y-84270010D02*
X105223600Y-84270010D01*
X91160000Y-86000000D02*
X92889990Y-84270010D01*
X91184205Y-77315575D02*
X97688630Y-83820000D01*
X91184205Y-76184205D02*
X91184205Y-77315575D01*
X97688630Y-83820000D02*
X105410000Y-83820000D01*
X105410000Y-83820000D02*
X107950000Y-86360000D01*
X104400000Y-103240000D02*
X104000000Y-103240000D01*
X107950000Y-99690000D02*
X104400000Y-103240000D01*
X107950000Y-86360000D02*
X107950000Y-99690000D01*
X97536000Y-116332000D02*
X97536000Y-117948446D01*
X97536000Y-117948446D02*
X97536000Y-119278400D01*
X97536000Y-119278400D02*
X97586800Y-119329200D01*
X97586800Y-119329200D02*
X97586800Y-119481600D01*
X118364000Y-119380000D02*
X97536000Y-119380000D01*
X112020000Y-103240000D02*
X111620000Y-103240000D01*
X118364000Y-109584000D02*
X112020000Y-103240000D01*
X118364000Y-116332000D02*
X118364000Y-109584000D01*
X103679001Y-63063000D02*
X100394001Y-59778000D01*
X103679001Y-66459001D02*
X103679001Y-63063000D01*
X111220000Y-74000000D02*
X103679001Y-66459001D01*
X111620000Y-86950000D02*
X109220000Y-84550000D01*
X111620000Y-88000000D02*
X111620000Y-86950000D01*
X111220000Y-74000000D02*
X111620000Y-74000000D01*
X109220000Y-76000000D02*
X111220000Y-74000000D01*
X109220000Y-84550000D02*
X109220000Y-76000000D01*
X109220000Y-101240000D02*
X109220000Y-96520000D01*
X111620000Y-103240000D02*
X111220000Y-103240000D01*
X111220000Y-103240000D02*
X109220000Y-101240000D01*
M02*
