G04 #@! TF.GenerationSoftware,KiCad,Pcbnew,(5.1.0)-1*
G04 #@! TF.CreationDate,2019-11-25T20:58:05-05:00*
G04 #@! TF.ProjectId,Christmas Ornament 2019,43687269-7374-46d6-9173-204f726e616d,rev?*
G04 #@! TF.SameCoordinates,Original*
G04 #@! TF.FileFunction,Soldermask,Bot*
G04 #@! TF.FilePolarity,Negative*
%FSLAX46Y46*%
G04 Gerber Fmt 4.6, Leading zero omitted, Abs format (unit mm)*
G04 Created by KiCad (PCBNEW (5.1.0)-1) date 2019-11-25 20:58:05*
%MOMM*%
%LPD*%
G04 APERTURE LIST*
%ADD10C,0.100000*%
G04 APERTURE END LIST*
D10*
G36*
X109045800Y-109211803D02*
G01*
X110557994Y-109512597D01*
X112185152Y-110186588D01*
X113649555Y-111165072D01*
X114894928Y-112410445D01*
X115873412Y-113874848D01*
X116547403Y-115502006D01*
X116891000Y-117229388D01*
X116891000Y-118990612D01*
X116547403Y-120717994D01*
X115873412Y-122345152D01*
X114894928Y-123809555D01*
X113649555Y-125054928D01*
X112185152Y-126033412D01*
X110557994Y-126707403D01*
X109045800Y-127008197D01*
X108830613Y-127051000D01*
X107069387Y-127051000D01*
X106854200Y-127008197D01*
X105342006Y-126707403D01*
X103714848Y-126033412D01*
X102250445Y-125054928D01*
X101005072Y-123809555D01*
X100026588Y-122345152D01*
X99352597Y-120717994D01*
X99009000Y-118990612D01*
X99009000Y-117229388D01*
X99352597Y-115502006D01*
X100026588Y-113874848D01*
X101005072Y-112410445D01*
X102250445Y-111165072D01*
X103714848Y-110186588D01*
X105342006Y-109512597D01*
X106854200Y-109211803D01*
X107069387Y-109169000D01*
X108830613Y-109169000D01*
X109045800Y-109211803D01*
X109045800Y-109211803D01*
G37*
G36*
X118712276Y-118231884D02*
G01*
X118929569Y-118321890D01*
X118929571Y-118321891D01*
X119125130Y-118452560D01*
X119291440Y-118618870D01*
X119371502Y-118738690D01*
X119422110Y-118814431D01*
X119512116Y-119031724D01*
X119558000Y-119262400D01*
X119558000Y-119497600D01*
X119512116Y-119728276D01*
X119422110Y-119945569D01*
X119422109Y-119945571D01*
X119291440Y-120141130D01*
X119125130Y-120307440D01*
X118929571Y-120438109D01*
X118929570Y-120438110D01*
X118929569Y-120438110D01*
X118712276Y-120528116D01*
X118481600Y-120574000D01*
X118246400Y-120574000D01*
X118015724Y-120528116D01*
X117798431Y-120438110D01*
X117798430Y-120438110D01*
X117798429Y-120438109D01*
X117602870Y-120307440D01*
X117436560Y-120141130D01*
X117305891Y-119945571D01*
X117305890Y-119945569D01*
X117215884Y-119728276D01*
X117170000Y-119497600D01*
X117170000Y-119262400D01*
X117215884Y-119031724D01*
X117305890Y-118814431D01*
X117356499Y-118738690D01*
X117436560Y-118618870D01*
X117602870Y-118452560D01*
X117798429Y-118321891D01*
X117798431Y-118321890D01*
X118015724Y-118231884D01*
X118246400Y-118186000D01*
X118481600Y-118186000D01*
X118712276Y-118231884D01*
X118712276Y-118231884D01*
G37*
G36*
X97884276Y-118231884D02*
G01*
X98101569Y-118321890D01*
X98101571Y-118321891D01*
X98297130Y-118452560D01*
X98463440Y-118618870D01*
X98543502Y-118738690D01*
X98594110Y-118814431D01*
X98684116Y-119031724D01*
X98730000Y-119262400D01*
X98730000Y-119497600D01*
X98684116Y-119728276D01*
X98594110Y-119945569D01*
X98594109Y-119945571D01*
X98463440Y-120141130D01*
X98297130Y-120307440D01*
X98101571Y-120438109D01*
X98101570Y-120438110D01*
X98101569Y-120438110D01*
X97884276Y-120528116D01*
X97653600Y-120574000D01*
X97418400Y-120574000D01*
X97187724Y-120528116D01*
X96970431Y-120438110D01*
X96970430Y-120438110D01*
X96970429Y-120438109D01*
X96774870Y-120307440D01*
X96608560Y-120141130D01*
X96477891Y-119945571D01*
X96477890Y-119945569D01*
X96387884Y-119728276D01*
X96342000Y-119497600D01*
X96342000Y-119262400D01*
X96387884Y-119031724D01*
X96477890Y-118814431D01*
X96528499Y-118738690D01*
X96608560Y-118618870D01*
X96774870Y-118452560D01*
X96970429Y-118321891D01*
X96970431Y-118321890D01*
X97187724Y-118231884D01*
X97418400Y-118186000D01*
X97653600Y-118186000D01*
X97884276Y-118231884D01*
X97884276Y-118231884D01*
G37*
G36*
X82951000Y-118951000D02*
G01*
X81049000Y-118951000D01*
X81049000Y-117049000D01*
X82951000Y-117049000D01*
X82951000Y-118951000D01*
X82951000Y-118951000D01*
G37*
G36*
X84817395Y-117085546D02*
G01*
X84990466Y-117157234D01*
X84990467Y-117157235D01*
X85146227Y-117261310D01*
X85278690Y-117393773D01*
X85278691Y-117393775D01*
X85382766Y-117549534D01*
X85454454Y-117722605D01*
X85491000Y-117906333D01*
X85491000Y-118093667D01*
X85454454Y-118277395D01*
X85382766Y-118450466D01*
X85382765Y-118450467D01*
X85278690Y-118606227D01*
X85146227Y-118738690D01*
X85067818Y-118791081D01*
X84990466Y-118842766D01*
X84817395Y-118914454D01*
X84633667Y-118951000D01*
X84446333Y-118951000D01*
X84262605Y-118914454D01*
X84089534Y-118842766D01*
X84012182Y-118791081D01*
X83933773Y-118738690D01*
X83801310Y-118606227D01*
X83697235Y-118450467D01*
X83697234Y-118450466D01*
X83625546Y-118277395D01*
X83589000Y-118093667D01*
X83589000Y-117906333D01*
X83625546Y-117722605D01*
X83697234Y-117549534D01*
X83801309Y-117393775D01*
X83801310Y-117393773D01*
X83933773Y-117261310D01*
X84089533Y-117157235D01*
X84089534Y-117157234D01*
X84262605Y-117085546D01*
X84446333Y-117049000D01*
X84633667Y-117049000D01*
X84817395Y-117085546D01*
X84817395Y-117085546D01*
G37*
G36*
X131951000Y-118951000D02*
G01*
X130049000Y-118951000D01*
X130049000Y-117049000D01*
X131951000Y-117049000D01*
X131951000Y-118951000D01*
X131951000Y-118951000D01*
G37*
G36*
X133817395Y-117085546D02*
G01*
X133990466Y-117157234D01*
X133990467Y-117157235D01*
X134146227Y-117261310D01*
X134278690Y-117393773D01*
X134278691Y-117393775D01*
X134382766Y-117549534D01*
X134454454Y-117722605D01*
X134491000Y-117906333D01*
X134491000Y-118093667D01*
X134454454Y-118277395D01*
X134382766Y-118450466D01*
X134382765Y-118450467D01*
X134278690Y-118606227D01*
X134146227Y-118738690D01*
X134067818Y-118791081D01*
X133990466Y-118842766D01*
X133817395Y-118914454D01*
X133633667Y-118951000D01*
X133446333Y-118951000D01*
X133262605Y-118914454D01*
X133089534Y-118842766D01*
X133012182Y-118791081D01*
X132933773Y-118738690D01*
X132801310Y-118606227D01*
X132697235Y-118450467D01*
X132697234Y-118450466D01*
X132625546Y-118277395D01*
X132589000Y-118093667D01*
X132589000Y-117906333D01*
X132625546Y-117722605D01*
X132697234Y-117549534D01*
X132801309Y-117393775D01*
X132801310Y-117393773D01*
X132933773Y-117261310D01*
X133089533Y-117157235D01*
X133089534Y-117157234D01*
X133262605Y-117085546D01*
X133446333Y-117049000D01*
X133633667Y-117049000D01*
X133817395Y-117085546D01*
X133817395Y-117085546D01*
G37*
G36*
X97884276Y-115183884D02*
G01*
X98101569Y-115273890D01*
X98101571Y-115273891D01*
X98297130Y-115404560D01*
X98463440Y-115570870D01*
X98594110Y-115766431D01*
X98684116Y-115983724D01*
X98730000Y-116214400D01*
X98730000Y-116449600D01*
X98684116Y-116680276D01*
X98594110Y-116897569D01*
X98594109Y-116897571D01*
X98463440Y-117093130D01*
X98297130Y-117259440D01*
X98101571Y-117390109D01*
X98101570Y-117390110D01*
X98101569Y-117390110D01*
X97884276Y-117480116D01*
X97653600Y-117526000D01*
X97418400Y-117526000D01*
X97187724Y-117480116D01*
X96970431Y-117390110D01*
X96970430Y-117390110D01*
X96970429Y-117390109D01*
X96774870Y-117259440D01*
X96608560Y-117093130D01*
X96477891Y-116897571D01*
X96477890Y-116897569D01*
X96387884Y-116680276D01*
X96342000Y-116449600D01*
X96342000Y-116214400D01*
X96387884Y-115983724D01*
X96477890Y-115766431D01*
X96608560Y-115570870D01*
X96774870Y-115404560D01*
X96970429Y-115273891D01*
X96970431Y-115273890D01*
X97187724Y-115183884D01*
X97418400Y-115138000D01*
X97653600Y-115138000D01*
X97884276Y-115183884D01*
X97884276Y-115183884D01*
G37*
G36*
X118712276Y-115183884D02*
G01*
X118929569Y-115273890D01*
X118929571Y-115273891D01*
X119125130Y-115404560D01*
X119291440Y-115570870D01*
X119422110Y-115766431D01*
X119512116Y-115983724D01*
X119558000Y-116214400D01*
X119558000Y-116449600D01*
X119512116Y-116680276D01*
X119422110Y-116897569D01*
X119422109Y-116897571D01*
X119291440Y-117093130D01*
X119125130Y-117259440D01*
X118929571Y-117390109D01*
X118929570Y-117390110D01*
X118929569Y-117390110D01*
X118712276Y-117480116D01*
X118481600Y-117526000D01*
X118246400Y-117526000D01*
X118015724Y-117480116D01*
X117798431Y-117390110D01*
X117798430Y-117390110D01*
X117798429Y-117390109D01*
X117602870Y-117259440D01*
X117436560Y-117093130D01*
X117305891Y-116897571D01*
X117305890Y-116897569D01*
X117215884Y-116680276D01*
X117170000Y-116449600D01*
X117170000Y-116214400D01*
X117215884Y-115983724D01*
X117305890Y-115766431D01*
X117436560Y-115570870D01*
X117602870Y-115404560D01*
X117798429Y-115273891D01*
X117798431Y-115273890D01*
X118015724Y-115183884D01*
X118246400Y-115138000D01*
X118481600Y-115138000D01*
X118712276Y-115183884D01*
X118712276Y-115183884D01*
G37*
G36*
X84248228Y-110181703D02*
G01*
X84403100Y-110245853D01*
X84542481Y-110338985D01*
X84661015Y-110457519D01*
X84754147Y-110596900D01*
X84818297Y-110751772D01*
X84851000Y-110916184D01*
X84851000Y-111083816D01*
X84818297Y-111248228D01*
X84754147Y-111403100D01*
X84661015Y-111542481D01*
X84542481Y-111661015D01*
X84403100Y-111754147D01*
X84248228Y-111818297D01*
X84083816Y-111851000D01*
X83916184Y-111851000D01*
X83751772Y-111818297D01*
X83596900Y-111754147D01*
X83457519Y-111661015D01*
X83338985Y-111542481D01*
X83245853Y-111403100D01*
X83181703Y-111248228D01*
X83149000Y-111083816D01*
X83149000Y-110916184D01*
X83181703Y-110751772D01*
X83245853Y-110596900D01*
X83338985Y-110457519D01*
X83457519Y-110338985D01*
X83596900Y-110245853D01*
X83751772Y-110181703D01*
X83916184Y-110149000D01*
X84083816Y-110149000D01*
X84248228Y-110181703D01*
X84248228Y-110181703D01*
G37*
G36*
X129248228Y-110181703D02*
G01*
X129403100Y-110245853D01*
X129542481Y-110338985D01*
X129661015Y-110457519D01*
X129754147Y-110596900D01*
X129818297Y-110751772D01*
X129851000Y-110916184D01*
X129851000Y-111083816D01*
X129818297Y-111248228D01*
X129754147Y-111403100D01*
X129661015Y-111542481D01*
X129542481Y-111661015D01*
X129403100Y-111754147D01*
X129248228Y-111818297D01*
X129083816Y-111851000D01*
X128916184Y-111851000D01*
X128751772Y-111818297D01*
X128596900Y-111754147D01*
X128457519Y-111661015D01*
X128338985Y-111542481D01*
X128245853Y-111403100D01*
X128181703Y-111248228D01*
X128149000Y-111083816D01*
X128149000Y-110916184D01*
X128181703Y-110751772D01*
X128245853Y-110596900D01*
X128338985Y-110457519D01*
X128457519Y-110338985D01*
X128596900Y-110245853D01*
X128751772Y-110181703D01*
X128916184Y-110149000D01*
X129083816Y-110149000D01*
X129248228Y-110181703D01*
X129248228Y-110181703D01*
G37*
G36*
X104566823Y-104941313D02*
G01*
X104727242Y-104989976D01*
X104859906Y-105060886D01*
X104875078Y-105068996D01*
X105004659Y-105175341D01*
X105111004Y-105304922D01*
X105111005Y-105304924D01*
X105190024Y-105452758D01*
X105238687Y-105613177D01*
X105255117Y-105780000D01*
X105238687Y-105946823D01*
X105190024Y-106107242D01*
X105119114Y-106239906D01*
X105111004Y-106255078D01*
X105004659Y-106384659D01*
X104875078Y-106491004D01*
X104875076Y-106491005D01*
X104727242Y-106570024D01*
X104566823Y-106618687D01*
X104441804Y-106631000D01*
X103558196Y-106631000D01*
X103433177Y-106618687D01*
X103272758Y-106570024D01*
X103124924Y-106491005D01*
X103124922Y-106491004D01*
X102995341Y-106384659D01*
X102888996Y-106255078D01*
X102880886Y-106239906D01*
X102809976Y-106107242D01*
X102761313Y-105946823D01*
X102744883Y-105780000D01*
X102761313Y-105613177D01*
X102809976Y-105452758D01*
X102888995Y-105304924D01*
X102888996Y-105304922D01*
X102995341Y-105175341D01*
X103124922Y-105068996D01*
X103140094Y-105060886D01*
X103272758Y-104989976D01*
X103433177Y-104941313D01*
X103558196Y-104929000D01*
X104441804Y-104929000D01*
X104566823Y-104941313D01*
X104566823Y-104941313D01*
G37*
G36*
X112186823Y-104941313D02*
G01*
X112347242Y-104989976D01*
X112479906Y-105060886D01*
X112495078Y-105068996D01*
X112624659Y-105175341D01*
X112731004Y-105304922D01*
X112731005Y-105304924D01*
X112810024Y-105452758D01*
X112858687Y-105613177D01*
X112875117Y-105780000D01*
X112858687Y-105946823D01*
X112810024Y-106107242D01*
X112739114Y-106239906D01*
X112731004Y-106255078D01*
X112624659Y-106384659D01*
X112495078Y-106491004D01*
X112495076Y-106491005D01*
X112347242Y-106570024D01*
X112186823Y-106618687D01*
X112061804Y-106631000D01*
X111178196Y-106631000D01*
X111053177Y-106618687D01*
X110892758Y-106570024D01*
X110744924Y-106491005D01*
X110744922Y-106491004D01*
X110615341Y-106384659D01*
X110508996Y-106255078D01*
X110500886Y-106239906D01*
X110429976Y-106107242D01*
X110381313Y-105946823D01*
X110364883Y-105780000D01*
X110381313Y-105613177D01*
X110429976Y-105452758D01*
X110508995Y-105304924D01*
X110508996Y-105304922D01*
X110615341Y-105175341D01*
X110744922Y-105068996D01*
X110760094Y-105060886D01*
X110892758Y-104989976D01*
X111053177Y-104941313D01*
X111178196Y-104929000D01*
X112061804Y-104929000D01*
X112186823Y-104941313D01*
X112186823Y-104941313D01*
G37*
G36*
X91351028Y-102977108D02*
G01*
X91511447Y-103025771D01*
X91600137Y-103073177D01*
X91659283Y-103104791D01*
X91788864Y-103211136D01*
X91895209Y-103340717D01*
X91895210Y-103340719D01*
X91974229Y-103488553D01*
X92022892Y-103648972D01*
X92039322Y-103815795D01*
X92022892Y-103982618D01*
X91974229Y-104143037D01*
X91903319Y-104275701D01*
X91895209Y-104290873D01*
X91788864Y-104420454D01*
X91659283Y-104526799D01*
X91659281Y-104526800D01*
X91511447Y-104605819D01*
X91351028Y-104654482D01*
X91226009Y-104666795D01*
X91142401Y-104666795D01*
X91017382Y-104654482D01*
X90856963Y-104605819D01*
X90709129Y-104526800D01*
X90709127Y-104526799D01*
X90579546Y-104420454D01*
X90473201Y-104290873D01*
X90465091Y-104275701D01*
X90394181Y-104143037D01*
X90345518Y-103982618D01*
X90329088Y-103815795D01*
X90345518Y-103648972D01*
X90394181Y-103488553D01*
X90473200Y-103340719D01*
X90473201Y-103340717D01*
X90579546Y-103211136D01*
X90709127Y-103104791D01*
X90768273Y-103073177D01*
X90856963Y-103025771D01*
X91017382Y-102977108D01*
X91142401Y-102964795D01*
X91226009Y-102964795D01*
X91351028Y-102977108D01*
X91351028Y-102977108D01*
G37*
G36*
X121982618Y-102977108D02*
G01*
X122143037Y-103025771D01*
X122231727Y-103073177D01*
X122290873Y-103104791D01*
X122420454Y-103211136D01*
X122526799Y-103340717D01*
X122526800Y-103340719D01*
X122605819Y-103488553D01*
X122654482Y-103648972D01*
X122670912Y-103815795D01*
X122654482Y-103982618D01*
X122605819Y-104143037D01*
X122534909Y-104275701D01*
X122526799Y-104290873D01*
X122420454Y-104420454D01*
X122290873Y-104526799D01*
X122290871Y-104526800D01*
X122143037Y-104605819D01*
X121982618Y-104654482D01*
X121857599Y-104666795D01*
X121773991Y-104666795D01*
X121648972Y-104654482D01*
X121488553Y-104605819D01*
X121340719Y-104526800D01*
X121340717Y-104526799D01*
X121211136Y-104420454D01*
X121104791Y-104290873D01*
X121096681Y-104275701D01*
X121025771Y-104143037D01*
X120977108Y-103982618D01*
X120960678Y-103815795D01*
X120977108Y-103648972D01*
X121025771Y-103488553D01*
X121104790Y-103340719D01*
X121104791Y-103340717D01*
X121211136Y-103211136D01*
X121340717Y-103104791D01*
X121399863Y-103073177D01*
X121488553Y-103025771D01*
X121648972Y-102977108D01*
X121773991Y-102964795D01*
X121857599Y-102964795D01*
X121982618Y-102977108D01*
X121982618Y-102977108D01*
G37*
G36*
X112186823Y-102401313D02*
G01*
X112347242Y-102449976D01*
X112479906Y-102520886D01*
X112495078Y-102528996D01*
X112624659Y-102635341D01*
X112731004Y-102764922D01*
X112731005Y-102764924D01*
X112810024Y-102912758D01*
X112858687Y-103073177D01*
X112875117Y-103240000D01*
X112858687Y-103406823D01*
X112810024Y-103567242D01*
X112766339Y-103648970D01*
X112731004Y-103715078D01*
X112624659Y-103844659D01*
X112495078Y-103951004D01*
X112495076Y-103951005D01*
X112347242Y-104030024D01*
X112186823Y-104078687D01*
X112061804Y-104091000D01*
X111178196Y-104091000D01*
X111053177Y-104078687D01*
X110892758Y-104030024D01*
X110744924Y-103951005D01*
X110744922Y-103951004D01*
X110615341Y-103844659D01*
X110508996Y-103715078D01*
X110473661Y-103648970D01*
X110429976Y-103567242D01*
X110381313Y-103406823D01*
X110364883Y-103240000D01*
X110381313Y-103073177D01*
X110429976Y-102912758D01*
X110508995Y-102764924D01*
X110508996Y-102764922D01*
X110615341Y-102635341D01*
X110744922Y-102528996D01*
X110760094Y-102520886D01*
X110892758Y-102449976D01*
X111053177Y-102401313D01*
X111178196Y-102389000D01*
X112061804Y-102389000D01*
X112186823Y-102401313D01*
X112186823Y-102401313D01*
G37*
G36*
X104566823Y-102401313D02*
G01*
X104727242Y-102449976D01*
X104859906Y-102520886D01*
X104875078Y-102528996D01*
X105004659Y-102635341D01*
X105111004Y-102764922D01*
X105111005Y-102764924D01*
X105190024Y-102912758D01*
X105238687Y-103073177D01*
X105255117Y-103240000D01*
X105238687Y-103406823D01*
X105190024Y-103567242D01*
X105146339Y-103648970D01*
X105111004Y-103715078D01*
X105004659Y-103844659D01*
X104875078Y-103951004D01*
X104875076Y-103951005D01*
X104727242Y-104030024D01*
X104566823Y-104078687D01*
X104441804Y-104091000D01*
X103558196Y-104091000D01*
X103433177Y-104078687D01*
X103272758Y-104030024D01*
X103124924Y-103951005D01*
X103124922Y-103951004D01*
X102995341Y-103844659D01*
X102888996Y-103715078D01*
X102853661Y-103648970D01*
X102809976Y-103567242D01*
X102761313Y-103406823D01*
X102744883Y-103240000D01*
X102761313Y-103073177D01*
X102809976Y-102912758D01*
X102888995Y-102764924D01*
X102888996Y-102764922D01*
X102995341Y-102635341D01*
X103124922Y-102528996D01*
X103140094Y-102520886D01*
X103272758Y-102449976D01*
X103433177Y-102401313D01*
X103558196Y-102389000D01*
X104441804Y-102389000D01*
X104566823Y-102401313D01*
X104566823Y-102401313D01*
G37*
G36*
X73817395Y-100085546D02*
G01*
X73990466Y-100157234D01*
X73990467Y-100157235D01*
X74146227Y-100261310D01*
X74278690Y-100393773D01*
X74278691Y-100393775D01*
X74382766Y-100549534D01*
X74454454Y-100722605D01*
X74491000Y-100906333D01*
X74491000Y-101093667D01*
X74454454Y-101277395D01*
X74382766Y-101450466D01*
X74382765Y-101450467D01*
X74278690Y-101606227D01*
X74146227Y-101738690D01*
X74067818Y-101791081D01*
X73990466Y-101842766D01*
X73817395Y-101914454D01*
X73633667Y-101951000D01*
X73446333Y-101951000D01*
X73262605Y-101914454D01*
X73089534Y-101842766D01*
X73012182Y-101791081D01*
X72933773Y-101738690D01*
X72801310Y-101606227D01*
X72697235Y-101450467D01*
X72697234Y-101450466D01*
X72625546Y-101277395D01*
X72589000Y-101093667D01*
X72589000Y-100906333D01*
X72625546Y-100722605D01*
X72697234Y-100549534D01*
X72801309Y-100393775D01*
X72801310Y-100393773D01*
X72933773Y-100261310D01*
X73089533Y-100157235D01*
X73089534Y-100157234D01*
X73262605Y-100085546D01*
X73446333Y-100049000D01*
X73633667Y-100049000D01*
X73817395Y-100085546D01*
X73817395Y-100085546D01*
G37*
G36*
X71951000Y-101951000D02*
G01*
X70049000Y-101951000D01*
X70049000Y-100049000D01*
X71951000Y-100049000D01*
X71951000Y-101951000D01*
X71951000Y-101951000D01*
G37*
G36*
X142951000Y-101951000D02*
G01*
X141049000Y-101951000D01*
X141049000Y-100049000D01*
X142951000Y-100049000D01*
X142951000Y-101951000D01*
X142951000Y-101951000D01*
G37*
G36*
X144817395Y-100085546D02*
G01*
X144990466Y-100157234D01*
X144990467Y-100157235D01*
X145146227Y-100261310D01*
X145278690Y-100393773D01*
X145278691Y-100393775D01*
X145382766Y-100549534D01*
X145454454Y-100722605D01*
X145491000Y-100906333D01*
X145491000Y-101093667D01*
X145454454Y-101277395D01*
X145382766Y-101450466D01*
X145382765Y-101450467D01*
X145278690Y-101606227D01*
X145146227Y-101738690D01*
X145067818Y-101791081D01*
X144990466Y-101842766D01*
X144817395Y-101914454D01*
X144633667Y-101951000D01*
X144446333Y-101951000D01*
X144262605Y-101914454D01*
X144089534Y-101842766D01*
X144012182Y-101791081D01*
X143933773Y-101738690D01*
X143801310Y-101606227D01*
X143697235Y-101450467D01*
X143697234Y-101450466D01*
X143625546Y-101277395D01*
X143589000Y-101093667D01*
X143589000Y-100906333D01*
X143625546Y-100722605D01*
X143697234Y-100549534D01*
X143801309Y-100393775D01*
X143801310Y-100393773D01*
X143933773Y-100261310D01*
X144089533Y-100157235D01*
X144089534Y-100157234D01*
X144262605Y-100085546D01*
X144446333Y-100049000D01*
X144633667Y-100049000D01*
X144817395Y-100085546D01*
X144817395Y-100085546D01*
G37*
G36*
X112186823Y-99861313D02*
G01*
X112347242Y-99909976D01*
X112479906Y-99980886D01*
X112495078Y-99988996D01*
X112624659Y-100095341D01*
X112731004Y-100224922D01*
X112731005Y-100224924D01*
X112810024Y-100372758D01*
X112810025Y-100372761D01*
X112819083Y-100402620D01*
X112858687Y-100533177D01*
X112875117Y-100700000D01*
X112858687Y-100866823D01*
X112810024Y-101027242D01*
X112774520Y-101093665D01*
X112731004Y-101175078D01*
X112624659Y-101304659D01*
X112495078Y-101411004D01*
X112495076Y-101411005D01*
X112347242Y-101490024D01*
X112186823Y-101538687D01*
X112061804Y-101551000D01*
X111178196Y-101551000D01*
X111053177Y-101538687D01*
X110892758Y-101490024D01*
X110744924Y-101411005D01*
X110744922Y-101411004D01*
X110615341Y-101304659D01*
X110508996Y-101175078D01*
X110465480Y-101093665D01*
X110429976Y-101027242D01*
X110381313Y-100866823D01*
X110364883Y-100700000D01*
X110381313Y-100533177D01*
X110420917Y-100402620D01*
X110429975Y-100372761D01*
X110429976Y-100372758D01*
X110508995Y-100224924D01*
X110508996Y-100224922D01*
X110615341Y-100095341D01*
X110744922Y-99988996D01*
X110760094Y-99980886D01*
X110892758Y-99909976D01*
X111053177Y-99861313D01*
X111178196Y-99849000D01*
X112061804Y-99849000D01*
X112186823Y-99861313D01*
X112186823Y-99861313D01*
G37*
G36*
X104566823Y-99861313D02*
G01*
X104727242Y-99909976D01*
X104859906Y-99980886D01*
X104875078Y-99988996D01*
X105004659Y-100095341D01*
X105111004Y-100224922D01*
X105111005Y-100224924D01*
X105190024Y-100372758D01*
X105190025Y-100372761D01*
X105199083Y-100402620D01*
X105238687Y-100533177D01*
X105255117Y-100700000D01*
X105238687Y-100866823D01*
X105190024Y-101027242D01*
X105154520Y-101093665D01*
X105111004Y-101175078D01*
X105004659Y-101304659D01*
X104875078Y-101411004D01*
X104875076Y-101411005D01*
X104727242Y-101490024D01*
X104566823Y-101538687D01*
X104441804Y-101551000D01*
X103558196Y-101551000D01*
X103433177Y-101538687D01*
X103272758Y-101490024D01*
X103124924Y-101411005D01*
X103124922Y-101411004D01*
X102995341Y-101304659D01*
X102888996Y-101175078D01*
X102845480Y-101093665D01*
X102809976Y-101027242D01*
X102761313Y-100866823D01*
X102744883Y-100700000D01*
X102761313Y-100533177D01*
X102800917Y-100402620D01*
X102809975Y-100372761D01*
X102809976Y-100372758D01*
X102888995Y-100224924D01*
X102888996Y-100224922D01*
X102995341Y-100095341D01*
X103124922Y-99988996D01*
X103140094Y-99980886D01*
X103272758Y-99909976D01*
X103433177Y-99861313D01*
X103558196Y-99849000D01*
X104441804Y-99849000D01*
X104566823Y-99861313D01*
X104566823Y-99861313D01*
G37*
G36*
X112186823Y-97321313D02*
G01*
X112347242Y-97369976D01*
X112479906Y-97440886D01*
X112495078Y-97448996D01*
X112624659Y-97555341D01*
X112731004Y-97684922D01*
X112731005Y-97684924D01*
X112810024Y-97832758D01*
X112858687Y-97993177D01*
X112875117Y-98160000D01*
X112858687Y-98326823D01*
X112810024Y-98487242D01*
X112739114Y-98619906D01*
X112731004Y-98635078D01*
X112624659Y-98764659D01*
X112495078Y-98871004D01*
X112495076Y-98871005D01*
X112347242Y-98950024D01*
X112186823Y-98998687D01*
X112061804Y-99011000D01*
X111178196Y-99011000D01*
X111053177Y-98998687D01*
X110892758Y-98950024D01*
X110744924Y-98871005D01*
X110744922Y-98871004D01*
X110615341Y-98764659D01*
X110508996Y-98635078D01*
X110500886Y-98619906D01*
X110429976Y-98487242D01*
X110381313Y-98326823D01*
X110364883Y-98160000D01*
X110381313Y-97993177D01*
X110429976Y-97832758D01*
X110508995Y-97684924D01*
X110508996Y-97684922D01*
X110615341Y-97555341D01*
X110744922Y-97448996D01*
X110760094Y-97440886D01*
X110892758Y-97369976D01*
X111053177Y-97321313D01*
X111178196Y-97309000D01*
X112061804Y-97309000D01*
X112186823Y-97321313D01*
X112186823Y-97321313D01*
G37*
G36*
X104566823Y-97321313D02*
G01*
X104727242Y-97369976D01*
X104859906Y-97440886D01*
X104875078Y-97448996D01*
X105004659Y-97555341D01*
X105111004Y-97684922D01*
X105111005Y-97684924D01*
X105190024Y-97832758D01*
X105238687Y-97993177D01*
X105255117Y-98160000D01*
X105238687Y-98326823D01*
X105190024Y-98487242D01*
X105119114Y-98619906D01*
X105111004Y-98635078D01*
X105004659Y-98764659D01*
X104875078Y-98871004D01*
X104875076Y-98871005D01*
X104727242Y-98950024D01*
X104566823Y-98998687D01*
X104441804Y-99011000D01*
X103558196Y-99011000D01*
X103433177Y-98998687D01*
X103272758Y-98950024D01*
X103124924Y-98871005D01*
X103124922Y-98871004D01*
X102995341Y-98764659D01*
X102888996Y-98635078D01*
X102880886Y-98619906D01*
X102809976Y-98487242D01*
X102761313Y-98326823D01*
X102744883Y-98160000D01*
X102761313Y-97993177D01*
X102809976Y-97832758D01*
X102888995Y-97684924D01*
X102888996Y-97684922D01*
X102995341Y-97555341D01*
X103124922Y-97448996D01*
X103140094Y-97440886D01*
X103272758Y-97369976D01*
X103433177Y-97321313D01*
X103558196Y-97309000D01*
X104441804Y-97309000D01*
X104566823Y-97321313D01*
X104566823Y-97321313D01*
G37*
G36*
X112186823Y-94781313D02*
G01*
X112347242Y-94829976D01*
X112479906Y-94900886D01*
X112495078Y-94908996D01*
X112624659Y-95015341D01*
X112731004Y-95144922D01*
X112731005Y-95144924D01*
X112810024Y-95292758D01*
X112858687Y-95453177D01*
X112875117Y-95620000D01*
X112858687Y-95786823D01*
X112810024Y-95947242D01*
X112739114Y-96079906D01*
X112731004Y-96095078D01*
X112624659Y-96224659D01*
X112495078Y-96331004D01*
X112495076Y-96331005D01*
X112347242Y-96410024D01*
X112186823Y-96458687D01*
X112061804Y-96471000D01*
X111178196Y-96471000D01*
X111053177Y-96458687D01*
X110892758Y-96410024D01*
X110744924Y-96331005D01*
X110744922Y-96331004D01*
X110615341Y-96224659D01*
X110508996Y-96095078D01*
X110500886Y-96079906D01*
X110429976Y-95947242D01*
X110381313Y-95786823D01*
X110364883Y-95620000D01*
X110381313Y-95453177D01*
X110429976Y-95292758D01*
X110508995Y-95144924D01*
X110508996Y-95144922D01*
X110615341Y-95015341D01*
X110744922Y-94908996D01*
X110760094Y-94900886D01*
X110892758Y-94829976D01*
X111053177Y-94781313D01*
X111178196Y-94769000D01*
X112061804Y-94769000D01*
X112186823Y-94781313D01*
X112186823Y-94781313D01*
G37*
G36*
X104566823Y-94781313D02*
G01*
X104727242Y-94829976D01*
X104859906Y-94900886D01*
X104875078Y-94908996D01*
X105004659Y-95015341D01*
X105111004Y-95144922D01*
X105111005Y-95144924D01*
X105190024Y-95292758D01*
X105238687Y-95453177D01*
X105255117Y-95620000D01*
X105238687Y-95786823D01*
X105190024Y-95947242D01*
X105119114Y-96079906D01*
X105111004Y-96095078D01*
X105004659Y-96224659D01*
X104875078Y-96331004D01*
X104875076Y-96331005D01*
X104727242Y-96410024D01*
X104566823Y-96458687D01*
X104441804Y-96471000D01*
X103558196Y-96471000D01*
X103433177Y-96458687D01*
X103272758Y-96410024D01*
X103124924Y-96331005D01*
X103124922Y-96331004D01*
X102995341Y-96224659D01*
X102888996Y-96095078D01*
X102880886Y-96079906D01*
X102809976Y-95947242D01*
X102761313Y-95786823D01*
X102744883Y-95620000D01*
X102761313Y-95453177D01*
X102809976Y-95292758D01*
X102888995Y-95144924D01*
X102888996Y-95144922D01*
X102995341Y-95015341D01*
X103124922Y-94908996D01*
X103140094Y-94900886D01*
X103272758Y-94829976D01*
X103433177Y-94781313D01*
X103558196Y-94769000D01*
X104441804Y-94769000D01*
X104566823Y-94781313D01*
X104566823Y-94781313D01*
G37*
G36*
X81248228Y-94181703D02*
G01*
X81403100Y-94245853D01*
X81542481Y-94338985D01*
X81661015Y-94457519D01*
X81754147Y-94596900D01*
X81818297Y-94751772D01*
X81851000Y-94916184D01*
X81851000Y-95083816D01*
X81818297Y-95248228D01*
X81754147Y-95403100D01*
X81661015Y-95542481D01*
X81542481Y-95661015D01*
X81403100Y-95754147D01*
X81248228Y-95818297D01*
X81083816Y-95851000D01*
X80916184Y-95851000D01*
X80751772Y-95818297D01*
X80596900Y-95754147D01*
X80457519Y-95661015D01*
X80338985Y-95542481D01*
X80245853Y-95403100D01*
X80181703Y-95248228D01*
X80149000Y-95083816D01*
X80149000Y-94916184D01*
X80181703Y-94751772D01*
X80245853Y-94596900D01*
X80338985Y-94457519D01*
X80457519Y-94338985D01*
X80596900Y-94245853D01*
X80751772Y-94181703D01*
X80916184Y-94149000D01*
X81083816Y-94149000D01*
X81248228Y-94181703D01*
X81248228Y-94181703D01*
G37*
G36*
X133248228Y-94181703D02*
G01*
X133403100Y-94245853D01*
X133542481Y-94338985D01*
X133661015Y-94457519D01*
X133754147Y-94596900D01*
X133818297Y-94751772D01*
X133851000Y-94916184D01*
X133851000Y-95083816D01*
X133818297Y-95248228D01*
X133754147Y-95403100D01*
X133661015Y-95542481D01*
X133542481Y-95661015D01*
X133403100Y-95754147D01*
X133248228Y-95818297D01*
X133083816Y-95851000D01*
X132916184Y-95851000D01*
X132751772Y-95818297D01*
X132596900Y-95754147D01*
X132457519Y-95661015D01*
X132338985Y-95542481D01*
X132245853Y-95403100D01*
X132181703Y-95248228D01*
X132149000Y-95083816D01*
X132149000Y-94916184D01*
X132181703Y-94751772D01*
X132245853Y-94596900D01*
X132338985Y-94457519D01*
X132457519Y-94338985D01*
X132596900Y-94245853D01*
X132751772Y-94181703D01*
X132916184Y-94149000D01*
X133083816Y-94149000D01*
X133248228Y-94181703D01*
X133248228Y-94181703D01*
G37*
G36*
X123006823Y-94161313D02*
G01*
X123167242Y-94209976D01*
X123234361Y-94245852D01*
X123315078Y-94288996D01*
X123444659Y-94395341D01*
X123551004Y-94524922D01*
X123551005Y-94524924D01*
X123630024Y-94672758D01*
X123678687Y-94833177D01*
X123695117Y-95000000D01*
X123678687Y-95166823D01*
X123630024Y-95327242D01*
X123589477Y-95403100D01*
X123551004Y-95475078D01*
X123444659Y-95604659D01*
X123315078Y-95711004D01*
X123315076Y-95711005D01*
X123167242Y-95790024D01*
X123006823Y-95838687D01*
X122881804Y-95851000D01*
X122798196Y-95851000D01*
X122673177Y-95838687D01*
X122512758Y-95790024D01*
X122364924Y-95711005D01*
X122364922Y-95711004D01*
X122235341Y-95604659D01*
X122128996Y-95475078D01*
X122090523Y-95403100D01*
X122049976Y-95327242D01*
X122001313Y-95166823D01*
X121984883Y-95000000D01*
X122001313Y-94833177D01*
X122049976Y-94672758D01*
X122128995Y-94524924D01*
X122128996Y-94524922D01*
X122235341Y-94395341D01*
X122364922Y-94288996D01*
X122445639Y-94245852D01*
X122512758Y-94209976D01*
X122673177Y-94161313D01*
X122798196Y-94149000D01*
X122881804Y-94149000D01*
X123006823Y-94161313D01*
X123006823Y-94161313D01*
G37*
G36*
X91326823Y-94161313D02*
G01*
X91487242Y-94209976D01*
X91554361Y-94245852D01*
X91635078Y-94288996D01*
X91764659Y-94395341D01*
X91871004Y-94524922D01*
X91871005Y-94524924D01*
X91950024Y-94672758D01*
X91998687Y-94833177D01*
X92015117Y-95000000D01*
X91998687Y-95166823D01*
X91950024Y-95327242D01*
X91909477Y-95403100D01*
X91871004Y-95475078D01*
X91764659Y-95604659D01*
X91635078Y-95711004D01*
X91635076Y-95711005D01*
X91487242Y-95790024D01*
X91326823Y-95838687D01*
X91201804Y-95851000D01*
X91118196Y-95851000D01*
X90993177Y-95838687D01*
X90832758Y-95790024D01*
X90684924Y-95711005D01*
X90684922Y-95711004D01*
X90555341Y-95604659D01*
X90448996Y-95475078D01*
X90410523Y-95403100D01*
X90369976Y-95327242D01*
X90321313Y-95166823D01*
X90304883Y-95000000D01*
X90321313Y-94833177D01*
X90369976Y-94672758D01*
X90448995Y-94524924D01*
X90448996Y-94524922D01*
X90555341Y-94395341D01*
X90684922Y-94288996D01*
X90765639Y-94245852D01*
X90832758Y-94209976D01*
X90993177Y-94161313D01*
X91118196Y-94149000D01*
X91201804Y-94149000D01*
X91326823Y-94161313D01*
X91326823Y-94161313D01*
G37*
G36*
X112186823Y-92241313D02*
G01*
X112347242Y-92289976D01*
X112479906Y-92360886D01*
X112495078Y-92368996D01*
X112624659Y-92475341D01*
X112731004Y-92604922D01*
X112731005Y-92604924D01*
X112810024Y-92752758D01*
X112858687Y-92913177D01*
X112875117Y-93080000D01*
X112858687Y-93246823D01*
X112810024Y-93407242D01*
X112739114Y-93539906D01*
X112731004Y-93555078D01*
X112624659Y-93684659D01*
X112495078Y-93791004D01*
X112495076Y-93791005D01*
X112347242Y-93870024D01*
X112186823Y-93918687D01*
X112061804Y-93931000D01*
X111178196Y-93931000D01*
X111053177Y-93918687D01*
X110892758Y-93870024D01*
X110744924Y-93791005D01*
X110744922Y-93791004D01*
X110615341Y-93684659D01*
X110508996Y-93555078D01*
X110500886Y-93539906D01*
X110429976Y-93407242D01*
X110381313Y-93246823D01*
X110364883Y-93080000D01*
X110381313Y-92913177D01*
X110429976Y-92752758D01*
X110508995Y-92604924D01*
X110508996Y-92604922D01*
X110615341Y-92475341D01*
X110744922Y-92368996D01*
X110760094Y-92360886D01*
X110892758Y-92289976D01*
X111053177Y-92241313D01*
X111178196Y-92229000D01*
X112061804Y-92229000D01*
X112186823Y-92241313D01*
X112186823Y-92241313D01*
G37*
G36*
X104566823Y-92241313D02*
G01*
X104727242Y-92289976D01*
X104859906Y-92360886D01*
X104875078Y-92368996D01*
X105004659Y-92475341D01*
X105111004Y-92604922D01*
X105111005Y-92604924D01*
X105190024Y-92752758D01*
X105238687Y-92913177D01*
X105255117Y-93080000D01*
X105238687Y-93246823D01*
X105190024Y-93407242D01*
X105119114Y-93539906D01*
X105111004Y-93555078D01*
X105004659Y-93684659D01*
X104875078Y-93791004D01*
X104875076Y-93791005D01*
X104727242Y-93870024D01*
X104566823Y-93918687D01*
X104441804Y-93931000D01*
X103558196Y-93931000D01*
X103433177Y-93918687D01*
X103272758Y-93870024D01*
X103124924Y-93791005D01*
X103124922Y-93791004D01*
X102995341Y-93684659D01*
X102888996Y-93555078D01*
X102880886Y-93539906D01*
X102809976Y-93407242D01*
X102761313Y-93246823D01*
X102744883Y-93080000D01*
X102761313Y-92913177D01*
X102809976Y-92752758D01*
X102888995Y-92604924D01*
X102888996Y-92604922D01*
X102995341Y-92475341D01*
X103124922Y-92368996D01*
X103140094Y-92360886D01*
X103272758Y-92289976D01*
X103433177Y-92241313D01*
X103558196Y-92229000D01*
X104441804Y-92229000D01*
X104566823Y-92241313D01*
X104566823Y-92241313D01*
G37*
G36*
X104566823Y-89701313D02*
G01*
X104727242Y-89749976D01*
X104859906Y-89820886D01*
X104875078Y-89828996D01*
X105004659Y-89935341D01*
X105111004Y-90064922D01*
X105111005Y-90064924D01*
X105190024Y-90212758D01*
X105238687Y-90373177D01*
X105255117Y-90540000D01*
X105238687Y-90706823D01*
X105190024Y-90867242D01*
X105119114Y-90999906D01*
X105111004Y-91015078D01*
X105004659Y-91144659D01*
X104875078Y-91251004D01*
X104875076Y-91251005D01*
X104727242Y-91330024D01*
X104566823Y-91378687D01*
X104441804Y-91391000D01*
X103558196Y-91391000D01*
X103433177Y-91378687D01*
X103272758Y-91330024D01*
X103124924Y-91251005D01*
X103124922Y-91251004D01*
X102995341Y-91144659D01*
X102888996Y-91015078D01*
X102880886Y-90999906D01*
X102809976Y-90867242D01*
X102761313Y-90706823D01*
X102744883Y-90540000D01*
X102761313Y-90373177D01*
X102809976Y-90212758D01*
X102888995Y-90064924D01*
X102888996Y-90064922D01*
X102995341Y-89935341D01*
X103124922Y-89828996D01*
X103140094Y-89820886D01*
X103272758Y-89749976D01*
X103433177Y-89701313D01*
X103558196Y-89689000D01*
X104441804Y-89689000D01*
X104566823Y-89701313D01*
X104566823Y-89701313D01*
G37*
G36*
X112186823Y-89701313D02*
G01*
X112347242Y-89749976D01*
X112479906Y-89820886D01*
X112495078Y-89828996D01*
X112624659Y-89935341D01*
X112731004Y-90064922D01*
X112731005Y-90064924D01*
X112810024Y-90212758D01*
X112858687Y-90373177D01*
X112875117Y-90540000D01*
X112858687Y-90706823D01*
X112810024Y-90867242D01*
X112739114Y-90999906D01*
X112731004Y-91015078D01*
X112624659Y-91144659D01*
X112495078Y-91251004D01*
X112495076Y-91251005D01*
X112347242Y-91330024D01*
X112186823Y-91378687D01*
X112061804Y-91391000D01*
X111178196Y-91391000D01*
X111053177Y-91378687D01*
X110892758Y-91330024D01*
X110744924Y-91251005D01*
X110744922Y-91251004D01*
X110615341Y-91144659D01*
X110508996Y-91015078D01*
X110500886Y-90999906D01*
X110429976Y-90867242D01*
X110381313Y-90706823D01*
X110364883Y-90540000D01*
X110381313Y-90373177D01*
X110429976Y-90212758D01*
X110508995Y-90064924D01*
X110508996Y-90064922D01*
X110615341Y-89935341D01*
X110744922Y-89828996D01*
X110760094Y-89820886D01*
X110892758Y-89749976D01*
X111053177Y-89701313D01*
X111178196Y-89689000D01*
X112061804Y-89689000D01*
X112186823Y-89701313D01*
X112186823Y-89701313D01*
G37*
G36*
X105251000Y-88851000D02*
G01*
X102749000Y-88851000D01*
X102749000Y-87149000D01*
X105251000Y-87149000D01*
X105251000Y-88851000D01*
X105251000Y-88851000D01*
G37*
G36*
X112186823Y-87161313D02*
G01*
X112347242Y-87209976D01*
X112479906Y-87280886D01*
X112495078Y-87288996D01*
X112624659Y-87395341D01*
X112731004Y-87524922D01*
X112731005Y-87524924D01*
X112810024Y-87672758D01*
X112858687Y-87833177D01*
X112875117Y-88000000D01*
X112858687Y-88166823D01*
X112810024Y-88327242D01*
X112739114Y-88459906D01*
X112731004Y-88475078D01*
X112624659Y-88604659D01*
X112495078Y-88711004D01*
X112495076Y-88711005D01*
X112347242Y-88790024D01*
X112186823Y-88838687D01*
X112061804Y-88851000D01*
X111178196Y-88851000D01*
X111053177Y-88838687D01*
X110892758Y-88790024D01*
X110744924Y-88711005D01*
X110744922Y-88711004D01*
X110615341Y-88604659D01*
X110508996Y-88475078D01*
X110500886Y-88459906D01*
X110429976Y-88327242D01*
X110381313Y-88166823D01*
X110364883Y-88000000D01*
X110381313Y-87833177D01*
X110429976Y-87672758D01*
X110508995Y-87524924D01*
X110508996Y-87524922D01*
X110615341Y-87395341D01*
X110744922Y-87288996D01*
X110760094Y-87280886D01*
X110892758Y-87209976D01*
X111053177Y-87161313D01*
X111178196Y-87149000D01*
X112061804Y-87149000D01*
X112186823Y-87161313D01*
X112186823Y-87161313D01*
G37*
G36*
X133248228Y-85181703D02*
G01*
X133403100Y-85245853D01*
X133542481Y-85338985D01*
X133661015Y-85457519D01*
X133754147Y-85596900D01*
X133818297Y-85751772D01*
X133851000Y-85916184D01*
X133851000Y-86083816D01*
X133818297Y-86248228D01*
X133754147Y-86403100D01*
X133661015Y-86542481D01*
X133542481Y-86661015D01*
X133403100Y-86754147D01*
X133248228Y-86818297D01*
X133083816Y-86851000D01*
X132916184Y-86851000D01*
X132751772Y-86818297D01*
X132596900Y-86754147D01*
X132457519Y-86661015D01*
X132338985Y-86542481D01*
X132245853Y-86403100D01*
X132181703Y-86248228D01*
X132149000Y-86083816D01*
X132149000Y-85916184D01*
X132181703Y-85751772D01*
X132245853Y-85596900D01*
X132338985Y-85457519D01*
X132457519Y-85338985D01*
X132596900Y-85245853D01*
X132751772Y-85181703D01*
X132916184Y-85149000D01*
X133083816Y-85149000D01*
X133248228Y-85181703D01*
X133248228Y-85181703D01*
G37*
G36*
X81248228Y-85181703D02*
G01*
X81403100Y-85245853D01*
X81542481Y-85338985D01*
X81661015Y-85457519D01*
X81754147Y-85596900D01*
X81818297Y-85751772D01*
X81851000Y-85916184D01*
X81851000Y-86083816D01*
X81818297Y-86248228D01*
X81754147Y-86403100D01*
X81661015Y-86542481D01*
X81542481Y-86661015D01*
X81403100Y-86754147D01*
X81248228Y-86818297D01*
X81083816Y-86851000D01*
X80916184Y-86851000D01*
X80751772Y-86818297D01*
X80596900Y-86754147D01*
X80457519Y-86661015D01*
X80338985Y-86542481D01*
X80245853Y-86403100D01*
X80181703Y-86248228D01*
X80149000Y-86083816D01*
X80149000Y-85916184D01*
X80181703Y-85751772D01*
X80245853Y-85596900D01*
X80338985Y-85457519D01*
X80457519Y-85338985D01*
X80596900Y-85245853D01*
X80751772Y-85181703D01*
X80916184Y-85149000D01*
X81083816Y-85149000D01*
X81248228Y-85181703D01*
X81248228Y-85181703D01*
G37*
G36*
X91326823Y-85161313D02*
G01*
X91487242Y-85209976D01*
X91554361Y-85245852D01*
X91635078Y-85288996D01*
X91764659Y-85395341D01*
X91871004Y-85524922D01*
X91871005Y-85524924D01*
X91950024Y-85672758D01*
X91998687Y-85833177D01*
X92015117Y-86000000D01*
X91998687Y-86166823D01*
X91950024Y-86327242D01*
X91909477Y-86403100D01*
X91871004Y-86475078D01*
X91764659Y-86604659D01*
X91635078Y-86711004D01*
X91635076Y-86711005D01*
X91487242Y-86790024D01*
X91326823Y-86838687D01*
X91201804Y-86851000D01*
X91118196Y-86851000D01*
X90993177Y-86838687D01*
X90832758Y-86790024D01*
X90684924Y-86711005D01*
X90684922Y-86711004D01*
X90555341Y-86604659D01*
X90448996Y-86475078D01*
X90410523Y-86403100D01*
X90369976Y-86327242D01*
X90321313Y-86166823D01*
X90304883Y-86000000D01*
X90321313Y-85833177D01*
X90369976Y-85672758D01*
X90448995Y-85524924D01*
X90448996Y-85524922D01*
X90555341Y-85395341D01*
X90684922Y-85288996D01*
X90765639Y-85245852D01*
X90832758Y-85209976D01*
X90993177Y-85161313D01*
X91118196Y-85149000D01*
X91201804Y-85149000D01*
X91326823Y-85161313D01*
X91326823Y-85161313D01*
G37*
G36*
X123006823Y-85161313D02*
G01*
X123167242Y-85209976D01*
X123234361Y-85245852D01*
X123315078Y-85288996D01*
X123444659Y-85395341D01*
X123551004Y-85524922D01*
X123551005Y-85524924D01*
X123630024Y-85672758D01*
X123678687Y-85833177D01*
X123695117Y-86000000D01*
X123678687Y-86166823D01*
X123630024Y-86327242D01*
X123589477Y-86403100D01*
X123551004Y-86475078D01*
X123444659Y-86604659D01*
X123315078Y-86711004D01*
X123315076Y-86711005D01*
X123167242Y-86790024D01*
X123006823Y-86838687D01*
X122881804Y-86851000D01*
X122798196Y-86851000D01*
X122673177Y-86838687D01*
X122512758Y-86790024D01*
X122364924Y-86711005D01*
X122364922Y-86711004D01*
X122235341Y-86604659D01*
X122128996Y-86475078D01*
X122090523Y-86403100D01*
X122049976Y-86327242D01*
X122001313Y-86166823D01*
X121984883Y-86000000D01*
X122001313Y-85833177D01*
X122049976Y-85672758D01*
X122128995Y-85524924D01*
X122128996Y-85524922D01*
X122235341Y-85395341D01*
X122364922Y-85288996D01*
X122445639Y-85245852D01*
X122512758Y-85209976D01*
X122673177Y-85161313D01*
X122798196Y-85149000D01*
X122881804Y-85149000D01*
X123006823Y-85161313D01*
X123006823Y-85161313D01*
G37*
G36*
X104566823Y-80781313D02*
G01*
X104727242Y-80829976D01*
X104859906Y-80900886D01*
X104875078Y-80908996D01*
X105004659Y-81015341D01*
X105111004Y-81144922D01*
X105111005Y-81144924D01*
X105190024Y-81292758D01*
X105238687Y-81453177D01*
X105255117Y-81620000D01*
X105238687Y-81786823D01*
X105190024Y-81947242D01*
X105119114Y-82079906D01*
X105111004Y-82095078D01*
X105004659Y-82224659D01*
X104875078Y-82331004D01*
X104875076Y-82331005D01*
X104727242Y-82410024D01*
X104566823Y-82458687D01*
X104441804Y-82471000D01*
X103558196Y-82471000D01*
X103433177Y-82458687D01*
X103272758Y-82410024D01*
X103124924Y-82331005D01*
X103124922Y-82331004D01*
X102995341Y-82224659D01*
X102888996Y-82095078D01*
X102880886Y-82079906D01*
X102809976Y-81947242D01*
X102761313Y-81786823D01*
X102744883Y-81620000D01*
X102761313Y-81453177D01*
X102809976Y-81292758D01*
X102888995Y-81144924D01*
X102888996Y-81144922D01*
X102995341Y-81015341D01*
X103124922Y-80908996D01*
X103140094Y-80900886D01*
X103272758Y-80829976D01*
X103433177Y-80781313D01*
X103558196Y-80769000D01*
X104441804Y-80769000D01*
X104566823Y-80781313D01*
X104566823Y-80781313D01*
G37*
G36*
X112186823Y-80781313D02*
G01*
X112347242Y-80829976D01*
X112479906Y-80900886D01*
X112495078Y-80908996D01*
X112624659Y-81015341D01*
X112731004Y-81144922D01*
X112731005Y-81144924D01*
X112810024Y-81292758D01*
X112858687Y-81453177D01*
X112875117Y-81620000D01*
X112858687Y-81786823D01*
X112810024Y-81947242D01*
X112739114Y-82079906D01*
X112731004Y-82095078D01*
X112624659Y-82224659D01*
X112495078Y-82331004D01*
X112495076Y-82331005D01*
X112347242Y-82410024D01*
X112186823Y-82458687D01*
X112061804Y-82471000D01*
X111178196Y-82471000D01*
X111053177Y-82458687D01*
X110892758Y-82410024D01*
X110744924Y-82331005D01*
X110744922Y-82331004D01*
X110615341Y-82224659D01*
X110508996Y-82095078D01*
X110500886Y-82079906D01*
X110429976Y-81947242D01*
X110381313Y-81786823D01*
X110364883Y-81620000D01*
X110381313Y-81453177D01*
X110429976Y-81292758D01*
X110508995Y-81144924D01*
X110508996Y-81144922D01*
X110615341Y-81015341D01*
X110744922Y-80908996D01*
X110760094Y-80900886D01*
X110892758Y-80829976D01*
X111053177Y-80781313D01*
X111178196Y-80769000D01*
X112061804Y-80769000D01*
X112186823Y-80781313D01*
X112186823Y-80781313D01*
G37*
G36*
X71951000Y-79951000D02*
G01*
X70049000Y-79951000D01*
X70049000Y-78049000D01*
X71951000Y-78049000D01*
X71951000Y-79951000D01*
X71951000Y-79951000D01*
G37*
G36*
X73817395Y-78085546D02*
G01*
X73990466Y-78157234D01*
X73990467Y-78157235D01*
X74146227Y-78261310D01*
X74278690Y-78393773D01*
X74331081Y-78472182D01*
X74382766Y-78549534D01*
X74454454Y-78722605D01*
X74491000Y-78906333D01*
X74491000Y-79093667D01*
X74454454Y-79277395D01*
X74382766Y-79450466D01*
X74382765Y-79450467D01*
X74278690Y-79606227D01*
X74146227Y-79738690D01*
X74067933Y-79791004D01*
X73990466Y-79842766D01*
X73817395Y-79914454D01*
X73633667Y-79951000D01*
X73446333Y-79951000D01*
X73262605Y-79914454D01*
X73089534Y-79842766D01*
X73012067Y-79791004D01*
X72933773Y-79738690D01*
X72801310Y-79606227D01*
X72697235Y-79450467D01*
X72697234Y-79450466D01*
X72625546Y-79277395D01*
X72589000Y-79093667D01*
X72589000Y-78906333D01*
X72625546Y-78722605D01*
X72697234Y-78549534D01*
X72748919Y-78472182D01*
X72801310Y-78393773D01*
X72933773Y-78261310D01*
X73089533Y-78157235D01*
X73089534Y-78157234D01*
X73262605Y-78085546D01*
X73446333Y-78049000D01*
X73633667Y-78049000D01*
X73817395Y-78085546D01*
X73817395Y-78085546D01*
G37*
G36*
X112186823Y-78241313D02*
G01*
X112347242Y-78289976D01*
X112479906Y-78360886D01*
X112495078Y-78368996D01*
X112624659Y-78475341D01*
X112731004Y-78604922D01*
X112739114Y-78620094D01*
X112810024Y-78752758D01*
X112858687Y-78913177D01*
X112875117Y-79080000D01*
X112858687Y-79246823D01*
X112810024Y-79407242D01*
X112739114Y-79539906D01*
X112731004Y-79555078D01*
X112624659Y-79684659D01*
X112495078Y-79791004D01*
X112495076Y-79791005D01*
X112347242Y-79870024D01*
X112186823Y-79918687D01*
X112061804Y-79931000D01*
X111178196Y-79931000D01*
X111053177Y-79918687D01*
X110892758Y-79870024D01*
X110744924Y-79791005D01*
X110744922Y-79791004D01*
X110615341Y-79684659D01*
X110508996Y-79555078D01*
X110500886Y-79539906D01*
X110429976Y-79407242D01*
X110381313Y-79246823D01*
X110364883Y-79080000D01*
X110381313Y-78913177D01*
X110429976Y-78752758D01*
X110500886Y-78620094D01*
X110508996Y-78604922D01*
X110615341Y-78475341D01*
X110744922Y-78368996D01*
X110760094Y-78360886D01*
X110892758Y-78289976D01*
X111053177Y-78241313D01*
X111178196Y-78229000D01*
X112061804Y-78229000D01*
X112186823Y-78241313D01*
X112186823Y-78241313D01*
G37*
G36*
X104566823Y-78241313D02*
G01*
X104727242Y-78289976D01*
X104859906Y-78360886D01*
X104875078Y-78368996D01*
X105004659Y-78475341D01*
X105111004Y-78604922D01*
X105119114Y-78620094D01*
X105190024Y-78752758D01*
X105238687Y-78913177D01*
X105255117Y-79080000D01*
X105238687Y-79246823D01*
X105190024Y-79407242D01*
X105119114Y-79539906D01*
X105111004Y-79555078D01*
X105004659Y-79684659D01*
X104875078Y-79791004D01*
X104875076Y-79791005D01*
X104727242Y-79870024D01*
X104566823Y-79918687D01*
X104441804Y-79931000D01*
X103558196Y-79931000D01*
X103433177Y-79918687D01*
X103272758Y-79870024D01*
X103124924Y-79791005D01*
X103124922Y-79791004D01*
X102995341Y-79684659D01*
X102888996Y-79555078D01*
X102880886Y-79539906D01*
X102809976Y-79407242D01*
X102761313Y-79246823D01*
X102744883Y-79080000D01*
X102761313Y-78913177D01*
X102809976Y-78752758D01*
X102880886Y-78620094D01*
X102888996Y-78604922D01*
X102995341Y-78475341D01*
X103124922Y-78368996D01*
X103140094Y-78360886D01*
X103272758Y-78289976D01*
X103433177Y-78241313D01*
X103558196Y-78229000D01*
X104441804Y-78229000D01*
X104566823Y-78241313D01*
X104566823Y-78241313D01*
G37*
G36*
X144817395Y-77085546D02*
G01*
X144990466Y-77157234D01*
X144990467Y-77157235D01*
X145146227Y-77261310D01*
X145278690Y-77393773D01*
X145278691Y-77393775D01*
X145382766Y-77549534D01*
X145454454Y-77722605D01*
X145491000Y-77906333D01*
X145491000Y-78093667D01*
X145454454Y-78277395D01*
X145382766Y-78450466D01*
X145382765Y-78450467D01*
X145278690Y-78606227D01*
X145146227Y-78738690D01*
X145125168Y-78752761D01*
X144990466Y-78842766D01*
X144817395Y-78914454D01*
X144633667Y-78951000D01*
X144446333Y-78951000D01*
X144262605Y-78914454D01*
X144089534Y-78842766D01*
X143954832Y-78752761D01*
X143933773Y-78738690D01*
X143801310Y-78606227D01*
X143697235Y-78450467D01*
X143697234Y-78450466D01*
X143625546Y-78277395D01*
X143589000Y-78093667D01*
X143589000Y-77906333D01*
X143625546Y-77722605D01*
X143697234Y-77549534D01*
X143801309Y-77393775D01*
X143801310Y-77393773D01*
X143933773Y-77261310D01*
X144089533Y-77157235D01*
X144089534Y-77157234D01*
X144262605Y-77085546D01*
X144446333Y-77049000D01*
X144633667Y-77049000D01*
X144817395Y-77085546D01*
X144817395Y-77085546D01*
G37*
G36*
X142951000Y-78951000D02*
G01*
X141049000Y-78951000D01*
X141049000Y-77049000D01*
X142951000Y-77049000D01*
X142951000Y-78951000D01*
X142951000Y-78951000D01*
G37*
G36*
X104566823Y-75701313D02*
G01*
X104727242Y-75749976D01*
X104859906Y-75820886D01*
X104875078Y-75828996D01*
X105004659Y-75935341D01*
X105111004Y-76064922D01*
X105111005Y-76064924D01*
X105190024Y-76212758D01*
X105238687Y-76373177D01*
X105255117Y-76540000D01*
X105238687Y-76706823D01*
X105190024Y-76867242D01*
X105132838Y-76974229D01*
X105111004Y-77015078D01*
X105004659Y-77144659D01*
X104875078Y-77251004D01*
X104875076Y-77251005D01*
X104727242Y-77330024D01*
X104566823Y-77378687D01*
X104441804Y-77391000D01*
X103558196Y-77391000D01*
X103433177Y-77378687D01*
X103272758Y-77330024D01*
X103124924Y-77251005D01*
X103124922Y-77251004D01*
X102995341Y-77144659D01*
X102888996Y-77015078D01*
X102867162Y-76974229D01*
X102809976Y-76867242D01*
X102761313Y-76706823D01*
X102744883Y-76540000D01*
X102761313Y-76373177D01*
X102809976Y-76212758D01*
X102888995Y-76064924D01*
X102888996Y-76064922D01*
X102995341Y-75935341D01*
X103124922Y-75828996D01*
X103140094Y-75820886D01*
X103272758Y-75749976D01*
X103433177Y-75701313D01*
X103558196Y-75689000D01*
X104441804Y-75689000D01*
X104566823Y-75701313D01*
X104566823Y-75701313D01*
G37*
G36*
X112186823Y-75701313D02*
G01*
X112347242Y-75749976D01*
X112479906Y-75820886D01*
X112495078Y-75828996D01*
X112624659Y-75935341D01*
X112731004Y-76064922D01*
X112731005Y-76064924D01*
X112810024Y-76212758D01*
X112858687Y-76373177D01*
X112875117Y-76540000D01*
X112858687Y-76706823D01*
X112810024Y-76867242D01*
X112752838Y-76974229D01*
X112731004Y-77015078D01*
X112624659Y-77144659D01*
X112495078Y-77251004D01*
X112495076Y-77251005D01*
X112347242Y-77330024D01*
X112186823Y-77378687D01*
X112061804Y-77391000D01*
X111178196Y-77391000D01*
X111053177Y-77378687D01*
X110892758Y-77330024D01*
X110744924Y-77251005D01*
X110744922Y-77251004D01*
X110615341Y-77144659D01*
X110508996Y-77015078D01*
X110487162Y-76974229D01*
X110429976Y-76867242D01*
X110381313Y-76706823D01*
X110364883Y-76540000D01*
X110381313Y-76373177D01*
X110429976Y-76212758D01*
X110508995Y-76064924D01*
X110508996Y-76064922D01*
X110615341Y-75935341D01*
X110744922Y-75828996D01*
X110760094Y-75820886D01*
X110892758Y-75749976D01*
X111053177Y-75701313D01*
X111178196Y-75689000D01*
X112061804Y-75689000D01*
X112186823Y-75701313D01*
X112186823Y-75701313D01*
G37*
G36*
X122982618Y-75345518D02*
G01*
X123143037Y-75394181D01*
X123275701Y-75465091D01*
X123290873Y-75473201D01*
X123420454Y-75579546D01*
X123526799Y-75709127D01*
X123526800Y-75709129D01*
X123605819Y-75856963D01*
X123654482Y-76017382D01*
X123670912Y-76184205D01*
X123654482Y-76351028D01*
X123605819Y-76511447D01*
X123590557Y-76540000D01*
X123526799Y-76659283D01*
X123420454Y-76788864D01*
X123290873Y-76895209D01*
X123290871Y-76895210D01*
X123143037Y-76974229D01*
X122982618Y-77022892D01*
X122857599Y-77035205D01*
X122773991Y-77035205D01*
X122648972Y-77022892D01*
X122488553Y-76974229D01*
X122340719Y-76895210D01*
X122340717Y-76895209D01*
X122211136Y-76788864D01*
X122104791Y-76659283D01*
X122041033Y-76540000D01*
X122025771Y-76511447D01*
X121977108Y-76351028D01*
X121960678Y-76184205D01*
X121977108Y-76017382D01*
X122025771Y-75856963D01*
X122104790Y-75709129D01*
X122104791Y-75709127D01*
X122211136Y-75579546D01*
X122340717Y-75473201D01*
X122355889Y-75465091D01*
X122488553Y-75394181D01*
X122648972Y-75345518D01*
X122773991Y-75333205D01*
X122857599Y-75333205D01*
X122982618Y-75345518D01*
X122982618Y-75345518D01*
G37*
G36*
X91351028Y-75345518D02*
G01*
X91511447Y-75394181D01*
X91644111Y-75465091D01*
X91659283Y-75473201D01*
X91788864Y-75579546D01*
X91895209Y-75709127D01*
X91895210Y-75709129D01*
X91974229Y-75856963D01*
X92022892Y-76017382D01*
X92039322Y-76184205D01*
X92022892Y-76351028D01*
X91974229Y-76511447D01*
X91958967Y-76540000D01*
X91895209Y-76659283D01*
X91788864Y-76788864D01*
X91659283Y-76895209D01*
X91659281Y-76895210D01*
X91511447Y-76974229D01*
X91351028Y-77022892D01*
X91226009Y-77035205D01*
X91142401Y-77035205D01*
X91017382Y-77022892D01*
X90856963Y-76974229D01*
X90709129Y-76895210D01*
X90709127Y-76895209D01*
X90579546Y-76788864D01*
X90473201Y-76659283D01*
X90409443Y-76540000D01*
X90394181Y-76511447D01*
X90345518Y-76351028D01*
X90329088Y-76184205D01*
X90345518Y-76017382D01*
X90394181Y-75856963D01*
X90473200Y-75709129D01*
X90473201Y-75709127D01*
X90579546Y-75579546D01*
X90709127Y-75473201D01*
X90724299Y-75465091D01*
X90856963Y-75394181D01*
X91017382Y-75345518D01*
X91142401Y-75333205D01*
X91226009Y-75333205D01*
X91351028Y-75345518D01*
X91351028Y-75345518D01*
G37*
G36*
X105251000Y-74851000D02*
G01*
X102749000Y-74851000D01*
X102749000Y-73149000D01*
X105251000Y-73149000D01*
X105251000Y-74851000D01*
X105251000Y-74851000D01*
G37*
G36*
X112186823Y-73161313D02*
G01*
X112347242Y-73209976D01*
X112479906Y-73280886D01*
X112495078Y-73288996D01*
X112624659Y-73395341D01*
X112731004Y-73524922D01*
X112731005Y-73524924D01*
X112810024Y-73672758D01*
X112858687Y-73833177D01*
X112875117Y-74000000D01*
X112858687Y-74166823D01*
X112810024Y-74327242D01*
X112739114Y-74459906D01*
X112731004Y-74475078D01*
X112624659Y-74604659D01*
X112495078Y-74711004D01*
X112495076Y-74711005D01*
X112347242Y-74790024D01*
X112186823Y-74838687D01*
X112061804Y-74851000D01*
X111178196Y-74851000D01*
X111053177Y-74838687D01*
X110892758Y-74790024D01*
X110744924Y-74711005D01*
X110744922Y-74711004D01*
X110615341Y-74604659D01*
X110508996Y-74475078D01*
X110500886Y-74459906D01*
X110429976Y-74327242D01*
X110381313Y-74166823D01*
X110364883Y-74000000D01*
X110381313Y-73833177D01*
X110429976Y-73672758D01*
X110508995Y-73524924D01*
X110508996Y-73524922D01*
X110615341Y-73395341D01*
X110744922Y-73288996D01*
X110760094Y-73280886D01*
X110892758Y-73209976D01*
X111053177Y-73161313D01*
X111178196Y-73149000D01*
X112061804Y-73149000D01*
X112186823Y-73161313D01*
X112186823Y-73161313D01*
G37*
G36*
X108166823Y-68321313D02*
G01*
X108327242Y-68369976D01*
X108459906Y-68440886D01*
X108475078Y-68448996D01*
X108604659Y-68555341D01*
X108711004Y-68684922D01*
X108711005Y-68684924D01*
X108790024Y-68832758D01*
X108838687Y-68993177D01*
X108855117Y-69160000D01*
X108838687Y-69326823D01*
X108790024Y-69487242D01*
X108760498Y-69542481D01*
X108711004Y-69635078D01*
X108604659Y-69764659D01*
X108475078Y-69871004D01*
X108475076Y-69871005D01*
X108327242Y-69950024D01*
X108166823Y-69998687D01*
X108041804Y-70011000D01*
X107958196Y-70011000D01*
X107833177Y-69998687D01*
X107672758Y-69950024D01*
X107524924Y-69871005D01*
X107524922Y-69871004D01*
X107395341Y-69764659D01*
X107288996Y-69635078D01*
X107239502Y-69542481D01*
X107209976Y-69487242D01*
X107161313Y-69326823D01*
X107144883Y-69160000D01*
X107161313Y-68993177D01*
X107209976Y-68832758D01*
X107288995Y-68684924D01*
X107288996Y-68684922D01*
X107395341Y-68555341D01*
X107524922Y-68448996D01*
X107540094Y-68440886D01*
X107672758Y-68369976D01*
X107833177Y-68321313D01*
X107958196Y-68309000D01*
X108041804Y-68309000D01*
X108166823Y-68321313D01*
X108166823Y-68321313D01*
G37*
G36*
X84248228Y-68181703D02*
G01*
X84403100Y-68245853D01*
X84542481Y-68338985D01*
X84661015Y-68457519D01*
X84754147Y-68596900D01*
X84818297Y-68751772D01*
X84851000Y-68916184D01*
X84851000Y-69083816D01*
X84818297Y-69248228D01*
X84754147Y-69403100D01*
X84661015Y-69542481D01*
X84542481Y-69661015D01*
X84403100Y-69754147D01*
X84248228Y-69818297D01*
X84083816Y-69851000D01*
X83916184Y-69851000D01*
X83751772Y-69818297D01*
X83596900Y-69754147D01*
X83457519Y-69661015D01*
X83338985Y-69542481D01*
X83245853Y-69403100D01*
X83181703Y-69248228D01*
X83149000Y-69083816D01*
X83149000Y-68916184D01*
X83181703Y-68751772D01*
X83245853Y-68596900D01*
X83338985Y-68457519D01*
X83457519Y-68338985D01*
X83596900Y-68245853D01*
X83751772Y-68181703D01*
X83916184Y-68149000D01*
X84083816Y-68149000D01*
X84248228Y-68181703D01*
X84248228Y-68181703D01*
G37*
G36*
X130248228Y-68181703D02*
G01*
X130403100Y-68245853D01*
X130542481Y-68338985D01*
X130661015Y-68457519D01*
X130754147Y-68596900D01*
X130818297Y-68751772D01*
X130851000Y-68916184D01*
X130851000Y-69083816D01*
X130818297Y-69248228D01*
X130754147Y-69403100D01*
X130661015Y-69542481D01*
X130542481Y-69661015D01*
X130403100Y-69754147D01*
X130248228Y-69818297D01*
X130083816Y-69851000D01*
X129916184Y-69851000D01*
X129751772Y-69818297D01*
X129596900Y-69754147D01*
X129457519Y-69661015D01*
X129338985Y-69542481D01*
X129245853Y-69403100D01*
X129181703Y-69248228D01*
X129149000Y-69083816D01*
X129149000Y-68916184D01*
X129181703Y-68751772D01*
X129245853Y-68596900D01*
X129338985Y-68457519D01*
X129457519Y-68338985D01*
X129596900Y-68245853D01*
X129751772Y-68181703D01*
X129916184Y-68149000D01*
X130083816Y-68149000D01*
X130248228Y-68181703D01*
X130248228Y-68181703D01*
G37*
G36*
X102720823Y-64939313D02*
G01*
X102881242Y-64987976D01*
X102948361Y-65023852D01*
X103029078Y-65066996D01*
X103158659Y-65173341D01*
X103265004Y-65302922D01*
X103265005Y-65302924D01*
X103344024Y-65450758D01*
X103392687Y-65611177D01*
X103409117Y-65778000D01*
X103392687Y-65944823D01*
X103344024Y-66105242D01*
X103303477Y-66181100D01*
X103265004Y-66253078D01*
X103158659Y-66382659D01*
X103029078Y-66489004D01*
X103029076Y-66489005D01*
X102881242Y-66568024D01*
X102720823Y-66616687D01*
X102595804Y-66629000D01*
X102512196Y-66629000D01*
X102387177Y-66616687D01*
X102226758Y-66568024D01*
X102078924Y-66489005D01*
X102078922Y-66489004D01*
X101949341Y-66382659D01*
X101842996Y-66253078D01*
X101804523Y-66181100D01*
X101763976Y-66105242D01*
X101715313Y-65944823D01*
X101698883Y-65778000D01*
X101715313Y-65611177D01*
X101763976Y-65450758D01*
X101842995Y-65302924D01*
X101842996Y-65302922D01*
X101949341Y-65173341D01*
X102078922Y-65066996D01*
X102159639Y-65023852D01*
X102226758Y-64987976D01*
X102387177Y-64939313D01*
X102512196Y-64927000D01*
X102595804Y-64927000D01*
X102720823Y-64939313D01*
X102720823Y-64939313D01*
G37*
G36*
X92642228Y-64959703D02*
G01*
X92797100Y-65023853D01*
X92936481Y-65116985D01*
X93055015Y-65235519D01*
X93148147Y-65374900D01*
X93212297Y-65529772D01*
X93245000Y-65694184D01*
X93245000Y-65861816D01*
X93212297Y-66026228D01*
X93148147Y-66181100D01*
X93055015Y-66320481D01*
X92936481Y-66439015D01*
X92797100Y-66532147D01*
X92642228Y-66596297D01*
X92477816Y-66629000D01*
X92310184Y-66629000D01*
X92145772Y-66596297D01*
X91990900Y-66532147D01*
X91851519Y-66439015D01*
X91732985Y-66320481D01*
X91639853Y-66181100D01*
X91575703Y-66026228D01*
X91543000Y-65861816D01*
X91543000Y-65694184D01*
X91575703Y-65529772D01*
X91639853Y-65374900D01*
X91732985Y-65235519D01*
X91851519Y-65116985D01*
X91990900Y-65023853D01*
X92145772Y-64959703D01*
X92310184Y-64927000D01*
X92477816Y-64927000D01*
X92642228Y-64959703D01*
X92642228Y-64959703D01*
G37*
G36*
X94050130Y-58993078D02*
G01*
X94127438Y-59008455D01*
X94200261Y-59038620D01*
X94273084Y-59068784D01*
X94404158Y-59156364D01*
X94515635Y-59267841D01*
X94603215Y-59398915D01*
X94663544Y-59544562D01*
X94694299Y-59699176D01*
X94694299Y-59856824D01*
X94663544Y-60011438D01*
X94603215Y-60157085D01*
X94515635Y-60288159D01*
X94404158Y-60399636D01*
X94273084Y-60487216D01*
X94200260Y-60517381D01*
X94127438Y-60547545D01*
X94050130Y-60562923D01*
X93972823Y-60578300D01*
X93815175Y-60578300D01*
X93737868Y-60562923D01*
X93660560Y-60547545D01*
X93587738Y-60517381D01*
X93514914Y-60487216D01*
X93383840Y-60399636D01*
X93272363Y-60288159D01*
X93184783Y-60157085D01*
X93124454Y-60011438D01*
X93093699Y-59856824D01*
X93093699Y-59699176D01*
X93124454Y-59544562D01*
X93184783Y-59398915D01*
X93272363Y-59267841D01*
X93383840Y-59156364D01*
X93514914Y-59068784D01*
X93587737Y-59038620D01*
X93660560Y-59008455D01*
X93737868Y-58993078D01*
X93815175Y-58977700D01*
X93972823Y-58977700D01*
X94050130Y-58993078D01*
X94050130Y-58993078D01*
G37*
G36*
X100550132Y-58993078D02*
G01*
X100627440Y-59008455D01*
X100700263Y-59038620D01*
X100773086Y-59068784D01*
X100904160Y-59156364D01*
X101015637Y-59267841D01*
X101103217Y-59398915D01*
X101163546Y-59544562D01*
X101194301Y-59699176D01*
X101194301Y-59856824D01*
X101163546Y-60011438D01*
X101103217Y-60157085D01*
X101015637Y-60288159D01*
X100904160Y-60399636D01*
X100773086Y-60487216D01*
X100700262Y-60517381D01*
X100627440Y-60547545D01*
X100550132Y-60562923D01*
X100472825Y-60578300D01*
X100315177Y-60578300D01*
X100237870Y-60562923D01*
X100160562Y-60547545D01*
X100087740Y-60517381D01*
X100014916Y-60487216D01*
X99883842Y-60399636D01*
X99772365Y-60288159D01*
X99684785Y-60157085D01*
X99624456Y-60011438D01*
X99593701Y-59856824D01*
X99593701Y-59699176D01*
X99624456Y-59544562D01*
X99684785Y-59398915D01*
X99772365Y-59267841D01*
X99883842Y-59156364D01*
X100014916Y-59068784D01*
X100087739Y-59038620D01*
X100160562Y-59008455D01*
X100237870Y-58993078D01*
X100315177Y-58977700D01*
X100472825Y-58977700D01*
X100550132Y-58993078D01*
X100550132Y-58993078D01*
G37*
G36*
X131951000Y-59951000D02*
G01*
X130049000Y-59951000D01*
X130049000Y-58049000D01*
X131951000Y-58049000D01*
X131951000Y-59951000D01*
X131951000Y-59951000D01*
G37*
G36*
X82951000Y-59951000D02*
G01*
X81049000Y-59951000D01*
X81049000Y-58049000D01*
X82951000Y-58049000D01*
X82951000Y-59951000D01*
X82951000Y-59951000D01*
G37*
G36*
X84817395Y-58085546D02*
G01*
X84990466Y-58157234D01*
X84990467Y-58157235D01*
X85146227Y-58261310D01*
X85278690Y-58393773D01*
X85321284Y-58457520D01*
X85382766Y-58549534D01*
X85454454Y-58722605D01*
X85491000Y-58906333D01*
X85491000Y-59093667D01*
X85454454Y-59277395D01*
X85382766Y-59450466D01*
X85382765Y-59450467D01*
X85278690Y-59606227D01*
X85146227Y-59738690D01*
X85123092Y-59754148D01*
X84990466Y-59842766D01*
X84817395Y-59914454D01*
X84633667Y-59951000D01*
X84446333Y-59951000D01*
X84262605Y-59914454D01*
X84089534Y-59842766D01*
X83956908Y-59754148D01*
X83933773Y-59738690D01*
X83801310Y-59606227D01*
X83697235Y-59450467D01*
X83697234Y-59450466D01*
X83625546Y-59277395D01*
X83589000Y-59093667D01*
X83589000Y-58906333D01*
X83625546Y-58722605D01*
X83697234Y-58549534D01*
X83758716Y-58457520D01*
X83801310Y-58393773D01*
X83933773Y-58261310D01*
X84089533Y-58157235D01*
X84089534Y-58157234D01*
X84262605Y-58085546D01*
X84446333Y-58049000D01*
X84633667Y-58049000D01*
X84817395Y-58085546D01*
X84817395Y-58085546D01*
G37*
G36*
X133817395Y-58085546D02*
G01*
X133990466Y-58157234D01*
X133990467Y-58157235D01*
X134146227Y-58261310D01*
X134278690Y-58393773D01*
X134321284Y-58457520D01*
X134382766Y-58549534D01*
X134454454Y-58722605D01*
X134491000Y-58906333D01*
X134491000Y-59093667D01*
X134454454Y-59277395D01*
X134382766Y-59450466D01*
X134382765Y-59450467D01*
X134278690Y-59606227D01*
X134146227Y-59738690D01*
X134123092Y-59754148D01*
X133990466Y-59842766D01*
X133817395Y-59914454D01*
X133633667Y-59951000D01*
X133446333Y-59951000D01*
X133262605Y-59914454D01*
X133089534Y-59842766D01*
X132956908Y-59754148D01*
X132933773Y-59738690D01*
X132801310Y-59606227D01*
X132697235Y-59450467D01*
X132697234Y-59450466D01*
X132625546Y-59277395D01*
X132589000Y-59093667D01*
X132589000Y-58906333D01*
X132625546Y-58722605D01*
X132697234Y-58549534D01*
X132758716Y-58457520D01*
X132801310Y-58393773D01*
X132933773Y-58261310D01*
X133089533Y-58157235D01*
X133089534Y-58157234D01*
X133262605Y-58085546D01*
X133446333Y-58049000D01*
X133633667Y-58049000D01*
X133817395Y-58085546D01*
X133817395Y-58085546D01*
G37*
G36*
X108248228Y-58181703D02*
G01*
X108403100Y-58245853D01*
X108542481Y-58338985D01*
X108661015Y-58457519D01*
X108754147Y-58596900D01*
X108818297Y-58751772D01*
X108851000Y-58916184D01*
X108851000Y-59083816D01*
X108818297Y-59248228D01*
X108754147Y-59403100D01*
X108661015Y-59542481D01*
X108542481Y-59661015D01*
X108403100Y-59754147D01*
X108248228Y-59818297D01*
X108083816Y-59851000D01*
X107916184Y-59851000D01*
X107751772Y-59818297D01*
X107596900Y-59754147D01*
X107457519Y-59661015D01*
X107338985Y-59542481D01*
X107245853Y-59403100D01*
X107181703Y-59248228D01*
X107149000Y-59083816D01*
X107149000Y-58916184D01*
X107181703Y-58751772D01*
X107245853Y-58596900D01*
X107338985Y-58457519D01*
X107457519Y-58338985D01*
X107596900Y-58245853D01*
X107751772Y-58181703D01*
X107916184Y-58149000D01*
X108083816Y-58149000D01*
X108248228Y-58181703D01*
X108248228Y-58181703D01*
G37*
G36*
X94694299Y-56078299D02*
G01*
X93093699Y-56078299D01*
X93093699Y-54477699D01*
X94694299Y-54477699D01*
X94694299Y-56078299D01*
X94694299Y-56078299D01*
G37*
G36*
X100550132Y-54493077D02*
G01*
X100627440Y-54508454D01*
X100700263Y-54538619D01*
X100773086Y-54568783D01*
X100904160Y-54656363D01*
X101015637Y-54767840D01*
X101103217Y-54898914D01*
X101163546Y-55044561D01*
X101194301Y-55199175D01*
X101194301Y-55356823D01*
X101163546Y-55511437D01*
X101103217Y-55657084D01*
X101015637Y-55788158D01*
X100904160Y-55899635D01*
X100773086Y-55987215D01*
X100700263Y-56017379D01*
X100627440Y-56047544D01*
X100550132Y-56062922D01*
X100472825Y-56078299D01*
X100315177Y-56078299D01*
X100237870Y-56062922D01*
X100160562Y-56047544D01*
X100087739Y-56017379D01*
X100014916Y-55987215D01*
X99883842Y-55899635D01*
X99772365Y-55788158D01*
X99684785Y-55657084D01*
X99624456Y-55511437D01*
X99593701Y-55356823D01*
X99593701Y-55199175D01*
X99624456Y-55044561D01*
X99684785Y-54898914D01*
X99772365Y-54767840D01*
X99883842Y-54656363D01*
X100014916Y-54568783D01*
X100087739Y-54538619D01*
X100160562Y-54508454D01*
X100237870Y-54493077D01*
X100315177Y-54477699D01*
X100472825Y-54477699D01*
X100550132Y-54493077D01*
X100550132Y-54493077D01*
G37*
G36*
X106957395Y-51473046D02*
G01*
X107130466Y-51544734D01*
X107130467Y-51544735D01*
X107286227Y-51648810D01*
X107418690Y-51781273D01*
X107418691Y-51781275D01*
X107522766Y-51937034D01*
X107594454Y-52110105D01*
X107631000Y-52293833D01*
X107631000Y-52481167D01*
X107594454Y-52664895D01*
X107522766Y-52837966D01*
X107522765Y-52837967D01*
X107418690Y-52993727D01*
X107286227Y-53126190D01*
X107207818Y-53178581D01*
X107130466Y-53230266D01*
X106957395Y-53301954D01*
X106773667Y-53338500D01*
X106586333Y-53338500D01*
X106402605Y-53301954D01*
X106229534Y-53230266D01*
X106152182Y-53178581D01*
X106073773Y-53126190D01*
X105941310Y-52993727D01*
X105837235Y-52837967D01*
X105837234Y-52837966D01*
X105765546Y-52664895D01*
X105729000Y-52481167D01*
X105729000Y-52293833D01*
X105765546Y-52110105D01*
X105837234Y-51937034D01*
X105941309Y-51781275D01*
X105941310Y-51781273D01*
X106073773Y-51648810D01*
X106229533Y-51544735D01*
X106229534Y-51544734D01*
X106402605Y-51473046D01*
X106586333Y-51436500D01*
X106773667Y-51436500D01*
X106957395Y-51473046D01*
X106957395Y-51473046D01*
G37*
G36*
X110171000Y-53338500D02*
G01*
X108269000Y-53338500D01*
X108269000Y-51436500D01*
X110171000Y-51436500D01*
X110171000Y-53338500D01*
X110171000Y-53338500D01*
G37*
G36*
X108525331Y-40268211D02*
G01*
X108853092Y-40403974D01*
X109148070Y-40601072D01*
X109398928Y-40851930D01*
X109596026Y-41146908D01*
X109731789Y-41474669D01*
X109801000Y-41822616D01*
X109801000Y-42177384D01*
X109731789Y-42525331D01*
X109596026Y-42853092D01*
X109398928Y-43148070D01*
X109148070Y-43398928D01*
X108853092Y-43596026D01*
X108525331Y-43731789D01*
X108177384Y-43801000D01*
X107822616Y-43801000D01*
X107474669Y-43731789D01*
X107146908Y-43596026D01*
X106851930Y-43398928D01*
X106601072Y-43148070D01*
X106403974Y-42853092D01*
X106268211Y-42525331D01*
X106199000Y-42177384D01*
X106199000Y-41822616D01*
X106268211Y-41474669D01*
X106403974Y-41146908D01*
X106601072Y-40851930D01*
X106851930Y-40601072D01*
X107146908Y-40403974D01*
X107474669Y-40268211D01*
X107822616Y-40199000D01*
X108177384Y-40199000D01*
X108525331Y-40268211D01*
X108525331Y-40268211D01*
G37*
M02*
